%FSLAX46Y46*%
G04 Gerber Fmt 4.6, Leading zero omitted, Abs format (unit mm)*
G04 Created by KiCad (PCBNEW (2014-jul-16 BZR unknown)-product) date Mon 18 Aug 2014 12:37:27 PM MDT*
%MOMM*%
G01*
G04 APERTURE LIST*
%ADD10C,0.100000*%
%ADD11R,1.900000X2.400000*%
%ADD12R,1.200000X1.200000*%
%ADD13R,0.700000X1.200000*%
%ADD14R,1.200000X0.700000*%
%ADD15R,1.727200X1.727200*%
%ADD16O,1.727200X1.727200*%
%ADD17R,1.198880X1.198880*%
%ADD18R,1.727200X2.032000*%
%ADD19O,1.727200X2.032000*%
%ADD20R,2.500000X1.000000*%
%ADD21R,6.000000X2.500000*%
%ADD22R,0.635000X1.143000*%
%ADD23R,1.143000X0.635000*%
%ADD24R,0.508000X0.356000*%
%ADD25R,0.812800X1.778000*%
%ADD26R,2.032000X3.048000*%
%ADD27C,2.499360*%
%ADD28R,1.750000X1.500000*%
%ADD29C,0.330200*%
%ADD30C,0.400000*%
%ADD31R,1.025000X0.280000*%
%ADD32C,0.350000*%
%ADD33R,0.350000X0.675000*%
G04 APERTURE END LIST*
D10*
G36*
X156610821Y-113741278D02*
X155691242Y-112821699D01*
X155939097Y-112573844D01*
X156858676Y-113493423D01*
X156610821Y-113741278D01*
X156610821Y-113741278D01*
G37*
G36*
X156964643Y-113387456D02*
X156045064Y-112467877D01*
X156292919Y-112220022D01*
X157212498Y-113139601D01*
X156964643Y-113387456D01*
X156964643Y-113387456D01*
G37*
G36*
X157318465Y-113033634D02*
X156398886Y-112114055D01*
X156646741Y-111866200D01*
X157566320Y-112785779D01*
X157318465Y-113033634D01*
X157318465Y-113033634D01*
G37*
G36*
X157672287Y-112679812D02*
X156752708Y-111760233D01*
X157000563Y-111512378D01*
X157920142Y-112431957D01*
X157672287Y-112679812D01*
X157672287Y-112679812D01*
G37*
G36*
X158026109Y-112325990D02*
X157106530Y-111406411D01*
X157354385Y-111158556D01*
X158273964Y-112078135D01*
X158026109Y-112325990D01*
X158026109Y-112325990D01*
G37*
G36*
X155551150Y-114800949D02*
X154631571Y-113881370D01*
X154879426Y-113633515D01*
X155799005Y-114553094D01*
X155551150Y-114800949D01*
X155551150Y-114800949D01*
G37*
G36*
X155903176Y-114448923D02*
X154983597Y-113529344D01*
X155231452Y-113281489D01*
X156151031Y-114201068D01*
X155903176Y-114448923D01*
X155903176Y-114448923D01*
G37*
G36*
X156256998Y-114095100D02*
X155337419Y-113175521D01*
X155585274Y-112927666D01*
X156504853Y-113847245D01*
X156256998Y-114095100D01*
X156256998Y-114095100D01*
G37*
G36*
X160181370Y-106668429D02*
X159933515Y-106420574D01*
X160853094Y-105500995D01*
X161100949Y-105748850D01*
X160181370Y-106668429D01*
X160181370Y-106668429D01*
G37*
G36*
X159829344Y-106316403D02*
X159581489Y-106068548D01*
X160501068Y-105148969D01*
X160748923Y-105396824D01*
X159829344Y-106316403D01*
X159829344Y-106316403D01*
G37*
G36*
X159475521Y-105962581D02*
X159227666Y-105714726D01*
X160147245Y-104795147D01*
X160395100Y-105043002D01*
X159475521Y-105962581D01*
X159475521Y-105962581D01*
G37*
G36*
X159121699Y-105608758D02*
X158873844Y-105360903D01*
X159793423Y-104441324D01*
X160041278Y-104689179D01*
X159121699Y-105608758D01*
X159121699Y-105608758D01*
G37*
G36*
X158767877Y-105254936D02*
X158520022Y-105007081D01*
X159439601Y-104087502D01*
X159687456Y-104335357D01*
X158767877Y-105254936D01*
X158767877Y-105254936D01*
G37*
G36*
X158414055Y-104901114D02*
X158166200Y-104653259D01*
X159085779Y-103733680D01*
X159333634Y-103981535D01*
X158414055Y-104901114D01*
X158414055Y-104901114D01*
G37*
G36*
X158060233Y-104547292D02*
X157812378Y-104299437D01*
X158731957Y-103379858D01*
X158979812Y-103627713D01*
X158060233Y-104547292D01*
X158060233Y-104547292D01*
G37*
G36*
X157706411Y-104193470D02*
X157458556Y-103945615D01*
X158378135Y-103026036D01*
X158625990Y-103273891D01*
X157706411Y-104193470D01*
X157706411Y-104193470D01*
G37*
G36*
X152720574Y-101366485D02*
X151800995Y-100446906D01*
X152048850Y-100199051D01*
X152968429Y-101118630D01*
X152720574Y-101366485D01*
X152720574Y-101366485D01*
G37*
G36*
X152368548Y-101718511D02*
X151448969Y-100798932D01*
X151696824Y-100551077D01*
X152616403Y-101470656D01*
X152368548Y-101718511D01*
X152368548Y-101718511D01*
G37*
G36*
X152014726Y-102072334D02*
X151095147Y-101152755D01*
X151343002Y-100904900D01*
X152262581Y-101824479D01*
X152014726Y-102072334D01*
X152014726Y-102072334D01*
G37*
G36*
X151660903Y-102426156D02*
X150741324Y-101506577D01*
X150989179Y-101258722D01*
X151908758Y-102178301D01*
X151660903Y-102426156D01*
X151660903Y-102426156D01*
G37*
G36*
X151307081Y-102779978D02*
X150387502Y-101860399D01*
X150635357Y-101612544D01*
X151554936Y-102532123D01*
X151307081Y-102779978D01*
X151307081Y-102779978D01*
G37*
G36*
X150953259Y-103133800D02*
X150033680Y-102214221D01*
X150281535Y-101966366D01*
X151201114Y-102885945D01*
X150953259Y-103133800D01*
X150953259Y-103133800D01*
G37*
G36*
X150599437Y-103487622D02*
X149679858Y-102568043D01*
X149927713Y-102320188D01*
X150847292Y-103239767D01*
X150599437Y-103487622D01*
X150599437Y-103487622D01*
G37*
G36*
X150245615Y-103841444D02*
X149326036Y-102921865D01*
X149573891Y-102674010D01*
X150493470Y-103593589D01*
X150245615Y-103841444D01*
X150245615Y-103841444D01*
G37*
G36*
X146746906Y-109499005D02*
X146499051Y-109251150D01*
X147418630Y-108331571D01*
X147666485Y-108579426D01*
X146746906Y-109499005D01*
X146746906Y-109499005D01*
G37*
G36*
X147098932Y-109851031D02*
X146851077Y-109603176D01*
X147770656Y-108683597D01*
X148018511Y-108931452D01*
X147098932Y-109851031D01*
X147098932Y-109851031D01*
G37*
G36*
X147452755Y-110204853D02*
X147204900Y-109956998D01*
X148124479Y-109037419D01*
X148372334Y-109285274D01*
X147452755Y-110204853D01*
X147452755Y-110204853D01*
G37*
G36*
X147806577Y-110558676D02*
X147558722Y-110310821D01*
X148478301Y-109391242D01*
X148726156Y-109639097D01*
X147806577Y-110558676D01*
X147806577Y-110558676D01*
G37*
G36*
X148160399Y-110912498D02*
X147912544Y-110664643D01*
X148832123Y-109745064D01*
X149079978Y-109992919D01*
X148160399Y-110912498D01*
X148160399Y-110912498D01*
G37*
G36*
X148514221Y-111266320D02*
X148266366Y-111018465D01*
X149185945Y-110098886D01*
X149433800Y-110346741D01*
X148514221Y-111266320D01*
X148514221Y-111266320D01*
G37*
G36*
X148868043Y-111620142D02*
X148620188Y-111372287D01*
X149539767Y-110452708D01*
X149787622Y-110700563D01*
X148868043Y-111620142D01*
X148868043Y-111620142D01*
G37*
G36*
X149221865Y-111973964D02*
X148974010Y-111726109D01*
X149893589Y-110806530D01*
X150141444Y-111054385D01*
X149221865Y-111973964D01*
X149221865Y-111973964D01*
G37*
G36*
X158378135Y-111973964D02*
X157458556Y-111054385D01*
X157706411Y-110806530D01*
X158625990Y-111726109D01*
X158378135Y-111973964D01*
X158378135Y-111973964D01*
G37*
G36*
X158731957Y-111620142D02*
X157812378Y-110700563D01*
X158060233Y-110452708D01*
X158979812Y-111372287D01*
X158731957Y-111620142D01*
X158731957Y-111620142D01*
G37*
G36*
X159085779Y-111266320D02*
X158166200Y-110346741D01*
X158414055Y-110098886D01*
X159333634Y-111018465D01*
X159085779Y-111266320D01*
X159085779Y-111266320D01*
G37*
G36*
X157354385Y-103841444D02*
X157106530Y-103593589D01*
X158026109Y-102674010D01*
X158273964Y-102921865D01*
X157354385Y-103841444D01*
X157354385Y-103841444D01*
G37*
G36*
X157000563Y-103487622D02*
X156752708Y-103239767D01*
X157672287Y-102320188D01*
X157920142Y-102568043D01*
X157000563Y-103487622D01*
X157000563Y-103487622D01*
G37*
G36*
X156646741Y-103133800D02*
X156398886Y-102885945D01*
X157318465Y-101966366D01*
X157566320Y-102214221D01*
X156646741Y-103133800D01*
X156646741Y-103133800D01*
G37*
G36*
X149893589Y-104193470D02*
X148974010Y-103273891D01*
X149221865Y-103026036D01*
X150141444Y-103945615D01*
X149893589Y-104193470D01*
X149893589Y-104193470D01*
G37*
G36*
X149539767Y-104547292D02*
X148620188Y-103627713D01*
X148868043Y-103379858D01*
X149787622Y-104299437D01*
X149539767Y-104547292D01*
X149539767Y-104547292D01*
G37*
G36*
X149185945Y-104901114D02*
X148266366Y-103981535D01*
X148514221Y-103733680D01*
X149433800Y-104653259D01*
X149185945Y-104901114D01*
X149185945Y-104901114D01*
G37*
G36*
X149573891Y-112325990D02*
X149326036Y-112078135D01*
X150245615Y-111158556D01*
X150493470Y-111406411D01*
X149573891Y-112325990D01*
X149573891Y-112325990D01*
G37*
G36*
X149927713Y-112679812D02*
X149679858Y-112431957D01*
X150599437Y-111512378D01*
X150847292Y-111760233D01*
X149927713Y-112679812D01*
X149927713Y-112679812D01*
G37*
G36*
X150281535Y-113033634D02*
X150033680Y-112785779D01*
X150953259Y-111866200D01*
X151201114Y-112114055D01*
X150281535Y-113033634D01*
X150281535Y-113033634D01*
G37*
G36*
X159439601Y-110912498D02*
X158520022Y-109992919D01*
X158767877Y-109745064D01*
X159687456Y-110664643D01*
X159439601Y-110912498D01*
X159439601Y-110912498D01*
G37*
G36*
X159793423Y-110558676D02*
X158873844Y-109639097D01*
X159121699Y-109391242D01*
X160041278Y-110310821D01*
X159793423Y-110558676D01*
X159793423Y-110558676D01*
G37*
G36*
X160147245Y-110204853D02*
X159227666Y-109285274D01*
X159475521Y-109037419D01*
X160395100Y-109956998D01*
X160147245Y-110204853D01*
X160147245Y-110204853D01*
G37*
G36*
X160501068Y-109851031D02*
X159581489Y-108931452D01*
X159829344Y-108683597D01*
X160748923Y-109603176D01*
X160501068Y-109851031D01*
X160501068Y-109851031D01*
G37*
G36*
X160853094Y-109499005D02*
X159933515Y-108579426D01*
X160181370Y-108331571D01*
X161100949Y-109251150D01*
X160853094Y-109499005D01*
X160853094Y-109499005D01*
G37*
G36*
X156292919Y-102779978D02*
X156045064Y-102532123D01*
X156964643Y-101612544D01*
X157212498Y-101860399D01*
X156292919Y-102779978D01*
X156292919Y-102779978D01*
G37*
G36*
X155939097Y-102426156D02*
X155691242Y-102178301D01*
X156610821Y-101258722D01*
X156858676Y-101506577D01*
X155939097Y-102426156D01*
X155939097Y-102426156D01*
G37*
G36*
X155585274Y-102072334D02*
X155337419Y-101824479D01*
X156256998Y-100904900D01*
X156504853Y-101152755D01*
X155585274Y-102072334D01*
X155585274Y-102072334D01*
G37*
G36*
X155231452Y-101718511D02*
X154983597Y-101470656D01*
X155903176Y-100551077D01*
X156151031Y-100798932D01*
X155231452Y-101718511D01*
X155231452Y-101718511D01*
G37*
G36*
X154879426Y-101366485D02*
X154631571Y-101118630D01*
X155551150Y-100199051D01*
X155799005Y-100446906D01*
X154879426Y-101366485D01*
X154879426Y-101366485D01*
G37*
G36*
X148832123Y-105254936D02*
X147912544Y-104335357D01*
X148160399Y-104087502D01*
X149079978Y-105007081D01*
X148832123Y-105254936D01*
X148832123Y-105254936D01*
G37*
G36*
X148478301Y-105608758D02*
X147558722Y-104689179D01*
X147806577Y-104441324D01*
X148726156Y-105360903D01*
X148478301Y-105608758D01*
X148478301Y-105608758D01*
G37*
G36*
X148124479Y-105962581D02*
X147204900Y-105043002D01*
X147452755Y-104795147D01*
X148372334Y-105714726D01*
X148124479Y-105962581D01*
X148124479Y-105962581D01*
G37*
G36*
X147770656Y-106316403D02*
X146851077Y-105396824D01*
X147098932Y-105148969D01*
X148018511Y-106068548D01*
X147770656Y-106316403D01*
X147770656Y-106316403D01*
G37*
G36*
X147418630Y-106668429D02*
X146499051Y-105748850D01*
X146746906Y-105500995D01*
X147666485Y-106420574D01*
X147418630Y-106668429D01*
X147418630Y-106668429D01*
G37*
G36*
X150635357Y-113387456D02*
X150387502Y-113139601D01*
X151307081Y-112220022D01*
X151554936Y-112467877D01*
X150635357Y-113387456D01*
X150635357Y-113387456D01*
G37*
G36*
X150989179Y-113741278D02*
X150741324Y-113493423D01*
X151660903Y-112573844D01*
X151908758Y-112821699D01*
X150989179Y-113741278D01*
X150989179Y-113741278D01*
G37*
G36*
X151343002Y-114095100D02*
X151095147Y-113847245D01*
X152014726Y-112927666D01*
X152262581Y-113175521D01*
X151343002Y-114095100D01*
X151343002Y-114095100D01*
G37*
G36*
X151696824Y-114448923D02*
X151448969Y-114201068D01*
X152368548Y-113281489D01*
X152616403Y-113529344D01*
X151696824Y-114448923D01*
X151696824Y-114448923D01*
G37*
G36*
X152048850Y-114800949D02*
X151800995Y-114553094D01*
X152720574Y-113633515D01*
X152968429Y-113881370D01*
X152048850Y-114800949D01*
X152048850Y-114800949D01*
G37*
D11*
X156700000Y-74950000D03*
X160300000Y-74950000D03*
X163900000Y-74950000D03*
X156700000Y-70650000D03*
X160300000Y-70650000D03*
X163900000Y-70650000D03*
D12*
X167550000Y-78650000D03*
X167550000Y-66950000D03*
X153050000Y-66950000D03*
X153050000Y-78650000D03*
D13*
X154900000Y-78650000D03*
X156100000Y-78650000D03*
X157300000Y-78650000D03*
X158500000Y-78650000D03*
X159700000Y-78650000D03*
X160900000Y-78650000D03*
X162100000Y-78650000D03*
X163300000Y-78650000D03*
X164500000Y-78650000D03*
X165700000Y-78650000D03*
D14*
X167550000Y-77000000D03*
X167550000Y-75800000D03*
X167550000Y-74600000D03*
X167550000Y-73400000D03*
X167550000Y-72200000D03*
X167550000Y-71000000D03*
X167550000Y-69800000D03*
X167550000Y-68600000D03*
D13*
X165700000Y-66950000D03*
X164500000Y-66950000D03*
X163300000Y-66950000D03*
X162100000Y-66950000D03*
X160900000Y-66950000D03*
X159700000Y-66950000D03*
X158500000Y-66950000D03*
X157300000Y-66950000D03*
X156100000Y-66950000D03*
X154900000Y-66950000D03*
D14*
X153050000Y-68600000D03*
X153050000Y-69800000D03*
X153050000Y-71000000D03*
X153050000Y-72200000D03*
X153050000Y-73400000D03*
X153050000Y-74600000D03*
X153050000Y-75800000D03*
X153050000Y-77000000D03*
D15*
X131130000Y-93270000D03*
D16*
X133670000Y-93270000D03*
X131130000Y-95810000D03*
X133670000Y-95810000D03*
X131130000Y-98350000D03*
X133670000Y-98350000D03*
X131130000Y-100890000D03*
X133670000Y-100890000D03*
X131130000Y-103430000D03*
X133670000Y-103430000D03*
X131130000Y-105970000D03*
X133670000Y-105970000D03*
X131130000Y-108510000D03*
X133670000Y-108510000D03*
X131130000Y-111050000D03*
X133670000Y-111050000D03*
X131130000Y-113590000D03*
X133670000Y-113590000D03*
X131130000Y-116130000D03*
X133670000Y-116130000D03*
D15*
X171630000Y-92670000D03*
D16*
X174170000Y-92670000D03*
X171630000Y-95210000D03*
X174170000Y-95210000D03*
X171630000Y-97750000D03*
X174170000Y-97750000D03*
X171630000Y-100290000D03*
X174170000Y-100290000D03*
X171630000Y-102830000D03*
X174170000Y-102830000D03*
X171630000Y-105370000D03*
X174170000Y-105370000D03*
X171630000Y-107910000D03*
X174170000Y-107910000D03*
X171630000Y-110450000D03*
X174170000Y-110450000D03*
X171630000Y-112990000D03*
X174170000Y-112990000D03*
X171630000Y-115530000D03*
X174170000Y-115530000D03*
D17*
X152800000Y-81450980D03*
X152800000Y-83549020D03*
D18*
X143550000Y-121600000D03*
D19*
X141010000Y-121600000D03*
X138470000Y-121600000D03*
X135930000Y-121600000D03*
X133390000Y-121600000D03*
X130850000Y-121600000D03*
D20*
X144600000Y-88530000D03*
X144600000Y-91070000D03*
D21*
X138600000Y-89800000D03*
D22*
X164238000Y-99500000D03*
X165762000Y-99500000D03*
X156238000Y-89800000D03*
X157762000Y-89800000D03*
X166338000Y-88400000D03*
X167862000Y-88400000D03*
X166438000Y-83000000D03*
X167962000Y-83000000D03*
X166438000Y-85800000D03*
X167962000Y-85800000D03*
X168138000Y-119400000D03*
X169662000Y-119400000D03*
X149238000Y-117500000D03*
X150762000Y-117500000D03*
X152638000Y-117500000D03*
X154162000Y-117500000D03*
X159638000Y-93700000D03*
X161162000Y-93700000D03*
X159538000Y-95500000D03*
X161062000Y-95500000D03*
X149038000Y-121300000D03*
X150562000Y-121300000D03*
X137938000Y-78400000D03*
X139462000Y-78400000D03*
X137938000Y-80350000D03*
X139462000Y-80350000D03*
X142762000Y-98500000D03*
X141238000Y-98500000D03*
X147438000Y-81000000D03*
X148962000Y-81000000D03*
D23*
X147800000Y-95062000D03*
X147800000Y-93538000D03*
D22*
X137938000Y-82150000D03*
X139462000Y-82150000D03*
D23*
X152700000Y-93638000D03*
X152700000Y-95162000D03*
D22*
X155038000Y-95800000D03*
X156562000Y-95800000D03*
X142338000Y-111700000D03*
X143862000Y-111700000D03*
X157738000Y-115800000D03*
X159262000Y-115800000D03*
D23*
X162800000Y-113138000D03*
X162800000Y-114662000D03*
D22*
X141238000Y-100200000D03*
X142762000Y-100200000D03*
X157738000Y-117500000D03*
X159262000Y-117500000D03*
X142338000Y-113300000D03*
X143862000Y-113300000D03*
X154938000Y-94100000D03*
X156462000Y-94100000D03*
X142338000Y-114900000D03*
X143862000Y-114900000D03*
X141738000Y-83700000D03*
X143262000Y-83700000D03*
X147438000Y-79100000D03*
X148962000Y-79100000D03*
X160038000Y-97800000D03*
X161562000Y-97800000D03*
D23*
X147800000Y-87762000D03*
X147800000Y-86238000D03*
X147800000Y-91162000D03*
X147800000Y-89638000D03*
D22*
X139262000Y-98600000D03*
X137738000Y-98600000D03*
X146962000Y-98600000D03*
X145438000Y-98600000D03*
D17*
X170250980Y-85650000D03*
X172349020Y-85650000D03*
X170250980Y-83000000D03*
X172349020Y-83000000D03*
X170300980Y-88400000D03*
X172399020Y-88400000D03*
D24*
X163995000Y-88400000D03*
X162700000Y-87900000D03*
X162700000Y-88900000D03*
X164095000Y-83100000D03*
X162800000Y-82600000D03*
X162800000Y-83600000D03*
X163995000Y-85700000D03*
X162700000Y-85200000D03*
X162700000Y-86200000D03*
D25*
X55250000Y-22050000D03*
X53980000Y-22050000D03*
X52710000Y-22050000D03*
D26*
X60330000Y-25225000D03*
X50170000Y-25225000D03*
D25*
X56520000Y-22050000D03*
X57790000Y-22050000D03*
D27*
X-6149340Y0D03*
X6149340Y0D03*
D28*
X143000000Y-79250000D03*
D29*
X142500000Y-78850000D03*
X143500000Y-78850000D03*
X143500000Y-79650000D03*
X142500000Y-79650000D03*
D30*
X143000000Y-79250000D03*
D31*
X141612500Y-78950000D03*
X141612500Y-79575000D03*
X144387500Y-79575000D03*
X144387500Y-78925000D03*
D32*
X142150000Y-80520000D03*
D33*
X142150000Y-80850000D03*
M02*
