%FSLAX46Y46*%
G04 Gerber Fmt 4.6, Leading zero omitted, Abs format (unit mm)*
G04 Created by KiCad (PCBNEW (2014-jul-16 BZR unknown)-product) date Tue 30 Sep 2014 11:17:44 AM MDT*
%MOMM*%
G01*
G04 APERTURE LIST*
%ADD10C,0.100000*%
%ADD11C,0.127000*%
%ADD12C,0.254000*%
%ADD13C,0.203200*%
%ADD14C,0.149860*%
%ADD15C,0.066040*%
%ADD16C,0.101600*%
%ADD17C,0.050800*%
%ADD18C,0.119380*%
%ADD19C,0.150000*%
%ADD20C,0.698500*%
%ADD21C,0.114300*%
G04 APERTURE END LIST*
D10*
D11*
X143636667Y-76737262D02*
X143425000Y-76434881D01*
X143273809Y-76737262D02*
X143273809Y-76102262D01*
X143515714Y-76102262D01*
X143576190Y-76132500D01*
X143606429Y-76162738D01*
X143636667Y-76223214D01*
X143636667Y-76313929D01*
X143606429Y-76374405D01*
X143576190Y-76404643D01*
X143515714Y-76434881D01*
X143273809Y-76434881D01*
X143848333Y-76102262D02*
X144271667Y-76737262D01*
X144271667Y-76102262D02*
X143848333Y-76737262D01*
X144513571Y-76737262D02*
X144513571Y-76102262D01*
X144664762Y-76102262D01*
X144755476Y-76132500D01*
X144815952Y-76192976D01*
X144846191Y-76253452D01*
X144876429Y-76374405D01*
X144876429Y-76465119D01*
X144846191Y-76586071D01*
X144815952Y-76646548D01*
X144755476Y-76707024D01*
X144664762Y-76737262D01*
X144513571Y-76737262D01*
X140758690Y-76092262D02*
X141121547Y-76092262D01*
X140940119Y-76727262D02*
X140940119Y-76092262D01*
X141272738Y-76092262D02*
X141696072Y-76727262D01*
X141696072Y-76092262D02*
X141272738Y-76727262D01*
X141937976Y-76727262D02*
X141937976Y-76092262D01*
X142089167Y-76092262D01*
X142179881Y-76122500D01*
X142240357Y-76182976D01*
X142270596Y-76243452D01*
X142300834Y-76364405D01*
X142300834Y-76455119D01*
X142270596Y-76576071D01*
X142240357Y-76636548D01*
X142179881Y-76697024D01*
X142089167Y-76727262D01*
X141937976Y-76727262D01*
X138223571Y-76092262D02*
X138586428Y-76092262D01*
X138405000Y-76727262D02*
X138405000Y-76092262D01*
X139160953Y-76666786D02*
X139130715Y-76697024D01*
X139040000Y-76727262D01*
X138979524Y-76727262D01*
X138888810Y-76697024D01*
X138828334Y-76636548D01*
X138798095Y-76576071D01*
X138767857Y-76455119D01*
X138767857Y-76364405D01*
X138798095Y-76243452D01*
X138828334Y-76182976D01*
X138888810Y-76122500D01*
X138979524Y-76092262D01*
X139040000Y-76092262D01*
X139130715Y-76122500D01*
X139160953Y-76152738D01*
X139433095Y-76727262D02*
X139433095Y-76092262D01*
X139795953Y-76727262D02*
X139523810Y-76364405D01*
X139795953Y-76092262D02*
X139433095Y-76455119D01*
X135543333Y-76082262D02*
X135906190Y-76082262D01*
X135724762Y-76717262D02*
X135724762Y-76082262D01*
X136117857Y-76717262D02*
X136117857Y-76082262D01*
X136329524Y-76535833D01*
X136541191Y-76082262D01*
X136541191Y-76717262D01*
X136813333Y-76687024D02*
X136904048Y-76717262D01*
X137055238Y-76717262D01*
X137115714Y-76687024D01*
X137145952Y-76656786D01*
X137176191Y-76596310D01*
X137176191Y-76535833D01*
X137145952Y-76475357D01*
X137115714Y-76445119D01*
X137055238Y-76414881D01*
X136934286Y-76384643D01*
X136873810Y-76354405D01*
X136843571Y-76324167D01*
X136813333Y-76263690D01*
X136813333Y-76203214D01*
X136843571Y-76142738D01*
X136873810Y-76112500D01*
X136934286Y-76082262D01*
X137085476Y-76082262D01*
X137176191Y-76112500D01*
X133159881Y-76092262D02*
X133522738Y-76092262D01*
X133341310Y-76727262D02*
X133341310Y-76092262D01*
X133734405Y-76727262D02*
X133734405Y-76092262D01*
X133885596Y-76092262D01*
X133976310Y-76122500D01*
X134036786Y-76182976D01*
X134067025Y-76243452D01*
X134097263Y-76364405D01*
X134097263Y-76455119D01*
X134067025Y-76576071D01*
X134036786Y-76636548D01*
X133976310Y-76697024D01*
X133885596Y-76727262D01*
X133734405Y-76727262D01*
X134369405Y-76727262D02*
X134369405Y-76092262D01*
X130428452Y-76132262D02*
X130791309Y-76132262D01*
X130609881Y-76767262D02*
X130609881Y-76132262D01*
X131002976Y-76767262D02*
X131002976Y-76132262D01*
X131154167Y-76132262D01*
X131244881Y-76162500D01*
X131305357Y-76222976D01*
X131335596Y-76283452D01*
X131365834Y-76404405D01*
X131365834Y-76495119D01*
X131335596Y-76616071D01*
X131305357Y-76676548D01*
X131244881Y-76737024D01*
X131154167Y-76767262D01*
X131002976Y-76767262D01*
X131758929Y-76132262D02*
X131879881Y-76132262D01*
X131940357Y-76162500D01*
X132000834Y-76222976D01*
X132031072Y-76343929D01*
X132031072Y-76555595D01*
X132000834Y-76676548D01*
X131940357Y-76737024D01*
X131879881Y-76767262D01*
X131758929Y-76767262D01*
X131698453Y-76737024D01*
X131637976Y-76676548D01*
X131607738Y-76555595D01*
X131607738Y-76343929D01*
X131637976Y-76222976D01*
X131698453Y-76162500D01*
X131758929Y-76132262D01*
X164001572Y-121194714D02*
X163747572Y-120831857D01*
X163566144Y-121194714D02*
X163566144Y-120432714D01*
X163856429Y-120432714D01*
X163929001Y-120469000D01*
X163965286Y-120505286D01*
X164001572Y-120577857D01*
X164001572Y-120686714D01*
X163965286Y-120759286D01*
X163929001Y-120795571D01*
X163856429Y-120831857D01*
X163566144Y-120831857D01*
X164618429Y-121158429D02*
X164545858Y-121194714D01*
X164400715Y-121194714D01*
X164328144Y-121158429D01*
X164291858Y-121085857D01*
X164291858Y-120795571D01*
X164328144Y-120723000D01*
X164400715Y-120686714D01*
X164545858Y-120686714D01*
X164618429Y-120723000D01*
X164654715Y-120795571D01*
X164654715Y-120868143D01*
X164291858Y-120940714D01*
X164908715Y-120686714D02*
X165090144Y-121194714D01*
X165271572Y-120686714D01*
X166541571Y-121194714D02*
X166106143Y-121194714D01*
X166323857Y-121194714D02*
X166323857Y-120432714D01*
X166251286Y-120541571D01*
X166178714Y-120614143D01*
X166106143Y-120650429D01*
X166868143Y-121122143D02*
X166904428Y-121158429D01*
X166868143Y-121194714D01*
X166831857Y-121158429D01*
X166868143Y-121122143D01*
X166868143Y-121194714D01*
X167630142Y-121194714D02*
X167194714Y-121194714D01*
X167412428Y-121194714D02*
X167412428Y-120432714D01*
X167339857Y-120541571D01*
X167267285Y-120614143D01*
X167194714Y-120650429D01*
X135440857Y-121344714D02*
X135440857Y-120582714D01*
X135622285Y-120582714D01*
X135731142Y-120619000D01*
X135803714Y-120691571D01*
X135839999Y-120764143D01*
X135876285Y-120909286D01*
X135876285Y-121018143D01*
X135839999Y-121163286D01*
X135803714Y-121235857D01*
X135731142Y-121308429D01*
X135622285Y-121344714D01*
X135440857Y-121344714D01*
X136529428Y-121344714D02*
X136529428Y-120945571D01*
X136493142Y-120873000D01*
X136420571Y-120836714D01*
X136275428Y-120836714D01*
X136202857Y-120873000D01*
X136529428Y-121308429D02*
X136456857Y-121344714D01*
X136275428Y-121344714D01*
X136202857Y-121308429D01*
X136166571Y-121235857D01*
X136166571Y-121163286D01*
X136202857Y-121090714D01*
X136275428Y-121054429D01*
X136456857Y-121054429D01*
X136529428Y-121018143D01*
X136892286Y-120836714D02*
X136892286Y-121344714D01*
X136892286Y-120909286D02*
X136928571Y-120873000D01*
X137001143Y-120836714D01*
X137110000Y-120836714D01*
X137182571Y-120873000D01*
X137218857Y-120945571D01*
X137218857Y-121344714D01*
X138089714Y-120582714D02*
X138271143Y-121344714D01*
X138416286Y-120800429D01*
X138561428Y-121344714D01*
X138742857Y-120582714D01*
X139033143Y-121344714D02*
X139033143Y-120836714D01*
X139033143Y-120582714D02*
X138996857Y-120619000D01*
X139033143Y-120655286D01*
X139069428Y-120619000D01*
X139033143Y-120582714D01*
X139033143Y-120655286D01*
X139504857Y-121344714D02*
X139432285Y-121308429D01*
X139396000Y-121235857D01*
X139396000Y-120582714D01*
X139904000Y-121344714D02*
X139831428Y-121308429D01*
X139795143Y-121235857D01*
X139795143Y-120582714D01*
X140303143Y-121344714D02*
X140230571Y-121308429D01*
X140194286Y-121272143D01*
X140158000Y-121199571D01*
X140158000Y-120981857D01*
X140194286Y-120909286D01*
X140230571Y-120873000D01*
X140303143Y-120836714D01*
X140412000Y-120836714D01*
X140484571Y-120873000D01*
X140520857Y-120909286D01*
X140557143Y-120981857D01*
X140557143Y-121199571D01*
X140520857Y-121272143D01*
X140484571Y-121308429D01*
X140412000Y-121344714D01*
X140303143Y-121344714D01*
X141210286Y-120836714D02*
X141210286Y-121344714D01*
X140883715Y-120836714D02*
X140883715Y-121235857D01*
X140920000Y-121308429D01*
X140992572Y-121344714D01*
X141101429Y-121344714D01*
X141174000Y-121308429D01*
X141210286Y-121272143D01*
X141899715Y-120836714D02*
X141899715Y-121453571D01*
X141863429Y-121526143D01*
X141827144Y-121562429D01*
X141754572Y-121598714D01*
X141645715Y-121598714D01*
X141573144Y-121562429D01*
X141899715Y-121308429D02*
X141827144Y-121344714D01*
X141682001Y-121344714D01*
X141609429Y-121308429D01*
X141573144Y-121272143D01*
X141536858Y-121199571D01*
X141536858Y-120981857D01*
X141573144Y-120909286D01*
X141609429Y-120873000D01*
X141682001Y-120836714D01*
X141827144Y-120836714D01*
X141899715Y-120873000D01*
X142262573Y-121344714D02*
X142262573Y-120582714D01*
X142589144Y-121344714D02*
X142589144Y-120945571D01*
X142552858Y-120873000D01*
X142480287Y-120836714D01*
X142371430Y-120836714D01*
X142298858Y-120873000D01*
X142262573Y-120909286D01*
X142952002Y-121344714D02*
X142952002Y-120582714D01*
X142952002Y-120873000D02*
X143024573Y-120836714D01*
X143169716Y-120836714D01*
X143242287Y-120873000D01*
X143278573Y-120909286D01*
X143314859Y-120981857D01*
X143314859Y-121199571D01*
X143278573Y-121272143D01*
X143242287Y-121308429D01*
X143169716Y-121344714D01*
X143024573Y-121344714D01*
X142952002Y-121308429D01*
X143568859Y-120836714D02*
X143750288Y-121344714D01*
X143931716Y-120836714D02*
X143750288Y-121344714D01*
X143677716Y-121526143D01*
X143641431Y-121562429D01*
X143568859Y-121598714D01*
D12*
X130000000Y-75890000D02*
X130000000Y-73350000D01*
X130000000Y-73350000D02*
X142700000Y-73350000D01*
X142700000Y-75890000D02*
X142700000Y-73350000D01*
X145240000Y-75890000D02*
X145240000Y-73350000D01*
X145240000Y-73350000D02*
X142700000Y-73350000D01*
D13*
X162200000Y-76150000D02*
G75*
G03X162200000Y-76150000I-400000J0D01*
G74*
G01*
X164000000Y-74000000D02*
X164000000Y-87500000D01*
X164000000Y-87500000D02*
X147700000Y-87500000D01*
X147700000Y-87500000D02*
X147700000Y-74000000D01*
X147700000Y-74000000D02*
X164000000Y-74000000D01*
D14*
X152467086Y-114485749D02*
X152607178Y-114485749D01*
X152749066Y-114343861D02*
X152325198Y-114343861D01*
X152185106Y-114203769D02*
X152889158Y-114203769D01*
X153031046Y-114061881D02*
X152043218Y-114061881D01*
X151901330Y-113919993D02*
X153172934Y-113919993D01*
X153314822Y-113778105D02*
X151759442Y-113778105D01*
X151619350Y-113638013D02*
X153454914Y-113638013D01*
X153596802Y-113496125D02*
X151477462Y-113496125D01*
X153738690Y-113354237D02*
X152537132Y-114555795D01*
X152537132Y-114555795D02*
X151335574Y-113354237D01*
X151335574Y-113354237D02*
X153738690Y-113354237D01*
X159536344Y-105153467D02*
X160737902Y-106355025D01*
X160737902Y-106355025D02*
X159536344Y-107556584D01*
X151335574Y-99355814D02*
X152537132Y-98154255D01*
X152537132Y-98154255D02*
X153738690Y-99355814D01*
X145537920Y-107556584D02*
X144336362Y-106355025D01*
X144336362Y-106355025D02*
X145537920Y-105153467D01*
D11*
X159254364Y-106714235D02*
X152896342Y-113072257D01*
X159254364Y-105995815D02*
X152896342Y-99637794D01*
X145819900Y-105995815D02*
X152177922Y-99637794D01*
X152177922Y-113072257D02*
X145819900Y-106714235D01*
X152918132Y-111994626D02*
G75*
G03X152918132Y-111994626I-381000J0D01*
G74*
G01*
X152896342Y-113072257D02*
X152177922Y-113072257D01*
X159254364Y-105995815D02*
X159254364Y-106714235D01*
X152177922Y-99637794D02*
X152896342Y-99637794D01*
X145819900Y-106714235D02*
X145819900Y-105995815D01*
D12*
X134900000Y-121320000D02*
X134900000Y-95920000D01*
X129820000Y-98460000D02*
X129820000Y-121320000D01*
X134900000Y-121320000D02*
X129820000Y-121320000D01*
X134900000Y-95920000D02*
X132360000Y-95920000D01*
X129820000Y-95920000D02*
X129820000Y-98460000D01*
X132360000Y-95920000D02*
X132360000Y-98460000D01*
X132360000Y-98460000D02*
X129820000Y-98460000D01*
X129820000Y-95920000D02*
X132360000Y-95920000D01*
X175315000Y-120775000D02*
X175315000Y-95375000D01*
X170235000Y-97915000D02*
X170235000Y-120775000D01*
X175315000Y-120775000D02*
X170235000Y-120775000D01*
X175315000Y-95375000D02*
X172775000Y-95375000D01*
X170235000Y-95375000D02*
X170235000Y-97915000D01*
X172775000Y-95375000D02*
X172775000Y-97915000D01*
X172775000Y-97915000D02*
X170235000Y-97915000D01*
X170235000Y-95375000D02*
X172775000Y-95375000D01*
D15*
X141552160Y-81550280D02*
X141552160Y-81225160D01*
X141552160Y-81225160D02*
X141051780Y-81225160D01*
X141051780Y-81550280D02*
X141051780Y-81225160D01*
X141552160Y-81550280D02*
X141051780Y-81550280D01*
X141552160Y-82172580D02*
X141552160Y-82022720D01*
X141552160Y-82022720D02*
X141300700Y-82022720D01*
X141300700Y-82172580D02*
X141300700Y-82022720D01*
X141552160Y-82172580D02*
X141300700Y-82172580D01*
X141552160Y-81677280D02*
X141552160Y-81527420D01*
X141552160Y-81527420D02*
X141300700Y-81527420D01*
X141300700Y-81677280D02*
X141300700Y-81527420D01*
X141552160Y-81677280D02*
X141300700Y-81677280D01*
X141552160Y-82048120D02*
X141552160Y-81651880D01*
X141552160Y-81651880D02*
X141376900Y-81651880D01*
X141376900Y-82048120D02*
X141376900Y-81651880D01*
X141552160Y-82048120D02*
X141376900Y-82048120D01*
X143048220Y-81550280D02*
X143048220Y-81225160D01*
X143048220Y-81225160D02*
X142547840Y-81225160D01*
X142547840Y-81550280D02*
X142547840Y-81225160D01*
X143048220Y-81550280D02*
X142547840Y-81550280D01*
X143048220Y-82474840D02*
X143048220Y-82149720D01*
X143048220Y-82149720D02*
X142547840Y-82149720D01*
X142547840Y-82474840D02*
X142547840Y-82149720D01*
X143048220Y-82474840D02*
X142547840Y-82474840D01*
X142799300Y-81677280D02*
X142799300Y-81527420D01*
X142799300Y-81527420D02*
X142547840Y-81527420D01*
X142547840Y-81677280D02*
X142547840Y-81527420D01*
X142799300Y-81677280D02*
X142547840Y-81677280D01*
X142799300Y-82172580D02*
X142799300Y-82022720D01*
X142799300Y-82022720D02*
X142547840Y-82022720D01*
X142547840Y-82172580D02*
X142547840Y-82022720D01*
X142799300Y-82172580D02*
X142547840Y-82172580D01*
X142723100Y-82048120D02*
X142723100Y-81651880D01*
X142723100Y-81651880D02*
X142547840Y-81651880D01*
X142547840Y-82048120D02*
X142547840Y-81651880D01*
X142723100Y-82048120D02*
X142547840Y-82048120D01*
X142050000Y-81949060D02*
X142050000Y-81750940D01*
X142050000Y-81750940D02*
X141851880Y-81750940D01*
X141851880Y-81949060D02*
X141851880Y-81750940D01*
X142050000Y-81949060D02*
X141851880Y-81949060D01*
X141552160Y-82449440D02*
X141552160Y-82149720D01*
X141552160Y-82149720D02*
X141252440Y-82149720D01*
X141252440Y-82449440D02*
X141252440Y-82149720D01*
X141552160Y-82449440D02*
X141252440Y-82449440D01*
X141125440Y-82474840D02*
X141125440Y-82248780D01*
X141125440Y-82248780D02*
X141051780Y-82248780D01*
X141051780Y-82474840D02*
X141051780Y-82248780D01*
X141125440Y-82474840D02*
X141051780Y-82474840D01*
D16*
X141526760Y-81275960D02*
X142573240Y-81275960D01*
X142547840Y-82424040D02*
X141125440Y-82424040D01*
D17*
X141273482Y-82299580D02*
G75*
G03X141273482Y-82299580I-71842J0D01*
G74*
G01*
D16*
X141051780Y-82197980D02*
G75*
G03X141051780Y-81502020I0J347980D01*
G74*
G01*
X143048220Y-81502020D02*
G75*
G03X143048220Y-82197980I0J-347980D01*
G74*
G01*
D11*
X163618500Y-99239620D02*
X163618500Y-98533500D01*
X163618500Y-98533500D02*
X162221500Y-98533500D01*
X162221500Y-98533500D02*
X162221500Y-99239620D01*
X163618500Y-100946500D02*
X163618500Y-100240380D01*
X163618500Y-100946500D02*
X162221500Y-100946500D01*
X162221500Y-100946500D02*
X162221500Y-100240380D01*
X160750380Y-94323500D02*
X161456500Y-94323500D01*
X161456500Y-94323500D02*
X161456500Y-92926500D01*
X161456500Y-92926500D02*
X160750380Y-92926500D01*
X159043500Y-94323500D02*
X159749620Y-94323500D01*
X159043500Y-94323500D02*
X159043500Y-92926500D01*
X159043500Y-92926500D02*
X159749620Y-92926500D01*
X160750380Y-91198500D02*
X161456500Y-91198500D01*
X161456500Y-91198500D02*
X161456500Y-89801500D01*
X161456500Y-89801500D02*
X160750380Y-89801500D01*
X159043500Y-91198500D02*
X159749620Y-91198500D01*
X159043500Y-91198500D02*
X159043500Y-89801500D01*
X159043500Y-89801500D02*
X159749620Y-89801500D01*
X160780380Y-92748500D02*
X161486500Y-92748500D01*
X161486500Y-92748500D02*
X161486500Y-91351500D01*
X161486500Y-91351500D02*
X160780380Y-91351500D01*
X159073500Y-92748500D02*
X159779620Y-92748500D01*
X159073500Y-92748500D02*
X159073500Y-91351500D01*
X159073500Y-91351500D02*
X159779620Y-91351500D01*
X147451500Y-115950380D02*
X147451500Y-116656500D01*
X147451500Y-116656500D02*
X148848500Y-116656500D01*
X148848500Y-116656500D02*
X148848500Y-115950380D01*
X147451500Y-114243500D02*
X147451500Y-114949620D01*
X147451500Y-114243500D02*
X148848500Y-114243500D01*
X148848500Y-114243500D02*
X148848500Y-114949620D01*
X151399620Y-115201500D02*
X150693500Y-115201500D01*
X150693500Y-115201500D02*
X150693500Y-116598500D01*
X150693500Y-116598500D02*
X151399620Y-116598500D01*
X153106500Y-115201500D02*
X152400380Y-115201500D01*
X153106500Y-115201500D02*
X153106500Y-116598500D01*
X153106500Y-116598500D02*
X152400380Y-116598500D01*
X165499620Y-96001500D02*
X164793500Y-96001500D01*
X164793500Y-96001500D02*
X164793500Y-97398500D01*
X164793500Y-97398500D02*
X165499620Y-97398500D01*
X167206500Y-96001500D02*
X166500380Y-96001500D01*
X167206500Y-96001500D02*
X167206500Y-97398500D01*
X167206500Y-97398500D02*
X166500380Y-97398500D01*
X165549620Y-97751500D02*
X164843500Y-97751500D01*
X164843500Y-97751500D02*
X164843500Y-99148500D01*
X164843500Y-99148500D02*
X165549620Y-99148500D01*
X167256500Y-97751500D02*
X166550380Y-97751500D01*
X167256500Y-97751500D02*
X167256500Y-99148500D01*
X167256500Y-99148500D02*
X166550380Y-99148500D01*
X130449620Y-83201500D02*
X129743500Y-83201500D01*
X129743500Y-83201500D02*
X129743500Y-84598500D01*
X129743500Y-84598500D02*
X130449620Y-84598500D01*
X132156500Y-83201500D02*
X131450380Y-83201500D01*
X132156500Y-83201500D02*
X132156500Y-84598500D01*
X132156500Y-84598500D02*
X131450380Y-84598500D01*
X143150380Y-98988500D02*
X143856500Y-98988500D01*
X143856500Y-98988500D02*
X143856500Y-97591500D01*
X143856500Y-97591500D02*
X143150380Y-97591500D01*
X141443500Y-98988500D02*
X142149620Y-98988500D01*
X141443500Y-98988500D02*
X141443500Y-97591500D01*
X141443500Y-97591500D02*
X142149620Y-97591500D01*
X144526500Y-82450380D02*
X144526500Y-83156500D01*
X144526500Y-83156500D02*
X145923500Y-83156500D01*
X145923500Y-83156500D02*
X145923500Y-82450380D01*
X144526500Y-80743500D02*
X144526500Y-81449620D01*
X144526500Y-80743500D02*
X145923500Y-80743500D01*
X145923500Y-80743500D02*
X145923500Y-81449620D01*
X148268500Y-96669620D02*
X148268500Y-95963500D01*
X148268500Y-95963500D02*
X146871500Y-95963500D01*
X146871500Y-95963500D02*
X146871500Y-96669620D01*
X148268500Y-98376500D02*
X148268500Y-97670380D01*
X148268500Y-98376500D02*
X146871500Y-98376500D01*
X146871500Y-98376500D02*
X146871500Y-97670380D01*
X133779620Y-83131500D02*
X133073500Y-83131500D01*
X133073500Y-83131500D02*
X133073500Y-84528500D01*
X133073500Y-84528500D02*
X133779620Y-84528500D01*
X135486500Y-83131500D02*
X134780380Y-83131500D01*
X135486500Y-83131500D02*
X135486500Y-84528500D01*
X135486500Y-84528500D02*
X134780380Y-84528500D01*
X154448500Y-96499620D02*
X154448500Y-95793500D01*
X154448500Y-95793500D02*
X153051500Y-95793500D01*
X153051500Y-95793500D02*
X153051500Y-96499620D01*
X154448500Y-98206500D02*
X154448500Y-97500380D01*
X154448500Y-98206500D02*
X153051500Y-98206500D01*
X153051500Y-98206500D02*
X153051500Y-97500380D01*
D18*
X156269760Y-99050380D02*
X156269760Y-99748880D01*
X156269760Y-98049620D02*
X156269760Y-97351120D01*
X157570240Y-99050380D02*
X157570240Y-99748880D01*
X157570240Y-97351120D02*
X157570240Y-98049620D01*
X157555000Y-99748880D02*
X156285000Y-99748880D01*
X156285000Y-97351120D02*
X157555000Y-97351120D01*
X141609620Y-108539760D02*
X140911120Y-108539760D01*
X142610380Y-108539760D02*
X143308880Y-108539760D01*
X141609620Y-109840240D02*
X140911120Y-109840240D01*
X143308880Y-109840240D02*
X142610380Y-109840240D01*
X140911120Y-109825000D02*
X140911120Y-108555000D01*
X143308880Y-108555000D02*
X143308880Y-109825000D01*
X157170380Y-115990240D02*
X157868880Y-115990240D01*
X156169620Y-115990240D02*
X155471120Y-115990240D01*
X157170380Y-114689760D02*
X157868880Y-114689760D01*
X155471120Y-114689760D02*
X156169620Y-114689760D01*
X157868880Y-114705000D02*
X157868880Y-115975000D01*
X155471120Y-115975000D02*
X155471120Y-114705000D01*
X162290380Y-112630240D02*
X162988880Y-112630240D01*
X161289620Y-112630240D02*
X160591120Y-112630240D01*
X162290380Y-111329760D02*
X162988880Y-111329760D01*
X160591120Y-111329760D02*
X161289620Y-111329760D01*
X162988880Y-111345000D02*
X162988880Y-112615000D01*
X160591120Y-112615000D02*
X160591120Y-111345000D01*
X140209620Y-99449760D02*
X139511120Y-99449760D01*
X141210380Y-99449760D02*
X141908880Y-99449760D01*
X140209620Y-100750240D02*
X139511120Y-100750240D01*
X141908880Y-100750240D02*
X141210380Y-100750240D01*
X139511120Y-100735000D02*
X139511120Y-99465000D01*
X141908880Y-99465000D02*
X141908880Y-100735000D01*
X157190380Y-117440240D02*
X157888880Y-117440240D01*
X156189620Y-117440240D02*
X155491120Y-117440240D01*
X157190380Y-116139760D02*
X157888880Y-116139760D01*
X155491120Y-116139760D02*
X156189620Y-116139760D01*
X157888880Y-116155000D02*
X157888880Y-117425000D01*
X155491120Y-117425000D02*
X155491120Y-116155000D01*
X143499620Y-110699760D02*
X142801120Y-110699760D01*
X144500380Y-110699760D02*
X145198880Y-110699760D01*
X143499620Y-112000240D02*
X142801120Y-112000240D01*
X145198880Y-112000240D02*
X144500380Y-112000240D01*
X142801120Y-111985000D02*
X142801120Y-110715000D01*
X145198880Y-110715000D02*
X145198880Y-111985000D01*
X160210380Y-101950240D02*
X160908880Y-101950240D01*
X159209620Y-101950240D02*
X158511120Y-101950240D01*
X160210380Y-100649760D02*
X160908880Y-100649760D01*
X158511120Y-100649760D02*
X159209620Y-100649760D01*
X160908880Y-100665000D02*
X160908880Y-101935000D01*
X158511120Y-101935000D02*
X158511120Y-100665000D01*
X143499620Y-112199760D02*
X142801120Y-112199760D01*
X144500380Y-112199760D02*
X145198880Y-112199760D01*
X143499620Y-113500240D02*
X142801120Y-113500240D01*
X145198880Y-113500240D02*
X144500380Y-113500240D01*
X142801120Y-113485000D02*
X142801120Y-112215000D01*
X145198880Y-112215000D02*
X145198880Y-113485000D01*
X138940380Y-85520240D02*
X139638880Y-85520240D01*
X137939620Y-85520240D02*
X137241120Y-85520240D01*
X138940380Y-84219760D02*
X139638880Y-84219760D01*
X137241120Y-84219760D02*
X137939620Y-84219760D01*
X139638880Y-84235000D02*
X139638880Y-85505000D01*
X137241120Y-85505000D02*
X137241120Y-84235000D01*
X146080380Y-87790240D02*
X146778880Y-87790240D01*
X145079620Y-87790240D02*
X144381120Y-87790240D01*
X146080380Y-86489760D02*
X146778880Y-86489760D01*
X144381120Y-86489760D02*
X145079620Y-86489760D01*
X146778880Y-86505000D02*
X146778880Y-87775000D01*
X144381120Y-87775000D02*
X144381120Y-86505000D01*
X160200380Y-100490240D02*
X160898880Y-100490240D01*
X159199620Y-100490240D02*
X158501120Y-100490240D01*
X160200380Y-99189760D02*
X160898880Y-99189760D01*
X158501120Y-99189760D02*
X159199620Y-99189760D01*
X160898880Y-99205000D02*
X160898880Y-100475000D01*
X158501120Y-100475000D02*
X158501120Y-99205000D01*
X146949760Y-91300380D02*
X146949760Y-91998880D01*
X146949760Y-90299620D02*
X146949760Y-89601120D01*
X148250240Y-91300380D02*
X148250240Y-91998880D01*
X148250240Y-89601120D02*
X148250240Y-90299620D01*
X148235000Y-91998880D02*
X146965000Y-91998880D01*
X146965000Y-89601120D02*
X148235000Y-89601120D01*
X146949760Y-94150380D02*
X146949760Y-94848880D01*
X146949760Y-93149620D02*
X146949760Y-92451120D01*
X148250240Y-94150380D02*
X148250240Y-94848880D01*
X148250240Y-92451120D02*
X148250240Y-93149620D01*
X148235000Y-94848880D02*
X146965000Y-94848880D01*
X146965000Y-92451120D02*
X148235000Y-92451120D01*
X139379620Y-97689760D02*
X138681120Y-97689760D01*
X140380380Y-97689760D02*
X141078880Y-97689760D01*
X139379620Y-98990240D02*
X138681120Y-98990240D01*
X141078880Y-98990240D02*
X140380380Y-98990240D01*
X138681120Y-98975000D02*
X138681120Y-97705000D01*
X141078880Y-97705000D02*
X141078880Y-98975000D01*
X145790240Y-96609620D02*
X145790240Y-95911120D01*
X145790240Y-97610380D02*
X145790240Y-98308880D01*
X144489760Y-96609620D02*
X144489760Y-95911120D01*
X144489760Y-98308880D02*
X144489760Y-97610380D01*
X144505000Y-95911120D02*
X145775000Y-95911120D01*
X145775000Y-98308880D02*
X144505000Y-98308880D01*
D15*
X163927160Y-91650280D02*
X163927160Y-91325160D01*
X163927160Y-91325160D02*
X163426780Y-91325160D01*
X163426780Y-91650280D02*
X163426780Y-91325160D01*
X163927160Y-91650280D02*
X163426780Y-91650280D01*
X163927160Y-92272580D02*
X163927160Y-92122720D01*
X163927160Y-92122720D02*
X163675700Y-92122720D01*
X163675700Y-92272580D02*
X163675700Y-92122720D01*
X163927160Y-92272580D02*
X163675700Y-92272580D01*
X163927160Y-91777280D02*
X163927160Y-91627420D01*
X163927160Y-91627420D02*
X163675700Y-91627420D01*
X163675700Y-91777280D02*
X163675700Y-91627420D01*
X163927160Y-91777280D02*
X163675700Y-91777280D01*
X163927160Y-92148120D02*
X163927160Y-91751880D01*
X163927160Y-91751880D02*
X163751900Y-91751880D01*
X163751900Y-92148120D02*
X163751900Y-91751880D01*
X163927160Y-92148120D02*
X163751900Y-92148120D01*
X165423220Y-91650280D02*
X165423220Y-91325160D01*
X165423220Y-91325160D02*
X164922840Y-91325160D01*
X164922840Y-91650280D02*
X164922840Y-91325160D01*
X165423220Y-91650280D02*
X164922840Y-91650280D01*
X165423220Y-92574840D02*
X165423220Y-92249720D01*
X165423220Y-92249720D02*
X164922840Y-92249720D01*
X164922840Y-92574840D02*
X164922840Y-92249720D01*
X165423220Y-92574840D02*
X164922840Y-92574840D01*
X165174300Y-91777280D02*
X165174300Y-91627420D01*
X165174300Y-91627420D02*
X164922840Y-91627420D01*
X164922840Y-91777280D02*
X164922840Y-91627420D01*
X165174300Y-91777280D02*
X164922840Y-91777280D01*
X165174300Y-92272580D02*
X165174300Y-92122720D01*
X165174300Y-92122720D02*
X164922840Y-92122720D01*
X164922840Y-92272580D02*
X164922840Y-92122720D01*
X165174300Y-92272580D02*
X164922840Y-92272580D01*
X165098100Y-92148120D02*
X165098100Y-91751880D01*
X165098100Y-91751880D02*
X164922840Y-91751880D01*
X164922840Y-92148120D02*
X164922840Y-91751880D01*
X165098100Y-92148120D02*
X164922840Y-92148120D01*
X164425000Y-92049060D02*
X164425000Y-91850940D01*
X164425000Y-91850940D02*
X164226880Y-91850940D01*
X164226880Y-92049060D02*
X164226880Y-91850940D01*
X164425000Y-92049060D02*
X164226880Y-92049060D01*
X163927160Y-92549440D02*
X163927160Y-92249720D01*
X163927160Y-92249720D02*
X163627440Y-92249720D01*
X163627440Y-92549440D02*
X163627440Y-92249720D01*
X163927160Y-92549440D02*
X163627440Y-92549440D01*
X163500440Y-92574840D02*
X163500440Y-92348780D01*
X163500440Y-92348780D02*
X163426780Y-92348780D01*
X163426780Y-92574840D02*
X163426780Y-92348780D01*
X163500440Y-92574840D02*
X163426780Y-92574840D01*
D16*
X163901760Y-91375960D02*
X164948240Y-91375960D01*
X164922840Y-92524040D02*
X163500440Y-92524040D01*
D17*
X163648482Y-92399580D02*
G75*
G03X163648482Y-92399580I-71842J0D01*
G74*
G01*
D16*
X163426780Y-92297980D02*
G75*
G03X163426780Y-91602020I0J347980D01*
G74*
G01*
X165423220Y-91602020D02*
G75*
G03X165423220Y-92297980I0J-347980D01*
G74*
G01*
D15*
X163927160Y-89925280D02*
X163927160Y-89600160D01*
X163927160Y-89600160D02*
X163426780Y-89600160D01*
X163426780Y-89925280D02*
X163426780Y-89600160D01*
X163927160Y-89925280D02*
X163426780Y-89925280D01*
X163927160Y-90547580D02*
X163927160Y-90397720D01*
X163927160Y-90397720D02*
X163675700Y-90397720D01*
X163675700Y-90547580D02*
X163675700Y-90397720D01*
X163927160Y-90547580D02*
X163675700Y-90547580D01*
X163927160Y-90052280D02*
X163927160Y-89902420D01*
X163927160Y-89902420D02*
X163675700Y-89902420D01*
X163675700Y-90052280D02*
X163675700Y-89902420D01*
X163927160Y-90052280D02*
X163675700Y-90052280D01*
X163927160Y-90423120D02*
X163927160Y-90026880D01*
X163927160Y-90026880D02*
X163751900Y-90026880D01*
X163751900Y-90423120D02*
X163751900Y-90026880D01*
X163927160Y-90423120D02*
X163751900Y-90423120D01*
X165423220Y-89925280D02*
X165423220Y-89600160D01*
X165423220Y-89600160D02*
X164922840Y-89600160D01*
X164922840Y-89925280D02*
X164922840Y-89600160D01*
X165423220Y-89925280D02*
X164922840Y-89925280D01*
X165423220Y-90849840D02*
X165423220Y-90524720D01*
X165423220Y-90524720D02*
X164922840Y-90524720D01*
X164922840Y-90849840D02*
X164922840Y-90524720D01*
X165423220Y-90849840D02*
X164922840Y-90849840D01*
X165174300Y-90052280D02*
X165174300Y-89902420D01*
X165174300Y-89902420D02*
X164922840Y-89902420D01*
X164922840Y-90052280D02*
X164922840Y-89902420D01*
X165174300Y-90052280D02*
X164922840Y-90052280D01*
X165174300Y-90547580D02*
X165174300Y-90397720D01*
X165174300Y-90397720D02*
X164922840Y-90397720D01*
X164922840Y-90547580D02*
X164922840Y-90397720D01*
X165174300Y-90547580D02*
X164922840Y-90547580D01*
X165098100Y-90423120D02*
X165098100Y-90026880D01*
X165098100Y-90026880D02*
X164922840Y-90026880D01*
X164922840Y-90423120D02*
X164922840Y-90026880D01*
X165098100Y-90423120D02*
X164922840Y-90423120D01*
X164425000Y-90324060D02*
X164425000Y-90125940D01*
X164425000Y-90125940D02*
X164226880Y-90125940D01*
X164226880Y-90324060D02*
X164226880Y-90125940D01*
X164425000Y-90324060D02*
X164226880Y-90324060D01*
X163927160Y-90824440D02*
X163927160Y-90524720D01*
X163927160Y-90524720D02*
X163627440Y-90524720D01*
X163627440Y-90824440D02*
X163627440Y-90524720D01*
X163927160Y-90824440D02*
X163627440Y-90824440D01*
X163500440Y-90849840D02*
X163500440Y-90623780D01*
X163500440Y-90623780D02*
X163426780Y-90623780D01*
X163426780Y-90849840D02*
X163426780Y-90623780D01*
X163500440Y-90849840D02*
X163426780Y-90849840D01*
D16*
X163901760Y-89650960D02*
X164948240Y-89650960D01*
X164922840Y-90799040D02*
X163500440Y-90799040D01*
D17*
X163648482Y-90674580D02*
G75*
G03X163648482Y-90674580I-71842J0D01*
G74*
G01*
D16*
X163426780Y-90572980D02*
G75*
G03X163426780Y-89877020I0J347980D01*
G74*
G01*
X165423220Y-89877020D02*
G75*
G03X165423220Y-90572980I0J-347980D01*
G74*
G01*
D15*
X163927160Y-93500280D02*
X163927160Y-93175160D01*
X163927160Y-93175160D02*
X163426780Y-93175160D01*
X163426780Y-93500280D02*
X163426780Y-93175160D01*
X163927160Y-93500280D02*
X163426780Y-93500280D01*
X163927160Y-94122580D02*
X163927160Y-93972720D01*
X163927160Y-93972720D02*
X163675700Y-93972720D01*
X163675700Y-94122580D02*
X163675700Y-93972720D01*
X163927160Y-94122580D02*
X163675700Y-94122580D01*
X163927160Y-93627280D02*
X163927160Y-93477420D01*
X163927160Y-93477420D02*
X163675700Y-93477420D01*
X163675700Y-93627280D02*
X163675700Y-93477420D01*
X163927160Y-93627280D02*
X163675700Y-93627280D01*
X163927160Y-93998120D02*
X163927160Y-93601880D01*
X163927160Y-93601880D02*
X163751900Y-93601880D01*
X163751900Y-93998120D02*
X163751900Y-93601880D01*
X163927160Y-93998120D02*
X163751900Y-93998120D01*
X165423220Y-93500280D02*
X165423220Y-93175160D01*
X165423220Y-93175160D02*
X164922840Y-93175160D01*
X164922840Y-93500280D02*
X164922840Y-93175160D01*
X165423220Y-93500280D02*
X164922840Y-93500280D01*
X165423220Y-94424840D02*
X165423220Y-94099720D01*
X165423220Y-94099720D02*
X164922840Y-94099720D01*
X164922840Y-94424840D02*
X164922840Y-94099720D01*
X165423220Y-94424840D02*
X164922840Y-94424840D01*
X165174300Y-93627280D02*
X165174300Y-93477420D01*
X165174300Y-93477420D02*
X164922840Y-93477420D01*
X164922840Y-93627280D02*
X164922840Y-93477420D01*
X165174300Y-93627280D02*
X164922840Y-93627280D01*
X165174300Y-94122580D02*
X165174300Y-93972720D01*
X165174300Y-93972720D02*
X164922840Y-93972720D01*
X164922840Y-94122580D02*
X164922840Y-93972720D01*
X165174300Y-94122580D02*
X164922840Y-94122580D01*
X165098100Y-93998120D02*
X165098100Y-93601880D01*
X165098100Y-93601880D02*
X164922840Y-93601880D01*
X164922840Y-93998120D02*
X164922840Y-93601880D01*
X165098100Y-93998120D02*
X164922840Y-93998120D01*
X164425000Y-93899060D02*
X164425000Y-93700940D01*
X164425000Y-93700940D02*
X164226880Y-93700940D01*
X164226880Y-93899060D02*
X164226880Y-93700940D01*
X164425000Y-93899060D02*
X164226880Y-93899060D01*
X163927160Y-94399440D02*
X163927160Y-94099720D01*
X163927160Y-94099720D02*
X163627440Y-94099720D01*
X163627440Y-94399440D02*
X163627440Y-94099720D01*
X163927160Y-94399440D02*
X163627440Y-94399440D01*
X163500440Y-94424840D02*
X163500440Y-94198780D01*
X163500440Y-94198780D02*
X163426780Y-94198780D01*
X163426780Y-94424840D02*
X163426780Y-94198780D01*
X163500440Y-94424840D02*
X163426780Y-94424840D01*
D16*
X163901760Y-93225960D02*
X164948240Y-93225960D01*
X164922840Y-94374040D02*
X163500440Y-94374040D01*
D17*
X163648482Y-94249580D02*
G75*
G03X163648482Y-94249580I-71842J0D01*
G74*
G01*
D16*
X163426780Y-94147980D02*
G75*
G03X163426780Y-93452020I0J347980D01*
G74*
G01*
X165423220Y-93452020D02*
G75*
G03X165423220Y-94147980I0J-347980D01*
G74*
G01*
D19*
X157764000Y-93180000D02*
X158164000Y-93180000D01*
X158164000Y-93180000D02*
X158164000Y-94780000D01*
X158164000Y-94780000D02*
X157764000Y-94780000D01*
X156464000Y-93180000D02*
X156064000Y-93180000D01*
X156064000Y-93180000D02*
X156064000Y-94780000D01*
X156064000Y-94780000D02*
X156464000Y-94780000D01*
X157740000Y-89340000D02*
X158140000Y-89340000D01*
X158140000Y-89340000D02*
X158140000Y-90940000D01*
X158140000Y-90940000D02*
X157740000Y-90940000D01*
X156440000Y-89340000D02*
X156040000Y-89340000D01*
X156040000Y-89340000D02*
X156040000Y-90940000D01*
X156040000Y-90940000D02*
X156440000Y-90940000D01*
X157770000Y-91190000D02*
X158170000Y-91190000D01*
X158170000Y-91190000D02*
X158170000Y-92790000D01*
X158170000Y-92790000D02*
X157770000Y-92790000D01*
X156470000Y-91190000D02*
X156070000Y-91190000D01*
X156070000Y-91190000D02*
X156070000Y-92790000D01*
X156070000Y-92790000D02*
X156470000Y-92790000D01*
D18*
X152125380Y-91050240D02*
X152823880Y-91050240D01*
X151124620Y-91050240D02*
X150426120Y-91050240D01*
X152125380Y-89749760D02*
X152823880Y-89749760D01*
X150426120Y-89749760D02*
X151124620Y-89749760D01*
X152823880Y-89765000D02*
X152823880Y-91035000D01*
X150426120Y-91035000D02*
X150426120Y-89765000D01*
X166100240Y-77699620D02*
X166100240Y-77001120D01*
X166100240Y-78700380D02*
X166100240Y-79398880D01*
X164799760Y-77699620D02*
X164799760Y-77001120D01*
X164799760Y-79398880D02*
X164799760Y-78700380D01*
X164815000Y-77001120D02*
X166085000Y-77001120D01*
X166085000Y-79398880D02*
X164815000Y-79398880D01*
X152125380Y-89475240D02*
X152823880Y-89475240D01*
X151124620Y-89475240D02*
X150426120Y-89475240D01*
X152125380Y-88174760D02*
X152823880Y-88174760D01*
X150426120Y-88174760D02*
X151124620Y-88174760D01*
X152823880Y-88190000D02*
X152823880Y-89460000D01*
X150426120Y-89460000D02*
X150426120Y-88190000D01*
D20*
X174740000Y-94250000D02*
X167240000Y-94250000D01*
X174740000Y-94250000D02*
X174740000Y-74250000D01*
X167339340Y-74250900D02*
X174740900Y-74250900D01*
X167141220Y-79250000D02*
X172739380Y-79250000D01*
X170339080Y-88650540D02*
X172739380Y-88650540D01*
X167141220Y-76849700D02*
X172739380Y-76849700D01*
X172739380Y-76849700D02*
X172739380Y-81449640D01*
X172739380Y-81449640D02*
X170339080Y-81449640D01*
X170339080Y-81449640D02*
X170339080Y-83849940D01*
X170339080Y-83849940D02*
X170339080Y-84050600D01*
X170339080Y-84050600D02*
X172739380Y-84050600D01*
X172739380Y-84050600D02*
X172739380Y-86250240D01*
X172739380Y-86250240D02*
X170339080Y-86250240D01*
X170339080Y-86250240D02*
X170339080Y-88650540D01*
X172739380Y-88650540D02*
X172739380Y-91050840D01*
X172739380Y-91050840D02*
X168540760Y-91050840D01*
D19*
X137730000Y-97380000D02*
X143130000Y-97380000D01*
X137730000Y-94180000D02*
X143130000Y-94180000D01*
X131230000Y-77010000D02*
X136330000Y-77010000D01*
X136330000Y-77010000D02*
X136330000Y-82510000D01*
X136330000Y-82510000D02*
X131230000Y-82510000D01*
X131230000Y-82460000D02*
X131230000Y-77060000D01*
D11*
X137049620Y-88891500D02*
X136343500Y-88891500D01*
X136343500Y-88891500D02*
X136343500Y-90288500D01*
X136343500Y-90288500D02*
X137049620Y-90288500D01*
X138756500Y-88891500D02*
X138050380Y-88891500D01*
X138756500Y-88891500D02*
X138756500Y-90288500D01*
X138756500Y-90288500D02*
X138050380Y-90288500D01*
D19*
X133530000Y-95190000D02*
X134240000Y-95190000D01*
X134230000Y-95190000D02*
X134230000Y-94680000D01*
X131880000Y-95190000D02*
X132510000Y-95190000D01*
X129100000Y-95430000D02*
X129100000Y-84970000D01*
X134310000Y-85150000D02*
X134310000Y-85470000D01*
X133510000Y-85130000D02*
X134300000Y-85130000D01*
X129110000Y-95420000D02*
X129510000Y-95420000D01*
X129710000Y-84970000D02*
X129110000Y-84970000D01*
X132410000Y-85170000D02*
X131910000Y-85170000D01*
X142570278Y-83110000D02*
G75*
G03X142570278Y-83110000I-180278J0D01*
G74*
G01*
X144040000Y-83560000D02*
X142740000Y-83560000D01*
X142740000Y-83560000D02*
X142740000Y-86010000D01*
X142740000Y-86010000D02*
X143990000Y-86010000D01*
X143990000Y-86010000D02*
X144040000Y-86010000D01*
X144040000Y-86010000D02*
X144040000Y-83560000D01*
D11*
X145929810Y-74724953D02*
X145421810Y-74724953D01*
X145421810Y-74531429D01*
X145446000Y-74483048D01*
X145470190Y-74458857D01*
X145518571Y-74434667D01*
X145591143Y-74434667D01*
X145639524Y-74458857D01*
X145663714Y-74483048D01*
X145687905Y-74531429D01*
X145687905Y-74724953D01*
X145929810Y-73950857D02*
X145929810Y-74241143D01*
X145929810Y-74096000D02*
X145421810Y-74096000D01*
X145494381Y-74144381D01*
X145542762Y-74192762D01*
X145566952Y-74241143D01*
D21*
X135189114Y-93217714D02*
X135406829Y-93217714D01*
X134949629Y-93370114D02*
X135189114Y-93217714D01*
X134949629Y-93065314D01*
X135406829Y-92673428D02*
X135406829Y-92934685D01*
X135406829Y-92804057D02*
X134949629Y-92804057D01*
X135014943Y-92847600D01*
X135058486Y-92891142D01*
X135080257Y-92934685D01*
X147336829Y-74836314D02*
X146879629Y-74836314D01*
X147293286Y-74357343D02*
X147315057Y-74379114D01*
X147336829Y-74444428D01*
X147336829Y-74487971D01*
X147315057Y-74553286D01*
X147271514Y-74596828D01*
X147227971Y-74618600D01*
X147140886Y-74640371D01*
X147075571Y-74640371D01*
X146988486Y-74618600D01*
X146944943Y-74596828D01*
X146901400Y-74553286D01*
X146879629Y-74487971D01*
X146879629Y-74444428D01*
X146901400Y-74379114D01*
X146923171Y-74357343D01*
X147336829Y-73921914D02*
X147336829Y-74183171D01*
X147336829Y-74052543D02*
X146879629Y-74052543D01*
X146944943Y-74096086D01*
X146988486Y-74139628D01*
X147010257Y-74183171D01*
D14*
X160216168Y-107553536D02*
X160645082Y-107982450D01*
X160720773Y-108007680D01*
X160771234Y-108007680D01*
X160846925Y-107982450D01*
X160947845Y-107881529D01*
X160973075Y-107805839D01*
X160973075Y-107755378D01*
X160947845Y-107679687D01*
X160518931Y-107250773D01*
X161578601Y-107250773D02*
X161275839Y-107553536D01*
X161427220Y-107402154D02*
X160897385Y-106872319D01*
X160922615Y-106998471D01*
X160922615Y-107099392D01*
X160897385Y-107175082D01*
D11*
X140079810Y-82224953D02*
X139571810Y-82224953D01*
X139571810Y-82104000D01*
X139596000Y-82031429D01*
X139644381Y-81983048D01*
X139692762Y-81958857D01*
X139789524Y-81934667D01*
X139862095Y-81934667D01*
X139958857Y-81958857D01*
X140007238Y-81983048D01*
X140055619Y-82031429D01*
X140079810Y-82104000D01*
X140079810Y-82224953D01*
X139741143Y-81499238D02*
X140079810Y-81499238D01*
X139547619Y-81620191D02*
X139910476Y-81741143D01*
X139910476Y-81426667D01*
D21*
X163126362Y-101526200D02*
X162888086Y-101678600D01*
X163126362Y-101787457D02*
X162625982Y-101787457D01*
X162625982Y-101613285D01*
X162649810Y-101569743D01*
X162673638Y-101547971D01*
X162721293Y-101526200D01*
X162792776Y-101526200D01*
X162840431Y-101547971D01*
X162864259Y-101569743D01*
X162888086Y-101613285D01*
X162888086Y-101787457D01*
X162673638Y-101352028D02*
X162649810Y-101330257D01*
X162625982Y-101286714D01*
X162625982Y-101177857D01*
X162649810Y-101134314D01*
X162673638Y-101112543D01*
X162721293Y-101090771D01*
X162768948Y-101090771D01*
X162840431Y-101112543D01*
X163126362Y-101373800D01*
X163126362Y-101090771D01*
X162176362Y-93751200D02*
X161938086Y-93903600D01*
X162176362Y-94012457D02*
X161675982Y-94012457D01*
X161675982Y-93838285D01*
X161699810Y-93794743D01*
X161723638Y-93772971D01*
X161771293Y-93751200D01*
X161842776Y-93751200D01*
X161890431Y-93772971D01*
X161914259Y-93794743D01*
X161938086Y-93838285D01*
X161938086Y-94012457D01*
X161675982Y-93598800D02*
X161675982Y-93315771D01*
X161866603Y-93468171D01*
X161866603Y-93402857D01*
X161890431Y-93359314D01*
X161914259Y-93337543D01*
X161961914Y-93315771D01*
X162081052Y-93315771D01*
X162128707Y-93337543D01*
X162152535Y-93359314D01*
X162176362Y-93402857D01*
X162176362Y-93533485D01*
X162152535Y-93577028D01*
X162128707Y-93598800D01*
X162176362Y-90626200D02*
X161938086Y-90778600D01*
X162176362Y-90887457D02*
X161675982Y-90887457D01*
X161675982Y-90713285D01*
X161699810Y-90669743D01*
X161723638Y-90647971D01*
X161771293Y-90626200D01*
X161842776Y-90626200D01*
X161890431Y-90647971D01*
X161914259Y-90669743D01*
X161938086Y-90713285D01*
X161938086Y-90887457D01*
X161842776Y-90234314D02*
X162176362Y-90234314D01*
X161652155Y-90343171D02*
X162009569Y-90452028D01*
X162009569Y-90169000D01*
X162206362Y-92176200D02*
X161968086Y-92328600D01*
X162206362Y-92437457D02*
X161705982Y-92437457D01*
X161705982Y-92263285D01*
X161729810Y-92219743D01*
X161753638Y-92197971D01*
X161801293Y-92176200D01*
X161872776Y-92176200D01*
X161920431Y-92197971D01*
X161944259Y-92219743D01*
X161968086Y-92263285D01*
X161968086Y-92437457D01*
X161705982Y-91762543D02*
X161705982Y-91980257D01*
X161944259Y-92002028D01*
X161920431Y-91980257D01*
X161896603Y-91936714D01*
X161896603Y-91827857D01*
X161920431Y-91784314D01*
X161944259Y-91762543D01*
X161991914Y-91740771D01*
X162111052Y-91740771D01*
X162158707Y-91762543D01*
X162182535Y-91784314D01*
X162206362Y-91827857D01*
X162206362Y-91936714D01*
X162182535Y-91980257D01*
X162158707Y-92002028D01*
X147166362Y-115356200D02*
X146928086Y-115508600D01*
X147166362Y-115617457D02*
X146665982Y-115617457D01*
X146665982Y-115443285D01*
X146689810Y-115399743D01*
X146713638Y-115377971D01*
X146761293Y-115356200D01*
X146832776Y-115356200D01*
X146880431Y-115377971D01*
X146904259Y-115399743D01*
X146928086Y-115443285D01*
X146928086Y-115617457D01*
X147166362Y-115138485D02*
X147166362Y-115051400D01*
X147142535Y-115007857D01*
X147118707Y-114986085D01*
X147047224Y-114942543D01*
X146951914Y-114920771D01*
X146761293Y-114920771D01*
X146713638Y-114942543D01*
X146689810Y-114964314D01*
X146665982Y-115007857D01*
X146665982Y-115094943D01*
X146689810Y-115138485D01*
X146713638Y-115160257D01*
X146761293Y-115182028D01*
X146880431Y-115182028D01*
X146928086Y-115160257D01*
X146951914Y-115138485D01*
X146975741Y-115094943D01*
X146975741Y-115007857D01*
X146951914Y-114964314D01*
X146928086Y-114942543D01*
X146880431Y-114920771D01*
X150426362Y-116143915D02*
X150188086Y-116296315D01*
X150426362Y-116405172D02*
X149925982Y-116405172D01*
X149925982Y-116231000D01*
X149949810Y-116187458D01*
X149973638Y-116165686D01*
X150021293Y-116143915D01*
X150092776Y-116143915D01*
X150140431Y-116165686D01*
X150164259Y-116187458D01*
X150188086Y-116231000D01*
X150188086Y-116405172D01*
X150426362Y-115708486D02*
X150426362Y-115969743D01*
X150426362Y-115839115D02*
X149925982Y-115839115D01*
X149997465Y-115882658D01*
X150045120Y-115926200D01*
X150068948Y-115969743D01*
X149925982Y-115425457D02*
X149925982Y-115381914D01*
X149949810Y-115338371D01*
X149973638Y-115316600D01*
X150021293Y-115294829D01*
X150116603Y-115273057D01*
X150235741Y-115273057D01*
X150331052Y-115294829D01*
X150378707Y-115316600D01*
X150402535Y-115338371D01*
X150426362Y-115381914D01*
X150426362Y-115425457D01*
X150402535Y-115469000D01*
X150378707Y-115490771D01*
X150331052Y-115512543D01*
X150235741Y-115534314D01*
X150116603Y-115534314D01*
X150021293Y-115512543D01*
X149973638Y-115490771D01*
X149949810Y-115469000D01*
X149925982Y-115425457D01*
X164526362Y-96943915D02*
X164288086Y-97096315D01*
X164526362Y-97205172D02*
X164025982Y-97205172D01*
X164025982Y-97031000D01*
X164049810Y-96987458D01*
X164073638Y-96965686D01*
X164121293Y-96943915D01*
X164192776Y-96943915D01*
X164240431Y-96965686D01*
X164264259Y-96987458D01*
X164288086Y-97031000D01*
X164288086Y-97205172D01*
X164526362Y-96508486D02*
X164526362Y-96769743D01*
X164526362Y-96639115D02*
X164025982Y-96639115D01*
X164097465Y-96682658D01*
X164145120Y-96726200D01*
X164168948Y-96769743D01*
X164526362Y-96073057D02*
X164526362Y-96334314D01*
X164526362Y-96203686D02*
X164025982Y-96203686D01*
X164097465Y-96247229D01*
X164145120Y-96290771D01*
X164168948Y-96334314D01*
X164576362Y-98693915D02*
X164338086Y-98846315D01*
X164576362Y-98955172D02*
X164075982Y-98955172D01*
X164075982Y-98781000D01*
X164099810Y-98737458D01*
X164123638Y-98715686D01*
X164171293Y-98693915D01*
X164242776Y-98693915D01*
X164290431Y-98715686D01*
X164314259Y-98737458D01*
X164338086Y-98781000D01*
X164338086Y-98955172D01*
X164576362Y-98258486D02*
X164576362Y-98519743D01*
X164576362Y-98389115D02*
X164075982Y-98389115D01*
X164147465Y-98432658D01*
X164195120Y-98476200D01*
X164218948Y-98519743D01*
X164123638Y-98084314D02*
X164099810Y-98062543D01*
X164075982Y-98019000D01*
X164075982Y-97910143D01*
X164099810Y-97866600D01*
X164123638Y-97844829D01*
X164171293Y-97823057D01*
X164218948Y-97823057D01*
X164290431Y-97844829D01*
X164576362Y-98106086D01*
X164576362Y-97823057D01*
D11*
X131049810Y-84226572D02*
X130807905Y-84395905D01*
X131049810Y-84516858D02*
X130541810Y-84516858D01*
X130541810Y-84323334D01*
X130566000Y-84274953D01*
X130590190Y-84250762D01*
X130638571Y-84226572D01*
X130711143Y-84226572D01*
X130759524Y-84250762D01*
X130783714Y-84274953D01*
X130807905Y-84323334D01*
X130807905Y-84516858D01*
X131049810Y-83742762D02*
X131049810Y-84033048D01*
X131049810Y-83887905D02*
X130541810Y-83887905D01*
X130614381Y-83936286D01*
X130662762Y-83984667D01*
X130686952Y-84033048D01*
X130711143Y-83307333D02*
X131049810Y-83307333D01*
X130517619Y-83428286D02*
X130880476Y-83549238D01*
X130880476Y-83234762D01*
D21*
X142876362Y-99843915D02*
X142638086Y-99996315D01*
X142876362Y-100105172D02*
X142375982Y-100105172D01*
X142375982Y-99931000D01*
X142399810Y-99887458D01*
X142423638Y-99865686D01*
X142471293Y-99843915D01*
X142542776Y-99843915D01*
X142590431Y-99865686D01*
X142614259Y-99887458D01*
X142638086Y-99931000D01*
X142638086Y-100105172D01*
X142423638Y-99669743D02*
X142399810Y-99647972D01*
X142375982Y-99604429D01*
X142375982Y-99495572D01*
X142399810Y-99452029D01*
X142423638Y-99430258D01*
X142471293Y-99408486D01*
X142518948Y-99408486D01*
X142590431Y-99430258D01*
X142876362Y-99691515D01*
X142876362Y-99408486D01*
X142375982Y-99016600D02*
X142375982Y-99103686D01*
X142399810Y-99147229D01*
X142423638Y-99169000D01*
X142495120Y-99212543D01*
X142590431Y-99234314D01*
X142781052Y-99234314D01*
X142828707Y-99212543D01*
X142852535Y-99190771D01*
X142876362Y-99147229D01*
X142876362Y-99060143D01*
X142852535Y-99016600D01*
X142828707Y-98994829D01*
X142781052Y-98973057D01*
X142661914Y-98973057D01*
X142614259Y-98994829D01*
X142590431Y-99016600D01*
X142566603Y-99060143D01*
X142566603Y-99147229D01*
X142590431Y-99190771D01*
X142614259Y-99212543D01*
X142661914Y-99234314D01*
D11*
X146654810Y-81751572D02*
X146412905Y-81920905D01*
X146654810Y-82041858D02*
X146146810Y-82041858D01*
X146146810Y-81848334D01*
X146171000Y-81799953D01*
X146195190Y-81775762D01*
X146243571Y-81751572D01*
X146316143Y-81751572D01*
X146364524Y-81775762D01*
X146388714Y-81799953D01*
X146412905Y-81848334D01*
X146412905Y-82041858D01*
X146195190Y-81558048D02*
X146171000Y-81533858D01*
X146146810Y-81485477D01*
X146146810Y-81364524D01*
X146171000Y-81316143D01*
X146195190Y-81291953D01*
X146243571Y-81267762D01*
X146291952Y-81267762D01*
X146364524Y-81291953D01*
X146654810Y-81582239D01*
X146654810Y-81267762D01*
X146146810Y-81098429D02*
X146146810Y-80759762D01*
X146654810Y-80977476D01*
D21*
X148926362Y-97093915D02*
X148688086Y-97246315D01*
X148926362Y-97355172D02*
X148425982Y-97355172D01*
X148425982Y-97181000D01*
X148449810Y-97137458D01*
X148473638Y-97115686D01*
X148521293Y-97093915D01*
X148592776Y-97093915D01*
X148640431Y-97115686D01*
X148664259Y-97137458D01*
X148688086Y-97181000D01*
X148688086Y-97355172D01*
X148473638Y-96919743D02*
X148449810Y-96897972D01*
X148425982Y-96854429D01*
X148425982Y-96745572D01*
X148449810Y-96702029D01*
X148473638Y-96680258D01*
X148521293Y-96658486D01*
X148568948Y-96658486D01*
X148640431Y-96680258D01*
X148926362Y-96941515D01*
X148926362Y-96658486D01*
X148640431Y-96397229D02*
X148616603Y-96440771D01*
X148592776Y-96462543D01*
X148545120Y-96484314D01*
X148521293Y-96484314D01*
X148473638Y-96462543D01*
X148449810Y-96440771D01*
X148425982Y-96397229D01*
X148425982Y-96310143D01*
X148449810Y-96266600D01*
X148473638Y-96244829D01*
X148521293Y-96223057D01*
X148545120Y-96223057D01*
X148592776Y-96244829D01*
X148616603Y-96266600D01*
X148640431Y-96310143D01*
X148640431Y-96397229D01*
X148664259Y-96440771D01*
X148688086Y-96462543D01*
X148735741Y-96484314D01*
X148831052Y-96484314D01*
X148878707Y-96462543D01*
X148902535Y-96440771D01*
X148926362Y-96397229D01*
X148926362Y-96310143D01*
X148902535Y-96266600D01*
X148878707Y-96244829D01*
X148831052Y-96223057D01*
X148735741Y-96223057D01*
X148688086Y-96244829D01*
X148664259Y-96266600D01*
X148640431Y-96310143D01*
D11*
X136109810Y-83916572D02*
X135867905Y-84085905D01*
X136109810Y-84206858D02*
X135601810Y-84206858D01*
X135601810Y-84013334D01*
X135626000Y-83964953D01*
X135650190Y-83940762D01*
X135698571Y-83916572D01*
X135771143Y-83916572D01*
X135819524Y-83940762D01*
X135843714Y-83964953D01*
X135867905Y-84013334D01*
X135867905Y-84206858D01*
X135650190Y-83723048D02*
X135626000Y-83698858D01*
X135601810Y-83650477D01*
X135601810Y-83529524D01*
X135626000Y-83481143D01*
X135650190Y-83456953D01*
X135698571Y-83432762D01*
X135746952Y-83432762D01*
X135819524Y-83456953D01*
X136109810Y-83747239D01*
X136109810Y-83432762D01*
X136109810Y-83190857D02*
X136109810Y-83094095D01*
X136085619Y-83045714D01*
X136061429Y-83021524D01*
X135988857Y-82973143D01*
X135892095Y-82948952D01*
X135698571Y-82948952D01*
X135650190Y-82973143D01*
X135626000Y-82997333D01*
X135601810Y-83045714D01*
X135601810Y-83142476D01*
X135626000Y-83190857D01*
X135650190Y-83215048D01*
X135698571Y-83239238D01*
X135819524Y-83239238D01*
X135867905Y-83215048D01*
X135892095Y-83190857D01*
X135916286Y-83142476D01*
X135916286Y-83045714D01*
X135892095Y-82997333D01*
X135867905Y-82973143D01*
X135819524Y-82948952D01*
D21*
X152726362Y-97393915D02*
X152488086Y-97546315D01*
X152726362Y-97655172D02*
X152225982Y-97655172D01*
X152225982Y-97481000D01*
X152249810Y-97437458D01*
X152273638Y-97415686D01*
X152321293Y-97393915D01*
X152392776Y-97393915D01*
X152440431Y-97415686D01*
X152464259Y-97437458D01*
X152488086Y-97481000D01*
X152488086Y-97655172D01*
X152225982Y-97241515D02*
X152225982Y-96958486D01*
X152416603Y-97110886D01*
X152416603Y-97045572D01*
X152440431Y-97002029D01*
X152464259Y-96980258D01*
X152511914Y-96958486D01*
X152631052Y-96958486D01*
X152678707Y-96980258D01*
X152702535Y-97002029D01*
X152726362Y-97045572D01*
X152726362Y-97176200D01*
X152702535Y-97219743D01*
X152678707Y-97241515D01*
X152726362Y-96523057D02*
X152726362Y-96784314D01*
X152726362Y-96653686D02*
X152225982Y-96653686D01*
X152297465Y-96697229D01*
X152345120Y-96740771D01*
X152368948Y-96784314D01*
X155881429Y-99326200D02*
X155905619Y-99347971D01*
X155929810Y-99413285D01*
X155929810Y-99456828D01*
X155905619Y-99522143D01*
X155857238Y-99565685D01*
X155808857Y-99587457D01*
X155712095Y-99609228D01*
X155639524Y-99609228D01*
X155542762Y-99587457D01*
X155494381Y-99565685D01*
X155446000Y-99522143D01*
X155421810Y-99456828D01*
X155421810Y-99413285D01*
X155446000Y-99347971D01*
X155470190Y-99326200D01*
X155421810Y-99173800D02*
X155421810Y-98890771D01*
X155615333Y-99043171D01*
X155615333Y-98977857D01*
X155639524Y-98934314D01*
X155663714Y-98912543D01*
X155712095Y-98890771D01*
X155833048Y-98890771D01*
X155881429Y-98912543D01*
X155905619Y-98934314D01*
X155929810Y-98977857D01*
X155929810Y-99108485D01*
X155905619Y-99152028D01*
X155881429Y-99173800D01*
X140681429Y-109226200D02*
X140705619Y-109247971D01*
X140729810Y-109313285D01*
X140729810Y-109356828D01*
X140705619Y-109422143D01*
X140657238Y-109465685D01*
X140608857Y-109487457D01*
X140512095Y-109509228D01*
X140439524Y-109509228D01*
X140342762Y-109487457D01*
X140294381Y-109465685D01*
X140246000Y-109422143D01*
X140221810Y-109356828D01*
X140221810Y-109313285D01*
X140246000Y-109247971D01*
X140270190Y-109226200D01*
X140391143Y-108834314D02*
X140729810Y-108834314D01*
X140197619Y-108943171D02*
X140560476Y-109052028D01*
X140560476Y-108769000D01*
X155181429Y-115586200D02*
X155205619Y-115607971D01*
X155229810Y-115673285D01*
X155229810Y-115716828D01*
X155205619Y-115782143D01*
X155157238Y-115825685D01*
X155108857Y-115847457D01*
X155012095Y-115869228D01*
X154939524Y-115869228D01*
X154842762Y-115847457D01*
X154794381Y-115825685D01*
X154746000Y-115782143D01*
X154721810Y-115716828D01*
X154721810Y-115673285D01*
X154746000Y-115607971D01*
X154770190Y-115586200D01*
X154721810Y-115172543D02*
X154721810Y-115390257D01*
X154963714Y-115412028D01*
X154939524Y-115390257D01*
X154915333Y-115346714D01*
X154915333Y-115237857D01*
X154939524Y-115194314D01*
X154963714Y-115172543D01*
X155012095Y-115150771D01*
X155133048Y-115150771D01*
X155181429Y-115172543D01*
X155205619Y-115194314D01*
X155229810Y-115237857D01*
X155229810Y-115346714D01*
X155205619Y-115390257D01*
X155181429Y-115412028D01*
X160381429Y-112036200D02*
X160405619Y-112057971D01*
X160429810Y-112123285D01*
X160429810Y-112166828D01*
X160405619Y-112232143D01*
X160357238Y-112275685D01*
X160308857Y-112297457D01*
X160212095Y-112319228D01*
X160139524Y-112319228D01*
X160042762Y-112297457D01*
X159994381Y-112275685D01*
X159946000Y-112232143D01*
X159921810Y-112166828D01*
X159921810Y-112123285D01*
X159946000Y-112057971D01*
X159970190Y-112036200D01*
X159921810Y-111644314D02*
X159921810Y-111731400D01*
X159946000Y-111774943D01*
X159970190Y-111796714D01*
X160042762Y-111840257D01*
X160139524Y-111862028D01*
X160333048Y-111862028D01*
X160381429Y-111840257D01*
X160405619Y-111818485D01*
X160429810Y-111774943D01*
X160429810Y-111687857D01*
X160405619Y-111644314D01*
X160381429Y-111622543D01*
X160333048Y-111600771D01*
X160212095Y-111600771D01*
X160163714Y-111622543D01*
X160139524Y-111644314D01*
X160115333Y-111687857D01*
X160115333Y-111774943D01*
X160139524Y-111818485D01*
X160163714Y-111840257D01*
X160212095Y-111862028D01*
X139131429Y-100276200D02*
X139155619Y-100297971D01*
X139179810Y-100363285D01*
X139179810Y-100406828D01*
X139155619Y-100472143D01*
X139107238Y-100515685D01*
X139058857Y-100537457D01*
X138962095Y-100559228D01*
X138889524Y-100559228D01*
X138792762Y-100537457D01*
X138744381Y-100515685D01*
X138696000Y-100472143D01*
X138671810Y-100406828D01*
X138671810Y-100363285D01*
X138696000Y-100297971D01*
X138720190Y-100276200D01*
X138671810Y-100123800D02*
X138671810Y-99819000D01*
X139179810Y-100014943D01*
X155181429Y-116976200D02*
X155205619Y-116997971D01*
X155229810Y-117063285D01*
X155229810Y-117106828D01*
X155205619Y-117172143D01*
X155157238Y-117215685D01*
X155108857Y-117237457D01*
X155012095Y-117259228D01*
X154939524Y-117259228D01*
X154842762Y-117237457D01*
X154794381Y-117215685D01*
X154746000Y-117172143D01*
X154721810Y-117106828D01*
X154721810Y-117063285D01*
X154746000Y-116997971D01*
X154770190Y-116976200D01*
X154939524Y-116714943D02*
X154915333Y-116758485D01*
X154891143Y-116780257D01*
X154842762Y-116802028D01*
X154818571Y-116802028D01*
X154770190Y-116780257D01*
X154746000Y-116758485D01*
X154721810Y-116714943D01*
X154721810Y-116627857D01*
X154746000Y-116584314D01*
X154770190Y-116562543D01*
X154818571Y-116540771D01*
X154842762Y-116540771D01*
X154891143Y-116562543D01*
X154915333Y-116584314D01*
X154939524Y-116627857D01*
X154939524Y-116714943D01*
X154963714Y-116758485D01*
X154987905Y-116780257D01*
X155036286Y-116802028D01*
X155133048Y-116802028D01*
X155181429Y-116780257D01*
X155205619Y-116758485D01*
X155229810Y-116714943D01*
X155229810Y-116627857D01*
X155205619Y-116584314D01*
X155181429Y-116562543D01*
X155133048Y-116540771D01*
X155036286Y-116540771D01*
X154987905Y-116562543D01*
X154963714Y-116584314D01*
X154939524Y-116627857D01*
X142581429Y-111543915D02*
X142605619Y-111565686D01*
X142629810Y-111631000D01*
X142629810Y-111674543D01*
X142605619Y-111739858D01*
X142557238Y-111783400D01*
X142508857Y-111805172D01*
X142412095Y-111826943D01*
X142339524Y-111826943D01*
X142242762Y-111805172D01*
X142194381Y-111783400D01*
X142146000Y-111739858D01*
X142121810Y-111674543D01*
X142121810Y-111631000D01*
X142146000Y-111565686D01*
X142170190Y-111543915D01*
X142629810Y-111108486D02*
X142629810Y-111369743D01*
X142629810Y-111239115D02*
X142121810Y-111239115D01*
X142194381Y-111282658D01*
X142242762Y-111326200D01*
X142266952Y-111369743D01*
X142121810Y-110825457D02*
X142121810Y-110781914D01*
X142146000Y-110738371D01*
X142170190Y-110716600D01*
X142218571Y-110694829D01*
X142315333Y-110673057D01*
X142436286Y-110673057D01*
X142533048Y-110694829D01*
X142581429Y-110716600D01*
X142605619Y-110738371D01*
X142629810Y-110781914D01*
X142629810Y-110825457D01*
X142605619Y-110869000D01*
X142581429Y-110890771D01*
X142533048Y-110912543D01*
X142436286Y-110934314D01*
X142315333Y-110934314D01*
X142218571Y-110912543D01*
X142170190Y-110890771D01*
X142146000Y-110869000D01*
X142121810Y-110825457D01*
X161531429Y-101493915D02*
X161555619Y-101515686D01*
X161579810Y-101581000D01*
X161579810Y-101624543D01*
X161555619Y-101689858D01*
X161507238Y-101733400D01*
X161458857Y-101755172D01*
X161362095Y-101776943D01*
X161289524Y-101776943D01*
X161192762Y-101755172D01*
X161144381Y-101733400D01*
X161096000Y-101689858D01*
X161071810Y-101624543D01*
X161071810Y-101581000D01*
X161096000Y-101515686D01*
X161120190Y-101493915D01*
X161579810Y-101058486D02*
X161579810Y-101319743D01*
X161579810Y-101189115D02*
X161071810Y-101189115D01*
X161144381Y-101232658D01*
X161192762Y-101276200D01*
X161216952Y-101319743D01*
X161579810Y-100623057D02*
X161579810Y-100884314D01*
X161579810Y-100753686D02*
X161071810Y-100753686D01*
X161144381Y-100797229D01*
X161192762Y-100840771D01*
X161216952Y-100884314D01*
X142681429Y-113143915D02*
X142705619Y-113165686D01*
X142729810Y-113231000D01*
X142729810Y-113274543D01*
X142705619Y-113339858D01*
X142657238Y-113383400D01*
X142608857Y-113405172D01*
X142512095Y-113426943D01*
X142439524Y-113426943D01*
X142342762Y-113405172D01*
X142294381Y-113383400D01*
X142246000Y-113339858D01*
X142221810Y-113274543D01*
X142221810Y-113231000D01*
X142246000Y-113165686D01*
X142270190Y-113143915D01*
X142729810Y-112708486D02*
X142729810Y-112969743D01*
X142729810Y-112839115D02*
X142221810Y-112839115D01*
X142294381Y-112882658D01*
X142342762Y-112926200D01*
X142366952Y-112969743D01*
X142270190Y-112534314D02*
X142246000Y-112512543D01*
X142221810Y-112469000D01*
X142221810Y-112360143D01*
X142246000Y-112316600D01*
X142270190Y-112294829D01*
X142318571Y-112273057D01*
X142366952Y-112273057D01*
X142439524Y-112294829D01*
X142729810Y-112556086D01*
X142729810Y-112273057D01*
X137041429Y-85383915D02*
X137065619Y-85405686D01*
X137089810Y-85471000D01*
X137089810Y-85514543D01*
X137065619Y-85579858D01*
X137017238Y-85623400D01*
X136968857Y-85645172D01*
X136872095Y-85666943D01*
X136799524Y-85666943D01*
X136702762Y-85645172D01*
X136654381Y-85623400D01*
X136606000Y-85579858D01*
X136581810Y-85514543D01*
X136581810Y-85471000D01*
X136606000Y-85405686D01*
X136630190Y-85383915D01*
X137089810Y-84948486D02*
X137089810Y-85209743D01*
X137089810Y-85079115D02*
X136581810Y-85079115D01*
X136654381Y-85122658D01*
X136702762Y-85166200D01*
X136726952Y-85209743D01*
X136751143Y-84556600D02*
X137089810Y-84556600D01*
X136557619Y-84665457D02*
X136920476Y-84774314D01*
X136920476Y-84491286D01*
X147311429Y-87413915D02*
X147335619Y-87435686D01*
X147359810Y-87501000D01*
X147359810Y-87544543D01*
X147335619Y-87609858D01*
X147287238Y-87653400D01*
X147238857Y-87675172D01*
X147142095Y-87696943D01*
X147069524Y-87696943D01*
X146972762Y-87675172D01*
X146924381Y-87653400D01*
X146876000Y-87609858D01*
X146851810Y-87544543D01*
X146851810Y-87501000D01*
X146876000Y-87435686D01*
X146900190Y-87413915D01*
X147359810Y-86978486D02*
X147359810Y-87239743D01*
X147359810Y-87109115D02*
X146851810Y-87109115D01*
X146924381Y-87152658D01*
X146972762Y-87196200D01*
X146996952Y-87239743D01*
X147069524Y-86717229D02*
X147045333Y-86760771D01*
X147021143Y-86782543D01*
X146972762Y-86804314D01*
X146948571Y-86804314D01*
X146900190Y-86782543D01*
X146876000Y-86760771D01*
X146851810Y-86717229D01*
X146851810Y-86630143D01*
X146876000Y-86586600D01*
X146900190Y-86564829D01*
X146948571Y-86543057D01*
X146972762Y-86543057D01*
X147021143Y-86564829D01*
X147045333Y-86586600D01*
X147069524Y-86630143D01*
X147069524Y-86717229D01*
X147093714Y-86760771D01*
X147117905Y-86782543D01*
X147166286Y-86804314D01*
X147263048Y-86804314D01*
X147311429Y-86782543D01*
X147335619Y-86760771D01*
X147359810Y-86717229D01*
X147359810Y-86630143D01*
X147335619Y-86586600D01*
X147311429Y-86564829D01*
X147263048Y-86543057D01*
X147166286Y-86543057D01*
X147117905Y-86564829D01*
X147093714Y-86586600D01*
X147069524Y-86630143D01*
X161581429Y-100093915D02*
X161605619Y-100115686D01*
X161629810Y-100181000D01*
X161629810Y-100224543D01*
X161605619Y-100289858D01*
X161557238Y-100333400D01*
X161508857Y-100355172D01*
X161412095Y-100376943D01*
X161339524Y-100376943D01*
X161242762Y-100355172D01*
X161194381Y-100333400D01*
X161146000Y-100289858D01*
X161121810Y-100224543D01*
X161121810Y-100181000D01*
X161146000Y-100115686D01*
X161170190Y-100093915D01*
X161170190Y-99919743D02*
X161146000Y-99897972D01*
X161121810Y-99854429D01*
X161121810Y-99745572D01*
X161146000Y-99702029D01*
X161170190Y-99680258D01*
X161218571Y-99658486D01*
X161266952Y-99658486D01*
X161339524Y-99680258D01*
X161629810Y-99941515D01*
X161629810Y-99658486D01*
X161170190Y-99484314D02*
X161146000Y-99462543D01*
X161121810Y-99419000D01*
X161121810Y-99310143D01*
X161146000Y-99266600D01*
X161170190Y-99244829D01*
X161218571Y-99223057D01*
X161266952Y-99223057D01*
X161339524Y-99244829D01*
X161629810Y-99506086D01*
X161629810Y-99223057D01*
X148901429Y-91143915D02*
X148925619Y-91165686D01*
X148949810Y-91231000D01*
X148949810Y-91274543D01*
X148925619Y-91339858D01*
X148877238Y-91383400D01*
X148828857Y-91405172D01*
X148732095Y-91426943D01*
X148659524Y-91426943D01*
X148562762Y-91405172D01*
X148514381Y-91383400D01*
X148466000Y-91339858D01*
X148441810Y-91274543D01*
X148441810Y-91231000D01*
X148466000Y-91165686D01*
X148490190Y-91143915D01*
X148490190Y-90969743D02*
X148466000Y-90947972D01*
X148441810Y-90904429D01*
X148441810Y-90795572D01*
X148466000Y-90752029D01*
X148490190Y-90730258D01*
X148538571Y-90708486D01*
X148586952Y-90708486D01*
X148659524Y-90730258D01*
X148949810Y-90991515D01*
X148949810Y-90708486D01*
X148659524Y-90447229D02*
X148635333Y-90490771D01*
X148611143Y-90512543D01*
X148562762Y-90534314D01*
X148538571Y-90534314D01*
X148490190Y-90512543D01*
X148466000Y-90490771D01*
X148441810Y-90447229D01*
X148441810Y-90360143D01*
X148466000Y-90316600D01*
X148490190Y-90294829D01*
X148538571Y-90273057D01*
X148562762Y-90273057D01*
X148611143Y-90294829D01*
X148635333Y-90316600D01*
X148659524Y-90360143D01*
X148659524Y-90447229D01*
X148683714Y-90490771D01*
X148707905Y-90512543D01*
X148756286Y-90534314D01*
X148853048Y-90534314D01*
X148901429Y-90512543D01*
X148925619Y-90490771D01*
X148949810Y-90447229D01*
X148949810Y-90360143D01*
X148925619Y-90316600D01*
X148901429Y-90294829D01*
X148853048Y-90273057D01*
X148756286Y-90273057D01*
X148707905Y-90294829D01*
X148683714Y-90316600D01*
X148659524Y-90360143D01*
X148921429Y-94023915D02*
X148945619Y-94045686D01*
X148969810Y-94111000D01*
X148969810Y-94154543D01*
X148945619Y-94219858D01*
X148897238Y-94263400D01*
X148848857Y-94285172D01*
X148752095Y-94306943D01*
X148679524Y-94306943D01*
X148582762Y-94285172D01*
X148534381Y-94263400D01*
X148486000Y-94219858D01*
X148461810Y-94154543D01*
X148461810Y-94111000D01*
X148486000Y-94045686D01*
X148510190Y-94023915D01*
X148510190Y-93849743D02*
X148486000Y-93827972D01*
X148461810Y-93784429D01*
X148461810Y-93675572D01*
X148486000Y-93632029D01*
X148510190Y-93610258D01*
X148558571Y-93588486D01*
X148606952Y-93588486D01*
X148679524Y-93610258D01*
X148969810Y-93871515D01*
X148969810Y-93588486D01*
X148969810Y-93370771D02*
X148969810Y-93283686D01*
X148945619Y-93240143D01*
X148921429Y-93218371D01*
X148848857Y-93174829D01*
X148752095Y-93153057D01*
X148558571Y-93153057D01*
X148510190Y-93174829D01*
X148486000Y-93196600D01*
X148461810Y-93240143D01*
X148461810Y-93327229D01*
X148486000Y-93370771D01*
X148510190Y-93392543D01*
X148558571Y-93414314D01*
X148679524Y-93414314D01*
X148727905Y-93392543D01*
X148752095Y-93370771D01*
X148776286Y-93327229D01*
X148776286Y-93240143D01*
X148752095Y-93196600D01*
X148727905Y-93174829D01*
X148679524Y-93153057D01*
X138361429Y-98593915D02*
X138385619Y-98615686D01*
X138409810Y-98681000D01*
X138409810Y-98724543D01*
X138385619Y-98789858D01*
X138337238Y-98833400D01*
X138288857Y-98855172D01*
X138192095Y-98876943D01*
X138119524Y-98876943D01*
X138022762Y-98855172D01*
X137974381Y-98833400D01*
X137926000Y-98789858D01*
X137901810Y-98724543D01*
X137901810Y-98681000D01*
X137926000Y-98615686D01*
X137950190Y-98593915D01*
X137901810Y-98441515D02*
X137901810Y-98158486D01*
X138095333Y-98310886D01*
X138095333Y-98245572D01*
X138119524Y-98202029D01*
X138143714Y-98180258D01*
X138192095Y-98158486D01*
X138313048Y-98158486D01*
X138361429Y-98180258D01*
X138385619Y-98202029D01*
X138409810Y-98245572D01*
X138409810Y-98376200D01*
X138385619Y-98419743D01*
X138361429Y-98441515D01*
X138409810Y-97723057D02*
X138409810Y-97984314D01*
X138409810Y-97853686D02*
X137901810Y-97853686D01*
X137974381Y-97897229D01*
X138022762Y-97940771D01*
X138046952Y-97984314D01*
X144231429Y-96893915D02*
X144255619Y-96915686D01*
X144279810Y-96981000D01*
X144279810Y-97024543D01*
X144255619Y-97089858D01*
X144207238Y-97133400D01*
X144158857Y-97155172D01*
X144062095Y-97176943D01*
X143989524Y-97176943D01*
X143892762Y-97155172D01*
X143844381Y-97133400D01*
X143796000Y-97089858D01*
X143771810Y-97024543D01*
X143771810Y-96981000D01*
X143796000Y-96915686D01*
X143820190Y-96893915D01*
X143771810Y-96741515D02*
X143771810Y-96458486D01*
X143965333Y-96610886D01*
X143965333Y-96545572D01*
X143989524Y-96502029D01*
X144013714Y-96480258D01*
X144062095Y-96458486D01*
X144183048Y-96458486D01*
X144231429Y-96480258D01*
X144255619Y-96502029D01*
X144279810Y-96545572D01*
X144279810Y-96676200D01*
X144255619Y-96719743D01*
X144231429Y-96741515D01*
X143820190Y-96284314D02*
X143796000Y-96262543D01*
X143771810Y-96219000D01*
X143771810Y-96110143D01*
X143796000Y-96066600D01*
X143820190Y-96044829D01*
X143868571Y-96023057D01*
X143916952Y-96023057D01*
X143989524Y-96044829D01*
X144279810Y-96306086D01*
X144279810Y-96023057D01*
X166706829Y-92212457D02*
X166249629Y-92212457D01*
X166249629Y-92103600D01*
X166271400Y-92038285D01*
X166314943Y-91994743D01*
X166358486Y-91972971D01*
X166445571Y-91951200D01*
X166510886Y-91951200D01*
X166597971Y-91972971D01*
X166641514Y-91994743D01*
X166685057Y-92038285D01*
X166706829Y-92103600D01*
X166706829Y-92212457D01*
X166706829Y-91515771D02*
X166706829Y-91777028D01*
X166706829Y-91646400D02*
X166249629Y-91646400D01*
X166314943Y-91689943D01*
X166358486Y-91733485D01*
X166380257Y-91777028D01*
X166756829Y-90587457D02*
X166299629Y-90587457D01*
X166299629Y-90478600D01*
X166321400Y-90413285D01*
X166364943Y-90369743D01*
X166408486Y-90347971D01*
X166495571Y-90326200D01*
X166560886Y-90326200D01*
X166647971Y-90347971D01*
X166691514Y-90369743D01*
X166735057Y-90413285D01*
X166756829Y-90478600D01*
X166756829Y-90587457D01*
X166343171Y-90152028D02*
X166321400Y-90130257D01*
X166299629Y-90086714D01*
X166299629Y-89977857D01*
X166321400Y-89934314D01*
X166343171Y-89912543D01*
X166386714Y-89890771D01*
X166430257Y-89890771D01*
X166495571Y-89912543D01*
X166756829Y-90173800D01*
X166756829Y-89890771D01*
X166706829Y-94012457D02*
X166249629Y-94012457D01*
X166249629Y-93903600D01*
X166271400Y-93838285D01*
X166314943Y-93794743D01*
X166358486Y-93772971D01*
X166445571Y-93751200D01*
X166510886Y-93751200D01*
X166597971Y-93772971D01*
X166641514Y-93794743D01*
X166685057Y-93838285D01*
X166706829Y-93903600D01*
X166706829Y-94012457D01*
X166249629Y-93598800D02*
X166249629Y-93315771D01*
X166423800Y-93468171D01*
X166423800Y-93402857D01*
X166445571Y-93359314D01*
X166467343Y-93337543D01*
X166510886Y-93315771D01*
X166619743Y-93315771D01*
X166663286Y-93337543D01*
X166685057Y-93359314D01*
X166706829Y-93402857D01*
X166706829Y-93533485D01*
X166685057Y-93577028D01*
X166663286Y-93598800D01*
X155814371Y-94323543D02*
X155792600Y-94367086D01*
X155749057Y-94410629D01*
X155683743Y-94475943D01*
X155661971Y-94519486D01*
X155661971Y-94563029D01*
X155770829Y-94541257D02*
X155749057Y-94584800D01*
X155705514Y-94628343D01*
X155618429Y-94650114D01*
X155466029Y-94650114D01*
X155378943Y-94628343D01*
X155335400Y-94584800D01*
X155313629Y-94541257D01*
X155313629Y-94454171D01*
X155335400Y-94410629D01*
X155378943Y-94367086D01*
X155466029Y-94345314D01*
X155618429Y-94345314D01*
X155705514Y-94367086D01*
X155749057Y-94410629D01*
X155770829Y-94454171D01*
X155770829Y-94541257D01*
X155770829Y-93909886D02*
X155770829Y-94171143D01*
X155770829Y-94040515D02*
X155313629Y-94040515D01*
X155378943Y-94084058D01*
X155422486Y-94127600D01*
X155444257Y-94171143D01*
X155804281Y-90583543D02*
X155781300Y-90627086D01*
X155735338Y-90670629D01*
X155666395Y-90735943D01*
X155643414Y-90779486D01*
X155643414Y-90823029D01*
X155758319Y-90801257D02*
X155735338Y-90844800D01*
X155689376Y-90888343D01*
X155597452Y-90910114D01*
X155436586Y-90910114D01*
X155344662Y-90888343D01*
X155298700Y-90844800D01*
X155275719Y-90801257D01*
X155275719Y-90714171D01*
X155298700Y-90670629D01*
X155344662Y-90627086D01*
X155436586Y-90605314D01*
X155597452Y-90605314D01*
X155689376Y-90627086D01*
X155735338Y-90670629D01*
X155758319Y-90714171D01*
X155758319Y-90801257D01*
X155321681Y-90431143D02*
X155298700Y-90409372D01*
X155275719Y-90365829D01*
X155275719Y-90256972D01*
X155298700Y-90213429D01*
X155321681Y-90191658D01*
X155367643Y-90169886D01*
X155413605Y-90169886D01*
X155482548Y-90191658D01*
X155758319Y-90452915D01*
X155758319Y-90169886D01*
X155870371Y-92633543D02*
X155848600Y-92677086D01*
X155805057Y-92720629D01*
X155739743Y-92785943D01*
X155717971Y-92829486D01*
X155717971Y-92873029D01*
X155826829Y-92851257D02*
X155805057Y-92894800D01*
X155761514Y-92938343D01*
X155674429Y-92960114D01*
X155522029Y-92960114D01*
X155434943Y-92938343D01*
X155391400Y-92894800D01*
X155369629Y-92851257D01*
X155369629Y-92764171D01*
X155391400Y-92720629D01*
X155434943Y-92677086D01*
X155522029Y-92655314D01*
X155674429Y-92655314D01*
X155761514Y-92677086D01*
X155805057Y-92720629D01*
X155826829Y-92764171D01*
X155826829Y-92851257D01*
X155369629Y-92502915D02*
X155369629Y-92219886D01*
X155543800Y-92372286D01*
X155543800Y-92306972D01*
X155565571Y-92263429D01*
X155587343Y-92241658D01*
X155630886Y-92219886D01*
X155739743Y-92219886D01*
X155783286Y-92241658D01*
X155805057Y-92263429D01*
X155826829Y-92306972D01*
X155826829Y-92437600D01*
X155805057Y-92481143D01*
X155783286Y-92502915D01*
D11*
X153456429Y-91268477D02*
X153480619Y-91292667D01*
X153504810Y-91365239D01*
X153504810Y-91413620D01*
X153480619Y-91486191D01*
X153432238Y-91534572D01*
X153383857Y-91558763D01*
X153287095Y-91582953D01*
X153214524Y-91582953D01*
X153117762Y-91558763D01*
X153069381Y-91534572D01*
X153021000Y-91486191D01*
X152996810Y-91413620D01*
X152996810Y-91365239D01*
X153021000Y-91292667D01*
X153045190Y-91268477D01*
X153504810Y-90784667D02*
X153504810Y-91074953D01*
X153504810Y-90929810D02*
X152996810Y-90929810D01*
X153069381Y-90978191D01*
X153117762Y-91026572D01*
X153141952Y-91074953D01*
X152996810Y-90470191D02*
X152996810Y-90421810D01*
X153021000Y-90373429D01*
X153045190Y-90349238D01*
X153093571Y-90325048D01*
X153190333Y-90300857D01*
X153311286Y-90300857D01*
X153408048Y-90325048D01*
X153456429Y-90349238D01*
X153480619Y-90373429D01*
X153504810Y-90421810D01*
X153504810Y-90470191D01*
X153480619Y-90518572D01*
X153456429Y-90542762D01*
X153408048Y-90566953D01*
X153311286Y-90591143D01*
X153190333Y-90591143D01*
X153093571Y-90566953D01*
X153045190Y-90542762D01*
X153021000Y-90518572D01*
X152996810Y-90470191D01*
X152996810Y-89986381D02*
X152996810Y-89938000D01*
X153021000Y-89889619D01*
X153045190Y-89865428D01*
X153093571Y-89841238D01*
X153190333Y-89817047D01*
X153311286Y-89817047D01*
X153408048Y-89841238D01*
X153456429Y-89865428D01*
X153480619Y-89889619D01*
X153504810Y-89938000D01*
X153504810Y-89986381D01*
X153480619Y-90034762D01*
X153456429Y-90058952D01*
X153408048Y-90083143D01*
X153311286Y-90107333D01*
X153190333Y-90107333D01*
X153093571Y-90083143D01*
X153045190Y-90058952D01*
X153021000Y-90034762D01*
X152996810Y-89986381D01*
D21*
X164838371Y-76631429D02*
X164816600Y-76655619D01*
X164751286Y-76679810D01*
X164707743Y-76679810D01*
X164642428Y-76655619D01*
X164598886Y-76607238D01*
X164577114Y-76558857D01*
X164555343Y-76462095D01*
X164555343Y-76389524D01*
X164577114Y-76292762D01*
X164598886Y-76244381D01*
X164642428Y-76196000D01*
X164707743Y-76171810D01*
X164751286Y-76171810D01*
X164816600Y-76196000D01*
X164838371Y-76220190D01*
X165273800Y-76679810D02*
X165012543Y-76679810D01*
X165143171Y-76679810D02*
X165143171Y-76171810D01*
X165099628Y-76244381D01*
X165056086Y-76292762D01*
X165012543Y-76316952D01*
X165556829Y-76171810D02*
X165600372Y-76171810D01*
X165643915Y-76196000D01*
X165665686Y-76220190D01*
X165687457Y-76268571D01*
X165709229Y-76365333D01*
X165709229Y-76486286D01*
X165687457Y-76583048D01*
X165665686Y-76631429D01*
X165643915Y-76655619D01*
X165600372Y-76679810D01*
X165556829Y-76679810D01*
X165513286Y-76655619D01*
X165491515Y-76631429D01*
X165469743Y-76583048D01*
X165447972Y-76486286D01*
X165447972Y-76365333D01*
X165469743Y-76268571D01*
X165491515Y-76220190D01*
X165513286Y-76196000D01*
X165556829Y-76171810D01*
X166144658Y-76679810D02*
X165883401Y-76679810D01*
X166014029Y-76679810D02*
X166014029Y-76171810D01*
X165970486Y-76244381D01*
X165926944Y-76292762D01*
X165883401Y-76316952D01*
X153481429Y-89386629D02*
X153505619Y-89408400D01*
X153529810Y-89473714D01*
X153529810Y-89517257D01*
X153505619Y-89582572D01*
X153457238Y-89626114D01*
X153408857Y-89647886D01*
X153312095Y-89669657D01*
X153239524Y-89669657D01*
X153142762Y-89647886D01*
X153094381Y-89626114D01*
X153046000Y-89582572D01*
X153021810Y-89517257D01*
X153021810Y-89473714D01*
X153046000Y-89408400D01*
X153070190Y-89386629D01*
X153529810Y-88951200D02*
X153529810Y-89212457D01*
X153529810Y-89081829D02*
X153021810Y-89081829D01*
X153094381Y-89125372D01*
X153142762Y-89168914D01*
X153166952Y-89212457D01*
X153021810Y-88668171D02*
X153021810Y-88624628D01*
X153046000Y-88581085D01*
X153070190Y-88559314D01*
X153118571Y-88537543D01*
X153215333Y-88515771D01*
X153336286Y-88515771D01*
X153433048Y-88537543D01*
X153481429Y-88559314D01*
X153505619Y-88581085D01*
X153529810Y-88624628D01*
X153529810Y-88668171D01*
X153505619Y-88711714D01*
X153481429Y-88733485D01*
X153433048Y-88755257D01*
X153336286Y-88777028D01*
X153215333Y-88777028D01*
X153118571Y-88755257D01*
X153070190Y-88733485D01*
X153046000Y-88711714D01*
X153021810Y-88668171D01*
X153070190Y-88341599D02*
X153046000Y-88319828D01*
X153021810Y-88276285D01*
X153021810Y-88167428D01*
X153046000Y-88123885D01*
X153070190Y-88102114D01*
X153118571Y-88080342D01*
X153166952Y-88080342D01*
X153239524Y-88102114D01*
X153529810Y-88363371D01*
X153529810Y-88080342D01*
X136889114Y-97067714D02*
X137106829Y-97067714D01*
X136649629Y-97220114D02*
X136889114Y-97067714D01*
X136649629Y-96915314D01*
X136693171Y-96784685D02*
X136671400Y-96762914D01*
X136649629Y-96719371D01*
X136649629Y-96610514D01*
X136671400Y-96566971D01*
X136693171Y-96545200D01*
X136736714Y-96523428D01*
X136780257Y-96523428D01*
X136845571Y-96545200D01*
X137106829Y-96806457D01*
X137106829Y-96523428D01*
X158702543Y-96396362D02*
X158702543Y-95895982D01*
X158876715Y-95895982D01*
X158920257Y-95919810D01*
X158942029Y-95943638D01*
X158963800Y-95991293D01*
X158963800Y-96062776D01*
X158942029Y-96110431D01*
X158920257Y-96134259D01*
X158876715Y-96158086D01*
X158702543Y-96158086D01*
X159137972Y-95943638D02*
X159159743Y-95919810D01*
X159203286Y-95895982D01*
X159312143Y-95895982D01*
X159355686Y-95919810D01*
X159377457Y-95943638D01*
X159399229Y-95991293D01*
X159399229Y-96038948D01*
X159377457Y-96110431D01*
X159116200Y-96396362D01*
X159399229Y-96396362D01*
D11*
X137155619Y-79857333D02*
X137179810Y-79784762D01*
X137179810Y-79663809D01*
X137155619Y-79615428D01*
X137131429Y-79591238D01*
X137083048Y-79567047D01*
X137034667Y-79567047D01*
X136986286Y-79591238D01*
X136962095Y-79615428D01*
X136937905Y-79663809D01*
X136913714Y-79760571D01*
X136889524Y-79808952D01*
X136865333Y-79833143D01*
X136816952Y-79857333D01*
X136768571Y-79857333D01*
X136720190Y-79833143D01*
X136696000Y-79808952D01*
X136671810Y-79760571D01*
X136671810Y-79639619D01*
X136696000Y-79567047D01*
X136671810Y-79397714D02*
X137179810Y-79276761D01*
X136816952Y-79179999D01*
X137179810Y-79083237D01*
X136671810Y-78962285D01*
X136671810Y-78817143D02*
X136671810Y-78502666D01*
X136865333Y-78672000D01*
X136865333Y-78599428D01*
X136889524Y-78551047D01*
X136913714Y-78526857D01*
X136962095Y-78502666D01*
X137083048Y-78502666D01*
X137131429Y-78526857D01*
X137155619Y-78551047D01*
X137179810Y-78599428D01*
X137179810Y-78744571D01*
X137155619Y-78792952D01*
X137131429Y-78817143D01*
D21*
X139476362Y-89943915D02*
X139238086Y-90096315D01*
X139476362Y-90205172D02*
X138975982Y-90205172D01*
X138975982Y-90031000D01*
X138999810Y-89987458D01*
X139023638Y-89965686D01*
X139071293Y-89943915D01*
X139142776Y-89943915D01*
X139190431Y-89965686D01*
X139214259Y-89987458D01*
X139238086Y-90031000D01*
X139238086Y-90205172D01*
X139023638Y-89769743D02*
X138999810Y-89747972D01*
X138975982Y-89704429D01*
X138975982Y-89595572D01*
X138999810Y-89552029D01*
X139023638Y-89530258D01*
X139071293Y-89508486D01*
X139118948Y-89508486D01*
X139190431Y-89530258D01*
X139476362Y-89791515D01*
X139476362Y-89508486D01*
X138975982Y-89094829D02*
X138975982Y-89312543D01*
X139214259Y-89334314D01*
X139190431Y-89312543D01*
X139166603Y-89269000D01*
X139166603Y-89160143D01*
X139190431Y-89116600D01*
X139214259Y-89094829D01*
X139261914Y-89073057D01*
X139381052Y-89073057D01*
X139428707Y-89094829D01*
X139452535Y-89116600D01*
X139476362Y-89160143D01*
X139476362Y-89269000D01*
X139452535Y-89312543D01*
X139428707Y-89334314D01*
D11*
X144311810Y-85147048D02*
X144723048Y-85147048D01*
X144771429Y-85122857D01*
X144795619Y-85098667D01*
X144819810Y-85050286D01*
X144819810Y-84953524D01*
X144795619Y-84905143D01*
X144771429Y-84880952D01*
X144723048Y-84856762D01*
X144311810Y-84856762D01*
X144360190Y-84639048D02*
X144336000Y-84614858D01*
X144311810Y-84566477D01*
X144311810Y-84445524D01*
X144336000Y-84397143D01*
X144360190Y-84372953D01*
X144408571Y-84348762D01*
X144456952Y-84348762D01*
X144529524Y-84372953D01*
X144819810Y-84663239D01*
X144819810Y-84348762D01*
M02*
