M48
;DRILL file {kicad (2014-jul-16 BZR unknown)-product} date Mon 15 Sep 2014 10:06:17 AM MDT
;FORMAT={-:-/ absolute / inch / decimal}
FMAT,2
INCH,TZ
T1C0.015
T2C0.040
%
G90
G05
M72
T1
X5.3228Y-3.9028
X5.3299Y-4.3031
X5.3319Y-4.0181
X5.3319Y-4.7008
X5.3323Y-3.3839
X5.3394Y-4.4823
X5.3465Y-4.622
X5.348Y-4.3689
X5.3626Y-4.0866
X5.3811Y-3.4232
X5.3902Y-4.411
X5.3992Y-4.1795
X5.4039Y-3.1646
X5.4075Y-4.6339
X5.4181Y-4.0067
X5.4236Y-3.9362
X5.4311Y-4.1374
X5.4378Y-4.2972
X5.4409Y-4.2441
X5.45Y-4.0965
X5.4551Y-4.4169
X5.461Y-4.1685
X5.4638Y-4.0055
X5.4661Y-3.1146
X5.472Y-3.4772
X5.4787Y-3.1807
X5.4902Y-4.3874
X5.4937Y-4.1972
X5.5043Y-3.1402
X5.5114Y-3.5394
X5.5157Y-3.2854
X5.5165Y-3.4921
X5.5252Y-4.2295
X5.5831Y-4.2488
X5.5862Y-4.3559
X5.6252Y-3.0449
X5.6291Y-3.9803
X5.6504Y-4.7398
X5.6614Y-3.0701
X5.6614Y-4.1047
X5.6835Y-4.1516
X5.6957Y-3.7122
X5.6988Y-4.7201
X5.7016Y-3.9807
X5.7028Y-3.0437
X5.7154Y-3.7516
X5.7433Y-4.3571
X5.7717Y-2.9764
X5.7894Y-3.2461
X5.7902Y-4.1697
X5.8236Y-4.1323
X5.8476Y-4.6193
X5.8533Y-3.4823
X5.8756Y-4.261
X5.8906Y-4.0618
X5.8984Y-4.224
X5.9075Y-4.5118
X5.9138Y-3.0146
X5.9142Y-3.1795
X5.915Y-4.635
X5.9193Y-3.3472
X5.9346Y-4.3614
X5.939Y-3.6841
X5.9465Y-4.3169
X5.9516Y-4.5118
X5.9606Y-3.8287
X5.972Y-4.398
X5.9768Y-4.0185
X6.0039Y-3.9441
X6.0134Y-3.9945
X6.0165Y-4.4004
X6.0177Y-4.6933
X6.0591Y-4.3051
X6.0626Y-3.0154
X6.0646Y-4.0228
X6.065Y-3.1807
X6.065Y-3.3469
X6.0744Y-4.5122
X6.0913Y-4.2732
X6.1024Y-3.7472
X6.1043Y-4.3354
X6.1102Y-3.5315
X6.1122Y-3.6831
X6.1189Y-3.6071
X6.1201Y-4.724
X6.1307Y-4.2528
X6.1626Y-3.9496
X6.1768Y-4.139
X6.1827Y-3.8154
X6.2047Y-3.178
X6.2063Y-3.3488
X6.2098Y-3.0177
X6.2138Y-4.2193
X6.2268Y-4.1772
X6.2449Y-4.6012
X6.2608Y-3.5059
X6.3252Y-4.5157
X6.3307Y-4.648
X6.3409Y-3.8827
X6.3476Y-3.1799
X6.348Y-4.1213
X6.3488Y-3.0248
X6.3496Y-3.3504
X6.3638Y-4.3134
X6.372Y-4.5122
X6.378Y-4.6445
X6.3874Y-4.1614
X6.4154Y-3.7957
X6.4169Y-3.8433
X6.4185Y-4.5122
X6.4287Y-4.6236
X6.4429Y-4.4071
X6.4457Y-4.0217
X6.4563Y-4.7339
X6.4618Y-4.5429
X6.4661Y-4.4937
X6.4728Y-3.7555
X6.4803Y-3.4892
X6.4835Y-3.9524
X6.4925Y-4.6567
X6.5114Y-4.4933
X6.5134Y-2.9701
X6.5181Y-4.7016
X6.5193Y-3.985
X6.5232Y-3.7492
X6.5346Y-4.1669
X6.5661Y-4.137
X6.576Y-4.4429
X6.5776Y-4.4878
X6.5925Y-4.5303
X6.5961Y-4.0165
X6.598Y-4.3106
X6.5996Y-3.9181
X6.6024Y-4.1012
X6.6071Y-3.8083
X6.6157Y-4.6941
X6.6709Y-4.1886
X6.6815Y-3.9201
X6.6839Y-4.6933
X6.8102Y-3.7394
T2
X5.161Y-3.8264
X5.161Y-3.9264
X5.161Y-4.0264
X5.161Y-4.1264
X5.161Y-4.2264
X5.161Y-4.3264
X5.161Y-4.4264
X5.161Y-4.5264
X5.161Y-4.6264
X5.161Y-4.7264
X5.1681Y-2.9378
X5.261Y-3.8264
X5.261Y-3.9264
X5.261Y-4.0264
X5.261Y-4.1264
X5.261Y-4.2264
X5.261Y-4.3264
X5.261Y-4.4264
X5.261Y-4.5264
X5.261Y-4.6264
X5.261Y-4.7264
X5.2681Y-2.9378
X5.3681Y-2.9378
X5.4681Y-2.9378
X5.5681Y-2.9378
X5.6681Y-2.9378
X6.0187Y-3.7136
X6.2654Y-3.8413
X6.7522Y-3.8049
X6.7522Y-3.9049
X6.7522Y-4.0049
X6.7522Y-4.1049
X6.7522Y-4.2049
X6.7522Y-4.3049
X6.7522Y-4.4049
X6.7522Y-4.5049
X6.7522Y-4.6049
X6.7522Y-4.7049
X6.8522Y-3.8049
X6.8522Y-3.9049
X6.8522Y-4.0049
X6.8522Y-4.1049
X6.8522Y-4.2049
X6.8522Y-4.3049
X6.8522Y-4.4049
X6.8522Y-4.5049
X6.8522Y-4.6049
X6.8522Y-4.7049
T0
M30
