%FSLAX46Y46*%
G04 Gerber Fmt 4.6, Leading zero omitted, Abs format (unit mm)*
G04 Created by KiCad (PCBNEW (2014-jul-16 BZR unknown)-product) date Thu 11 Sep 2014 01:41:01 PM MDT*
%MOMM*%
G01*
G04 APERTURE LIST*
%ADD10C,0.100000*%
%ADD11C,0.127000*%
%ADD12R,1.727200X1.727200*%
%ADD13O,1.727200X1.727200*%
%ADD14R,1.727200X2.032000*%
%ADD15O,1.727200X2.032000*%
%ADD16R,0.949960X0.795020*%
%ADD17O,2.235200X2.235200*%
%ADD18C,0.889000*%
%ADD19C,0.254000*%
G04 APERTURE END LIST*
D10*
D11*
X142076095Y-120699810D02*
X142076095Y-120191810D01*
X141955142Y-120191810D01*
X141882571Y-120216000D01*
X141834190Y-120264381D01*
X141809999Y-120312762D01*
X141785809Y-120409524D01*
X141785809Y-120482095D01*
X141809999Y-120578857D01*
X141834190Y-120627238D01*
X141882571Y-120675619D01*
X141955142Y-120699810D01*
X142076095Y-120699810D01*
X141350380Y-120699810D02*
X141350380Y-120433714D01*
X141374571Y-120385333D01*
X141422952Y-120361143D01*
X141519714Y-120361143D01*
X141568095Y-120385333D01*
X141350380Y-120675619D02*
X141398761Y-120699810D01*
X141519714Y-120699810D01*
X141568095Y-120675619D01*
X141592285Y-120627238D01*
X141592285Y-120578857D01*
X141568095Y-120530476D01*
X141519714Y-120506286D01*
X141398761Y-120506286D01*
X141350380Y-120482095D01*
X141108476Y-120361143D02*
X141108476Y-120699810D01*
X141108476Y-120409524D02*
X141084285Y-120385333D01*
X141035904Y-120361143D01*
X140963333Y-120361143D01*
X140914952Y-120385333D01*
X140890761Y-120433714D01*
X140890761Y-120699810D01*
X140310190Y-120191810D02*
X140189237Y-120699810D01*
X140092475Y-120336952D01*
X139995713Y-120699810D01*
X139874761Y-120191810D01*
X139681238Y-120699810D02*
X139681238Y-120361143D01*
X139681238Y-120191810D02*
X139705428Y-120216000D01*
X139681238Y-120240190D01*
X139657047Y-120216000D01*
X139681238Y-120191810D01*
X139681238Y-120240190D01*
X139366761Y-120699810D02*
X139415142Y-120675619D01*
X139439333Y-120627238D01*
X139439333Y-120191810D01*
X139100666Y-120699810D02*
X139149047Y-120675619D01*
X139173238Y-120627238D01*
X139173238Y-120191810D01*
X138834571Y-120699810D02*
X138882952Y-120675619D01*
X138907143Y-120651429D01*
X138931333Y-120603048D01*
X138931333Y-120457905D01*
X138907143Y-120409524D01*
X138882952Y-120385333D01*
X138834571Y-120361143D01*
X138762000Y-120361143D01*
X138713619Y-120385333D01*
X138689428Y-120409524D01*
X138665238Y-120457905D01*
X138665238Y-120603048D01*
X138689428Y-120651429D01*
X138713619Y-120675619D01*
X138762000Y-120699810D01*
X138834571Y-120699810D01*
X138229809Y-120361143D02*
X138229809Y-120699810D01*
X138447524Y-120361143D02*
X138447524Y-120627238D01*
X138423333Y-120675619D01*
X138374952Y-120699810D01*
X138302381Y-120699810D01*
X138254000Y-120675619D01*
X138229809Y-120651429D01*
X137770190Y-120361143D02*
X137770190Y-120772381D01*
X137794381Y-120820762D01*
X137818571Y-120844952D01*
X137866952Y-120869143D01*
X137939524Y-120869143D01*
X137987905Y-120844952D01*
X137770190Y-120675619D02*
X137818571Y-120699810D01*
X137915333Y-120699810D01*
X137963714Y-120675619D01*
X137987905Y-120651429D01*
X138012095Y-120603048D01*
X138012095Y-120457905D01*
X137987905Y-120409524D01*
X137963714Y-120385333D01*
X137915333Y-120361143D01*
X137818571Y-120361143D01*
X137770190Y-120385333D01*
X137528286Y-120699810D02*
X137528286Y-120191810D01*
X137310571Y-120699810D02*
X137310571Y-120433714D01*
X137334762Y-120385333D01*
X137383143Y-120361143D01*
X137455714Y-120361143D01*
X137504095Y-120385333D01*
X137528286Y-120409524D01*
X137068667Y-120699810D02*
X137068667Y-120191810D01*
X137068667Y-120385333D02*
X137020286Y-120361143D01*
X136923524Y-120361143D01*
X136875143Y-120385333D01*
X136850952Y-120409524D01*
X136826762Y-120457905D01*
X136826762Y-120603048D01*
X136850952Y-120651429D01*
X136875143Y-120675619D01*
X136923524Y-120699810D01*
X137020286Y-120699810D01*
X137068667Y-120675619D01*
X136657429Y-120361143D02*
X136536476Y-120699810D01*
X136415524Y-120361143D02*
X136536476Y-120699810D01*
X136584857Y-120820762D01*
X136609048Y-120844952D01*
X136657429Y-120869143D01*
D12*
X131090000Y-97190000D03*
D13*
X133630000Y-97190000D03*
X131090000Y-99730000D03*
X133630000Y-99730000D03*
X131090000Y-102270000D03*
X133630000Y-102270000D03*
X131090000Y-104810000D03*
X133630000Y-104810000D03*
X131090000Y-107350000D03*
X133630000Y-107350000D03*
X131090000Y-109890000D03*
X133630000Y-109890000D03*
X131090000Y-112430000D03*
X133630000Y-112430000D03*
X131090000Y-114970000D03*
X133630000Y-114970000D03*
X131090000Y-117510000D03*
X133630000Y-117510000D03*
X131090000Y-120050000D03*
X133630000Y-120050000D03*
D12*
X171505000Y-96645000D03*
D13*
X174045000Y-96645000D03*
X171505000Y-99185000D03*
X174045000Y-99185000D03*
X171505000Y-101725000D03*
X174045000Y-101725000D03*
X171505000Y-104265000D03*
X174045000Y-104265000D03*
X171505000Y-106805000D03*
X174045000Y-106805000D03*
X171505000Y-109345000D03*
X174045000Y-109345000D03*
X171505000Y-111885000D03*
X174045000Y-111885000D03*
X171505000Y-114425000D03*
X174045000Y-114425000D03*
X171505000Y-116965000D03*
X174045000Y-116965000D03*
X171505000Y-119505000D03*
X174045000Y-119505000D03*
D14*
X143970000Y-74620000D03*
D15*
X141430000Y-74620000D03*
X138890000Y-74620000D03*
X136350000Y-74620000D03*
X133810000Y-74620000D03*
X131270000Y-74620000D03*
D16*
X167039620Y-76999560D03*
X167039620Y-79250000D03*
D17*
X159140000Y-97570000D03*
X152350000Y-92080000D03*
D18*
X157730000Y-76650000D03*
X153990000Y-76590000D03*
X161260000Y-76830000D03*
X150220000Y-80760000D03*
X157600000Y-80720000D03*
X161280000Y-85100000D03*
X157640000Y-85060000D03*
X161230000Y-80770000D03*
X154050000Y-80790000D03*
X150210000Y-76570000D03*
X150350000Y-85020000D03*
X154050000Y-85010000D03*
X161060000Y-98620000D03*
X154080000Y-90260000D03*
X156530000Y-100320000D03*
X145880000Y-110670000D03*
X173070000Y-94640000D03*
X158620000Y-116870000D03*
X163650000Y-111940000D03*
X141890000Y-110640000D03*
X165440000Y-75440000D03*
X135200000Y-99130000D03*
X135060000Y-91160000D03*
X142980000Y-101100000D03*
X144820000Y-101110000D03*
X145170000Y-95290000D03*
X143800000Y-77980000D03*
X146600000Y-75600000D03*
X137260000Y-78480000D03*
X163990000Y-120240000D03*
X149240000Y-108230000D03*
X151040000Y-109650000D03*
X169710000Y-99570000D03*
X167630000Y-99520000D03*
X144850000Y-77310000D03*
X164240000Y-114140000D03*
X158800000Y-88075000D03*
X151810000Y-102070000D03*
X137760000Y-99980000D03*
X137140000Y-106160000D03*
X138430000Y-104050000D03*
X139990000Y-89900000D03*
X137950000Y-105090000D03*
X140100000Y-83450000D03*
X139450000Y-111440000D03*
X138200000Y-107800000D03*
X135840000Y-110970000D03*
X150050000Y-114600000D03*
X148530000Y-117330000D03*
X138120000Y-109150000D03*
X138560000Y-112190000D03*
X135380000Y-109300000D03*
X151170000Y-114600000D03*
X150240000Y-117730000D03*
X135620000Y-113850000D03*
X152740000Y-101460000D03*
X147050000Y-83950000D03*
X160660000Y-114700000D03*
X160800000Y-118060000D03*
X135800000Y-117400000D03*
X152850000Y-119210000D03*
X152820000Y-111770000D03*
X161850000Y-114610000D03*
X162000000Y-117970000D03*
X151690000Y-111710000D03*
X144750000Y-119890000D03*
X163290000Y-117440000D03*
X163030000Y-114610000D03*
X150740000Y-110780000D03*
X143520000Y-120390000D03*
X135430000Y-119400000D03*
X164680000Y-100390000D03*
X158160000Y-106100000D03*
X154720000Y-108540000D03*
X143800000Y-104260000D03*
X138710000Y-105880000D03*
X139810000Y-79760000D03*
X165590000Y-101220000D03*
X144360000Y-105450000D03*
X157830000Y-107170000D03*
X155720000Y-108020000D03*
X163720000Y-102150000D03*
X154040000Y-102180000D03*
X167070000Y-113990000D03*
X161640000Y-109560000D03*
X167590000Y-109490000D03*
X147920000Y-104960000D03*
X167030000Y-112850000D03*
X167700000Y-104170000D03*
X167450000Y-115070000D03*
X166780000Y-105080000D03*
X165560000Y-119420000D03*
X164130000Y-115390000D03*
X165390000Y-114130000D03*
X165980000Y-105840000D03*
X161240000Y-104680000D03*
X156890000Y-105130000D03*
X139540000Y-106610000D03*
X140340000Y-107430000D03*
X141810000Y-107920000D03*
X147070000Y-105910000D03*
X135440000Y-85950000D03*
X138780000Y-101740000D03*
X140120000Y-88700000D03*
X137620000Y-101770000D03*
X138990000Y-88320000D03*
X162240000Y-105700000D03*
X149620000Y-103170000D03*
X169440000Y-106390000D03*
X142880000Y-77340000D03*
X144670000Y-94290000D03*
X167540000Y-102020000D03*
X164910000Y-118280000D03*
X162420000Y-88810000D03*
X165690000Y-95230000D03*
X133830000Y-94950000D03*
X133450000Y-82800000D03*
X155250000Y-93550000D03*
X162990000Y-97620000D03*
X164410000Y-95390000D03*
X155420000Y-91620000D03*
X167820000Y-96730000D03*
X162950000Y-96410000D03*
X169770000Y-119210000D03*
X136910000Y-112040000D03*
X135430000Y-102060000D03*
X138840000Y-79110000D03*
X168040000Y-119230000D03*
X154290000Y-114610000D03*
X155450000Y-119990000D03*
X137350000Y-117700000D03*
X136210000Y-103800000D03*
X155050000Y-110120000D03*
X139160000Y-80790000D03*
X149820000Y-107290000D03*
X153900000Y-109350000D03*
X152500000Y-100180000D03*
X157040000Y-96910000D03*
X152250000Y-95675000D03*
X150975000Y-90275000D03*
X136680000Y-86950000D03*
D19*
X161260000Y-76830000D02*
X161250000Y-76830000D01*
X150210000Y-76570000D02*
X150240000Y-76570000D01*
X154060000Y-85000000D02*
X154060000Y-84990000D01*
X154050000Y-85010000D02*
X154060000Y-85000000D01*
X169075000Y-114165000D02*
X169075000Y-116915000D01*
X169075000Y-116915000D02*
X166600000Y-119390000D01*
X169150000Y-104440000D02*
X169150000Y-104796582D01*
X169060000Y-114150000D02*
X169075000Y-114165000D01*
X169075000Y-114165000D02*
X169100000Y-114190000D01*
X169060000Y-108680000D02*
X169060000Y-114150000D01*
X168400000Y-108020000D02*
X169060000Y-108680000D01*
X168400000Y-106100000D02*
X168400000Y-108020000D01*
X168760000Y-105740000D02*
X168400000Y-106100000D01*
X168760000Y-105186582D02*
X168760000Y-105740000D01*
X169150000Y-104796582D02*
X168760000Y-105186582D01*
X173070000Y-94640000D02*
X170140000Y-94640000D01*
X169150000Y-104440000D02*
X169190000Y-104480000D01*
X169150000Y-102140000D02*
X169150000Y-104440000D01*
X168600000Y-101590000D02*
X169150000Y-102140000D01*
X168600000Y-98760000D02*
X168600000Y-101590000D01*
X168950000Y-98410000D02*
X168600000Y-98760000D01*
X168950000Y-95830000D02*
X168950000Y-98410000D01*
X170140000Y-94640000D02*
X168950000Y-95830000D01*
X145870000Y-110680000D02*
X145870000Y-110700000D01*
X145880000Y-110670000D02*
X145870000Y-110680000D01*
X173070000Y-94640000D02*
X173050000Y-94660000D01*
X173050000Y-94660000D02*
X173050000Y-94700000D01*
X156530000Y-100320000D02*
X156560000Y-100320000D01*
X141890000Y-110640000D02*
X141900000Y-110630000D01*
X142740000Y-109790000D02*
X141890000Y-110640000D01*
X142740000Y-105740000D02*
X142740000Y-109790000D01*
X142962798Y-105517202D02*
X142740000Y-105740000D01*
X135200000Y-99130000D02*
X135210000Y-99130000D01*
X135060000Y-91160000D02*
X135070000Y-91170000D01*
X142980000Y-101100000D02*
X142962798Y-101082798D01*
X142962798Y-101082798D02*
X142962798Y-100974404D01*
X142962798Y-100974404D02*
X142962798Y-105517202D01*
X144820000Y-95420000D02*
X144820000Y-101110000D01*
X144950000Y-95290000D02*
X144820000Y-95420000D01*
X145170000Y-95290000D02*
X144950000Y-95290000D01*
X144000000Y-78890000D02*
X144000000Y-82750000D01*
X143800000Y-78690000D02*
X144000000Y-78890000D01*
X145230000Y-95290000D02*
X145490000Y-95030000D01*
X145170000Y-95290000D02*
X145230000Y-95290000D01*
X144000000Y-85910000D02*
X144000000Y-82750000D01*
X145012798Y-86922798D02*
X144000000Y-85910000D01*
X145012798Y-88925596D02*
X145012798Y-86922798D01*
X145490000Y-89402798D02*
X145012798Y-88925596D01*
X145490000Y-95030000D02*
X145490000Y-89402798D01*
X143800000Y-77980000D02*
X143800000Y-78690000D01*
X146600000Y-75600000D02*
X146600000Y-75590000D01*
X166600000Y-120510000D02*
X166100000Y-121010000D01*
X166100000Y-121010000D02*
X164760000Y-121010000D01*
X164760000Y-121010000D02*
X163990000Y-120240000D01*
X166600000Y-119390000D02*
X166600000Y-120510000D01*
X150660000Y-109650000D02*
X151040000Y-109650000D01*
X149240000Y-108230000D02*
X150660000Y-109650000D01*
X149415000Y-105115000D02*
X154645000Y-105115000D01*
X154645000Y-105115000D02*
X156130000Y-106600000D01*
X164890000Y-105690000D02*
X164890000Y-104120000D01*
X172710000Y-100390000D02*
X174045000Y-101725000D01*
X170530000Y-100390000D02*
X172710000Y-100390000D01*
X169710000Y-99570000D02*
X170530000Y-100390000D01*
X167630000Y-100400000D02*
X167630000Y-99520000D01*
X165790000Y-102240000D02*
X167630000Y-100400000D01*
X165790000Y-103220000D02*
X165790000Y-102240000D01*
X164890000Y-104120000D02*
X165790000Y-103220000D01*
X164890000Y-107110000D02*
X164890000Y-106150000D01*
X164890000Y-106150000D02*
X164890000Y-105690000D01*
X158270000Y-108740000D02*
X162720000Y-108740000D01*
X157080000Y-107550000D02*
X158270000Y-108740000D01*
X162720000Y-108740000D02*
X163230000Y-108740000D01*
X149415000Y-105115000D02*
X147285000Y-102985000D01*
X147285000Y-94435000D02*
X147285000Y-102985000D01*
X145110000Y-79220000D02*
X145110000Y-84910000D01*
X145110000Y-84910000D02*
X145470000Y-85270000D01*
X145470000Y-85270000D02*
X145470000Y-88620000D01*
X145470000Y-88620000D02*
X147270000Y-90420000D01*
X147270000Y-90420000D02*
X147270000Y-94420000D01*
X147270000Y-94420000D02*
X147285000Y-94435000D01*
X163260000Y-108740000D02*
X164890000Y-107110000D01*
X163230000Y-108740000D02*
X163260000Y-108740000D01*
X165220000Y-113160000D02*
X164240000Y-114140000D01*
X164890000Y-108090000D02*
X164890000Y-107110000D01*
X165220000Y-108420000D02*
X164890000Y-108090000D01*
X165220000Y-113160000D02*
X165220000Y-108420000D01*
X156130000Y-106600000D02*
X157080000Y-107550000D01*
X145110000Y-77570000D02*
X144850000Y-77310000D01*
X145110000Y-79220000D02*
X145110000Y-77570000D01*
X137120000Y-103320000D02*
X137120000Y-102790000D01*
X136800000Y-100940000D02*
X137760000Y-99980000D01*
X136800000Y-102470000D02*
X136800000Y-100940000D01*
X137120000Y-102790000D02*
X136800000Y-102470000D01*
X151025000Y-100375000D02*
X151025000Y-101285000D01*
X151025000Y-99955000D02*
X151025000Y-98200000D01*
X151025000Y-98200000D02*
X150350000Y-97525000D01*
X150350000Y-97525000D02*
X150350000Y-94300000D01*
X150350000Y-94300000D02*
X149625000Y-93575000D01*
X149625000Y-93575000D02*
X149625000Y-89825000D01*
X149625000Y-89825000D02*
X150450000Y-89000000D01*
X151260000Y-88190000D02*
X158685000Y-88190000D01*
X158685000Y-88190000D02*
X158800000Y-88075000D01*
X150450000Y-89000000D02*
X151260000Y-88190000D01*
X151025000Y-99955000D02*
X151025000Y-100375000D01*
X151025000Y-101285000D02*
X151810000Y-102070000D01*
X137120000Y-106140000D02*
X137120000Y-103320000D01*
X137140000Y-106160000D02*
X137120000Y-106140000D01*
X139792798Y-102687202D02*
X138430000Y-104050000D01*
X139792798Y-98832798D02*
X139792798Y-102687202D01*
X139114404Y-98154404D02*
X139792798Y-98832798D01*
X139114404Y-90775596D02*
X139114404Y-98154404D01*
X139990000Y-89900000D02*
X139114404Y-90775596D01*
X140250000Y-98100000D02*
X140250000Y-98890000D01*
X141030000Y-97320000D02*
X140250000Y-98100000D01*
X141030000Y-88230000D02*
X141030000Y-97320000D01*
X138740000Y-105090000D02*
X137950000Y-105090000D01*
X140250000Y-103580000D02*
X138740000Y-105090000D01*
X140250000Y-98890000D02*
X140250000Y-103580000D01*
X140730000Y-87930000D02*
X141030000Y-88230000D01*
X140100000Y-83450000D02*
X140080000Y-83470000D01*
X140080000Y-83470000D02*
X140080000Y-87280000D01*
X140080000Y-87280000D02*
X140730000Y-87930000D01*
X139450000Y-111440000D02*
X139210000Y-111200000D01*
X139210000Y-111200000D02*
X139210000Y-108810000D01*
X139210000Y-108810000D02*
X138200000Y-107800000D01*
X149150000Y-117330000D02*
X150050000Y-116430000D01*
X150050000Y-116430000D02*
X150050000Y-114600000D01*
X148530000Y-117330000D02*
X149150000Y-117330000D01*
X135840000Y-110600000D02*
X136170000Y-110270000D01*
X136170000Y-110270000D02*
X136170000Y-107930000D01*
X136170000Y-107930000D02*
X135590000Y-107350000D01*
X135590000Y-107350000D02*
X133630000Y-107350000D01*
X135840000Y-110970000D02*
X135840000Y-110600000D01*
X138560000Y-111410000D02*
X138560000Y-112190000D01*
X138120000Y-110970000D02*
X138560000Y-111410000D01*
X138120000Y-109150000D02*
X138120000Y-110970000D01*
X132300000Y-108680000D02*
X131090000Y-109890000D01*
X135380000Y-109300000D02*
X134760000Y-108680000D01*
X134760000Y-108680000D02*
X132300000Y-108680000D01*
X151170000Y-116800000D02*
X150610000Y-117360000D01*
X150610000Y-117360000D02*
X150240000Y-117730000D01*
X151170000Y-116800000D02*
X150240000Y-117730000D01*
X151170000Y-114600000D02*
X151170000Y-116800000D01*
X133630000Y-110500000D02*
X133630000Y-109890000D01*
X135620000Y-112490000D02*
X133630000Y-110500000D01*
X135620000Y-113850000D02*
X135620000Y-112490000D01*
X151990000Y-102930000D02*
X152260000Y-102930000D01*
X152740000Y-102450000D02*
X152740000Y-101460000D01*
X152260000Y-102930000D02*
X152740000Y-102450000D01*
X151420000Y-102930000D02*
X151990000Y-102930000D01*
X147050000Y-87675000D02*
X147050000Y-83950000D01*
X148900000Y-89525000D02*
X147050000Y-87675000D01*
X148900000Y-93550000D02*
X148900000Y-89525000D01*
X149875000Y-94525000D02*
X148900000Y-93550000D01*
X149875000Y-97950000D02*
X149875000Y-94525000D01*
X150550000Y-98625000D02*
X149875000Y-97950000D01*
X150550000Y-102075000D02*
X150550000Y-98625000D01*
X150565000Y-102075000D02*
X151420000Y-102930000D01*
X150550000Y-102075000D02*
X150565000Y-102075000D01*
X160660000Y-117920000D02*
X160800000Y-118060000D01*
X160660000Y-114700000D02*
X160660000Y-117920000D01*
X135800000Y-117400000D02*
X134590000Y-116190000D01*
X134590000Y-116190000D02*
X132310000Y-116190000D01*
X132310000Y-116190000D02*
X131090000Y-114970000D01*
X153120000Y-118940000D02*
X152850000Y-119210000D01*
X153120000Y-114110000D02*
X153120000Y-118940000D01*
X152210000Y-113200000D02*
X153120000Y-114110000D01*
X152210000Y-112380000D02*
X152210000Y-113200000D01*
X152820000Y-111770000D02*
X152210000Y-112380000D01*
X161850000Y-117820000D02*
X162000000Y-117970000D01*
X161850000Y-114610000D02*
X161850000Y-117820000D01*
X152070000Y-118420000D02*
X152620000Y-117870000D01*
X152620000Y-117870000D02*
X152620000Y-117900000D01*
X151523291Y-111876709D02*
X151523291Y-113186709D01*
X151690000Y-111710000D02*
X151523291Y-111876709D01*
X151523291Y-113186709D02*
X152160000Y-113823418D01*
X152160000Y-113823418D02*
X152620000Y-114283418D01*
X152620000Y-114283418D02*
X152620000Y-117900000D01*
X152070000Y-118420000D02*
X151190000Y-119300000D01*
X151190000Y-119300000D02*
X149500000Y-119300000D01*
X149500000Y-119300000D02*
X148860000Y-118660000D01*
X148860000Y-118660000D02*
X145980000Y-118660000D01*
X145980000Y-118660000D02*
X144750000Y-119890000D01*
X163030000Y-114610000D02*
X163030000Y-117180000D01*
X163030000Y-117180000D02*
X163290000Y-117440000D01*
X150740000Y-110780000D02*
X150520000Y-111000000D01*
X150520000Y-111000000D02*
X150520000Y-112840000D01*
X150520000Y-112840000D02*
X152140000Y-114460000D01*
X152140000Y-114460000D02*
X152140000Y-117600000D01*
X152140000Y-117600000D02*
X150910000Y-118830000D01*
X150910000Y-118830000D02*
X149810000Y-118830000D01*
X149810000Y-118830000D02*
X149090000Y-118110000D01*
X149090000Y-118110000D02*
X145120000Y-118110000D01*
X145120000Y-118110000D02*
X143520000Y-119710000D01*
X143520000Y-119710000D02*
X143520000Y-120390000D01*
X135430000Y-119400000D02*
X134830000Y-118800000D01*
X134830000Y-118800000D02*
X132340000Y-118800000D01*
X132340000Y-118800000D02*
X131090000Y-120050000D01*
X148192798Y-106877202D02*
X148192798Y-106874404D01*
X154720000Y-107660000D02*
X154720000Y-108540000D01*
X153557202Y-106497202D02*
X154720000Y-107660000D01*
X148570000Y-106497202D02*
X153557202Y-106497202D01*
X148192798Y-106874404D02*
X148570000Y-106497202D01*
X163862798Y-105097202D02*
X163862798Y-103577202D01*
X164710000Y-100420000D02*
X164680000Y-100390000D01*
X164710000Y-102730000D02*
X164710000Y-100420000D01*
X163862798Y-103577202D02*
X164710000Y-102730000D01*
X158160000Y-106280000D02*
X159420000Y-107540000D01*
X163862798Y-105840000D02*
X163862798Y-106417202D01*
X163862798Y-106417202D02*
X162740000Y-107540000D01*
X162740000Y-107540000D02*
X159420000Y-107540000D01*
X163862798Y-105097202D02*
X163862798Y-105840000D01*
X158160000Y-106100000D02*
X158160000Y-106280000D01*
X174045000Y-99185000D02*
X174005000Y-99185000D01*
X147776709Y-107293291D02*
X148192798Y-106877202D01*
X147417202Y-107290000D02*
X147420493Y-107293291D01*
X147420493Y-107293291D02*
X147720000Y-107293291D01*
X144630000Y-107290000D02*
X147417202Y-107290000D01*
X144630000Y-107290000D02*
X143420000Y-106080000D01*
X143800000Y-104260000D02*
X143800000Y-104560000D01*
X143420000Y-104940000D02*
X143420000Y-106080000D01*
X143800000Y-104560000D02*
X143420000Y-104940000D01*
X147720000Y-107293291D02*
X147776709Y-107293291D01*
X140750000Y-99117202D02*
X140750000Y-103840000D01*
X141760000Y-98107202D02*
X140750000Y-99117202D01*
X140750000Y-103840000D02*
X138710000Y-105880000D01*
X139810000Y-80180000D02*
X140120000Y-80490000D01*
X140120000Y-80490000D02*
X140120000Y-82140000D01*
X140120000Y-82140000D02*
X140920000Y-82940000D01*
X140920000Y-82940000D02*
X140920000Y-87270000D01*
X140920000Y-87270000D02*
X141760000Y-88110000D01*
X141760000Y-88110000D02*
X141760000Y-98107202D01*
X139810000Y-79760000D02*
X139810000Y-80180000D01*
X155720000Y-108020000D02*
X155720000Y-107546582D01*
X148190000Y-106040000D02*
X147810000Y-106420000D01*
X154213418Y-106040000D02*
X148190000Y-106040000D01*
X155720000Y-107546582D02*
X154213418Y-106040000D01*
X164320000Y-105440000D02*
X164320000Y-103766582D01*
X165167202Y-101642798D02*
X165590000Y-101220000D01*
X165167202Y-102919380D02*
X165167202Y-101642798D01*
X164320000Y-103766582D02*
X165167202Y-102919380D01*
X144360000Y-106080000D02*
X144765000Y-106485000D01*
X144360000Y-105450000D02*
X144360000Y-106080000D01*
X144765000Y-106495000D02*
X145090000Y-106820000D01*
X145090000Y-106820000D02*
X147120000Y-106820000D01*
X144765000Y-106485000D02*
X144765000Y-106495000D01*
X147410000Y-106820000D02*
X147810000Y-106420000D01*
X147120000Y-106820000D02*
X147410000Y-106820000D01*
X164320000Y-106240000D02*
X164320000Y-106606582D01*
X164320000Y-106606582D02*
X162929380Y-107997202D01*
X158657202Y-107997202D02*
X157830000Y-107170000D01*
X162929380Y-107997202D02*
X158657202Y-107997202D01*
X164320000Y-105750000D02*
X164320000Y-105440000D01*
X164320000Y-106240000D02*
X164320000Y-105750000D01*
X154040000Y-102180000D02*
X156920000Y-102180000D01*
X156920000Y-102180000D02*
X157680000Y-102940000D01*
X159990000Y-102940000D02*
X161280000Y-102940000D01*
X163470000Y-101900000D02*
X163720000Y-102150000D01*
X162320000Y-101900000D02*
X163470000Y-101900000D01*
X161280000Y-102940000D02*
X162320000Y-101900000D01*
X159990000Y-102940000D02*
X159760000Y-102940000D01*
X157680000Y-102940000D02*
X159760000Y-102940000D01*
X167070000Y-113990000D02*
X167470000Y-113990000D01*
X167470000Y-113990000D02*
X167970000Y-113490000D01*
X147920000Y-104960000D02*
X148420000Y-104960000D01*
X154400000Y-105580000D02*
X155550000Y-106730000D01*
X149040000Y-105580000D02*
X154400000Y-105580000D01*
X148420000Y-104960000D02*
X149040000Y-105580000D01*
X161320000Y-109240000D02*
X161640000Y-109560000D01*
X158060000Y-109240000D02*
X161320000Y-109240000D01*
X155550000Y-106730000D02*
X158060000Y-109240000D01*
X167590000Y-109490000D02*
X167970000Y-109870000D01*
X167970000Y-109870000D02*
X167970000Y-113490000D01*
X167260000Y-106580000D02*
X167260000Y-106870000D01*
X166670000Y-112490000D02*
X167030000Y-112850000D01*
X166670000Y-107460000D02*
X166670000Y-112490000D01*
X167260000Y-106870000D02*
X166670000Y-107460000D01*
X167700000Y-104170000D02*
X167700000Y-105470000D01*
X167260000Y-105910000D02*
X167260000Y-106580000D01*
X167700000Y-105470000D02*
X167260000Y-105910000D01*
X166780000Y-105080000D02*
X166780000Y-106230000D01*
X166930000Y-115070000D02*
X167450000Y-115070000D01*
X166187202Y-114327202D02*
X166930000Y-115070000D01*
X166187202Y-106822798D02*
X166187202Y-114327202D01*
X166780000Y-106230000D02*
X166187202Y-106822798D01*
X164800000Y-119330000D02*
X165470000Y-119330000D01*
X165470000Y-119330000D02*
X165560000Y-119420000D01*
X164130000Y-115390000D02*
X164130000Y-118660000D01*
X164130000Y-118660000D02*
X164800000Y-119330000D01*
X165730000Y-113600000D02*
X165730000Y-113790000D01*
X165730000Y-113790000D02*
X165390000Y-114130000D01*
X165730000Y-113540000D02*
X165730000Y-113600000D01*
X165980000Y-105840000D02*
X165960000Y-105840000D01*
X165730000Y-106070000D02*
X165730000Y-113540000D01*
X165960000Y-105840000D02*
X165730000Y-106070000D01*
X156315596Y-103570000D02*
X151310000Y-103570000D01*
X151310000Y-103570000D02*
X151120000Y-103380000D01*
X156880000Y-103570000D02*
X156315596Y-103570000D01*
X146240000Y-80490000D02*
X146240000Y-76880000D01*
X146240000Y-84360000D02*
X146240000Y-80990000D01*
X146592798Y-84712798D02*
X146240000Y-84360000D01*
X146592798Y-88132798D02*
X146592798Y-84712798D01*
X148340000Y-89880000D02*
X146592798Y-88132798D01*
X148340000Y-94010000D02*
X148340000Y-89880000D01*
X149230000Y-94900000D02*
X148340000Y-94010000D01*
X149230000Y-98250000D02*
X149230000Y-94900000D01*
X149959209Y-98979209D02*
X149230000Y-98250000D01*
X149959209Y-102219209D02*
X149959209Y-98979209D01*
X151120000Y-103380000D02*
X149959209Y-102219209D01*
X146240000Y-80990000D02*
X146240000Y-80490000D01*
X156880000Y-103570000D02*
X160130000Y-103570000D01*
X160130000Y-103570000D02*
X161240000Y-104680000D01*
X144100000Y-74620000D02*
X143970000Y-74620000D01*
X146240000Y-76760000D02*
X144100000Y-74620000D01*
X146240000Y-76880000D02*
X146240000Y-76760000D01*
X156890000Y-105130000D02*
X156642798Y-105130000D01*
X156120596Y-104607798D02*
X149650000Y-104607798D01*
X156642798Y-105130000D02*
X156120596Y-104607798D01*
X149650000Y-104600000D02*
X149650000Y-104607798D01*
X145750000Y-80750000D02*
X145750000Y-77100000D01*
X145750000Y-77100000D02*
X145700000Y-77050000D01*
X144430000Y-76530000D02*
X145190000Y-76530000D01*
X144430000Y-76530000D02*
X142950000Y-76530000D01*
X145190000Y-76530000D02*
X145700000Y-77040000D01*
X145700000Y-77040000D02*
X145700000Y-77050000D01*
X145750000Y-84640000D02*
X145750000Y-80750000D01*
X146020000Y-84910000D02*
X145750000Y-84640000D01*
X146020000Y-88206582D02*
X146020000Y-84910000D01*
X147882798Y-90069380D02*
X146020000Y-88206582D01*
X147882798Y-94199380D02*
X147882798Y-90069380D01*
X147882798Y-94199380D02*
X147882798Y-102420000D01*
X149650000Y-104600000D02*
X147880000Y-102830000D01*
X147880000Y-102830000D02*
X147880000Y-102420000D01*
X147880000Y-102420000D02*
X147882798Y-102420000D01*
X142280000Y-76530000D02*
X141430000Y-75680000D01*
X141430000Y-75680000D02*
X141430000Y-74620000D01*
X142950000Y-76530000D02*
X142280000Y-76530000D01*
X141240000Y-99337202D02*
X141240000Y-104910000D01*
X142280000Y-98297202D02*
X141240000Y-99337202D01*
X141240000Y-104910000D02*
X139540000Y-106610000D01*
X139422798Y-77950000D02*
X138990000Y-77517202D01*
X131340000Y-74620000D02*
X132710000Y-75990000D01*
X131270000Y-74620000D02*
X131340000Y-74620000D01*
X138460000Y-76987202D02*
X136730000Y-76987202D01*
X136730000Y-76987202D02*
X136170000Y-76427202D01*
X136170000Y-76427202D02*
X134647202Y-76427202D01*
X134647202Y-76427202D02*
X134210000Y-75990000D01*
X134210000Y-75990000D02*
X132710000Y-75990000D01*
X138990000Y-77517202D02*
X138460000Y-76987202D01*
X139430000Y-77950000D02*
X140910000Y-79430000D01*
X140910000Y-79430000D02*
X140910000Y-82060000D01*
X140910000Y-82060000D02*
X141378291Y-82528291D01*
X141378291Y-82528291D02*
X141378291Y-87038291D01*
X141378291Y-87038291D02*
X142280000Y-87940000D01*
X142280000Y-87940000D02*
X142280000Y-98297202D01*
X139422798Y-77950000D02*
X139430000Y-77950000D01*
X141730000Y-99493784D02*
X141730000Y-105100000D01*
X142740000Y-98483784D02*
X141730000Y-99493784D01*
X139640000Y-77430000D02*
X139270000Y-77060000D01*
X140510000Y-106320000D02*
X141730000Y-105100000D01*
X140510000Y-107260000D02*
X140510000Y-106320000D01*
X140340000Y-107430000D02*
X140510000Y-107260000D01*
X133810000Y-75353418D02*
X133810000Y-74620000D01*
X139270000Y-77057202D02*
X138742798Y-76530000D01*
X138742798Y-76530000D02*
X137080000Y-76530000D01*
X137080000Y-76530000D02*
X136520000Y-75970000D01*
X136520000Y-75970000D02*
X135160000Y-75970000D01*
X135160000Y-75970000D02*
X133810000Y-74620000D01*
X139270000Y-77060000D02*
X139270000Y-77057202D01*
X141400000Y-79190000D02*
X141400000Y-81900000D01*
X141400000Y-81900000D02*
X141860000Y-82360000D01*
X141860000Y-82360000D02*
X141860000Y-86873418D01*
X141860000Y-86873418D02*
X142740000Y-87753418D01*
X142740000Y-87753418D02*
X142740000Y-98483784D01*
X139640000Y-77430000D02*
X141400000Y-79190000D01*
X142200000Y-99670366D02*
X142200000Y-105276582D01*
X143290000Y-98580366D02*
X142200000Y-99670366D01*
X141810000Y-105666582D02*
X142200000Y-105276582D01*
X141810000Y-107920000D02*
X141810000Y-105666582D01*
X137720000Y-76020000D02*
X138540000Y-76020000D01*
X136350000Y-74650000D02*
X137720000Y-76020000D01*
X136350000Y-74620000D02*
X136350000Y-74650000D01*
X138960000Y-76020000D02*
X141870000Y-78930000D01*
X141870000Y-78930000D02*
X141870000Y-81650000D01*
X141870000Y-81650000D02*
X142381582Y-82161582D01*
X142381582Y-82161582D02*
X142381582Y-86731582D01*
X142381582Y-86731582D02*
X143290000Y-87640000D01*
X143290000Y-87640000D02*
X143290000Y-98580366D01*
X138540000Y-76020000D02*
X138960000Y-76020000D01*
X143890000Y-96400000D02*
X143890000Y-87420000D01*
X143890000Y-87420000D02*
X142880000Y-86410000D01*
X142880000Y-86410000D02*
X142880000Y-81800000D01*
X142880000Y-81800000D02*
X142340000Y-81260000D01*
X142340000Y-81260000D02*
X142340000Y-78070000D01*
X142340000Y-78070000D02*
X138890000Y-74620000D01*
X143890000Y-102730000D02*
X147070000Y-105910000D01*
X143890000Y-96400000D02*
X143890000Y-102730000D01*
X135110000Y-94760000D02*
X135110000Y-95710000D01*
X133900000Y-93550000D02*
X135110000Y-94760000D01*
X133900000Y-87490000D02*
X133900000Y-93550000D01*
X135440000Y-85950000D02*
X133900000Y-87490000D01*
X135110000Y-95710000D02*
X133630000Y-97190000D01*
X138657202Y-90650000D02*
X138657202Y-98417202D01*
X139320000Y-99593418D02*
X139320000Y-100520000D01*
X139320000Y-99593418D02*
X139320000Y-99080000D01*
X139320000Y-100520000D02*
X139320000Y-100550000D01*
X138780000Y-101090000D02*
X138780000Y-101740000D01*
X139320000Y-100550000D02*
X138780000Y-101090000D01*
X138657202Y-98417202D02*
X139320000Y-99080000D01*
X139930000Y-88700000D02*
X138657202Y-89972798D01*
X138657202Y-89972798D02*
X138657202Y-90650000D01*
X140120000Y-88700000D02*
X139930000Y-88700000D01*
X137620000Y-101440000D02*
X138820000Y-100240000D01*
X137620000Y-101770000D02*
X137620000Y-101440000D01*
X138820000Y-100240000D02*
X138820000Y-100130000D01*
X138820000Y-100130000D02*
X138820000Y-100240000D01*
X138820000Y-99270000D02*
X138820000Y-100130000D01*
X138200000Y-89470000D02*
X138200000Y-98650000D01*
X138200000Y-98650000D02*
X138820000Y-99270000D01*
X138990000Y-88320000D02*
X138200000Y-89110000D01*
X138200000Y-89110000D02*
X138200000Y-89470000D01*
X169440000Y-106390000D02*
X169440000Y-106170000D01*
X169440000Y-106170000D02*
X170120000Y-105490000D01*
X159400000Y-104350000D02*
X159190000Y-104140000D01*
X160580000Y-105510000D02*
X162050000Y-105510000D01*
X162050000Y-105510000D02*
X162240000Y-105700000D01*
X159420000Y-104350000D02*
X160580000Y-105510000D01*
X159400000Y-104350000D02*
X159420000Y-104350000D01*
X150023784Y-103170000D02*
X150850000Y-103996216D01*
X149620000Y-103170000D02*
X150023784Y-103170000D01*
X159190000Y-104140000D02*
X150990000Y-104140000D01*
X150990000Y-104140000D02*
X150850000Y-104000000D01*
X150850000Y-104000000D02*
X150850000Y-103996216D01*
X169440000Y-106390000D02*
X169460000Y-106370000D01*
X169460000Y-106370000D02*
X169460000Y-106350000D01*
X170120000Y-105490000D02*
X172730000Y-105490000D01*
X172730000Y-105490000D02*
X174045000Y-106805000D01*
X143480000Y-81470000D02*
X142990000Y-80980000D01*
X143480000Y-86140000D02*
X143480000Y-81470000D01*
X144440000Y-87100000D02*
X143480000Y-86140000D01*
X144670000Y-94290000D02*
X144440000Y-94060000D01*
X144440000Y-94060000D02*
X144670000Y-94290000D01*
X144440000Y-87100000D02*
X144440000Y-94060000D01*
X142990000Y-77450000D02*
X142880000Y-77340000D01*
X142990000Y-80980000D02*
X142990000Y-77450000D01*
X168250000Y-105050000D02*
X168250000Y-105566582D01*
X167829690Y-105986892D02*
X167829690Y-105987512D01*
X168250000Y-105566582D02*
X167829690Y-105986892D01*
X167829690Y-105987512D02*
X167830000Y-105987202D01*
X167830000Y-108190000D02*
X168250000Y-108610000D01*
X167830000Y-105987202D02*
X167830000Y-108190000D01*
X168610000Y-104690000D02*
X168250000Y-105050000D01*
X168610000Y-104040000D02*
X168610000Y-104690000D01*
X167540000Y-102020000D02*
X168610000Y-103090000D01*
X168610000Y-103090000D02*
X168610000Y-104040000D01*
X168540000Y-108900000D02*
X168540000Y-115250000D01*
X168480000Y-115300000D02*
X168480000Y-115310000D01*
X168490000Y-115300000D02*
X168480000Y-115300000D01*
X168540000Y-115250000D02*
X168490000Y-115300000D01*
X164910000Y-118280000D02*
X164910000Y-117990000D01*
X164910000Y-117990000D02*
X166930000Y-115970000D01*
X166930000Y-115970000D02*
X167820000Y-115970000D01*
X167820000Y-115970000D02*
X168480000Y-115310000D01*
X168250000Y-108610000D02*
X168540000Y-108900000D01*
X162420000Y-88810000D02*
X162420000Y-93750000D01*
X162420000Y-93750000D02*
X163020000Y-94350000D01*
X164810000Y-94350000D02*
X165690000Y-95230000D01*
X163020000Y-94350000D02*
X164810000Y-94350000D01*
X133830000Y-94950000D02*
X130580000Y-91700000D01*
X130580000Y-91700000D02*
X130580000Y-85670000D01*
X130580000Y-85670000D02*
X133450000Y-82800000D01*
X155250000Y-93550000D02*
X156230000Y-93550000D01*
X156230000Y-93550000D02*
X157480000Y-92300000D01*
X162990000Y-97620000D02*
X162500000Y-97620000D01*
X159280000Y-92300000D02*
X157480000Y-92300000D01*
X161843418Y-94863418D02*
X159280000Y-92300000D01*
X161843418Y-96963418D02*
X161843418Y-94863418D01*
X162500000Y-97620000D02*
X161843418Y-96963418D01*
X164410000Y-95390000D02*
X163890000Y-94870000D01*
X159460000Y-91620000D02*
X155420000Y-91620000D01*
X162710000Y-94870000D02*
X159460000Y-91620000D01*
X163890000Y-94870000D02*
X162710000Y-94870000D01*
X163270000Y-96730000D02*
X167820000Y-96730000D01*
X162950000Y-96410000D02*
X163270000Y-96730000D01*
X138085000Y-87035000D02*
X138075000Y-87035000D01*
X138075000Y-87035000D02*
X137750000Y-87360000D01*
X169770000Y-119210000D02*
X169820000Y-119210000D01*
X170210000Y-118820000D02*
X170210000Y-114530000D01*
X169820000Y-119210000D02*
X170210000Y-118820000D01*
X172830000Y-113100000D02*
X174045000Y-111885000D01*
X170720000Y-113100000D02*
X172830000Y-113100000D01*
X170210000Y-113610000D02*
X170720000Y-113100000D01*
X170210000Y-114300000D02*
X170210000Y-113610000D01*
X170210000Y-114300000D02*
X170210000Y-114530000D01*
X135430000Y-102300000D02*
X135430000Y-101190000D01*
X135430000Y-100520000D02*
X135430000Y-100200000D01*
X135430000Y-101190000D02*
X135430000Y-100520000D01*
X135430000Y-106380000D02*
X136700000Y-107650000D01*
X136700000Y-107650000D02*
X136700000Y-111830000D01*
X136700000Y-111830000D02*
X136910000Y-112040000D01*
X135430000Y-102300000D02*
X135430000Y-106380000D01*
X135430000Y-100520000D02*
X135430000Y-102060000D01*
X137750000Y-87370000D02*
X137090000Y-88030000D01*
X137750000Y-87360000D02*
X137750000Y-87370000D01*
X138085000Y-83180000D02*
X138085000Y-87035000D01*
X138840000Y-79110000D02*
X138085000Y-79865000D01*
X138085000Y-79865000D02*
X138085000Y-83155000D01*
X138085000Y-83155000D02*
X138060000Y-83180000D01*
X138060000Y-83180000D02*
X138085000Y-83180000D01*
X135430000Y-100080000D02*
X136450000Y-99060000D01*
X136450000Y-99060000D02*
X136450000Y-88670000D01*
X136450000Y-88670000D02*
X137090000Y-88030000D01*
X135430000Y-100200000D02*
X135430000Y-100080000D01*
X169710000Y-114320000D02*
X169710000Y-117990000D01*
X169710000Y-117990000D02*
X169252798Y-118447202D01*
X168040000Y-119230000D02*
X168470000Y-119230000D01*
X168470000Y-119230000D02*
X169252798Y-118447202D01*
X169710000Y-114320000D02*
X169710000Y-111730000D01*
X172800000Y-110590000D02*
X174045000Y-109345000D01*
X170850000Y-110590000D02*
X172800000Y-110590000D01*
X169710000Y-111730000D02*
X170850000Y-110590000D01*
X154290000Y-118830000D02*
X155450000Y-119990000D01*
X154290000Y-114610000D02*
X154290000Y-118830000D01*
X137350000Y-117700000D02*
X137730000Y-117320000D01*
X137730000Y-117320000D02*
X137730000Y-111560000D01*
X137730000Y-111560000D02*
X137230000Y-111060000D01*
X137230000Y-111060000D02*
X137230000Y-107410000D01*
X137230000Y-107410000D02*
X136210000Y-106390000D01*
X136210000Y-106390000D02*
X136210000Y-103800000D01*
X155050000Y-110120000D02*
X155060000Y-110110000D01*
X155020000Y-113880000D02*
X154290000Y-114610000D01*
X155050000Y-110120000D02*
X155020000Y-113880000D01*
X136210000Y-103800000D02*
X136210000Y-100840000D01*
X139160000Y-80790000D02*
X139160000Y-86867202D01*
X136920000Y-99460000D02*
X136920000Y-89107202D01*
X136920000Y-89107202D02*
X139160000Y-86867202D01*
X136210000Y-100170000D02*
X136920000Y-99460000D01*
X136210000Y-100840000D02*
X136210000Y-100170000D01*
X153020000Y-108470000D02*
X153900000Y-109350000D01*
X150790000Y-108470000D02*
X153020000Y-108470000D01*
X149820000Y-107290000D02*
X150790000Y-108470000D01*
X150975000Y-90275000D02*
X150485000Y-90275000D01*
X152250000Y-95180000D02*
X152250000Y-95675000D01*
X150320000Y-93250000D02*
X152250000Y-95180000D01*
X150320000Y-90440000D02*
X150320000Y-93250000D01*
X150485000Y-90275000D02*
X150320000Y-90440000D01*
X152500000Y-100180000D02*
X152440000Y-100120000D01*
X152440000Y-100120000D02*
X152440000Y-95865000D01*
X152440000Y-95865000D02*
X152250000Y-95675000D01*
X155805000Y-95675000D02*
X152250000Y-95675000D01*
X157040000Y-96910000D02*
X155805000Y-95675000D01*
X132330000Y-98430000D02*
X131090000Y-97190000D01*
X134630000Y-98430000D02*
X132330000Y-98430000D01*
X136180000Y-86950000D02*
X135950000Y-87180000D01*
X135950000Y-87180000D02*
X135950000Y-97110000D01*
X135950000Y-97110000D02*
X134630000Y-98430000D01*
X136680000Y-86950000D02*
X136180000Y-86950000D01*
G36*
X133777000Y-99857000D02*
X133757000Y-99857000D01*
X133757000Y-99877000D01*
X133503000Y-99877000D01*
X133503000Y-99857000D01*
X133483000Y-99857000D01*
X133483000Y-99603000D01*
X133503000Y-99603000D01*
X133503000Y-99583000D01*
X133757000Y-99583000D01*
X133757000Y-99603000D01*
X133777000Y-99603000D01*
X133777000Y-99857000D01*
X133777000Y-99857000D01*
G37*
X133777000Y-99857000D02*
X133757000Y-99857000D01*
X133757000Y-99877000D01*
X133503000Y-99877000D01*
X133503000Y-99857000D01*
X133483000Y-99857000D01*
X133483000Y-99603000D01*
X133503000Y-99603000D01*
X133503000Y-99583000D01*
X133757000Y-99583000D01*
X133757000Y-99603000D01*
X133777000Y-99603000D01*
X133777000Y-99857000D01*
G36*
X135188000Y-93760369D02*
X134662000Y-93234369D01*
X134662000Y-87805630D01*
X135188000Y-87279630D01*
X135188000Y-93760369D01*
X135188000Y-93760369D01*
G37*
X135188000Y-93760369D02*
X134662000Y-93234369D01*
X134662000Y-87805630D01*
X135188000Y-87279630D01*
X135188000Y-93760369D01*
G36*
X135688000Y-98744370D02*
X135077446Y-99354923D01*
X134961430Y-99107385D01*
X135168815Y-98968815D01*
X135688000Y-98449630D01*
X135688000Y-98744370D01*
X135688000Y-98744370D01*
G37*
X135688000Y-98744370D02*
X135077446Y-99354923D01*
X134961430Y-99107385D01*
X135168815Y-98968815D01*
X135688000Y-98449630D01*
X135688000Y-98744370D01*
G36*
X138484172Y-78089004D02*
X138229311Y-78194311D01*
X137925378Y-78497714D01*
X137760687Y-78894332D01*
X137760497Y-79111872D01*
X137546185Y-79326185D01*
X137381004Y-79573395D01*
X137323000Y-79865000D01*
X137323000Y-83054316D01*
X137298000Y-83180000D01*
X137323000Y-83305683D01*
X137323000Y-86066145D01*
X137292286Y-86035378D01*
X136895668Y-85870687D01*
X136519570Y-85870359D01*
X136519687Y-85736216D01*
X136355689Y-85339311D01*
X136052286Y-85035378D01*
X135655668Y-84870687D01*
X135226216Y-84870313D01*
X134829311Y-85034311D01*
X134525378Y-85337714D01*
X134360687Y-85734332D01*
X134360497Y-85951872D01*
X133361185Y-86951185D01*
X133196004Y-87198395D01*
X133138000Y-87490000D01*
X133138000Y-93180370D01*
X131342000Y-91384370D01*
X131342000Y-85985630D01*
X133448130Y-83879499D01*
X133663784Y-83879687D01*
X134060689Y-83715689D01*
X134364622Y-83412286D01*
X134529313Y-83015668D01*
X134529687Y-82586216D01*
X134365689Y-82189311D01*
X134062286Y-81885378D01*
X133665668Y-81720687D01*
X133236216Y-81720313D01*
X132839311Y-81884311D01*
X132535378Y-82187714D01*
X132370687Y-82584332D01*
X132370497Y-82801872D01*
X130041185Y-85131185D01*
X129876004Y-85378395D01*
X129818000Y-85670000D01*
X129818000Y-91700000D01*
X129876004Y-91991605D01*
X130041185Y-92238815D01*
X132750500Y-94948130D01*
X132750313Y-95163784D01*
X132914311Y-95560689D01*
X133117292Y-95764024D01*
X133056511Y-95776115D01*
X132570330Y-96100971D01*
X132556263Y-96122023D01*
X132491927Y-95966702D01*
X132313299Y-95788073D01*
X132079910Y-95691400D01*
X131827291Y-95691400D01*
X130100091Y-95691400D01*
X129866702Y-95788073D01*
X129688073Y-95966701D01*
X129591400Y-96200090D01*
X129591400Y-96452709D01*
X129591400Y-98179909D01*
X129688073Y-98413298D01*
X129866701Y-98591927D01*
X130020526Y-98655643D01*
X129705474Y-99127152D01*
X129591400Y-99700641D01*
X129591400Y-99759359D01*
X129705474Y-100332848D01*
X130030330Y-100819029D01*
X130301172Y-101000000D01*
X130030330Y-101180971D01*
X129705474Y-101667152D01*
X129591400Y-102240641D01*
X129591400Y-102299359D01*
X129705474Y-102872848D01*
X130030330Y-103359029D01*
X130301172Y-103540000D01*
X130030330Y-103720971D01*
X129705474Y-104207152D01*
X129591400Y-104780641D01*
X129591400Y-104839359D01*
X129705474Y-105412848D01*
X130030330Y-105899029D01*
X130301172Y-106080000D01*
X130030330Y-106260971D01*
X129705474Y-106747152D01*
X129591400Y-107320641D01*
X129591400Y-107379359D01*
X129705474Y-107952848D01*
X130030330Y-108439029D01*
X130301172Y-108620000D01*
X130030330Y-108800971D01*
X129705474Y-109287152D01*
X129591400Y-109860641D01*
X129591400Y-109919359D01*
X129705474Y-110492848D01*
X130030330Y-110979029D01*
X130301172Y-111160000D01*
X130030330Y-111340971D01*
X129705474Y-111827152D01*
X129591400Y-112400641D01*
X129591400Y-112459359D01*
X129705474Y-113032848D01*
X130030330Y-113519029D01*
X130301172Y-113700000D01*
X130030330Y-113880971D01*
X129705474Y-114367152D01*
X129591400Y-114940641D01*
X129591400Y-114999359D01*
X129705474Y-115572848D01*
X130030330Y-116059029D01*
X130301172Y-116240000D01*
X130030330Y-116420971D01*
X129705474Y-116907152D01*
X129591400Y-117480641D01*
X129591400Y-117539359D01*
X129705474Y-118112848D01*
X130030330Y-118599029D01*
X130301172Y-118780000D01*
X130030330Y-118960971D01*
X129705474Y-119447152D01*
X129591400Y-120020641D01*
X129591400Y-120079359D01*
X129705474Y-120652848D01*
X130030330Y-121139029D01*
X130039266Y-121145000D01*
X129515000Y-121145000D01*
X129515000Y-73695000D01*
X129996903Y-73695000D01*
X129885474Y-73861766D01*
X129771400Y-74435255D01*
X129771400Y-74804745D01*
X129885474Y-75378234D01*
X130210330Y-75864415D01*
X130696511Y-76189271D01*
X131270000Y-76303345D01*
X131833606Y-76191236D01*
X132171185Y-76528816D01*
X132418395Y-76693996D01*
X132418396Y-76693997D01*
X132710000Y-76752000D01*
X133894370Y-76752000D01*
X134108387Y-76966017D01*
X134355597Y-77131198D01*
X134355598Y-77131198D01*
X134647202Y-77189202D01*
X135854369Y-77189202D01*
X136191185Y-77526018D01*
X136438395Y-77691198D01*
X136438396Y-77691199D01*
X136730000Y-77749202D01*
X138144369Y-77749202D01*
X138451184Y-78056017D01*
X138451185Y-78056017D01*
X138451187Y-78056019D01*
X138484172Y-78089004D01*
X138484172Y-78089004D01*
G37*
X138484172Y-78089004D02*
X138229311Y-78194311D01*
X137925378Y-78497714D01*
X137760687Y-78894332D01*
X137760497Y-79111872D01*
X137546185Y-79326185D01*
X137381004Y-79573395D01*
X137323000Y-79865000D01*
X137323000Y-83054316D01*
X137298000Y-83180000D01*
X137323000Y-83305683D01*
X137323000Y-86066145D01*
X137292286Y-86035378D01*
X136895668Y-85870687D01*
X136519570Y-85870359D01*
X136519687Y-85736216D01*
X136355689Y-85339311D01*
X136052286Y-85035378D01*
X135655668Y-84870687D01*
X135226216Y-84870313D01*
X134829311Y-85034311D01*
X134525378Y-85337714D01*
X134360687Y-85734332D01*
X134360497Y-85951872D01*
X133361185Y-86951185D01*
X133196004Y-87198395D01*
X133138000Y-87490000D01*
X133138000Y-93180370D01*
X131342000Y-91384370D01*
X131342000Y-85985630D01*
X133448130Y-83879499D01*
X133663784Y-83879687D01*
X134060689Y-83715689D01*
X134364622Y-83412286D01*
X134529313Y-83015668D01*
X134529687Y-82586216D01*
X134365689Y-82189311D01*
X134062286Y-81885378D01*
X133665668Y-81720687D01*
X133236216Y-81720313D01*
X132839311Y-81884311D01*
X132535378Y-82187714D01*
X132370687Y-82584332D01*
X132370497Y-82801872D01*
X130041185Y-85131185D01*
X129876004Y-85378395D01*
X129818000Y-85670000D01*
X129818000Y-91700000D01*
X129876004Y-91991605D01*
X130041185Y-92238815D01*
X132750500Y-94948130D01*
X132750313Y-95163784D01*
X132914311Y-95560689D01*
X133117292Y-95764024D01*
X133056511Y-95776115D01*
X132570330Y-96100971D01*
X132556263Y-96122023D01*
X132491927Y-95966702D01*
X132313299Y-95788073D01*
X132079910Y-95691400D01*
X131827291Y-95691400D01*
X130100091Y-95691400D01*
X129866702Y-95788073D01*
X129688073Y-95966701D01*
X129591400Y-96200090D01*
X129591400Y-96452709D01*
X129591400Y-98179909D01*
X129688073Y-98413298D01*
X129866701Y-98591927D01*
X130020526Y-98655643D01*
X129705474Y-99127152D01*
X129591400Y-99700641D01*
X129591400Y-99759359D01*
X129705474Y-100332848D01*
X130030330Y-100819029D01*
X130301172Y-101000000D01*
X130030330Y-101180971D01*
X129705474Y-101667152D01*
X129591400Y-102240641D01*
X129591400Y-102299359D01*
X129705474Y-102872848D01*
X130030330Y-103359029D01*
X130301172Y-103540000D01*
X130030330Y-103720971D01*
X129705474Y-104207152D01*
X129591400Y-104780641D01*
X129591400Y-104839359D01*
X129705474Y-105412848D01*
X130030330Y-105899029D01*
X130301172Y-106080000D01*
X130030330Y-106260971D01*
X129705474Y-106747152D01*
X129591400Y-107320641D01*
X129591400Y-107379359D01*
X129705474Y-107952848D01*
X130030330Y-108439029D01*
X130301172Y-108620000D01*
X130030330Y-108800971D01*
X129705474Y-109287152D01*
X129591400Y-109860641D01*
X129591400Y-109919359D01*
X129705474Y-110492848D01*
X130030330Y-110979029D01*
X130301172Y-111160000D01*
X130030330Y-111340971D01*
X129705474Y-111827152D01*
X129591400Y-112400641D01*
X129591400Y-112459359D01*
X129705474Y-113032848D01*
X130030330Y-113519029D01*
X130301172Y-113700000D01*
X130030330Y-113880971D01*
X129705474Y-114367152D01*
X129591400Y-114940641D01*
X129591400Y-114999359D01*
X129705474Y-115572848D01*
X130030330Y-116059029D01*
X130301172Y-116240000D01*
X130030330Y-116420971D01*
X129705474Y-116907152D01*
X129591400Y-117480641D01*
X129591400Y-117539359D01*
X129705474Y-118112848D01*
X130030330Y-118599029D01*
X130301172Y-118780000D01*
X130030330Y-118960971D01*
X129705474Y-119447152D01*
X129591400Y-120020641D01*
X129591400Y-120079359D01*
X129705474Y-120652848D01*
X130030330Y-121139029D01*
X130039266Y-121145000D01*
X129515000Y-121145000D01*
X129515000Y-73695000D01*
X129996903Y-73695000D01*
X129885474Y-73861766D01*
X129771400Y-74435255D01*
X129771400Y-74804745D01*
X129885474Y-75378234D01*
X130210330Y-75864415D01*
X130696511Y-76189271D01*
X131270000Y-76303345D01*
X131833606Y-76191236D01*
X132171185Y-76528816D01*
X132418395Y-76693996D01*
X132418396Y-76693997D01*
X132710000Y-76752000D01*
X133894370Y-76752000D01*
X134108387Y-76966017D01*
X134355597Y-77131198D01*
X134355598Y-77131198D01*
X134647202Y-77189202D01*
X135854369Y-77189202D01*
X136191185Y-77526018D01*
X136438395Y-77691198D01*
X136438396Y-77691199D01*
X136730000Y-77749202D01*
X138144369Y-77749202D01*
X138451184Y-78056017D01*
X138451185Y-78056017D01*
X138451187Y-78056019D01*
X138484172Y-78089004D01*
G36*
X143357278Y-103274908D02*
X143189311Y-103344311D01*
X142962000Y-103571225D01*
X142962000Y-99985996D01*
X143128000Y-99819996D01*
X143128000Y-102730000D01*
X143186004Y-103021605D01*
X143351185Y-103268815D01*
X143357278Y-103274908D01*
X143357278Y-103274908D01*
G37*
X143357278Y-103274908D02*
X143189311Y-103344311D01*
X142962000Y-103571225D01*
X142962000Y-99985996D01*
X143128000Y-99819996D01*
X143128000Y-102730000D01*
X143186004Y-103021605D01*
X143351185Y-103268815D01*
X143357278Y-103274908D01*
G36*
X144708000Y-86290370D02*
X144242000Y-85824370D01*
X144242000Y-81470000D01*
X144183996Y-81178396D01*
X144183996Y-81178395D01*
X144117834Y-81079376D01*
X144018816Y-80931185D01*
X143752000Y-80664369D01*
X143752000Y-77994833D01*
X143794622Y-77952286D01*
X143871182Y-77767907D01*
X143934311Y-77920689D01*
X144237714Y-78224622D01*
X144348000Y-78270416D01*
X144348000Y-79220000D01*
X144348000Y-84910000D01*
X144406004Y-85201605D01*
X144571185Y-85448815D01*
X144708000Y-85585630D01*
X144708000Y-86290370D01*
X144708000Y-86290370D01*
G37*
X144708000Y-86290370D02*
X144242000Y-85824370D01*
X144242000Y-81470000D01*
X144183996Y-81178396D01*
X144183996Y-81178395D01*
X144117834Y-81079376D01*
X144018816Y-80931185D01*
X143752000Y-80664369D01*
X143752000Y-77994833D01*
X143794622Y-77952286D01*
X143871182Y-77767907D01*
X143934311Y-77920689D01*
X144237714Y-78224622D01*
X144348000Y-78270416D01*
X144348000Y-79220000D01*
X144348000Y-84910000D01*
X144406004Y-85201605D01*
X144571185Y-85448815D01*
X144708000Y-85585630D01*
X144708000Y-86290370D01*
G36*
X147287977Y-104065607D02*
X147005378Y-104347714D01*
X146882137Y-104644507D01*
X144652000Y-102414370D01*
X144652000Y-96400000D01*
X144652000Y-95369485D01*
X144883784Y-95369687D01*
X145280689Y-95205689D01*
X145584622Y-94902286D01*
X145749313Y-94505668D01*
X145749687Y-94076216D01*
X145585689Y-93679311D01*
X145282286Y-93375378D01*
X145202000Y-93342040D01*
X145202000Y-92805716D01*
X146508000Y-92816891D01*
X146508000Y-94420000D01*
X146523000Y-94495409D01*
X146523000Y-102985000D01*
X146581004Y-103276605D01*
X146746185Y-103523815D01*
X147287977Y-104065607D01*
X147287977Y-104065607D01*
G37*
X147287977Y-104065607D02*
X147005378Y-104347714D01*
X146882137Y-104644507D01*
X144652000Y-102414370D01*
X144652000Y-96400000D01*
X144652000Y-95369485D01*
X144883784Y-95369687D01*
X145280689Y-95205689D01*
X145584622Y-94902286D01*
X145749313Y-94505668D01*
X145749687Y-94076216D01*
X145585689Y-93679311D01*
X145282286Y-93375378D01*
X145202000Y-93342040D01*
X145202000Y-92805716D01*
X146508000Y-92816891D01*
X146508000Y-94420000D01*
X146523000Y-94495409D01*
X146523000Y-102985000D01*
X146581004Y-103276605D01*
X146746185Y-103523815D01*
X147287977Y-104065607D01*
G36*
X150122932Y-113520562D02*
X149836216Y-113520313D01*
X149439311Y-113684311D01*
X149135378Y-113987714D01*
X148970687Y-114384332D01*
X148970313Y-114813784D01*
X149134311Y-115210689D01*
X149288000Y-115364646D01*
X149288000Y-116114369D01*
X149032555Y-116369813D01*
X148745668Y-116250687D01*
X148316216Y-116250313D01*
X147919311Y-116414311D01*
X147615378Y-116717714D01*
X147450687Y-117114332D01*
X147450483Y-117348000D01*
X145120000Y-117348000D01*
X144828395Y-117406004D01*
X144729376Y-117472165D01*
X144581185Y-117571184D01*
X142981185Y-119171185D01*
X142895548Y-119299349D01*
X142895548Y-119288900D01*
X136509597Y-119288900D01*
X136509687Y-119186216D01*
X136345689Y-118789311D01*
X136042286Y-118485378D01*
X136021200Y-118476622D01*
X136410689Y-118315689D01*
X136428875Y-118297534D01*
X136434311Y-118310689D01*
X136737714Y-118614622D01*
X137134332Y-118779313D01*
X137563784Y-118779687D01*
X137960689Y-118615689D01*
X138264622Y-118312286D01*
X138429313Y-117915668D01*
X138429572Y-117618225D01*
X138433996Y-117611605D01*
X138491999Y-117320000D01*
X138492000Y-117320000D01*
X138492000Y-113269441D01*
X138773784Y-113269687D01*
X139170689Y-113105689D01*
X139474622Y-112802286D01*
X139591993Y-112519624D01*
X139663784Y-112519687D01*
X140060689Y-112355689D01*
X140364622Y-112052286D01*
X140529313Y-111655668D01*
X140529687Y-111226216D01*
X140365689Y-110829311D01*
X140062286Y-110525378D01*
X139972000Y-110487887D01*
X139972000Y-108810000D01*
X139913996Y-108518396D01*
X139913996Y-108518395D01*
X139847834Y-108419376D01*
X139824829Y-108384948D01*
X140124332Y-108509313D01*
X140553784Y-108509687D01*
X140837239Y-108392565D01*
X140894311Y-108530689D01*
X141197714Y-108834622D01*
X141594332Y-108999313D01*
X142023784Y-108999687D01*
X142420689Y-108835689D01*
X142724622Y-108532286D01*
X142889313Y-108135668D01*
X142889687Y-107706216D01*
X142725689Y-107309311D01*
X142572000Y-107155353D01*
X142572000Y-105982212D01*
X142658000Y-105896212D01*
X142658000Y-106080000D01*
X142716004Y-106371605D01*
X142881185Y-106618815D01*
X144091184Y-107828815D01*
X144091185Y-107828815D01*
X144338395Y-107993996D01*
X144630000Y-108052000D01*
X147403948Y-108052000D01*
X147403952Y-108052000D01*
X147420493Y-108055291D01*
X147720000Y-108055291D01*
X147776709Y-108055291D01*
X147776709Y-108055290D01*
X148068313Y-107997287D01*
X148068314Y-107997287D01*
X148205953Y-107905318D01*
X148160687Y-108014332D01*
X148160313Y-108443784D01*
X148324311Y-108840689D01*
X148627714Y-109144622D01*
X149024332Y-109309313D01*
X149241872Y-109309502D01*
X149962850Y-110030481D01*
X149825378Y-110167714D01*
X149660687Y-110564332D01*
X149660313Y-110993784D01*
X149758000Y-111230204D01*
X149758000Y-112840000D01*
X149816004Y-113131605D01*
X149981185Y-113378815D01*
X150122932Y-113520562D01*
X150122932Y-113520562D01*
G37*
X150122932Y-113520562D02*
X149836216Y-113520313D01*
X149439311Y-113684311D01*
X149135378Y-113987714D01*
X148970687Y-114384332D01*
X148970313Y-114813784D01*
X149134311Y-115210689D01*
X149288000Y-115364646D01*
X149288000Y-116114369D01*
X149032555Y-116369813D01*
X148745668Y-116250687D01*
X148316216Y-116250313D01*
X147919311Y-116414311D01*
X147615378Y-116717714D01*
X147450687Y-117114332D01*
X147450483Y-117348000D01*
X145120000Y-117348000D01*
X144828395Y-117406004D01*
X144729376Y-117472165D01*
X144581185Y-117571184D01*
X142981185Y-119171185D01*
X142895548Y-119299349D01*
X142895548Y-119288900D01*
X136509597Y-119288900D01*
X136509687Y-119186216D01*
X136345689Y-118789311D01*
X136042286Y-118485378D01*
X136021200Y-118476622D01*
X136410689Y-118315689D01*
X136428875Y-118297534D01*
X136434311Y-118310689D01*
X136737714Y-118614622D01*
X137134332Y-118779313D01*
X137563784Y-118779687D01*
X137960689Y-118615689D01*
X138264622Y-118312286D01*
X138429313Y-117915668D01*
X138429572Y-117618225D01*
X138433996Y-117611605D01*
X138491999Y-117320000D01*
X138492000Y-117320000D01*
X138492000Y-113269441D01*
X138773784Y-113269687D01*
X139170689Y-113105689D01*
X139474622Y-112802286D01*
X139591993Y-112519624D01*
X139663784Y-112519687D01*
X140060689Y-112355689D01*
X140364622Y-112052286D01*
X140529313Y-111655668D01*
X140529687Y-111226216D01*
X140365689Y-110829311D01*
X140062286Y-110525378D01*
X139972000Y-110487887D01*
X139972000Y-108810000D01*
X139913996Y-108518396D01*
X139913996Y-108518395D01*
X139847834Y-108419376D01*
X139824829Y-108384948D01*
X140124332Y-108509313D01*
X140553784Y-108509687D01*
X140837239Y-108392565D01*
X140894311Y-108530689D01*
X141197714Y-108834622D01*
X141594332Y-108999313D01*
X142023784Y-108999687D01*
X142420689Y-108835689D01*
X142724622Y-108532286D01*
X142889313Y-108135668D01*
X142889687Y-107706216D01*
X142725689Y-107309311D01*
X142572000Y-107155353D01*
X142572000Y-105982212D01*
X142658000Y-105896212D01*
X142658000Y-106080000D01*
X142716004Y-106371605D01*
X142881185Y-106618815D01*
X144091184Y-107828815D01*
X144091185Y-107828815D01*
X144338395Y-107993996D01*
X144630000Y-108052000D01*
X147403948Y-108052000D01*
X147403952Y-108052000D01*
X147420493Y-108055291D01*
X147720000Y-108055291D01*
X147776709Y-108055291D01*
X147776709Y-108055290D01*
X148068313Y-107997287D01*
X148068314Y-107997287D01*
X148205953Y-107905318D01*
X148160687Y-108014332D01*
X148160313Y-108443784D01*
X148324311Y-108840689D01*
X148627714Y-109144622D01*
X149024332Y-109309313D01*
X149241872Y-109309502D01*
X149962850Y-110030481D01*
X149825378Y-110167714D01*
X149660687Y-110564332D01*
X149660313Y-110993784D01*
X149758000Y-111230204D01*
X149758000Y-112840000D01*
X149816004Y-113131605D01*
X149981185Y-113378815D01*
X150122932Y-113520562D01*
G36*
X166322039Y-73695000D02*
X166310331Y-78270509D01*
X166204942Y-78314163D01*
X166026313Y-78492791D01*
X165929640Y-78726180D01*
X165929640Y-78978799D01*
X165929640Y-79773819D01*
X166026313Y-80007208D01*
X166204941Y-80185837D01*
X166305324Y-80227417D01*
X166273325Y-92733000D01*
X163182000Y-92733000D01*
X163182000Y-89574641D01*
X163334622Y-89422286D01*
X163499313Y-89025668D01*
X163499687Y-88596216D01*
X163335689Y-88199311D01*
X163032286Y-87895378D01*
X162635668Y-87730687D01*
X162206216Y-87730313D01*
X161809311Y-87894311D01*
X161505378Y-88197714D01*
X161340687Y-88594332D01*
X161340313Y-89023784D01*
X161504311Y-89420689D01*
X161658000Y-89574646D01*
X161658000Y-92733000D01*
X161650630Y-92733000D01*
X159998815Y-91081185D01*
X159751605Y-90916004D01*
X159460000Y-90858000D01*
X156184641Y-90858000D01*
X156032286Y-90705378D01*
X155635668Y-90540687D01*
X155206216Y-90540313D01*
X154809311Y-90704311D01*
X154505378Y-91007714D01*
X154340687Y-91404332D01*
X154340313Y-91833784D01*
X154504311Y-92230689D01*
X154807714Y-92534622D01*
X154844055Y-92549712D01*
X154639311Y-92634311D01*
X154540449Y-92733000D01*
X154007044Y-92733000D01*
X154136935Y-92080000D01*
X154003526Y-91409309D01*
X153623610Y-90840725D01*
X153055026Y-90460809D01*
X152384335Y-90327400D01*
X152315665Y-90327400D01*
X152054409Y-90379366D01*
X152054687Y-90061216D01*
X151890689Y-89664311D01*
X151587286Y-89360378D01*
X151290492Y-89237137D01*
X151575630Y-88952000D01*
X158150157Y-88952000D01*
X158187714Y-88989622D01*
X158584332Y-89154313D01*
X159013784Y-89154687D01*
X159410689Y-88990689D01*
X159714622Y-88687286D01*
X159879313Y-88290668D01*
X159879687Y-87861216D01*
X159715689Y-87464311D01*
X159412286Y-87160378D01*
X159015668Y-86995687D01*
X158586216Y-86995313D01*
X158189311Y-87159311D01*
X157920152Y-87428000D01*
X151260000Y-87428000D01*
X150968395Y-87486004D01*
X150721185Y-87651185D01*
X149911187Y-88461182D01*
X149911184Y-88461185D01*
X149412499Y-88959869D01*
X147812000Y-87359370D01*
X147812000Y-84714641D01*
X147964622Y-84562286D01*
X148129313Y-84165668D01*
X148129687Y-83736216D01*
X147965689Y-83339311D01*
X147662286Y-83035378D01*
X147265668Y-82870687D01*
X147002000Y-82870457D01*
X147002000Y-80990000D01*
X147002000Y-80490000D01*
X147002000Y-76880000D01*
X147002000Y-76760000D01*
X146943996Y-76468396D01*
X146943996Y-76468395D01*
X146778815Y-76221185D01*
X145468600Y-74910970D01*
X145468600Y-73695000D01*
X155000000Y-73695000D01*
X166322039Y-73695000D01*
X166322039Y-73695000D01*
G37*
X166322039Y-73695000D02*
X166310331Y-78270509D01*
X166204942Y-78314163D01*
X166026313Y-78492791D01*
X165929640Y-78726180D01*
X165929640Y-78978799D01*
X165929640Y-79773819D01*
X166026313Y-80007208D01*
X166204941Y-80185837D01*
X166305324Y-80227417D01*
X166273325Y-92733000D01*
X163182000Y-92733000D01*
X163182000Y-89574641D01*
X163334622Y-89422286D01*
X163499313Y-89025668D01*
X163499687Y-88596216D01*
X163335689Y-88199311D01*
X163032286Y-87895378D01*
X162635668Y-87730687D01*
X162206216Y-87730313D01*
X161809311Y-87894311D01*
X161505378Y-88197714D01*
X161340687Y-88594332D01*
X161340313Y-89023784D01*
X161504311Y-89420689D01*
X161658000Y-89574646D01*
X161658000Y-92733000D01*
X161650630Y-92733000D01*
X159998815Y-91081185D01*
X159751605Y-90916004D01*
X159460000Y-90858000D01*
X156184641Y-90858000D01*
X156032286Y-90705378D01*
X155635668Y-90540687D01*
X155206216Y-90540313D01*
X154809311Y-90704311D01*
X154505378Y-91007714D01*
X154340687Y-91404332D01*
X154340313Y-91833784D01*
X154504311Y-92230689D01*
X154807714Y-92534622D01*
X154844055Y-92549712D01*
X154639311Y-92634311D01*
X154540449Y-92733000D01*
X154007044Y-92733000D01*
X154136935Y-92080000D01*
X154003526Y-91409309D01*
X153623610Y-90840725D01*
X153055026Y-90460809D01*
X152384335Y-90327400D01*
X152315665Y-90327400D01*
X152054409Y-90379366D01*
X152054687Y-90061216D01*
X151890689Y-89664311D01*
X151587286Y-89360378D01*
X151290492Y-89237137D01*
X151575630Y-88952000D01*
X158150157Y-88952000D01*
X158187714Y-88989622D01*
X158584332Y-89154313D01*
X159013784Y-89154687D01*
X159410689Y-88990689D01*
X159714622Y-88687286D01*
X159879313Y-88290668D01*
X159879687Y-87861216D01*
X159715689Y-87464311D01*
X159412286Y-87160378D01*
X159015668Y-86995687D01*
X158586216Y-86995313D01*
X158189311Y-87159311D01*
X157920152Y-87428000D01*
X151260000Y-87428000D01*
X150968395Y-87486004D01*
X150721185Y-87651185D01*
X149911187Y-88461182D01*
X149911184Y-88461185D01*
X149412499Y-88959869D01*
X147812000Y-87359370D01*
X147812000Y-84714641D01*
X147964622Y-84562286D01*
X148129313Y-84165668D01*
X148129687Y-83736216D01*
X147965689Y-83339311D01*
X147662286Y-83035378D01*
X147265668Y-82870687D01*
X147002000Y-82870457D01*
X147002000Y-80990000D01*
X147002000Y-80490000D01*
X147002000Y-76880000D01*
X147002000Y-76760000D01*
X146943996Y-76468396D01*
X146943996Y-76468395D01*
X146778815Y-76221185D01*
X145468600Y-74910970D01*
X145468600Y-73695000D01*
X155000000Y-73695000D01*
X166322039Y-73695000D01*
G36*
X170716172Y-102995000D02*
X170445330Y-103175971D01*
X170120474Y-103662152D01*
X170006400Y-104235641D01*
X170006400Y-104294359D01*
X170093697Y-104733231D01*
X170093697Y-104733232D01*
X169828395Y-104786004D01*
X169581184Y-104951185D01*
X169219127Y-105313241D01*
X169012000Y-105398825D01*
X169012000Y-105365630D01*
X169148815Y-105228815D01*
X169313996Y-104981605D01*
X169313996Y-104981604D01*
X169372000Y-104690000D01*
X169372000Y-104040000D01*
X169372000Y-103090000D01*
X169313997Y-102798396D01*
X169313996Y-102798395D01*
X169148816Y-102551185D01*
X168619499Y-102021868D01*
X168619687Y-101806216D01*
X168455689Y-101409311D01*
X168152286Y-101105378D01*
X168046272Y-101061357D01*
X168168815Y-100938815D01*
X168333996Y-100691605D01*
X168333996Y-100691604D01*
X168392000Y-100400000D01*
X168392000Y-100284641D01*
X168544622Y-100132286D01*
X168659750Y-99855027D01*
X168794311Y-100180689D01*
X169097714Y-100484622D01*
X169494332Y-100649313D01*
X169711872Y-100649502D01*
X169991185Y-100928815D01*
X170169877Y-101048214D01*
X170120474Y-101122152D01*
X170006400Y-101695641D01*
X170006400Y-101754359D01*
X170120474Y-102327848D01*
X170445330Y-102814029D01*
X170716172Y-102995000D01*
X170716172Y-102995000D01*
G37*
X170716172Y-102995000D02*
X170445330Y-103175971D01*
X170120474Y-103662152D01*
X170006400Y-104235641D01*
X170006400Y-104294359D01*
X170093697Y-104733231D01*
X170093697Y-104733232D01*
X169828395Y-104786004D01*
X169581184Y-104951185D01*
X169219127Y-105313241D01*
X169012000Y-105398825D01*
X169012000Y-105365630D01*
X169148815Y-105228815D01*
X169313996Y-104981605D01*
X169313996Y-104981604D01*
X169372000Y-104690000D01*
X169372000Y-104040000D01*
X169372000Y-103090000D01*
X169313997Y-102798396D01*
X169313996Y-102798395D01*
X169148816Y-102551185D01*
X168619499Y-102021868D01*
X168619687Y-101806216D01*
X168455689Y-101409311D01*
X168152286Y-101105378D01*
X168046272Y-101061357D01*
X168168815Y-100938815D01*
X168333996Y-100691605D01*
X168333996Y-100691604D01*
X168392000Y-100400000D01*
X168392000Y-100284641D01*
X168544622Y-100132286D01*
X168659750Y-99855027D01*
X168794311Y-100180689D01*
X169097714Y-100484622D01*
X169494332Y-100649313D01*
X169711872Y-100649502D01*
X169991185Y-100928815D01*
X170169877Y-101048214D01*
X170120474Y-101122152D01*
X170006400Y-101695641D01*
X170006400Y-101754359D01*
X170120474Y-102327848D01*
X170445330Y-102814029D01*
X170716172Y-102995000D01*
G36*
X175175000Y-95686390D02*
X174819947Y-95362312D01*
X174404026Y-95190042D01*
X174172000Y-95311183D01*
X174172000Y-96518000D01*
X174192000Y-96518000D01*
X174192000Y-96772000D01*
X174172000Y-96772000D01*
X174172000Y-96792000D01*
X173918000Y-96792000D01*
X173918000Y-96772000D01*
X173898000Y-96772000D01*
X173898000Y-96518000D01*
X173918000Y-96518000D01*
X173918000Y-95311183D01*
X173685974Y-95190042D01*
X173270053Y-95362312D01*
X172988700Y-95619119D01*
X172906927Y-95421702D01*
X172728299Y-95243073D01*
X172494910Y-95146400D01*
X172242291Y-95146400D01*
X170515091Y-95146400D01*
X170281702Y-95243073D01*
X170103073Y-95421701D01*
X170006400Y-95655090D01*
X170006400Y-95907709D01*
X170006400Y-97634909D01*
X170103073Y-97868298D01*
X170281701Y-98046927D01*
X170435526Y-98110643D01*
X170126004Y-98573874D01*
X169925668Y-98490687D01*
X169496216Y-98490313D01*
X169099311Y-98654311D01*
X168795378Y-98957714D01*
X168680249Y-99234972D01*
X168545689Y-98909311D01*
X168242286Y-98605378D01*
X167845668Y-98440687D01*
X167416216Y-98440313D01*
X167019311Y-98604311D01*
X166715378Y-98907714D01*
X166550687Y-99304332D01*
X166550313Y-99733784D01*
X166714311Y-100130689D01*
X166767949Y-100184420D01*
X166424444Y-100527925D01*
X166202286Y-100305378D01*
X165805668Y-100140687D01*
X165744984Y-100140634D01*
X165595689Y-99779311D01*
X165292286Y-99475378D01*
X164895668Y-99310687D01*
X164466216Y-99310313D01*
X164069311Y-99474311D01*
X163765378Y-99777714D01*
X163600687Y-100174332D01*
X163600313Y-100603784D01*
X163764311Y-101000689D01*
X163834098Y-101070598D01*
X163506216Y-101070313D01*
X163342401Y-101138000D01*
X162320000Y-101138000D01*
X162028395Y-101196004D01*
X161781185Y-101361185D01*
X160964370Y-102178000D01*
X159990000Y-102178000D01*
X159760000Y-102178000D01*
X157995630Y-102178000D01*
X157458815Y-101641185D01*
X157211605Y-101476004D01*
X156920000Y-101418000D01*
X154804641Y-101418000D01*
X154652286Y-101265378D01*
X154255668Y-101100687D01*
X153826216Y-101100313D01*
X153769144Y-101123894D01*
X153655689Y-100849311D01*
X153468716Y-100662012D01*
X153579313Y-100395668D01*
X153579687Y-99966216D01*
X153415689Y-99569311D01*
X153202000Y-99355248D01*
X153202000Y-96437000D01*
X155489369Y-96437000D01*
X155960500Y-96908131D01*
X155960313Y-97123784D01*
X156124311Y-97520689D01*
X156427714Y-97824622D01*
X156824332Y-97989313D01*
X157253784Y-97989687D01*
X157422665Y-97919906D01*
X157486474Y-98240691D01*
X157866390Y-98809275D01*
X158434974Y-99189191D01*
X159105665Y-99322600D01*
X159174335Y-99322600D01*
X159845026Y-99189191D01*
X160413610Y-98809275D01*
X160793526Y-98240691D01*
X160926935Y-97570000D01*
X160793526Y-96899309D01*
X160413610Y-96330725D01*
X159845026Y-95950809D01*
X159174335Y-95817400D01*
X159105665Y-95817400D01*
X158434974Y-95950809D01*
X157938769Y-96282362D01*
X157652286Y-95995378D01*
X157255668Y-95830687D01*
X157038128Y-95830497D01*
X156343815Y-95136185D01*
X156096605Y-94971004D01*
X155805000Y-94913000D01*
X153014641Y-94913000D01*
X152880950Y-94779075D01*
X152788815Y-94641185D01*
X151896940Y-93749310D01*
X152315665Y-93832600D01*
X152384335Y-93832600D01*
X153055026Y-93699191D01*
X153623610Y-93319275D01*
X153916935Y-92880283D01*
X154388864Y-92884321D01*
X154335378Y-92937714D01*
X154170687Y-93334332D01*
X154170313Y-93763784D01*
X154334311Y-94160689D01*
X154637714Y-94464622D01*
X155034332Y-94629313D01*
X155463784Y-94629687D01*
X155860689Y-94465689D01*
X156014646Y-94312000D01*
X156230000Y-94312000D01*
X156230000Y-94311999D01*
X156521604Y-94253996D01*
X156521605Y-94253996D01*
X156768815Y-94088815D01*
X157795630Y-93062000D01*
X158964369Y-93062000D01*
X161081418Y-95179048D01*
X161081418Y-96963418D01*
X161139422Y-97255023D01*
X161304603Y-97502233D01*
X161961185Y-98158815D01*
X162085447Y-98241844D01*
X162377714Y-98534622D01*
X162774332Y-98699313D01*
X163203784Y-98699687D01*
X163600689Y-98535689D01*
X163904622Y-98232286D01*
X164069313Y-97835668D01*
X164069612Y-97492000D01*
X167055358Y-97492000D01*
X167207714Y-97644622D01*
X167604332Y-97809313D01*
X168033784Y-97809687D01*
X168430689Y-97645689D01*
X168734622Y-97342286D01*
X168899313Y-96945668D01*
X168899687Y-96516216D01*
X168735689Y-96119311D01*
X168432286Y-95815378D01*
X168035668Y-95650687D01*
X167606216Y-95650313D01*
X167209311Y-95814311D01*
X167055353Y-95968000D01*
X166478688Y-95968000D01*
X166604622Y-95842286D01*
X166769313Y-95445668D01*
X166769687Y-95016216D01*
X166605689Y-94619311D01*
X166302286Y-94315378D01*
X165905668Y-94150687D01*
X165688127Y-94150497D01*
X165348815Y-93811185D01*
X165101605Y-93646004D01*
X164810000Y-93588000D01*
X163335630Y-93588000D01*
X163182000Y-93434370D01*
X163182000Y-92959556D01*
X175175000Y-93062170D01*
X175175000Y-95686390D01*
X175175000Y-95686390D01*
G37*
X175175000Y-95686390D02*
X174819947Y-95362312D01*
X174404026Y-95190042D01*
X174172000Y-95311183D01*
X174172000Y-96518000D01*
X174192000Y-96518000D01*
X174192000Y-96772000D01*
X174172000Y-96772000D01*
X174172000Y-96792000D01*
X173918000Y-96792000D01*
X173918000Y-96772000D01*
X173898000Y-96772000D01*
X173898000Y-96518000D01*
X173918000Y-96518000D01*
X173918000Y-95311183D01*
X173685974Y-95190042D01*
X173270053Y-95362312D01*
X172988700Y-95619119D01*
X172906927Y-95421702D01*
X172728299Y-95243073D01*
X172494910Y-95146400D01*
X172242291Y-95146400D01*
X170515091Y-95146400D01*
X170281702Y-95243073D01*
X170103073Y-95421701D01*
X170006400Y-95655090D01*
X170006400Y-95907709D01*
X170006400Y-97634909D01*
X170103073Y-97868298D01*
X170281701Y-98046927D01*
X170435526Y-98110643D01*
X170126004Y-98573874D01*
X169925668Y-98490687D01*
X169496216Y-98490313D01*
X169099311Y-98654311D01*
X168795378Y-98957714D01*
X168680249Y-99234972D01*
X168545689Y-98909311D01*
X168242286Y-98605378D01*
X167845668Y-98440687D01*
X167416216Y-98440313D01*
X167019311Y-98604311D01*
X166715378Y-98907714D01*
X166550687Y-99304332D01*
X166550313Y-99733784D01*
X166714311Y-100130689D01*
X166767949Y-100184420D01*
X166424444Y-100527925D01*
X166202286Y-100305378D01*
X165805668Y-100140687D01*
X165744984Y-100140634D01*
X165595689Y-99779311D01*
X165292286Y-99475378D01*
X164895668Y-99310687D01*
X164466216Y-99310313D01*
X164069311Y-99474311D01*
X163765378Y-99777714D01*
X163600687Y-100174332D01*
X163600313Y-100603784D01*
X163764311Y-101000689D01*
X163834098Y-101070598D01*
X163506216Y-101070313D01*
X163342401Y-101138000D01*
X162320000Y-101138000D01*
X162028395Y-101196004D01*
X161781185Y-101361185D01*
X160964370Y-102178000D01*
X159990000Y-102178000D01*
X159760000Y-102178000D01*
X157995630Y-102178000D01*
X157458815Y-101641185D01*
X157211605Y-101476004D01*
X156920000Y-101418000D01*
X154804641Y-101418000D01*
X154652286Y-101265378D01*
X154255668Y-101100687D01*
X153826216Y-101100313D01*
X153769144Y-101123894D01*
X153655689Y-100849311D01*
X153468716Y-100662012D01*
X153579313Y-100395668D01*
X153579687Y-99966216D01*
X153415689Y-99569311D01*
X153202000Y-99355248D01*
X153202000Y-96437000D01*
X155489369Y-96437000D01*
X155960500Y-96908131D01*
X155960313Y-97123784D01*
X156124311Y-97520689D01*
X156427714Y-97824622D01*
X156824332Y-97989313D01*
X157253784Y-97989687D01*
X157422665Y-97919906D01*
X157486474Y-98240691D01*
X157866390Y-98809275D01*
X158434974Y-99189191D01*
X159105665Y-99322600D01*
X159174335Y-99322600D01*
X159845026Y-99189191D01*
X160413610Y-98809275D01*
X160793526Y-98240691D01*
X160926935Y-97570000D01*
X160793526Y-96899309D01*
X160413610Y-96330725D01*
X159845026Y-95950809D01*
X159174335Y-95817400D01*
X159105665Y-95817400D01*
X158434974Y-95950809D01*
X157938769Y-96282362D01*
X157652286Y-95995378D01*
X157255668Y-95830687D01*
X157038128Y-95830497D01*
X156343815Y-95136185D01*
X156096605Y-94971004D01*
X155805000Y-94913000D01*
X153014641Y-94913000D01*
X152880950Y-94779075D01*
X152788815Y-94641185D01*
X151896940Y-93749310D01*
X152315665Y-93832600D01*
X152384335Y-93832600D01*
X153055026Y-93699191D01*
X153623610Y-93319275D01*
X153916935Y-92880283D01*
X154388864Y-92884321D01*
X154335378Y-92937714D01*
X154170687Y-93334332D01*
X154170313Y-93763784D01*
X154334311Y-94160689D01*
X154637714Y-94464622D01*
X155034332Y-94629313D01*
X155463784Y-94629687D01*
X155860689Y-94465689D01*
X156014646Y-94312000D01*
X156230000Y-94312000D01*
X156230000Y-94311999D01*
X156521604Y-94253996D01*
X156521605Y-94253996D01*
X156768815Y-94088815D01*
X157795630Y-93062000D01*
X158964369Y-93062000D01*
X161081418Y-95179048D01*
X161081418Y-96963418D01*
X161139422Y-97255023D01*
X161304603Y-97502233D01*
X161961185Y-98158815D01*
X162085447Y-98241844D01*
X162377714Y-98534622D01*
X162774332Y-98699313D01*
X163203784Y-98699687D01*
X163600689Y-98535689D01*
X163904622Y-98232286D01*
X164069313Y-97835668D01*
X164069612Y-97492000D01*
X167055358Y-97492000D01*
X167207714Y-97644622D01*
X167604332Y-97809313D01*
X168033784Y-97809687D01*
X168430689Y-97645689D01*
X168734622Y-97342286D01*
X168899313Y-96945668D01*
X168899687Y-96516216D01*
X168735689Y-96119311D01*
X168432286Y-95815378D01*
X168035668Y-95650687D01*
X167606216Y-95650313D01*
X167209311Y-95814311D01*
X167055353Y-95968000D01*
X166478688Y-95968000D01*
X166604622Y-95842286D01*
X166769313Y-95445668D01*
X166769687Y-95016216D01*
X166605689Y-94619311D01*
X166302286Y-94315378D01*
X165905668Y-94150687D01*
X165688127Y-94150497D01*
X165348815Y-93811185D01*
X165101605Y-93646004D01*
X164810000Y-93588000D01*
X163335630Y-93588000D01*
X163182000Y-93434370D01*
X163182000Y-92959556D01*
X175175000Y-93062170D01*
X175175000Y-95686390D01*
G36*
X175175000Y-121145000D02*
X144291658Y-121145000D01*
X144434622Y-121002286D01*
X144460963Y-120938847D01*
X144534332Y-120969313D01*
X144963784Y-120969687D01*
X145360689Y-120805689D01*
X145664622Y-120502286D01*
X145829313Y-120105668D01*
X145829502Y-119888127D01*
X146295630Y-119422000D01*
X148544369Y-119422000D01*
X148961185Y-119838816D01*
X149109376Y-119937834D01*
X149208395Y-120003996D01*
X149208396Y-120003996D01*
X149500000Y-120062000D01*
X151190000Y-120062000D01*
X151190000Y-120061999D01*
X151481604Y-120003996D01*
X151481605Y-120003996D01*
X151728815Y-119838815D01*
X151879527Y-119688102D01*
X151934311Y-119820689D01*
X152237714Y-120124622D01*
X152634332Y-120289313D01*
X153063784Y-120289687D01*
X153460689Y-120125689D01*
X153764622Y-119822286D01*
X153893730Y-119511360D01*
X154370500Y-119988131D01*
X154370313Y-120203784D01*
X154534311Y-120600689D01*
X154837714Y-120904622D01*
X155234332Y-121069313D01*
X155663784Y-121069687D01*
X156060689Y-120905689D01*
X156364622Y-120602286D01*
X156529313Y-120205668D01*
X156529687Y-119776216D01*
X156365689Y-119379311D01*
X156062286Y-119075378D01*
X155665668Y-118910687D01*
X155448128Y-118910497D01*
X155052000Y-118514369D01*
X155052000Y-115374641D01*
X155204622Y-115222286D01*
X155369313Y-114825668D01*
X155369502Y-114608127D01*
X155558815Y-114418815D01*
X155639714Y-114297740D01*
X155721647Y-114177213D01*
X155722275Y-114174178D01*
X155723996Y-114171604D01*
X155752408Y-114028763D01*
X155781976Y-113886080D01*
X155805874Y-110890756D01*
X155964622Y-110732286D01*
X156129313Y-110335668D01*
X156129687Y-109906216D01*
X155965689Y-109509311D01*
X155662286Y-109205378D01*
X155605187Y-109181668D01*
X155634622Y-109152286D01*
X155656563Y-109099445D01*
X155933784Y-109099687D01*
X156330689Y-108935689D01*
X156504525Y-108762155D01*
X157521185Y-109778815D01*
X157768395Y-109943996D01*
X158060000Y-110002000D01*
X160654610Y-110002000D01*
X160724311Y-110170689D01*
X161027714Y-110474622D01*
X161424332Y-110639313D01*
X161853784Y-110639687D01*
X162250689Y-110475689D01*
X162554622Y-110172286D01*
X162719313Y-109775668D01*
X162719551Y-109502000D01*
X162720000Y-109502000D01*
X163230000Y-109502000D01*
X163260000Y-109502000D01*
X163260000Y-109501999D01*
X163551604Y-109443996D01*
X163551605Y-109443996D01*
X163798815Y-109278815D01*
X164399999Y-108677630D01*
X164458000Y-108735630D01*
X164458000Y-112844369D01*
X164241868Y-113060500D01*
X164026216Y-113060313D01*
X163629311Y-113224311D01*
X163325378Y-113527714D01*
X163312602Y-113558480D01*
X163245668Y-113530687D01*
X162816216Y-113530313D01*
X162439563Y-113685942D01*
X162065668Y-113530687D01*
X161636216Y-113530313D01*
X161239311Y-113694311D01*
X161184571Y-113748955D01*
X160875668Y-113620687D01*
X160446216Y-113620313D01*
X160049311Y-113784311D01*
X159745378Y-114087714D01*
X159580687Y-114484332D01*
X159580313Y-114913784D01*
X159744311Y-115310689D01*
X159898000Y-115464646D01*
X159898000Y-117435114D01*
X159885378Y-117447714D01*
X159720687Y-117844332D01*
X159720313Y-118273784D01*
X159884311Y-118670689D01*
X160187714Y-118974622D01*
X160584332Y-119139313D01*
X161013784Y-119139687D01*
X161410689Y-118975689D01*
X161468366Y-118918112D01*
X161784332Y-119049313D01*
X162213784Y-119049687D01*
X162610689Y-118885689D01*
X162914622Y-118582286D01*
X162960413Y-118472009D01*
X163074332Y-118519313D01*
X163368000Y-118519568D01*
X163368000Y-118660000D01*
X163426004Y-118951605D01*
X163591185Y-119198815D01*
X164261185Y-119868815D01*
X164508395Y-120033996D01*
X164682104Y-120068548D01*
X164682105Y-120068549D01*
X164947714Y-120334622D01*
X165344332Y-120499313D01*
X165773784Y-120499687D01*
X166170689Y-120335689D01*
X166474622Y-120032286D01*
X166639313Y-119635668D01*
X166639687Y-119206216D01*
X166475689Y-118809311D01*
X166172286Y-118505378D01*
X165989370Y-118429424D01*
X165989687Y-118066216D01*
X165966801Y-118010828D01*
X167245630Y-116732000D01*
X167820000Y-116732000D01*
X167820000Y-116731999D01*
X168111604Y-116673996D01*
X168111605Y-116673996D01*
X168358815Y-116508815D01*
X168948000Y-115919630D01*
X168948000Y-117674369D01*
X168713986Y-117908383D01*
X168713983Y-117908386D01*
X168408302Y-118214066D01*
X168255668Y-118150687D01*
X167826216Y-118150313D01*
X167429311Y-118314311D01*
X167125378Y-118617714D01*
X166960687Y-119014332D01*
X166960313Y-119443784D01*
X167124311Y-119840689D01*
X167427714Y-120144622D01*
X167824332Y-120309313D01*
X168253784Y-120309687D01*
X168650689Y-120145689D01*
X168915177Y-119881661D01*
X169157714Y-120124622D01*
X169554332Y-120289313D01*
X169983784Y-120289687D01*
X170186114Y-120206085D01*
X170445330Y-120594029D01*
X170931511Y-120918885D01*
X171505000Y-121032959D01*
X172078489Y-120918885D01*
X172564670Y-120594029D01*
X172775000Y-120279248D01*
X172985330Y-120594029D01*
X173471511Y-120918885D01*
X174045000Y-121032959D01*
X174618489Y-120918885D01*
X175104670Y-120594029D01*
X175175000Y-120488772D01*
X175175000Y-121145000D01*
X175175000Y-121145000D01*
G37*
X175175000Y-121145000D02*
X144291658Y-121145000D01*
X144434622Y-121002286D01*
X144460963Y-120938847D01*
X144534332Y-120969313D01*
X144963784Y-120969687D01*
X145360689Y-120805689D01*
X145664622Y-120502286D01*
X145829313Y-120105668D01*
X145829502Y-119888127D01*
X146295630Y-119422000D01*
X148544369Y-119422000D01*
X148961185Y-119838816D01*
X149109376Y-119937834D01*
X149208395Y-120003996D01*
X149208396Y-120003996D01*
X149500000Y-120062000D01*
X151190000Y-120062000D01*
X151190000Y-120061999D01*
X151481604Y-120003996D01*
X151481605Y-120003996D01*
X151728815Y-119838815D01*
X151879527Y-119688102D01*
X151934311Y-119820689D01*
X152237714Y-120124622D01*
X152634332Y-120289313D01*
X153063784Y-120289687D01*
X153460689Y-120125689D01*
X153764622Y-119822286D01*
X153893730Y-119511360D01*
X154370500Y-119988131D01*
X154370313Y-120203784D01*
X154534311Y-120600689D01*
X154837714Y-120904622D01*
X155234332Y-121069313D01*
X155663784Y-121069687D01*
X156060689Y-120905689D01*
X156364622Y-120602286D01*
X156529313Y-120205668D01*
X156529687Y-119776216D01*
X156365689Y-119379311D01*
X156062286Y-119075378D01*
X155665668Y-118910687D01*
X155448128Y-118910497D01*
X155052000Y-118514369D01*
X155052000Y-115374641D01*
X155204622Y-115222286D01*
X155369313Y-114825668D01*
X155369502Y-114608127D01*
X155558815Y-114418815D01*
X155639714Y-114297740D01*
X155721647Y-114177213D01*
X155722275Y-114174178D01*
X155723996Y-114171604D01*
X155752408Y-114028763D01*
X155781976Y-113886080D01*
X155805874Y-110890756D01*
X155964622Y-110732286D01*
X156129313Y-110335668D01*
X156129687Y-109906216D01*
X155965689Y-109509311D01*
X155662286Y-109205378D01*
X155605187Y-109181668D01*
X155634622Y-109152286D01*
X155656563Y-109099445D01*
X155933784Y-109099687D01*
X156330689Y-108935689D01*
X156504525Y-108762155D01*
X157521185Y-109778815D01*
X157768395Y-109943996D01*
X158060000Y-110002000D01*
X160654610Y-110002000D01*
X160724311Y-110170689D01*
X161027714Y-110474622D01*
X161424332Y-110639313D01*
X161853784Y-110639687D01*
X162250689Y-110475689D01*
X162554622Y-110172286D01*
X162719313Y-109775668D01*
X162719551Y-109502000D01*
X162720000Y-109502000D01*
X163230000Y-109502000D01*
X163260000Y-109502000D01*
X163260000Y-109501999D01*
X163551604Y-109443996D01*
X163551605Y-109443996D01*
X163798815Y-109278815D01*
X164399999Y-108677630D01*
X164458000Y-108735630D01*
X164458000Y-112844369D01*
X164241868Y-113060500D01*
X164026216Y-113060313D01*
X163629311Y-113224311D01*
X163325378Y-113527714D01*
X163312602Y-113558480D01*
X163245668Y-113530687D01*
X162816216Y-113530313D01*
X162439563Y-113685942D01*
X162065668Y-113530687D01*
X161636216Y-113530313D01*
X161239311Y-113694311D01*
X161184571Y-113748955D01*
X160875668Y-113620687D01*
X160446216Y-113620313D01*
X160049311Y-113784311D01*
X159745378Y-114087714D01*
X159580687Y-114484332D01*
X159580313Y-114913784D01*
X159744311Y-115310689D01*
X159898000Y-115464646D01*
X159898000Y-117435114D01*
X159885378Y-117447714D01*
X159720687Y-117844332D01*
X159720313Y-118273784D01*
X159884311Y-118670689D01*
X160187714Y-118974622D01*
X160584332Y-119139313D01*
X161013784Y-119139687D01*
X161410689Y-118975689D01*
X161468366Y-118918112D01*
X161784332Y-119049313D01*
X162213784Y-119049687D01*
X162610689Y-118885689D01*
X162914622Y-118582286D01*
X162960413Y-118472009D01*
X163074332Y-118519313D01*
X163368000Y-118519568D01*
X163368000Y-118660000D01*
X163426004Y-118951605D01*
X163591185Y-119198815D01*
X164261185Y-119868815D01*
X164508395Y-120033996D01*
X164682104Y-120068548D01*
X164682105Y-120068549D01*
X164947714Y-120334622D01*
X165344332Y-120499313D01*
X165773784Y-120499687D01*
X166170689Y-120335689D01*
X166474622Y-120032286D01*
X166639313Y-119635668D01*
X166639687Y-119206216D01*
X166475689Y-118809311D01*
X166172286Y-118505378D01*
X165989370Y-118429424D01*
X165989687Y-118066216D01*
X165966801Y-118010828D01*
X167245630Y-116732000D01*
X167820000Y-116732000D01*
X167820000Y-116731999D01*
X168111604Y-116673996D01*
X168111605Y-116673996D01*
X168358815Y-116508815D01*
X168948000Y-115919630D01*
X168948000Y-117674369D01*
X168713986Y-117908383D01*
X168713983Y-117908386D01*
X168408302Y-118214066D01*
X168255668Y-118150687D01*
X167826216Y-118150313D01*
X167429311Y-118314311D01*
X167125378Y-118617714D01*
X166960687Y-119014332D01*
X166960313Y-119443784D01*
X167124311Y-119840689D01*
X167427714Y-120144622D01*
X167824332Y-120309313D01*
X168253784Y-120309687D01*
X168650689Y-120145689D01*
X168915177Y-119881661D01*
X169157714Y-120124622D01*
X169554332Y-120289313D01*
X169983784Y-120289687D01*
X170186114Y-120206085D01*
X170445330Y-120594029D01*
X170931511Y-120918885D01*
X171505000Y-121032959D01*
X172078489Y-120918885D01*
X172564670Y-120594029D01*
X172775000Y-120279248D01*
X172985330Y-120594029D01*
X173471511Y-120918885D01*
X174045000Y-121032959D01*
X174618489Y-120918885D01*
X175104670Y-120594029D01*
X175175000Y-120488772D01*
X175175000Y-121145000D01*
M02*
