%FSLAX46Y46*%
G04 Gerber Fmt 4.6, Leading zero omitted, Abs format (unit mm)*
G04 Created by KiCad (PCBNEW (2014-jul-16 BZR unknown)-product) date Tue 30 Sep 2014 11:17:44 AM MDT*
%MOMM*%
G01*
G04 APERTURE LIST*
%ADD10C,0.100000*%
%ADD11R,1.727200X2.032000*%
%ADD12O,1.727200X2.032000*%
%ADD13R,2.500000X1.000000*%
%ADD14R,6.000000X2.500000*%
%ADD15R,2.052400X2.552400*%
%ADD16R,1.352400X1.352400*%
%ADD17R,0.852400X1.352400*%
%ADD18R,1.352400X0.852400*%
%ADD19R,1.727200X1.727200*%
%ADD20O,1.727200X1.727200*%
%ADD21R,1.198880X1.198880*%
%ADD22R,1.143000X0.635000*%
%ADD23R,0.635000X1.143000*%
%ADD24R,0.508000X0.356000*%
%ADD25R,0.949960X0.795020*%
%ADD26R,1.900000X2.400000*%
%ADD27O,2.235200X2.235200*%
%ADD28R,1.550000X1.300000*%
%ADD29R,1.350000X0.350000*%
%ADD30R,1.600000X2.100000*%
%ADD31R,1.900000X1.800000*%
%ADD32R,1.900000X1.900000*%
%ADD33R,1.000000X0.550000*%
G04 APERTURE END LIST*
D10*
D11*
X143970000Y-74620000D03*
D12*
X141430000Y-74620000D03*
X138890000Y-74620000D03*
X136350000Y-74620000D03*
X133810000Y-74620000D03*
X131270000Y-74620000D03*
D13*
X144800000Y-90580000D03*
X144800000Y-93120000D03*
D14*
X138800000Y-91850000D03*
D15*
X159450000Y-78600000D03*
X155850000Y-78600000D03*
X152250000Y-78600000D03*
X159450000Y-82900000D03*
X155850000Y-82900000D03*
X152250000Y-82900000D03*
D16*
X148600000Y-74900000D03*
X148600000Y-86600000D03*
X163100000Y-86600000D03*
X163100000Y-74900000D03*
D17*
X161250000Y-74900000D03*
X160050000Y-74900000D03*
X158850000Y-74900000D03*
X157650000Y-74900000D03*
X156450000Y-74900000D03*
X155250000Y-74900000D03*
X154050000Y-74900000D03*
X152850000Y-74900000D03*
X151650000Y-74900000D03*
X150450000Y-74900000D03*
D18*
X148600000Y-76550000D03*
X148600000Y-77750000D03*
X148600000Y-78950000D03*
X148600000Y-80150000D03*
X148600000Y-81350000D03*
X148600000Y-82550000D03*
X148600000Y-83750000D03*
X148600000Y-84950000D03*
D17*
X150450000Y-86600000D03*
X151650000Y-86600000D03*
X152850000Y-86600000D03*
X154050000Y-86600000D03*
X155250000Y-86600000D03*
X156450000Y-86600000D03*
X157650000Y-86600000D03*
X158850000Y-86600000D03*
X160050000Y-86600000D03*
X161250000Y-86600000D03*
D18*
X163100000Y-84950000D03*
X163100000Y-83750000D03*
X163100000Y-82550000D03*
X163100000Y-81350000D03*
X163100000Y-80150000D03*
X163100000Y-78950000D03*
X163100000Y-77750000D03*
X163100000Y-76550000D03*
D10*
G36*
X155369350Y-112574907D02*
X154449771Y-111655328D01*
X154654832Y-111450267D01*
X155574411Y-112369846D01*
X155369350Y-112574907D01*
X155369350Y-112574907D01*
G37*
G36*
X155723172Y-112221085D02*
X154803593Y-111301506D01*
X155008654Y-111096445D01*
X155928233Y-112016024D01*
X155723172Y-112221085D01*
X155723172Y-112221085D01*
G37*
G36*
X156076994Y-111867262D02*
X155157415Y-110947683D01*
X155362476Y-110742622D01*
X156282055Y-111662201D01*
X156076994Y-111867262D01*
X156076994Y-111867262D01*
G37*
G36*
X156430816Y-111513440D02*
X155511237Y-110593861D01*
X155716298Y-110388800D01*
X156635877Y-111308379D01*
X156430816Y-111513440D01*
X156430816Y-111513440D01*
G37*
G36*
X156784638Y-111159618D02*
X155865059Y-110240039D01*
X156070120Y-110034978D01*
X156989699Y-110954557D01*
X156784638Y-111159618D01*
X156784638Y-111159618D01*
G37*
G36*
X154309679Y-113634577D02*
X153390100Y-112714998D01*
X153595161Y-112509937D01*
X154514740Y-113429516D01*
X154309679Y-113634577D01*
X154309679Y-113634577D01*
G37*
G36*
X154661705Y-113282551D02*
X153742126Y-112362972D01*
X153947187Y-112157911D01*
X154866766Y-113077490D01*
X154661705Y-113282551D01*
X154661705Y-113282551D01*
G37*
G36*
X155015528Y-112928729D02*
X154095949Y-112009150D01*
X154301010Y-111804089D01*
X155220589Y-112723668D01*
X155015528Y-112928729D01*
X155015528Y-112928729D01*
G37*
G36*
X158897105Y-105502057D02*
X158692044Y-105296996D01*
X159611623Y-104377417D01*
X159816684Y-104582478D01*
X158897105Y-105502057D01*
X158897105Y-105502057D01*
G37*
G36*
X158545079Y-105150031D02*
X158340018Y-104944970D01*
X159259597Y-104025391D01*
X159464658Y-104230452D01*
X158545079Y-105150031D01*
X158545079Y-105150031D01*
G37*
G36*
X158191256Y-104796209D02*
X157986195Y-104591148D01*
X158905774Y-103671569D01*
X159110835Y-103876630D01*
X158191256Y-104796209D01*
X158191256Y-104796209D01*
G37*
G36*
X157837434Y-104442387D02*
X157632373Y-104237326D01*
X158551952Y-103317747D01*
X158757013Y-103522808D01*
X157837434Y-104442387D01*
X157837434Y-104442387D01*
G37*
G36*
X157483612Y-104088565D02*
X157278551Y-103883504D01*
X158198130Y-102963925D01*
X158403191Y-103168986D01*
X157483612Y-104088565D01*
X157483612Y-104088565D01*
G37*
G36*
X157129790Y-103734742D02*
X156924729Y-103529681D01*
X157844308Y-102610102D01*
X158049369Y-102815163D01*
X157129790Y-103734742D01*
X157129790Y-103734742D01*
G37*
G36*
X156775968Y-103380920D02*
X156570907Y-103175859D01*
X157490486Y-102256280D01*
X157695547Y-102461341D01*
X156775968Y-103380920D01*
X156775968Y-103380920D01*
G37*
G36*
X156422146Y-103027098D02*
X156217085Y-102822037D01*
X157136664Y-101902458D01*
X157341725Y-102107519D01*
X156422146Y-103027098D01*
X156422146Y-103027098D01*
G37*
G36*
X151479103Y-100200114D02*
X150559524Y-99280535D01*
X150764585Y-99075474D01*
X151684164Y-99995053D01*
X151479103Y-100200114D01*
X151479103Y-100200114D01*
G37*
G36*
X151127077Y-100552140D02*
X150207498Y-99632561D01*
X150412559Y-99427500D01*
X151332138Y-100347079D01*
X151127077Y-100552140D01*
X151127077Y-100552140D01*
G37*
G36*
X150776790Y-100902426D02*
X149857212Y-99982848D01*
X150055202Y-99784858D01*
X150974780Y-100704436D01*
X150776790Y-100902426D01*
X150776790Y-100902426D01*
G37*
G36*
X150419432Y-101259784D02*
X149499853Y-100340205D01*
X149704914Y-100135144D01*
X150624493Y-101054723D01*
X150419432Y-101259784D01*
X150419432Y-101259784D01*
G37*
G36*
X150065610Y-101613606D02*
X149146031Y-100694027D01*
X149351092Y-100488966D01*
X150270671Y-101408545D01*
X150065610Y-101613606D01*
X150065610Y-101613606D01*
G37*
G36*
X149711788Y-101967428D02*
X148792209Y-101047849D01*
X148997270Y-100842788D01*
X149916849Y-101762367D01*
X149711788Y-101967428D01*
X149711788Y-101967428D01*
G37*
G36*
X149357966Y-102321250D02*
X148438387Y-101401671D01*
X148643448Y-101196610D01*
X149563027Y-102116189D01*
X149357966Y-102321250D01*
X149357966Y-102321250D01*
G37*
G36*
X149004144Y-102675072D02*
X148084565Y-101755493D01*
X148289626Y-101550432D01*
X149209205Y-102470011D01*
X149004144Y-102675072D01*
X149004144Y-102675072D01*
G37*
G36*
X145462641Y-108332634D02*
X145257580Y-108127573D01*
X146177159Y-107207994D01*
X146382220Y-107413055D01*
X145462641Y-108332634D01*
X145462641Y-108332634D01*
G37*
G36*
X145814667Y-108684660D02*
X145609606Y-108479599D01*
X146529185Y-107560020D01*
X146734246Y-107765081D01*
X145814667Y-108684660D01*
X145814667Y-108684660D01*
G37*
G36*
X146168490Y-109038482D02*
X145963429Y-108833421D01*
X146883008Y-107913842D01*
X147088069Y-108118903D01*
X146168490Y-109038482D01*
X146168490Y-109038482D01*
G37*
G36*
X146522312Y-109392304D02*
X146317251Y-109187243D01*
X147236830Y-108267664D01*
X147441891Y-108472725D01*
X146522312Y-109392304D01*
X146522312Y-109392304D01*
G37*
G36*
X146876134Y-109746126D02*
X146671073Y-109541065D01*
X147590652Y-108621486D01*
X147795713Y-108826547D01*
X146876134Y-109746126D01*
X146876134Y-109746126D01*
G37*
G36*
X147229956Y-110099948D02*
X147024895Y-109894887D01*
X147944474Y-108975308D01*
X148149535Y-109180369D01*
X147229956Y-110099948D01*
X147229956Y-110099948D01*
G37*
G36*
X147583778Y-110453770D02*
X147378717Y-110248709D01*
X148298296Y-109329130D01*
X148503357Y-109534191D01*
X147583778Y-110453770D01*
X147583778Y-110453770D01*
G37*
G36*
X147937600Y-110807592D02*
X147732539Y-110602531D01*
X148652118Y-109682952D01*
X148857179Y-109888013D01*
X147937600Y-110807592D01*
X147937600Y-110807592D01*
G37*
G36*
X157136664Y-110807592D02*
X156217085Y-109888013D01*
X156422146Y-109682952D01*
X157341725Y-110602531D01*
X157136664Y-110807592D01*
X157136664Y-110807592D01*
G37*
G36*
X157490486Y-110453770D02*
X156570907Y-109534191D01*
X156775968Y-109329130D01*
X157695547Y-110248709D01*
X157490486Y-110453770D01*
X157490486Y-110453770D01*
G37*
G36*
X157844308Y-110099948D02*
X156924729Y-109180369D01*
X157129790Y-108975308D01*
X158049369Y-109894887D01*
X157844308Y-110099948D01*
X157844308Y-110099948D01*
G37*
G36*
X156070120Y-102675072D02*
X155865059Y-102470011D01*
X156784638Y-101550432D01*
X156989699Y-101755493D01*
X156070120Y-102675072D01*
X156070120Y-102675072D01*
G37*
G36*
X155716298Y-102321250D02*
X155511237Y-102116189D01*
X156430816Y-101196610D01*
X156635877Y-101401671D01*
X155716298Y-102321250D01*
X155716298Y-102321250D01*
G37*
G36*
X155362476Y-101967428D02*
X155157415Y-101762367D01*
X156076994Y-100842788D01*
X156282055Y-101047849D01*
X155362476Y-101967428D01*
X155362476Y-101967428D01*
G37*
G36*
X148652118Y-103027098D02*
X147732539Y-102107519D01*
X147937600Y-101902458D01*
X148857179Y-102822037D01*
X148652118Y-103027098D01*
X148652118Y-103027098D01*
G37*
G36*
X148301831Y-103377384D02*
X147382253Y-102457806D01*
X147580243Y-102259816D01*
X148499821Y-103179394D01*
X148301831Y-103377384D01*
X148301831Y-103377384D01*
G37*
G36*
X147944474Y-103734742D02*
X147024895Y-102815163D01*
X147229956Y-102610102D01*
X148149535Y-103529681D01*
X147944474Y-103734742D01*
X147944474Y-103734742D01*
G37*
G36*
X148289626Y-111159618D02*
X148084565Y-110954557D01*
X149004144Y-110034978D01*
X149209205Y-110240039D01*
X148289626Y-111159618D01*
X148289626Y-111159618D01*
G37*
G36*
X148643448Y-111513440D02*
X148438387Y-111308379D01*
X149357966Y-110388800D01*
X149563027Y-110593861D01*
X148643448Y-111513440D01*
X148643448Y-111513440D01*
G37*
G36*
X148997270Y-111867262D02*
X148792209Y-111662201D01*
X149711788Y-110742622D01*
X149916849Y-110947683D01*
X148997270Y-111867262D01*
X148997270Y-111867262D01*
G37*
G36*
X158198130Y-109746126D02*
X157278551Y-108826547D01*
X157483612Y-108621486D01*
X158403191Y-109541065D01*
X158198130Y-109746126D01*
X158198130Y-109746126D01*
G37*
G36*
X158551952Y-109392304D02*
X157632373Y-108472725D01*
X157837434Y-108267664D01*
X158757013Y-109187243D01*
X158551952Y-109392304D01*
X158551952Y-109392304D01*
G37*
G36*
X158905774Y-109038482D02*
X157986195Y-108118903D01*
X158191256Y-107913842D01*
X159110835Y-108833421D01*
X158905774Y-109038482D01*
X158905774Y-109038482D01*
G37*
G36*
X159259597Y-108684660D02*
X158340018Y-107765081D01*
X158545079Y-107560020D01*
X159464658Y-108479599D01*
X159259597Y-108684660D01*
X159259597Y-108684660D01*
G37*
G36*
X159611623Y-108332634D02*
X158692044Y-107413055D01*
X158897105Y-107207994D01*
X159816684Y-108127573D01*
X159611623Y-108332634D01*
X159611623Y-108332634D01*
G37*
G36*
X155008654Y-101613606D02*
X154803593Y-101408545D01*
X155723172Y-100488966D01*
X155928233Y-100694027D01*
X155008654Y-101613606D01*
X155008654Y-101613606D01*
G37*
G36*
X154654832Y-101259784D02*
X154449771Y-101054723D01*
X155369350Y-100135144D01*
X155574411Y-100340205D01*
X154654832Y-101259784D01*
X154654832Y-101259784D01*
G37*
G36*
X154301010Y-100905962D02*
X154095949Y-100700901D01*
X155015528Y-99781322D01*
X155220589Y-99986383D01*
X154301010Y-100905962D01*
X154301010Y-100905962D01*
G37*
G36*
X153947187Y-100552140D02*
X153742126Y-100347079D01*
X154661705Y-99427500D01*
X154866766Y-99632561D01*
X153947187Y-100552140D01*
X153947187Y-100552140D01*
G37*
G36*
X153595161Y-100200114D02*
X153390100Y-99995053D01*
X154309679Y-99075474D01*
X154514740Y-99280535D01*
X153595161Y-100200114D01*
X153595161Y-100200114D01*
G37*
G36*
X147594187Y-104085029D02*
X146674609Y-103165451D01*
X146872599Y-102967461D01*
X147792177Y-103887039D01*
X147594187Y-104085029D01*
X147594187Y-104085029D01*
G37*
G36*
X147236830Y-104442387D02*
X146317251Y-103522808D01*
X146522312Y-103317747D01*
X147441891Y-104237326D01*
X147236830Y-104442387D01*
X147236830Y-104442387D01*
G37*
G36*
X146883008Y-104796209D02*
X145963429Y-103876630D01*
X146168490Y-103671569D01*
X147088069Y-104591148D01*
X146883008Y-104796209D01*
X146883008Y-104796209D01*
G37*
G36*
X146529185Y-105150031D02*
X145609606Y-104230452D01*
X145814667Y-104025391D01*
X146734246Y-104944970D01*
X146529185Y-105150031D01*
X146529185Y-105150031D01*
G37*
G36*
X146177159Y-105502057D02*
X145257580Y-104582478D01*
X145462641Y-104377417D01*
X146382220Y-105296996D01*
X146177159Y-105502057D01*
X146177159Y-105502057D01*
G37*
G36*
X149351092Y-112221085D02*
X149146031Y-112016024D01*
X150065610Y-111096445D01*
X150270671Y-111301506D01*
X149351092Y-112221085D01*
X149351092Y-112221085D01*
G37*
G36*
X149704914Y-112574907D02*
X149499853Y-112369846D01*
X150419432Y-111450267D01*
X150624493Y-111655328D01*
X149704914Y-112574907D01*
X149704914Y-112574907D01*
G37*
G36*
X150058737Y-112928729D02*
X149853676Y-112723668D01*
X150773255Y-111804089D01*
X150978316Y-112009150D01*
X150058737Y-112928729D01*
X150058737Y-112928729D01*
G37*
G36*
X150412559Y-113282551D02*
X150207498Y-113077490D01*
X151127077Y-112157911D01*
X151332138Y-112362972D01*
X150412559Y-113282551D01*
X150412559Y-113282551D01*
G37*
G36*
X150764585Y-113634577D02*
X150559524Y-113429516D01*
X151479103Y-112509937D01*
X151684164Y-112714998D01*
X150764585Y-113634577D01*
X150764585Y-113634577D01*
G37*
D19*
X131090000Y-97190000D03*
D20*
X133630000Y-97190000D03*
X131090000Y-99730000D03*
X133630000Y-99730000D03*
X131090000Y-102270000D03*
X133630000Y-102270000D03*
X131090000Y-104810000D03*
X133630000Y-104810000D03*
X131090000Y-107350000D03*
X133630000Y-107350000D03*
X131090000Y-109890000D03*
X133630000Y-109890000D03*
X131090000Y-112430000D03*
X133630000Y-112430000D03*
X131090000Y-114970000D03*
X133630000Y-114970000D03*
X131090000Y-117510000D03*
X133630000Y-117510000D03*
X131090000Y-120050000D03*
X133630000Y-120050000D03*
D19*
X171505000Y-96645000D03*
D20*
X174045000Y-96645000D03*
X171505000Y-99185000D03*
X174045000Y-99185000D03*
X171505000Y-101725000D03*
X174045000Y-101725000D03*
X171505000Y-104265000D03*
X174045000Y-104265000D03*
X171505000Y-106805000D03*
X174045000Y-106805000D03*
X171505000Y-109345000D03*
X174045000Y-109345000D03*
X171505000Y-111885000D03*
X174045000Y-111885000D03*
X171505000Y-114425000D03*
X174045000Y-114425000D03*
X171505000Y-116965000D03*
X174045000Y-116965000D03*
X171505000Y-119505000D03*
X174045000Y-119505000D03*
D21*
X143099020Y-81850000D03*
X141000980Y-81850000D03*
D22*
X162920000Y-98978000D03*
X162920000Y-100502000D03*
D23*
X161012000Y-93625000D03*
X159488000Y-93625000D03*
X161012000Y-90500000D03*
X159488000Y-90500000D03*
X161042000Y-92050000D03*
X159518000Y-92050000D03*
D22*
X148150000Y-116212000D03*
X148150000Y-114688000D03*
D23*
X151138000Y-115900000D03*
X152662000Y-115900000D03*
X165238000Y-96700000D03*
X166762000Y-96700000D03*
X165288000Y-98450000D03*
X166812000Y-98450000D03*
X130188000Y-83900000D03*
X131712000Y-83900000D03*
X143412000Y-98290000D03*
X141888000Y-98290000D03*
D22*
X145225000Y-82712000D03*
X145225000Y-81188000D03*
X147570000Y-96408000D03*
X147570000Y-97932000D03*
D23*
X133518000Y-83830000D03*
X135042000Y-83830000D03*
D22*
X153750000Y-96238000D03*
X153750000Y-97762000D03*
X156920000Y-97788000D03*
X156920000Y-99312000D03*
D23*
X142872000Y-109190000D03*
X141348000Y-109190000D03*
X155908000Y-115340000D03*
X157432000Y-115340000D03*
X161028000Y-111980000D03*
X162552000Y-111980000D03*
X141472000Y-100100000D03*
X139948000Y-100100000D03*
X155928000Y-116790000D03*
X157452000Y-116790000D03*
X144762000Y-111350000D03*
X143238000Y-111350000D03*
X158948000Y-101300000D03*
X160472000Y-101300000D03*
X144762000Y-112850000D03*
X143238000Y-112850000D03*
X137678000Y-84870000D03*
X139202000Y-84870000D03*
X144818000Y-87140000D03*
X146342000Y-87140000D03*
X158938000Y-99840000D03*
X160462000Y-99840000D03*
D22*
X147600000Y-90038000D03*
X147600000Y-91562000D03*
X147600000Y-92888000D03*
X147600000Y-94412000D03*
D23*
X140642000Y-98340000D03*
X139118000Y-98340000D03*
D22*
X145140000Y-97872000D03*
X145140000Y-96348000D03*
D21*
X165474020Y-91950000D03*
X163375980Y-91950000D03*
X165474020Y-90225000D03*
X163375980Y-90225000D03*
X165474020Y-93800000D03*
X163375980Y-93800000D03*
D24*
X157759000Y-93980000D03*
X156464000Y-93480000D03*
X156464000Y-94480000D03*
X157735000Y-90140000D03*
X156440000Y-89640000D03*
X156440000Y-90640000D03*
X157765000Y-91990000D03*
X156470000Y-91490000D03*
X156470000Y-92490000D03*
D23*
X150863000Y-90400000D03*
X152387000Y-90400000D03*
D22*
X165450000Y-78962000D03*
X165450000Y-77438000D03*
D23*
X150863000Y-88825000D03*
X152387000Y-88825000D03*
D25*
X167039620Y-76999560D03*
X167039620Y-79250000D03*
D26*
X138630000Y-95780000D03*
X142230000Y-95780000D03*
D27*
X159140000Y-97570000D03*
X152875000Y-94325000D03*
D28*
X130192500Y-82010000D03*
X137367500Y-82010000D03*
X130192500Y-77510000D03*
X137367500Y-77510000D03*
D23*
X136788000Y-89590000D03*
X138312000Y-89590000D03*
D29*
X133485000Y-88870000D03*
X133485000Y-89520000D03*
X133485000Y-90170000D03*
X133485000Y-90820000D03*
X133485000Y-91470000D03*
D30*
X133360000Y-87070000D03*
X133360000Y-93270000D03*
D31*
X130810000Y-86170000D03*
D32*
X130810000Y-88720000D03*
X130810000Y-91620000D03*
D31*
X130810000Y-94170000D03*
D33*
X144740000Y-85760000D03*
X144740000Y-83860000D03*
X142040000Y-83860000D03*
X142040000Y-84810000D03*
X142040000Y-85760000D03*
M02*
