%FSLAX46Y46*%
G04 Gerber Fmt 4.6, Leading zero omitted, Abs format (unit mm)*
G04 Created by KiCad (PCBNEW (2014-jul-16 BZR unknown)-product) date Thu 11 Sep 2014 01:41:01 PM MDT*
%MOMM*%
G01*
G04 APERTURE LIST*
%ADD10C,0.100000*%
%ADD11C,0.127000*%
%ADD12C,0.203200*%
%ADD13C,0.149860*%
%ADD14C,0.254000*%
%ADD15C,0.066040*%
%ADD16C,0.101600*%
%ADD17C,0.050800*%
%ADD18C,0.119380*%
%ADD19C,0.150000*%
%ADD20C,0.698500*%
%ADD21C,0.114300*%
G04 APERTURE END LIST*
D10*
D11*
X135613905Y-121369810D02*
X135613905Y-120861810D01*
X135734858Y-120861810D01*
X135807429Y-120886000D01*
X135855810Y-120934381D01*
X135880001Y-120982762D01*
X135904191Y-121079524D01*
X135904191Y-121152095D01*
X135880001Y-121248857D01*
X135855810Y-121297238D01*
X135807429Y-121345619D01*
X135734858Y-121369810D01*
X135613905Y-121369810D01*
X136339620Y-121369810D02*
X136339620Y-121103714D01*
X136315429Y-121055333D01*
X136267048Y-121031143D01*
X136170286Y-121031143D01*
X136121905Y-121055333D01*
X136339620Y-121345619D02*
X136291239Y-121369810D01*
X136170286Y-121369810D01*
X136121905Y-121345619D01*
X136097715Y-121297238D01*
X136097715Y-121248857D01*
X136121905Y-121200476D01*
X136170286Y-121176286D01*
X136291239Y-121176286D01*
X136339620Y-121152095D01*
X136581524Y-121031143D02*
X136581524Y-121369810D01*
X136581524Y-121079524D02*
X136605715Y-121055333D01*
X136654096Y-121031143D01*
X136726667Y-121031143D01*
X136775048Y-121055333D01*
X136799239Y-121103714D01*
X136799239Y-121369810D01*
X137379810Y-120861810D02*
X137500763Y-121369810D01*
X137597525Y-121006952D01*
X137694287Y-121369810D01*
X137815239Y-120861810D01*
X138008762Y-121369810D02*
X138008762Y-121031143D01*
X138008762Y-120861810D02*
X137984572Y-120886000D01*
X138008762Y-120910190D01*
X138032953Y-120886000D01*
X138008762Y-120861810D01*
X138008762Y-120910190D01*
X138323239Y-121369810D02*
X138274858Y-121345619D01*
X138250667Y-121297238D01*
X138250667Y-120861810D01*
X138589334Y-121369810D02*
X138540953Y-121345619D01*
X138516762Y-121297238D01*
X138516762Y-120861810D01*
X138855429Y-121369810D02*
X138807048Y-121345619D01*
X138782857Y-121321429D01*
X138758667Y-121273048D01*
X138758667Y-121127905D01*
X138782857Y-121079524D01*
X138807048Y-121055333D01*
X138855429Y-121031143D01*
X138928000Y-121031143D01*
X138976381Y-121055333D01*
X139000572Y-121079524D01*
X139024762Y-121127905D01*
X139024762Y-121273048D01*
X139000572Y-121321429D01*
X138976381Y-121345619D01*
X138928000Y-121369810D01*
X138855429Y-121369810D01*
X139460191Y-121031143D02*
X139460191Y-121369810D01*
X139242476Y-121031143D02*
X139242476Y-121297238D01*
X139266667Y-121345619D01*
X139315048Y-121369810D01*
X139387619Y-121369810D01*
X139436000Y-121345619D01*
X139460191Y-121321429D01*
X139919810Y-121031143D02*
X139919810Y-121442381D01*
X139895619Y-121490762D01*
X139871429Y-121514952D01*
X139823048Y-121539143D01*
X139750476Y-121539143D01*
X139702095Y-121514952D01*
X139919810Y-121345619D02*
X139871429Y-121369810D01*
X139774667Y-121369810D01*
X139726286Y-121345619D01*
X139702095Y-121321429D01*
X139677905Y-121273048D01*
X139677905Y-121127905D01*
X139702095Y-121079524D01*
X139726286Y-121055333D01*
X139774667Y-121031143D01*
X139871429Y-121031143D01*
X139919810Y-121055333D01*
X140161714Y-121369810D02*
X140161714Y-120861810D01*
X140379429Y-121369810D02*
X140379429Y-121103714D01*
X140355238Y-121055333D01*
X140306857Y-121031143D01*
X140234286Y-121031143D01*
X140185905Y-121055333D01*
X140161714Y-121079524D01*
X140621333Y-121369810D02*
X140621333Y-120861810D01*
X140621333Y-121055333D02*
X140669714Y-121031143D01*
X140766476Y-121031143D01*
X140814857Y-121055333D01*
X140839048Y-121079524D01*
X140863238Y-121127905D01*
X140863238Y-121273048D01*
X140839048Y-121321429D01*
X140814857Y-121345619D01*
X140766476Y-121369810D01*
X140669714Y-121369810D01*
X140621333Y-121345619D01*
X141032571Y-121031143D02*
X141153524Y-121369810D01*
X141274476Y-121031143D02*
X141153524Y-121369810D01*
X141105143Y-121490762D01*
X141080952Y-121514952D01*
X141032571Y-121539143D01*
D12*
X162200000Y-76150000D02*
G75*
G03X162200000Y-76150000I-400000J0D01*
G74*
G01*
X164000000Y-74000000D02*
X164000000Y-87500000D01*
X164000000Y-87500000D02*
X147700000Y-87500000D01*
X147700000Y-87500000D02*
X147700000Y-74000000D01*
X147700000Y-74000000D02*
X164000000Y-74000000D01*
D13*
X152467086Y-114485749D02*
X152607178Y-114485749D01*
X152749066Y-114343861D02*
X152325198Y-114343861D01*
X152185106Y-114203769D02*
X152889158Y-114203769D01*
X153031046Y-114061881D02*
X152043218Y-114061881D01*
X151901330Y-113919993D02*
X153172934Y-113919993D01*
X153314822Y-113778105D02*
X151759442Y-113778105D01*
X151619350Y-113638013D02*
X153454914Y-113638013D01*
X153596802Y-113496125D02*
X151477462Y-113496125D01*
X153738690Y-113354237D02*
X152537132Y-114555795D01*
X152537132Y-114555795D02*
X151335574Y-113354237D01*
X151335574Y-113354237D02*
X153738690Y-113354237D01*
X159536344Y-105153467D02*
X160737902Y-106355025D01*
X160737902Y-106355025D02*
X159536344Y-107556584D01*
X151335574Y-99355814D02*
X152537132Y-98154255D01*
X152537132Y-98154255D02*
X153738690Y-99355814D01*
X145537920Y-107556584D02*
X144336362Y-106355025D01*
X144336362Y-106355025D02*
X145537920Y-105153467D01*
D11*
X159254364Y-106714235D02*
X152896342Y-113072257D01*
X159254364Y-105995815D02*
X152896342Y-99637794D01*
X145819900Y-105995815D02*
X152177922Y-99637794D01*
X152177922Y-113072257D02*
X145819900Y-106714235D01*
X152918132Y-111994626D02*
G75*
G03X152918132Y-111994626I-381000J0D01*
G74*
G01*
X152896342Y-113072257D02*
X152177922Y-113072257D01*
X159254364Y-105995815D02*
X159254364Y-106714235D01*
X152177922Y-99637794D02*
X152896342Y-99637794D01*
X145819900Y-106714235D02*
X145819900Y-105995815D01*
D14*
X134900000Y-121320000D02*
X134900000Y-95920000D01*
X129820000Y-98460000D02*
X129820000Y-121320000D01*
X134900000Y-121320000D02*
X129820000Y-121320000D01*
X134900000Y-95920000D02*
X132360000Y-95920000D01*
X129820000Y-95920000D02*
X129820000Y-98460000D01*
X132360000Y-95920000D02*
X132360000Y-98460000D01*
X132360000Y-98460000D02*
X129820000Y-98460000D01*
X129820000Y-95920000D02*
X132360000Y-95920000D01*
X175315000Y-120775000D02*
X175315000Y-95375000D01*
X170235000Y-97915000D02*
X170235000Y-120775000D01*
X175315000Y-120775000D02*
X170235000Y-120775000D01*
X175315000Y-95375000D02*
X172775000Y-95375000D01*
X170235000Y-95375000D02*
X170235000Y-97915000D01*
X172775000Y-95375000D02*
X172775000Y-97915000D01*
X172775000Y-97915000D02*
X170235000Y-97915000D01*
X170235000Y-95375000D02*
X172775000Y-95375000D01*
D15*
X144457840Y-88589720D02*
X144457840Y-88914840D01*
X144457840Y-88914840D02*
X144958220Y-88914840D01*
X144958220Y-88589720D02*
X144958220Y-88914840D01*
X144457840Y-88589720D02*
X144958220Y-88589720D01*
X144457840Y-87967420D02*
X144457840Y-88117280D01*
X144457840Y-88117280D02*
X144709300Y-88117280D01*
X144709300Y-87967420D02*
X144709300Y-88117280D01*
X144457840Y-87967420D02*
X144709300Y-87967420D01*
X144457840Y-88462720D02*
X144457840Y-88612580D01*
X144457840Y-88612580D02*
X144709300Y-88612580D01*
X144709300Y-88462720D02*
X144709300Y-88612580D01*
X144457840Y-88462720D02*
X144709300Y-88462720D01*
X144457840Y-88091880D02*
X144457840Y-88488120D01*
X144457840Y-88488120D02*
X144633100Y-88488120D01*
X144633100Y-88091880D02*
X144633100Y-88488120D01*
X144457840Y-88091880D02*
X144633100Y-88091880D01*
X142961780Y-88589720D02*
X142961780Y-88914840D01*
X142961780Y-88914840D02*
X143462160Y-88914840D01*
X143462160Y-88589720D02*
X143462160Y-88914840D01*
X142961780Y-88589720D02*
X143462160Y-88589720D01*
X142961780Y-87665160D02*
X142961780Y-87990280D01*
X142961780Y-87990280D02*
X143462160Y-87990280D01*
X143462160Y-87665160D02*
X143462160Y-87990280D01*
X142961780Y-87665160D02*
X143462160Y-87665160D01*
X143210700Y-88462720D02*
X143210700Y-88612580D01*
X143210700Y-88612580D02*
X143462160Y-88612580D01*
X143462160Y-88462720D02*
X143462160Y-88612580D01*
X143210700Y-88462720D02*
X143462160Y-88462720D01*
X143210700Y-87967420D02*
X143210700Y-88117280D01*
X143210700Y-88117280D02*
X143462160Y-88117280D01*
X143462160Y-87967420D02*
X143462160Y-88117280D01*
X143210700Y-87967420D02*
X143462160Y-87967420D01*
X143286900Y-88091880D02*
X143286900Y-88488120D01*
X143286900Y-88488120D02*
X143462160Y-88488120D01*
X143462160Y-88091880D02*
X143462160Y-88488120D01*
X143286900Y-88091880D02*
X143462160Y-88091880D01*
X143960000Y-88190940D02*
X143960000Y-88389060D01*
X143960000Y-88389060D02*
X144158120Y-88389060D01*
X144158120Y-88190940D02*
X144158120Y-88389060D01*
X143960000Y-88190940D02*
X144158120Y-88190940D01*
X144457840Y-87690560D02*
X144457840Y-87990280D01*
X144457840Y-87990280D02*
X144757560Y-87990280D01*
X144757560Y-87690560D02*
X144757560Y-87990280D01*
X144457840Y-87690560D02*
X144757560Y-87690560D01*
X144884560Y-87665160D02*
X144884560Y-87891220D01*
X144884560Y-87891220D02*
X144958220Y-87891220D01*
X144958220Y-87665160D02*
X144958220Y-87891220D01*
X144884560Y-87665160D02*
X144958220Y-87665160D01*
D16*
X144483240Y-88864040D02*
X143436760Y-88864040D01*
X143462160Y-87715960D02*
X144884560Y-87715960D01*
D17*
X144880202Y-87840420D02*
G75*
G03X144880202Y-87840420I-71842J0D01*
G74*
G01*
D16*
X144958220Y-87942020D02*
G75*
G03X144958220Y-88637980I0J-347980D01*
G74*
G01*
X142961780Y-88637980D02*
G75*
G03X142961780Y-87942020I0J347980D01*
G74*
G01*
D14*
X142700000Y-75890000D02*
X130000000Y-75890000D01*
X130000000Y-75890000D02*
X130000000Y-73350000D01*
X130000000Y-73350000D02*
X142700000Y-73350000D01*
X145240000Y-75890000D02*
X142700000Y-75890000D01*
X142700000Y-75890000D02*
X142700000Y-73350000D01*
X145240000Y-75890000D02*
X145240000Y-73350000D01*
X145240000Y-73350000D02*
X142700000Y-73350000D01*
D11*
X163618500Y-99239620D02*
X163618500Y-98533500D01*
X163618500Y-98533500D02*
X162221500Y-98533500D01*
X162221500Y-98533500D02*
X162221500Y-99239620D01*
X163618500Y-100946500D02*
X163618500Y-100240380D01*
X163618500Y-100946500D02*
X162221500Y-100946500D01*
X162221500Y-100946500D02*
X162221500Y-100240380D01*
X160750380Y-94323500D02*
X161456500Y-94323500D01*
X161456500Y-94323500D02*
X161456500Y-92926500D01*
X161456500Y-92926500D02*
X160750380Y-92926500D01*
X159043500Y-94323500D02*
X159749620Y-94323500D01*
X159043500Y-94323500D02*
X159043500Y-92926500D01*
X159043500Y-92926500D02*
X159749620Y-92926500D01*
X160750380Y-91198500D02*
X161456500Y-91198500D01*
X161456500Y-91198500D02*
X161456500Y-89801500D01*
X161456500Y-89801500D02*
X160750380Y-89801500D01*
X159043500Y-91198500D02*
X159749620Y-91198500D01*
X159043500Y-91198500D02*
X159043500Y-89801500D01*
X159043500Y-89801500D02*
X159749620Y-89801500D01*
X160780380Y-92748500D02*
X161486500Y-92748500D01*
X161486500Y-92748500D02*
X161486500Y-91351500D01*
X161486500Y-91351500D02*
X160780380Y-91351500D01*
X159073500Y-92748500D02*
X159779620Y-92748500D01*
X159073500Y-92748500D02*
X159073500Y-91351500D01*
X159073500Y-91351500D02*
X159779620Y-91351500D01*
X147451500Y-115950380D02*
X147451500Y-116656500D01*
X147451500Y-116656500D02*
X148848500Y-116656500D01*
X148848500Y-116656500D02*
X148848500Y-115950380D01*
X147451500Y-114243500D02*
X147451500Y-114949620D01*
X147451500Y-114243500D02*
X148848500Y-114243500D01*
X148848500Y-114243500D02*
X148848500Y-114949620D01*
X151399620Y-115201500D02*
X150693500Y-115201500D01*
X150693500Y-115201500D02*
X150693500Y-116598500D01*
X150693500Y-116598500D02*
X151399620Y-116598500D01*
X153106500Y-115201500D02*
X152400380Y-115201500D01*
X153106500Y-115201500D02*
X153106500Y-116598500D01*
X153106500Y-116598500D02*
X152400380Y-116598500D01*
X165499620Y-96001500D02*
X164793500Y-96001500D01*
X164793500Y-96001500D02*
X164793500Y-97398500D01*
X164793500Y-97398500D02*
X165499620Y-97398500D01*
X167206500Y-96001500D02*
X166500380Y-96001500D01*
X167206500Y-96001500D02*
X167206500Y-97398500D01*
X167206500Y-97398500D02*
X166500380Y-97398500D01*
X165549620Y-97751500D02*
X164843500Y-97751500D01*
X164843500Y-97751500D02*
X164843500Y-99148500D01*
X164843500Y-99148500D02*
X165549620Y-99148500D01*
X167256500Y-97751500D02*
X166550380Y-97751500D01*
X167256500Y-97751500D02*
X167256500Y-99148500D01*
X167256500Y-99148500D02*
X166550380Y-99148500D01*
X135061500Y-83800380D02*
X135061500Y-84506500D01*
X135061500Y-84506500D02*
X136458500Y-84506500D01*
X136458500Y-84506500D02*
X136458500Y-83800380D01*
X135061500Y-82093500D02*
X135061500Y-82799620D01*
X135061500Y-82093500D02*
X136458500Y-82093500D01*
X136458500Y-82093500D02*
X136458500Y-82799620D01*
X143150380Y-98988500D02*
X143856500Y-98988500D01*
X143856500Y-98988500D02*
X143856500Y-97591500D01*
X143856500Y-97591500D02*
X143150380Y-97591500D01*
X141443500Y-98988500D02*
X142149620Y-98988500D01*
X141443500Y-98988500D02*
X141443500Y-97591500D01*
X141443500Y-97591500D02*
X142149620Y-97591500D01*
X144060380Y-87328500D02*
X144766500Y-87328500D01*
X144766500Y-87328500D02*
X144766500Y-85931500D01*
X144766500Y-85931500D02*
X144060380Y-85931500D01*
X142353500Y-87328500D02*
X143059620Y-87328500D01*
X142353500Y-87328500D02*
X142353500Y-85931500D01*
X142353500Y-85931500D02*
X143059620Y-85931500D01*
X148268500Y-96669620D02*
X148268500Y-95963500D01*
X148268500Y-95963500D02*
X146871500Y-95963500D01*
X146871500Y-95963500D02*
X146871500Y-96669620D01*
X148268500Y-98376500D02*
X148268500Y-97670380D01*
X148268500Y-98376500D02*
X146871500Y-98376500D01*
X146871500Y-98376500D02*
X146871500Y-97670380D01*
X138620380Y-84208500D02*
X139326500Y-84208500D01*
X139326500Y-84208500D02*
X139326500Y-82811500D01*
X139326500Y-82811500D02*
X138620380Y-82811500D01*
X136913500Y-84208500D02*
X137619620Y-84208500D01*
X136913500Y-84208500D02*
X136913500Y-82811500D01*
X136913500Y-82811500D02*
X137619620Y-82811500D01*
X154448500Y-96499620D02*
X154448500Y-95793500D01*
X154448500Y-95793500D02*
X153051500Y-95793500D01*
X153051500Y-95793500D02*
X153051500Y-96499620D01*
X154448500Y-98206500D02*
X154448500Y-97500380D01*
X154448500Y-98206500D02*
X153051500Y-98206500D01*
X153051500Y-98206500D02*
X153051500Y-97500380D01*
D18*
X156269760Y-99050380D02*
X156269760Y-99748880D01*
X156269760Y-98049620D02*
X156269760Y-97351120D01*
X157570240Y-99050380D02*
X157570240Y-99748880D01*
X157570240Y-97351120D02*
X157570240Y-98049620D01*
X157555000Y-99748880D02*
X156285000Y-99748880D01*
X156285000Y-97351120D02*
X157555000Y-97351120D01*
X141609620Y-108539760D02*
X140911120Y-108539760D01*
X142610380Y-108539760D02*
X143308880Y-108539760D01*
X141609620Y-109840240D02*
X140911120Y-109840240D01*
X143308880Y-109840240D02*
X142610380Y-109840240D01*
X140911120Y-109825000D02*
X140911120Y-108555000D01*
X143308880Y-108555000D02*
X143308880Y-109825000D01*
X157170380Y-115990240D02*
X157868880Y-115990240D01*
X156169620Y-115990240D02*
X155471120Y-115990240D01*
X157170380Y-114689760D02*
X157868880Y-114689760D01*
X155471120Y-114689760D02*
X156169620Y-114689760D01*
X157868880Y-114705000D02*
X157868880Y-115975000D01*
X155471120Y-115975000D02*
X155471120Y-114705000D01*
X162290380Y-112630240D02*
X162988880Y-112630240D01*
X161289620Y-112630240D02*
X160591120Y-112630240D01*
X162290380Y-111329760D02*
X162988880Y-111329760D01*
X160591120Y-111329760D02*
X161289620Y-111329760D01*
X162988880Y-111345000D02*
X162988880Y-112615000D01*
X160591120Y-112615000D02*
X160591120Y-111345000D01*
X140209620Y-99449760D02*
X139511120Y-99449760D01*
X141210380Y-99449760D02*
X141908880Y-99449760D01*
X140209620Y-100750240D02*
X139511120Y-100750240D01*
X141908880Y-100750240D02*
X141210380Y-100750240D01*
X139511120Y-100735000D02*
X139511120Y-99465000D01*
X141908880Y-99465000D02*
X141908880Y-100735000D01*
X157190380Y-117440240D02*
X157888880Y-117440240D01*
X156189620Y-117440240D02*
X155491120Y-117440240D01*
X157190380Y-116139760D02*
X157888880Y-116139760D01*
X155491120Y-116139760D02*
X156189620Y-116139760D01*
X157888880Y-116155000D02*
X157888880Y-117425000D01*
X155491120Y-117425000D02*
X155491120Y-116155000D01*
X143499620Y-110699760D02*
X142801120Y-110699760D01*
X144500380Y-110699760D02*
X145198880Y-110699760D01*
X143499620Y-112000240D02*
X142801120Y-112000240D01*
X145198880Y-112000240D02*
X144500380Y-112000240D01*
X142801120Y-111985000D02*
X142801120Y-110715000D01*
X145198880Y-110715000D02*
X145198880Y-111985000D01*
X160210380Y-101950240D02*
X160908880Y-101950240D01*
X159209620Y-101950240D02*
X158511120Y-101950240D01*
X160210380Y-100649760D02*
X160908880Y-100649760D01*
X158511120Y-100649760D02*
X159209620Y-100649760D01*
X160908880Y-100665000D02*
X160908880Y-101935000D01*
X158511120Y-101935000D02*
X158511120Y-100665000D01*
X143499620Y-112199760D02*
X142801120Y-112199760D01*
X144500380Y-112199760D02*
X145198880Y-112199760D01*
X143499620Y-113500240D02*
X142801120Y-113500240D01*
X145198880Y-113500240D02*
X144500380Y-113500240D01*
X142801120Y-113485000D02*
X142801120Y-112215000D01*
X145198880Y-112215000D02*
X145198880Y-113485000D01*
X137599620Y-84359760D02*
X136901120Y-84359760D01*
X138600380Y-84359760D02*
X139298880Y-84359760D01*
X137599620Y-85660240D02*
X136901120Y-85660240D01*
X139298880Y-85660240D02*
X138600380Y-85660240D01*
X136901120Y-85645000D02*
X136901120Y-84375000D01*
X139298880Y-84375000D02*
X139298880Y-85645000D01*
X144039620Y-80339760D02*
X143341120Y-80339760D01*
X145040380Y-80339760D02*
X145738880Y-80339760D01*
X144039620Y-81640240D02*
X143341120Y-81640240D01*
X145738880Y-81640240D02*
X145040380Y-81640240D01*
X143341120Y-81625000D02*
X143341120Y-80355000D01*
X145738880Y-80355000D02*
X145738880Y-81625000D01*
X160200380Y-100490240D02*
X160898880Y-100490240D01*
X159199620Y-100490240D02*
X158501120Y-100490240D01*
X160200380Y-99189760D02*
X160898880Y-99189760D01*
X158501120Y-99189760D02*
X159199620Y-99189760D01*
X160898880Y-99205000D02*
X160898880Y-100475000D01*
X158501120Y-100475000D02*
X158501120Y-99205000D01*
X146949760Y-91300380D02*
X146949760Y-91998880D01*
X146949760Y-90299620D02*
X146949760Y-89601120D01*
X148250240Y-91300380D02*
X148250240Y-91998880D01*
X148250240Y-89601120D02*
X148250240Y-90299620D01*
X148235000Y-91998880D02*
X146965000Y-91998880D01*
X146965000Y-89601120D02*
X148235000Y-89601120D01*
X146949760Y-94150380D02*
X146949760Y-94848880D01*
X146949760Y-93149620D02*
X146949760Y-92451120D01*
X148250240Y-94150380D02*
X148250240Y-94848880D01*
X148250240Y-92451120D02*
X148250240Y-93149620D01*
X148235000Y-94848880D02*
X146965000Y-94848880D01*
X146965000Y-92451120D02*
X148235000Y-92451120D01*
X139379620Y-97689760D02*
X138681120Y-97689760D01*
X140380380Y-97689760D02*
X141078880Y-97689760D01*
X139379620Y-98990240D02*
X138681120Y-98990240D01*
X141078880Y-98990240D02*
X140380380Y-98990240D01*
X138681120Y-98975000D02*
X138681120Y-97705000D01*
X141078880Y-97705000D02*
X141078880Y-98975000D01*
X145790240Y-96609620D02*
X145790240Y-95911120D01*
X145790240Y-97610380D02*
X145790240Y-98308880D01*
X144489760Y-96609620D02*
X144489760Y-95911120D01*
X144489760Y-98308880D02*
X144489760Y-97610380D01*
X144505000Y-95911120D02*
X145775000Y-95911120D01*
X145775000Y-98308880D02*
X144505000Y-98308880D01*
D15*
X164487840Y-92279720D02*
X164487840Y-92604840D01*
X164487840Y-92604840D02*
X164988220Y-92604840D01*
X164988220Y-92279720D02*
X164988220Y-92604840D01*
X164487840Y-92279720D02*
X164988220Y-92279720D01*
X164487840Y-91657420D02*
X164487840Y-91807280D01*
X164487840Y-91807280D02*
X164739300Y-91807280D01*
X164739300Y-91657420D02*
X164739300Y-91807280D01*
X164487840Y-91657420D02*
X164739300Y-91657420D01*
X164487840Y-92152720D02*
X164487840Y-92302580D01*
X164487840Y-92302580D02*
X164739300Y-92302580D01*
X164739300Y-92152720D02*
X164739300Y-92302580D01*
X164487840Y-92152720D02*
X164739300Y-92152720D01*
X164487840Y-91781880D02*
X164487840Y-92178120D01*
X164487840Y-92178120D02*
X164663100Y-92178120D01*
X164663100Y-91781880D02*
X164663100Y-92178120D01*
X164487840Y-91781880D02*
X164663100Y-91781880D01*
X162991780Y-92279720D02*
X162991780Y-92604840D01*
X162991780Y-92604840D02*
X163492160Y-92604840D01*
X163492160Y-92279720D02*
X163492160Y-92604840D01*
X162991780Y-92279720D02*
X163492160Y-92279720D01*
X162991780Y-91355160D02*
X162991780Y-91680280D01*
X162991780Y-91680280D02*
X163492160Y-91680280D01*
X163492160Y-91355160D02*
X163492160Y-91680280D01*
X162991780Y-91355160D02*
X163492160Y-91355160D01*
X163240700Y-92152720D02*
X163240700Y-92302580D01*
X163240700Y-92302580D02*
X163492160Y-92302580D01*
X163492160Y-92152720D02*
X163492160Y-92302580D01*
X163240700Y-92152720D02*
X163492160Y-92152720D01*
X163240700Y-91657420D02*
X163240700Y-91807280D01*
X163240700Y-91807280D02*
X163492160Y-91807280D01*
X163492160Y-91657420D02*
X163492160Y-91807280D01*
X163240700Y-91657420D02*
X163492160Y-91657420D01*
X163316900Y-91781880D02*
X163316900Y-92178120D01*
X163316900Y-92178120D02*
X163492160Y-92178120D01*
X163492160Y-91781880D02*
X163492160Y-92178120D01*
X163316900Y-91781880D02*
X163492160Y-91781880D01*
X163990000Y-91880940D02*
X163990000Y-92079060D01*
X163990000Y-92079060D02*
X164188120Y-92079060D01*
X164188120Y-91880940D02*
X164188120Y-92079060D01*
X163990000Y-91880940D02*
X164188120Y-91880940D01*
X164487840Y-91380560D02*
X164487840Y-91680280D01*
X164487840Y-91680280D02*
X164787560Y-91680280D01*
X164787560Y-91380560D02*
X164787560Y-91680280D01*
X164487840Y-91380560D02*
X164787560Y-91380560D01*
X164914560Y-91355160D02*
X164914560Y-91581220D01*
X164914560Y-91581220D02*
X164988220Y-91581220D01*
X164988220Y-91355160D02*
X164988220Y-91581220D01*
X164914560Y-91355160D02*
X164988220Y-91355160D01*
D16*
X164513240Y-92554040D02*
X163466760Y-92554040D01*
X163492160Y-91405960D02*
X164914560Y-91405960D01*
D17*
X164910202Y-91530420D02*
G75*
G03X164910202Y-91530420I-71842J0D01*
G74*
G01*
D16*
X164988220Y-91632020D02*
G75*
G03X164988220Y-92327980I0J-347980D01*
G74*
G01*
X162991780Y-92327980D02*
G75*
G03X162991780Y-91632020I0J347980D01*
G74*
G01*
D15*
X164497840Y-90699720D02*
X164497840Y-91024840D01*
X164497840Y-91024840D02*
X164998220Y-91024840D01*
X164998220Y-90699720D02*
X164998220Y-91024840D01*
X164497840Y-90699720D02*
X164998220Y-90699720D01*
X164497840Y-90077420D02*
X164497840Y-90227280D01*
X164497840Y-90227280D02*
X164749300Y-90227280D01*
X164749300Y-90077420D02*
X164749300Y-90227280D01*
X164497840Y-90077420D02*
X164749300Y-90077420D01*
X164497840Y-90572720D02*
X164497840Y-90722580D01*
X164497840Y-90722580D02*
X164749300Y-90722580D01*
X164749300Y-90572720D02*
X164749300Y-90722580D01*
X164497840Y-90572720D02*
X164749300Y-90572720D01*
X164497840Y-90201880D02*
X164497840Y-90598120D01*
X164497840Y-90598120D02*
X164673100Y-90598120D01*
X164673100Y-90201880D02*
X164673100Y-90598120D01*
X164497840Y-90201880D02*
X164673100Y-90201880D01*
X163001780Y-90699720D02*
X163001780Y-91024840D01*
X163001780Y-91024840D02*
X163502160Y-91024840D01*
X163502160Y-90699720D02*
X163502160Y-91024840D01*
X163001780Y-90699720D02*
X163502160Y-90699720D01*
X163001780Y-89775160D02*
X163001780Y-90100280D01*
X163001780Y-90100280D02*
X163502160Y-90100280D01*
X163502160Y-89775160D02*
X163502160Y-90100280D01*
X163001780Y-89775160D02*
X163502160Y-89775160D01*
X163250700Y-90572720D02*
X163250700Y-90722580D01*
X163250700Y-90722580D02*
X163502160Y-90722580D01*
X163502160Y-90572720D02*
X163502160Y-90722580D01*
X163250700Y-90572720D02*
X163502160Y-90572720D01*
X163250700Y-90077420D02*
X163250700Y-90227280D01*
X163250700Y-90227280D02*
X163502160Y-90227280D01*
X163502160Y-90077420D02*
X163502160Y-90227280D01*
X163250700Y-90077420D02*
X163502160Y-90077420D01*
X163326900Y-90201880D02*
X163326900Y-90598120D01*
X163326900Y-90598120D02*
X163502160Y-90598120D01*
X163502160Y-90201880D02*
X163502160Y-90598120D01*
X163326900Y-90201880D02*
X163502160Y-90201880D01*
X164000000Y-90300940D02*
X164000000Y-90499060D01*
X164000000Y-90499060D02*
X164198120Y-90499060D01*
X164198120Y-90300940D02*
X164198120Y-90499060D01*
X164000000Y-90300940D02*
X164198120Y-90300940D01*
X164497840Y-89800560D02*
X164497840Y-90100280D01*
X164497840Y-90100280D02*
X164797560Y-90100280D01*
X164797560Y-89800560D02*
X164797560Y-90100280D01*
X164497840Y-89800560D02*
X164797560Y-89800560D01*
X164924560Y-89775160D02*
X164924560Y-90001220D01*
X164924560Y-90001220D02*
X164998220Y-90001220D01*
X164998220Y-89775160D02*
X164998220Y-90001220D01*
X164924560Y-89775160D02*
X164998220Y-89775160D01*
D16*
X164523240Y-90974040D02*
X163476760Y-90974040D01*
X163502160Y-89825960D02*
X164924560Y-89825960D01*
D17*
X164920202Y-89950420D02*
G75*
G03X164920202Y-89950420I-71842J0D01*
G74*
G01*
D16*
X164998220Y-90052020D02*
G75*
G03X164998220Y-90747980I0J-347980D01*
G74*
G01*
X163001780Y-90747980D02*
G75*
G03X163001780Y-90052020I0J347980D01*
G74*
G01*
D15*
X164547840Y-93874720D02*
X164547840Y-94199840D01*
X164547840Y-94199840D02*
X165048220Y-94199840D01*
X165048220Y-93874720D02*
X165048220Y-94199840D01*
X164547840Y-93874720D02*
X165048220Y-93874720D01*
X164547840Y-93252420D02*
X164547840Y-93402280D01*
X164547840Y-93402280D02*
X164799300Y-93402280D01*
X164799300Y-93252420D02*
X164799300Y-93402280D01*
X164547840Y-93252420D02*
X164799300Y-93252420D01*
X164547840Y-93747720D02*
X164547840Y-93897580D01*
X164547840Y-93897580D02*
X164799300Y-93897580D01*
X164799300Y-93747720D02*
X164799300Y-93897580D01*
X164547840Y-93747720D02*
X164799300Y-93747720D01*
X164547840Y-93376880D02*
X164547840Y-93773120D01*
X164547840Y-93773120D02*
X164723100Y-93773120D01*
X164723100Y-93376880D02*
X164723100Y-93773120D01*
X164547840Y-93376880D02*
X164723100Y-93376880D01*
X163051780Y-93874720D02*
X163051780Y-94199840D01*
X163051780Y-94199840D02*
X163552160Y-94199840D01*
X163552160Y-93874720D02*
X163552160Y-94199840D01*
X163051780Y-93874720D02*
X163552160Y-93874720D01*
X163051780Y-92950160D02*
X163051780Y-93275280D01*
X163051780Y-93275280D02*
X163552160Y-93275280D01*
X163552160Y-92950160D02*
X163552160Y-93275280D01*
X163051780Y-92950160D02*
X163552160Y-92950160D01*
X163300700Y-93747720D02*
X163300700Y-93897580D01*
X163300700Y-93897580D02*
X163552160Y-93897580D01*
X163552160Y-93747720D02*
X163552160Y-93897580D01*
X163300700Y-93747720D02*
X163552160Y-93747720D01*
X163300700Y-93252420D02*
X163300700Y-93402280D01*
X163300700Y-93402280D02*
X163552160Y-93402280D01*
X163552160Y-93252420D02*
X163552160Y-93402280D01*
X163300700Y-93252420D02*
X163552160Y-93252420D01*
X163376900Y-93376880D02*
X163376900Y-93773120D01*
X163376900Y-93773120D02*
X163552160Y-93773120D01*
X163552160Y-93376880D02*
X163552160Y-93773120D01*
X163376900Y-93376880D02*
X163552160Y-93376880D01*
X164050000Y-93475940D02*
X164050000Y-93674060D01*
X164050000Y-93674060D02*
X164248120Y-93674060D01*
X164248120Y-93475940D02*
X164248120Y-93674060D01*
X164050000Y-93475940D02*
X164248120Y-93475940D01*
X164547840Y-92975560D02*
X164547840Y-93275280D01*
X164547840Y-93275280D02*
X164847560Y-93275280D01*
X164847560Y-92975560D02*
X164847560Y-93275280D01*
X164547840Y-92975560D02*
X164847560Y-92975560D01*
X164974560Y-92950160D02*
X164974560Y-93176220D01*
X164974560Y-93176220D02*
X165048220Y-93176220D01*
X165048220Y-92950160D02*
X165048220Y-93176220D01*
X164974560Y-92950160D02*
X165048220Y-92950160D01*
D16*
X164573240Y-94149040D02*
X163526760Y-94149040D01*
X163552160Y-93000960D02*
X164974560Y-93000960D01*
D17*
X164970202Y-93125420D02*
G75*
G03X164970202Y-93125420I-71842J0D01*
G74*
G01*
D16*
X165048220Y-93227020D02*
G75*
G03X165048220Y-93922980I0J-347980D01*
G74*
G01*
X163051780Y-93922980D02*
G75*
G03X163051780Y-93227020I0J347980D01*
G74*
G01*
D19*
X157764000Y-93180000D02*
X158164000Y-93180000D01*
X158164000Y-93180000D02*
X158164000Y-94780000D01*
X158164000Y-94780000D02*
X157764000Y-94780000D01*
X156464000Y-93180000D02*
X156064000Y-93180000D01*
X156064000Y-93180000D02*
X156064000Y-94780000D01*
X156064000Y-94780000D02*
X156464000Y-94780000D01*
X157740000Y-89340000D02*
X158140000Y-89340000D01*
X158140000Y-89340000D02*
X158140000Y-90940000D01*
X158140000Y-90940000D02*
X157740000Y-90940000D01*
X156440000Y-89340000D02*
X156040000Y-89340000D01*
X156040000Y-89340000D02*
X156040000Y-90940000D01*
X156040000Y-90940000D02*
X156440000Y-90940000D01*
X157770000Y-91190000D02*
X158170000Y-91190000D01*
X158170000Y-91190000D02*
X158170000Y-92790000D01*
X158170000Y-92790000D02*
X157770000Y-92790000D01*
X156470000Y-91190000D02*
X156070000Y-91190000D01*
X156070000Y-91190000D02*
X156070000Y-92790000D01*
X156070000Y-92790000D02*
X156470000Y-92790000D01*
D18*
X147250240Y-86849620D02*
X147250240Y-86151120D01*
X147250240Y-87850380D02*
X147250240Y-88548880D01*
X145949760Y-86849620D02*
X145949760Y-86151120D01*
X145949760Y-88548880D02*
X145949760Y-87850380D01*
X145965000Y-86151120D02*
X147235000Y-86151120D01*
X147235000Y-88548880D02*
X145965000Y-88548880D01*
X166100240Y-77699620D02*
X166100240Y-77001120D01*
X166100240Y-78700380D02*
X166100240Y-79398880D01*
X164799760Y-77699620D02*
X164799760Y-77001120D01*
X164799760Y-79398880D02*
X164799760Y-78700380D01*
X164815000Y-77001120D02*
X166085000Y-77001120D01*
X166085000Y-79398880D02*
X164815000Y-79398880D01*
X151000380Y-89175240D02*
X151698880Y-89175240D01*
X149999620Y-89175240D02*
X149301120Y-89175240D01*
X151000380Y-87874760D02*
X151698880Y-87874760D01*
X149301120Y-87874760D02*
X149999620Y-87874760D01*
X151698880Y-87890000D02*
X151698880Y-89160000D01*
X149301120Y-89160000D02*
X149301120Y-87890000D01*
D20*
X174740000Y-94250000D02*
X167240000Y-94250000D01*
X174740000Y-94250000D02*
X174740000Y-74250000D01*
X167339340Y-74250900D02*
X174740900Y-74250900D01*
X167141220Y-79250000D02*
X172739380Y-79250000D01*
X170339080Y-88650540D02*
X172739380Y-88650540D01*
X167141220Y-76849700D02*
X172739380Y-76849700D01*
X172739380Y-76849700D02*
X172739380Y-81449640D01*
X172739380Y-81449640D02*
X170339080Y-81449640D01*
X170339080Y-81449640D02*
X170339080Y-83849940D01*
X170339080Y-83849940D02*
X170339080Y-84050600D01*
X170339080Y-84050600D02*
X172739380Y-84050600D01*
X172739380Y-84050600D02*
X172739380Y-86250240D01*
X172739380Y-86250240D02*
X170339080Y-86250240D01*
X170339080Y-86250240D02*
X170339080Y-88650540D01*
X172739380Y-88650540D02*
X172739380Y-91050840D01*
X172739380Y-91050840D02*
X168540760Y-91050840D01*
D19*
X134140000Y-90720000D02*
X134140000Y-91520000D01*
X134040000Y-85920000D02*
X134040000Y-86720000D01*
X132440000Y-94420000D02*
X133140000Y-94420000D01*
X129540000Y-94420000D02*
X129940000Y-94420000D01*
X129540000Y-83520000D02*
X129540000Y-94420000D01*
X130140000Y-83520000D02*
X129540000Y-83520000D01*
X132840000Y-83720000D02*
X132340000Y-83720000D01*
X137730000Y-97380000D02*
X143130000Y-97380000D01*
X137730000Y-94180000D02*
X143130000Y-94180000D01*
X145110278Y-84930000D02*
G75*
G03X145110278Y-84930000I-180278J0D01*
G74*
G01*
X143280000Y-84480000D02*
X144580000Y-84480000D01*
X144580000Y-84480000D02*
X144580000Y-82030000D01*
X144580000Y-82030000D02*
X143330000Y-82030000D01*
X143330000Y-82030000D02*
X143280000Y-82030000D01*
X143280000Y-82030000D02*
X143280000Y-84480000D01*
X131400000Y-76140000D02*
X136500000Y-76140000D01*
X136500000Y-76140000D02*
X136500000Y-81640000D01*
X136500000Y-81640000D02*
X131400000Y-81640000D01*
X131400000Y-81590000D02*
X131400000Y-76190000D01*
D11*
X137049620Y-88891500D02*
X136343500Y-88891500D01*
X136343500Y-88891500D02*
X136343500Y-90288500D01*
X136343500Y-90288500D02*
X137049620Y-90288500D01*
X138756500Y-88891500D02*
X138050380Y-88891500D01*
X138756500Y-88891500D02*
X138756500Y-90288500D01*
X138756500Y-90288500D02*
X138050380Y-90288500D01*
D21*
X136142286Y-93679114D02*
X136142286Y-93896829D01*
X135989886Y-93439629D02*
X136142286Y-93679114D01*
X136294686Y-93439629D01*
X136686572Y-93896829D02*
X136425315Y-93896829D01*
X136555943Y-93896829D02*
X136555943Y-93439629D01*
X136512400Y-93504943D01*
X136468858Y-93548486D01*
X136425315Y-93570257D01*
X147336829Y-74836314D02*
X146879629Y-74836314D01*
X147293286Y-74357343D02*
X147315057Y-74379114D01*
X147336829Y-74444428D01*
X147336829Y-74487971D01*
X147315057Y-74553286D01*
X147271514Y-74596828D01*
X147227971Y-74618600D01*
X147140886Y-74640371D01*
X147075571Y-74640371D01*
X146988486Y-74618600D01*
X146944943Y-74596828D01*
X146901400Y-74553286D01*
X146879629Y-74487971D01*
X146879629Y-74444428D01*
X146901400Y-74379114D01*
X146923171Y-74357343D01*
X147336829Y-73921914D02*
X147336829Y-74183171D01*
X147336829Y-74052543D02*
X146879629Y-74052543D01*
X146944943Y-74096086D01*
X146988486Y-74139628D01*
X147010257Y-74183171D01*
D13*
X160216168Y-107553536D02*
X160645082Y-107982450D01*
X160720773Y-108007680D01*
X160771234Y-108007680D01*
X160846925Y-107982450D01*
X160947845Y-107881529D01*
X160973075Y-107805839D01*
X160973075Y-107755378D01*
X160947845Y-107679687D01*
X160518931Y-107250773D01*
X161578601Y-107250773D02*
X161275839Y-107553536D01*
X161427220Y-107402154D02*
X160897385Y-106872319D01*
X160922615Y-106998471D01*
X160922615Y-107099392D01*
X160897385Y-107175082D01*
D11*
X142209810Y-88564953D02*
X141701810Y-88564953D01*
X141701810Y-88444000D01*
X141726000Y-88371429D01*
X141774381Y-88323048D01*
X141822762Y-88298857D01*
X141919524Y-88274667D01*
X141992095Y-88274667D01*
X142088857Y-88298857D01*
X142137238Y-88323048D01*
X142185619Y-88371429D01*
X142209810Y-88444000D01*
X142209810Y-88564953D01*
X141871143Y-87839238D02*
X142209810Y-87839238D01*
X141677619Y-87960191D02*
X142040476Y-88081143D01*
X142040476Y-87766667D01*
X139515047Y-76629810D02*
X139515047Y-76121810D01*
X139708571Y-76121810D01*
X139756952Y-76146000D01*
X139781143Y-76170190D01*
X139805333Y-76218571D01*
X139805333Y-76291143D01*
X139781143Y-76339524D01*
X139756952Y-76363714D01*
X139708571Y-76387905D01*
X139515047Y-76387905D01*
X140289143Y-76629810D02*
X139998857Y-76629810D01*
X140144000Y-76629810D02*
X140144000Y-76121810D01*
X140095619Y-76194381D01*
X140047238Y-76242762D01*
X139998857Y-76266952D01*
D21*
X162763800Y-101636362D02*
X162611400Y-101398086D01*
X162502543Y-101636362D02*
X162502543Y-101135982D01*
X162676715Y-101135982D01*
X162720257Y-101159810D01*
X162742029Y-101183638D01*
X162763800Y-101231293D01*
X162763800Y-101302776D01*
X162742029Y-101350431D01*
X162720257Y-101374259D01*
X162676715Y-101398086D01*
X162502543Y-101398086D01*
X162937972Y-101183638D02*
X162959743Y-101159810D01*
X163003286Y-101135982D01*
X163112143Y-101135982D01*
X163155686Y-101159810D01*
X163177457Y-101183638D01*
X163199229Y-101231293D01*
X163199229Y-101278948D01*
X163177457Y-101350431D01*
X162916200Y-101636362D01*
X163199229Y-101636362D01*
X162176362Y-93751200D02*
X161938086Y-93903600D01*
X162176362Y-94012457D02*
X161675982Y-94012457D01*
X161675982Y-93838285D01*
X161699810Y-93794743D01*
X161723638Y-93772971D01*
X161771293Y-93751200D01*
X161842776Y-93751200D01*
X161890431Y-93772971D01*
X161914259Y-93794743D01*
X161938086Y-93838285D01*
X161938086Y-94012457D01*
X161675982Y-93598800D02*
X161675982Y-93315771D01*
X161866603Y-93468171D01*
X161866603Y-93402857D01*
X161890431Y-93359314D01*
X161914259Y-93337543D01*
X161961914Y-93315771D01*
X162081052Y-93315771D01*
X162128707Y-93337543D01*
X162152535Y-93359314D01*
X162176362Y-93402857D01*
X162176362Y-93533485D01*
X162152535Y-93577028D01*
X162128707Y-93598800D01*
X162176362Y-90626200D02*
X161938086Y-90778600D01*
X162176362Y-90887457D02*
X161675982Y-90887457D01*
X161675982Y-90713285D01*
X161699810Y-90669743D01*
X161723638Y-90647971D01*
X161771293Y-90626200D01*
X161842776Y-90626200D01*
X161890431Y-90647971D01*
X161914259Y-90669743D01*
X161938086Y-90713285D01*
X161938086Y-90887457D01*
X161842776Y-90234314D02*
X162176362Y-90234314D01*
X161652155Y-90343171D02*
X162009569Y-90452028D01*
X162009569Y-90169000D01*
X162206362Y-92176200D02*
X161968086Y-92328600D01*
X162206362Y-92437457D02*
X161705982Y-92437457D01*
X161705982Y-92263285D01*
X161729810Y-92219743D01*
X161753638Y-92197971D01*
X161801293Y-92176200D01*
X161872776Y-92176200D01*
X161920431Y-92197971D01*
X161944259Y-92219743D01*
X161968086Y-92263285D01*
X161968086Y-92437457D01*
X161705982Y-91762543D02*
X161705982Y-91980257D01*
X161944259Y-92002028D01*
X161920431Y-91980257D01*
X161896603Y-91936714D01*
X161896603Y-91827857D01*
X161920431Y-91784314D01*
X161944259Y-91762543D01*
X161991914Y-91740771D01*
X162111052Y-91740771D01*
X162158707Y-91762543D01*
X162182535Y-91784314D01*
X162206362Y-91827857D01*
X162206362Y-91936714D01*
X162182535Y-91980257D01*
X162158707Y-92002028D01*
X147166362Y-115356200D02*
X146928086Y-115508600D01*
X147166362Y-115617457D02*
X146665982Y-115617457D01*
X146665982Y-115443285D01*
X146689810Y-115399743D01*
X146713638Y-115377971D01*
X146761293Y-115356200D01*
X146832776Y-115356200D01*
X146880431Y-115377971D01*
X146904259Y-115399743D01*
X146928086Y-115443285D01*
X146928086Y-115617457D01*
X147166362Y-115138485D02*
X147166362Y-115051400D01*
X147142535Y-115007857D01*
X147118707Y-114986085D01*
X147047224Y-114942543D01*
X146951914Y-114920771D01*
X146761293Y-114920771D01*
X146713638Y-114942543D01*
X146689810Y-114964314D01*
X146665982Y-115007857D01*
X146665982Y-115094943D01*
X146689810Y-115138485D01*
X146713638Y-115160257D01*
X146761293Y-115182028D01*
X146880431Y-115182028D01*
X146928086Y-115160257D01*
X146951914Y-115138485D01*
X146975741Y-115094943D01*
X146975741Y-115007857D01*
X146951914Y-114964314D01*
X146928086Y-114942543D01*
X146880431Y-114920771D01*
X150426362Y-116143915D02*
X150188086Y-116296315D01*
X150426362Y-116405172D02*
X149925982Y-116405172D01*
X149925982Y-116231000D01*
X149949810Y-116187458D01*
X149973638Y-116165686D01*
X150021293Y-116143915D01*
X150092776Y-116143915D01*
X150140431Y-116165686D01*
X150164259Y-116187458D01*
X150188086Y-116231000D01*
X150188086Y-116405172D01*
X150426362Y-115708486D02*
X150426362Y-115969743D01*
X150426362Y-115839115D02*
X149925982Y-115839115D01*
X149997465Y-115882658D01*
X150045120Y-115926200D01*
X150068948Y-115969743D01*
X149925982Y-115425457D02*
X149925982Y-115381914D01*
X149949810Y-115338371D01*
X149973638Y-115316600D01*
X150021293Y-115294829D01*
X150116603Y-115273057D01*
X150235741Y-115273057D01*
X150331052Y-115294829D01*
X150378707Y-115316600D01*
X150402535Y-115338371D01*
X150426362Y-115381914D01*
X150426362Y-115425457D01*
X150402535Y-115469000D01*
X150378707Y-115490771D01*
X150331052Y-115512543D01*
X150235741Y-115534314D01*
X150116603Y-115534314D01*
X150021293Y-115512543D01*
X149973638Y-115490771D01*
X149949810Y-115469000D01*
X149925982Y-115425457D01*
X164526362Y-96943915D02*
X164288086Y-97096315D01*
X164526362Y-97205172D02*
X164025982Y-97205172D01*
X164025982Y-97031000D01*
X164049810Y-96987458D01*
X164073638Y-96965686D01*
X164121293Y-96943915D01*
X164192776Y-96943915D01*
X164240431Y-96965686D01*
X164264259Y-96987458D01*
X164288086Y-97031000D01*
X164288086Y-97205172D01*
X164526362Y-96508486D02*
X164526362Y-96769743D01*
X164526362Y-96639115D02*
X164025982Y-96639115D01*
X164097465Y-96682658D01*
X164145120Y-96726200D01*
X164168948Y-96769743D01*
X164526362Y-96073057D02*
X164526362Y-96334314D01*
X164526362Y-96203686D02*
X164025982Y-96203686D01*
X164097465Y-96247229D01*
X164145120Y-96290771D01*
X164168948Y-96334314D01*
X164576362Y-98693915D02*
X164338086Y-98846315D01*
X164576362Y-98955172D02*
X164075982Y-98955172D01*
X164075982Y-98781000D01*
X164099810Y-98737458D01*
X164123638Y-98715686D01*
X164171293Y-98693915D01*
X164242776Y-98693915D01*
X164290431Y-98715686D01*
X164314259Y-98737458D01*
X164338086Y-98781000D01*
X164338086Y-98955172D01*
X164576362Y-98258486D02*
X164576362Y-98519743D01*
X164576362Y-98389115D02*
X164075982Y-98389115D01*
X164147465Y-98432658D01*
X164195120Y-98476200D01*
X164218948Y-98519743D01*
X164123638Y-98084314D02*
X164099810Y-98062543D01*
X164075982Y-98019000D01*
X164075982Y-97910143D01*
X164099810Y-97866600D01*
X164123638Y-97844829D01*
X164171293Y-97823057D01*
X164218948Y-97823057D01*
X164290431Y-97844829D01*
X164576362Y-98106086D01*
X164576362Y-97823057D01*
D11*
X135453428Y-85169810D02*
X135284095Y-84927905D01*
X135163142Y-85169810D02*
X135163142Y-84661810D01*
X135356666Y-84661810D01*
X135405047Y-84686000D01*
X135429238Y-84710190D01*
X135453428Y-84758571D01*
X135453428Y-84831143D01*
X135429238Y-84879524D01*
X135405047Y-84903714D01*
X135356666Y-84927905D01*
X135163142Y-84927905D01*
X135937238Y-85169810D02*
X135646952Y-85169810D01*
X135792095Y-85169810D02*
X135792095Y-84661810D01*
X135743714Y-84734381D01*
X135695333Y-84782762D01*
X135646952Y-84806952D01*
X136372667Y-84831143D02*
X136372667Y-85169810D01*
X136251714Y-84637619D02*
X136130762Y-85000476D01*
X136445238Y-85000476D01*
D21*
X142646085Y-99676362D02*
X142493685Y-99438086D01*
X142384828Y-99676362D02*
X142384828Y-99175982D01*
X142559000Y-99175982D01*
X142602542Y-99199810D01*
X142624314Y-99223638D01*
X142646085Y-99271293D01*
X142646085Y-99342776D01*
X142624314Y-99390431D01*
X142602542Y-99414259D01*
X142559000Y-99438086D01*
X142384828Y-99438086D01*
X142820257Y-99223638D02*
X142842028Y-99199810D01*
X142885571Y-99175982D01*
X142994428Y-99175982D01*
X143037971Y-99199810D01*
X143059742Y-99223638D01*
X143081514Y-99271293D01*
X143081514Y-99318948D01*
X143059742Y-99390431D01*
X142798485Y-99676362D01*
X143081514Y-99676362D01*
X143473400Y-99175982D02*
X143386314Y-99175982D01*
X143342771Y-99199810D01*
X143321000Y-99223638D01*
X143277457Y-99295120D01*
X143255686Y-99390431D01*
X143255686Y-99581052D01*
X143277457Y-99628707D01*
X143299229Y-99652535D01*
X143342771Y-99676362D01*
X143429857Y-99676362D01*
X143473400Y-99652535D01*
X143495171Y-99628707D01*
X143516943Y-99581052D01*
X143516943Y-99461914D01*
X143495171Y-99414259D01*
X143473400Y-99390431D01*
X143429857Y-99366603D01*
X143342771Y-99366603D01*
X143299229Y-99390431D01*
X143277457Y-99414259D01*
X143255686Y-99461914D01*
D11*
X142159810Y-87026572D02*
X141917905Y-87195905D01*
X142159810Y-87316858D02*
X141651810Y-87316858D01*
X141651810Y-87123334D01*
X141676000Y-87074953D01*
X141700190Y-87050762D01*
X141748571Y-87026572D01*
X141821143Y-87026572D01*
X141869524Y-87050762D01*
X141893714Y-87074953D01*
X141917905Y-87123334D01*
X141917905Y-87316858D01*
X141700190Y-86833048D02*
X141676000Y-86808858D01*
X141651810Y-86760477D01*
X141651810Y-86639524D01*
X141676000Y-86591143D01*
X141700190Y-86566953D01*
X141748571Y-86542762D01*
X141796952Y-86542762D01*
X141869524Y-86566953D01*
X142159810Y-86857239D01*
X142159810Y-86542762D01*
X141651810Y-86373429D02*
X141651810Y-86034762D01*
X142159810Y-86252476D01*
D21*
X147226085Y-99066362D02*
X147073685Y-98828086D01*
X146964828Y-99066362D02*
X146964828Y-98565982D01*
X147139000Y-98565982D01*
X147182542Y-98589810D01*
X147204314Y-98613638D01*
X147226085Y-98661293D01*
X147226085Y-98732776D01*
X147204314Y-98780431D01*
X147182542Y-98804259D01*
X147139000Y-98828086D01*
X146964828Y-98828086D01*
X147400257Y-98613638D02*
X147422028Y-98589810D01*
X147465571Y-98565982D01*
X147574428Y-98565982D01*
X147617971Y-98589810D01*
X147639742Y-98613638D01*
X147661514Y-98661293D01*
X147661514Y-98708948D01*
X147639742Y-98780431D01*
X147378485Y-99066362D01*
X147661514Y-99066362D01*
X147922771Y-98780431D02*
X147879229Y-98756603D01*
X147857457Y-98732776D01*
X147835686Y-98685120D01*
X147835686Y-98661293D01*
X147857457Y-98613638D01*
X147879229Y-98589810D01*
X147922771Y-98565982D01*
X148009857Y-98565982D01*
X148053400Y-98589810D01*
X148075171Y-98613638D01*
X148096943Y-98661293D01*
X148096943Y-98685120D01*
X148075171Y-98732776D01*
X148053400Y-98756603D01*
X148009857Y-98780431D01*
X147922771Y-98780431D01*
X147879229Y-98804259D01*
X147857457Y-98828086D01*
X147835686Y-98875741D01*
X147835686Y-98971052D01*
X147857457Y-99018707D01*
X147879229Y-99042535D01*
X147922771Y-99066362D01*
X148009857Y-99066362D01*
X148053400Y-99042535D01*
X148075171Y-99018707D01*
X148096943Y-98971052D01*
X148096943Y-98875741D01*
X148075171Y-98828086D01*
X148053400Y-98804259D01*
X148009857Y-98780431D01*
D11*
X138333428Y-82649810D02*
X138164095Y-82407905D01*
X138043142Y-82649810D02*
X138043142Y-82141810D01*
X138236666Y-82141810D01*
X138285047Y-82166000D01*
X138309238Y-82190190D01*
X138333428Y-82238571D01*
X138333428Y-82311143D01*
X138309238Y-82359524D01*
X138285047Y-82383714D01*
X138236666Y-82407905D01*
X138043142Y-82407905D01*
X138526952Y-82190190D02*
X138551142Y-82166000D01*
X138599523Y-82141810D01*
X138720476Y-82141810D01*
X138768857Y-82166000D01*
X138793047Y-82190190D01*
X138817238Y-82238571D01*
X138817238Y-82286952D01*
X138793047Y-82359524D01*
X138502761Y-82649810D01*
X138817238Y-82649810D01*
X139059143Y-82649810D02*
X139155905Y-82649810D01*
X139204286Y-82625619D01*
X139228476Y-82601429D01*
X139276857Y-82528857D01*
X139301048Y-82432095D01*
X139301048Y-82238571D01*
X139276857Y-82190190D01*
X139252667Y-82166000D01*
X139204286Y-82141810D01*
X139107524Y-82141810D01*
X139059143Y-82166000D01*
X139034952Y-82190190D01*
X139010762Y-82238571D01*
X139010762Y-82359524D01*
X139034952Y-82407905D01*
X139059143Y-82432095D01*
X139107524Y-82456286D01*
X139204286Y-82456286D01*
X139252667Y-82432095D01*
X139276857Y-82407905D01*
X139301048Y-82359524D01*
D21*
X153406085Y-95596362D02*
X153253685Y-95358086D01*
X153144828Y-95596362D02*
X153144828Y-95095982D01*
X153319000Y-95095982D01*
X153362542Y-95119810D01*
X153384314Y-95143638D01*
X153406085Y-95191293D01*
X153406085Y-95262776D01*
X153384314Y-95310431D01*
X153362542Y-95334259D01*
X153319000Y-95358086D01*
X153144828Y-95358086D01*
X153558485Y-95095982D02*
X153841514Y-95095982D01*
X153689114Y-95286603D01*
X153754428Y-95286603D01*
X153797971Y-95310431D01*
X153819742Y-95334259D01*
X153841514Y-95381914D01*
X153841514Y-95501052D01*
X153819742Y-95548707D01*
X153797971Y-95572535D01*
X153754428Y-95596362D01*
X153623800Y-95596362D01*
X153580257Y-95572535D01*
X153558485Y-95548707D01*
X154276943Y-95596362D02*
X154015686Y-95596362D01*
X154146314Y-95596362D02*
X154146314Y-95095982D01*
X154102771Y-95167465D01*
X154059229Y-95215120D01*
X154015686Y-95238948D01*
X156683800Y-98731429D02*
X156662029Y-98755619D01*
X156596715Y-98779810D01*
X156553172Y-98779810D01*
X156487857Y-98755619D01*
X156444315Y-98707238D01*
X156422543Y-98658857D01*
X156400772Y-98562095D01*
X156400772Y-98489524D01*
X156422543Y-98392762D01*
X156444315Y-98344381D01*
X156487857Y-98296000D01*
X156553172Y-98271810D01*
X156596715Y-98271810D01*
X156662029Y-98296000D01*
X156683800Y-98320190D01*
X156836200Y-98271810D02*
X157119229Y-98271810D01*
X156966829Y-98465333D01*
X157032143Y-98465333D01*
X157075686Y-98489524D01*
X157097457Y-98513714D01*
X157119229Y-98562095D01*
X157119229Y-98683048D01*
X157097457Y-98731429D01*
X157075686Y-98755619D01*
X157032143Y-98779810D01*
X156901515Y-98779810D01*
X156857972Y-98755619D01*
X156836200Y-98731429D01*
X143033800Y-108321429D02*
X143012029Y-108345619D01*
X142946715Y-108369810D01*
X142903172Y-108369810D01*
X142837857Y-108345619D01*
X142794315Y-108297238D01*
X142772543Y-108248857D01*
X142750772Y-108152095D01*
X142750772Y-108079524D01*
X142772543Y-107982762D01*
X142794315Y-107934381D01*
X142837857Y-107886000D01*
X142903172Y-107861810D01*
X142946715Y-107861810D01*
X143012029Y-107886000D01*
X143033800Y-107910190D01*
X143425686Y-108031143D02*
X143425686Y-108369810D01*
X143316829Y-107837619D02*
X143207972Y-108200476D01*
X143491000Y-108200476D01*
X155181429Y-115586200D02*
X155205619Y-115607971D01*
X155229810Y-115673285D01*
X155229810Y-115716828D01*
X155205619Y-115782143D01*
X155157238Y-115825685D01*
X155108857Y-115847457D01*
X155012095Y-115869228D01*
X154939524Y-115869228D01*
X154842762Y-115847457D01*
X154794381Y-115825685D01*
X154746000Y-115782143D01*
X154721810Y-115716828D01*
X154721810Y-115673285D01*
X154746000Y-115607971D01*
X154770190Y-115586200D01*
X154721810Y-115172543D02*
X154721810Y-115390257D01*
X154963714Y-115412028D01*
X154939524Y-115390257D01*
X154915333Y-115346714D01*
X154915333Y-115237857D01*
X154939524Y-115194314D01*
X154963714Y-115172543D01*
X155012095Y-115150771D01*
X155133048Y-115150771D01*
X155181429Y-115172543D01*
X155205619Y-115194314D01*
X155229810Y-115237857D01*
X155229810Y-115346714D01*
X155205619Y-115390257D01*
X155181429Y-115412028D01*
X160381429Y-112036200D02*
X160405619Y-112057971D01*
X160429810Y-112123285D01*
X160429810Y-112166828D01*
X160405619Y-112232143D01*
X160357238Y-112275685D01*
X160308857Y-112297457D01*
X160212095Y-112319228D01*
X160139524Y-112319228D01*
X160042762Y-112297457D01*
X159994381Y-112275685D01*
X159946000Y-112232143D01*
X159921810Y-112166828D01*
X159921810Y-112123285D01*
X159946000Y-112057971D01*
X159970190Y-112036200D01*
X159921810Y-111644314D02*
X159921810Y-111731400D01*
X159946000Y-111774943D01*
X159970190Y-111796714D01*
X160042762Y-111840257D01*
X160139524Y-111862028D01*
X160333048Y-111862028D01*
X160381429Y-111840257D01*
X160405619Y-111818485D01*
X160429810Y-111774943D01*
X160429810Y-111687857D01*
X160405619Y-111644314D01*
X160381429Y-111622543D01*
X160333048Y-111600771D01*
X160212095Y-111600771D01*
X160163714Y-111622543D01*
X160139524Y-111644314D01*
X160115333Y-111687857D01*
X160115333Y-111774943D01*
X160139524Y-111818485D01*
X160163714Y-111840257D01*
X160212095Y-111862028D01*
X141003800Y-101381429D02*
X140982029Y-101405619D01*
X140916715Y-101429810D01*
X140873172Y-101429810D01*
X140807857Y-101405619D01*
X140764315Y-101357238D01*
X140742543Y-101308857D01*
X140720772Y-101212095D01*
X140720772Y-101139524D01*
X140742543Y-101042762D01*
X140764315Y-100994381D01*
X140807857Y-100946000D01*
X140873172Y-100921810D01*
X140916715Y-100921810D01*
X140982029Y-100946000D01*
X141003800Y-100970190D01*
X141156200Y-100921810D02*
X141461000Y-100921810D01*
X141265057Y-101429810D01*
X155071429Y-117076200D02*
X155095619Y-117097971D01*
X155119810Y-117163285D01*
X155119810Y-117206828D01*
X155095619Y-117272143D01*
X155047238Y-117315685D01*
X154998857Y-117337457D01*
X154902095Y-117359228D01*
X154829524Y-117359228D01*
X154732762Y-117337457D01*
X154684381Y-117315685D01*
X154636000Y-117272143D01*
X154611810Y-117206828D01*
X154611810Y-117163285D01*
X154636000Y-117097971D01*
X154660190Y-117076200D01*
X154829524Y-116814943D02*
X154805333Y-116858485D01*
X154781143Y-116880257D01*
X154732762Y-116902028D01*
X154708571Y-116902028D01*
X154660190Y-116880257D01*
X154636000Y-116858485D01*
X154611810Y-116814943D01*
X154611810Y-116727857D01*
X154636000Y-116684314D01*
X154660190Y-116662543D01*
X154708571Y-116640771D01*
X154732762Y-116640771D01*
X154781143Y-116662543D01*
X154805333Y-116684314D01*
X154829524Y-116727857D01*
X154829524Y-116814943D01*
X154853714Y-116858485D01*
X154877905Y-116880257D01*
X154926286Y-116902028D01*
X155023048Y-116902028D01*
X155071429Y-116880257D01*
X155095619Y-116858485D01*
X155119810Y-116814943D01*
X155119810Y-116727857D01*
X155095619Y-116684314D01*
X155071429Y-116662543D01*
X155023048Y-116640771D01*
X154926286Y-116640771D01*
X154877905Y-116662543D01*
X154853714Y-116684314D01*
X154829524Y-116727857D01*
X144006085Y-110421429D02*
X143984314Y-110445619D01*
X143919000Y-110469810D01*
X143875457Y-110469810D01*
X143810142Y-110445619D01*
X143766600Y-110397238D01*
X143744828Y-110348857D01*
X143723057Y-110252095D01*
X143723057Y-110179524D01*
X143744828Y-110082762D01*
X143766600Y-110034381D01*
X143810142Y-109986000D01*
X143875457Y-109961810D01*
X143919000Y-109961810D01*
X143984314Y-109986000D01*
X144006085Y-110010190D01*
X144441514Y-110469810D02*
X144180257Y-110469810D01*
X144310885Y-110469810D02*
X144310885Y-109961810D01*
X144267342Y-110034381D01*
X144223800Y-110082762D01*
X144180257Y-110106952D01*
X144724543Y-109961810D02*
X144768086Y-109961810D01*
X144811629Y-109986000D01*
X144833400Y-110010190D01*
X144855171Y-110058571D01*
X144876943Y-110155333D01*
X144876943Y-110276286D01*
X144855171Y-110373048D01*
X144833400Y-110421429D01*
X144811629Y-110445619D01*
X144768086Y-110469810D01*
X144724543Y-110469810D01*
X144681000Y-110445619D01*
X144659229Y-110421429D01*
X144637457Y-110373048D01*
X144615686Y-110276286D01*
X144615686Y-110155333D01*
X144637457Y-110058571D01*
X144659229Y-110010190D01*
X144681000Y-109986000D01*
X144724543Y-109961810D01*
X159861429Y-101593915D02*
X159885619Y-101615686D01*
X159909810Y-101681000D01*
X159909810Y-101724543D01*
X159885619Y-101789858D01*
X159837238Y-101833400D01*
X159788857Y-101855172D01*
X159692095Y-101876943D01*
X159619524Y-101876943D01*
X159522762Y-101855172D01*
X159474381Y-101833400D01*
X159426000Y-101789858D01*
X159401810Y-101724543D01*
X159401810Y-101681000D01*
X159426000Y-101615686D01*
X159450190Y-101593915D01*
X159909810Y-101158486D02*
X159909810Y-101419743D01*
X159909810Y-101289115D02*
X159401810Y-101289115D01*
X159474381Y-101332658D01*
X159522762Y-101376200D01*
X159546952Y-101419743D01*
X159909810Y-100723057D02*
X159909810Y-100984314D01*
X159909810Y-100853686D02*
X159401810Y-100853686D01*
X159474381Y-100897229D01*
X159522762Y-100940771D01*
X159546952Y-100984314D01*
X144226085Y-114131429D02*
X144204314Y-114155619D01*
X144139000Y-114179810D01*
X144095457Y-114179810D01*
X144030142Y-114155619D01*
X143986600Y-114107238D01*
X143964828Y-114058857D01*
X143943057Y-113962095D01*
X143943057Y-113889524D01*
X143964828Y-113792762D01*
X143986600Y-113744381D01*
X144030142Y-113696000D01*
X144095457Y-113671810D01*
X144139000Y-113671810D01*
X144204314Y-113696000D01*
X144226085Y-113720190D01*
X144661514Y-114179810D02*
X144400257Y-114179810D01*
X144530885Y-114179810D02*
X144530885Y-113671810D01*
X144487342Y-113744381D01*
X144443800Y-113792762D01*
X144400257Y-113816952D01*
X144835686Y-113720190D02*
X144857457Y-113696000D01*
X144901000Y-113671810D01*
X145009857Y-113671810D01*
X145053400Y-113696000D01*
X145075171Y-113720190D01*
X145096943Y-113768571D01*
X145096943Y-113816952D01*
X145075171Y-113889524D01*
X144813914Y-114179810D01*
X145096943Y-114179810D01*
X139911429Y-85333915D02*
X139935619Y-85355686D01*
X139959810Y-85421000D01*
X139959810Y-85464543D01*
X139935619Y-85529858D01*
X139887238Y-85573400D01*
X139838857Y-85595172D01*
X139742095Y-85616943D01*
X139669524Y-85616943D01*
X139572762Y-85595172D01*
X139524381Y-85573400D01*
X139476000Y-85529858D01*
X139451810Y-85464543D01*
X139451810Y-85421000D01*
X139476000Y-85355686D01*
X139500190Y-85333915D01*
X139959810Y-84898486D02*
X139959810Y-85159743D01*
X139959810Y-85029115D02*
X139451810Y-85029115D01*
X139524381Y-85072658D01*
X139572762Y-85116200D01*
X139596952Y-85159743D01*
X139621143Y-84506600D02*
X139959810Y-84506600D01*
X139427619Y-84615457D02*
X139790476Y-84724314D01*
X139790476Y-84441286D01*
X143081429Y-81223915D02*
X143105619Y-81245686D01*
X143129810Y-81311000D01*
X143129810Y-81354543D01*
X143105619Y-81419858D01*
X143057238Y-81463400D01*
X143008857Y-81485172D01*
X142912095Y-81506943D01*
X142839524Y-81506943D01*
X142742762Y-81485172D01*
X142694381Y-81463400D01*
X142646000Y-81419858D01*
X142621810Y-81354543D01*
X142621810Y-81311000D01*
X142646000Y-81245686D01*
X142670190Y-81223915D01*
X143129810Y-80788486D02*
X143129810Y-81049743D01*
X143129810Y-80919115D02*
X142621810Y-80919115D01*
X142694381Y-80962658D01*
X142742762Y-81006200D01*
X142766952Y-81049743D01*
X142839524Y-80527229D02*
X142815333Y-80570771D01*
X142791143Y-80592543D01*
X142742762Y-80614314D01*
X142718571Y-80614314D01*
X142670190Y-80592543D01*
X142646000Y-80570771D01*
X142621810Y-80527229D01*
X142621810Y-80440143D01*
X142646000Y-80396600D01*
X142670190Y-80374829D01*
X142718571Y-80353057D01*
X142742762Y-80353057D01*
X142791143Y-80374829D01*
X142815333Y-80396600D01*
X142839524Y-80440143D01*
X142839524Y-80527229D01*
X142863714Y-80570771D01*
X142887905Y-80592543D01*
X142936286Y-80614314D01*
X143033048Y-80614314D01*
X143081429Y-80592543D01*
X143105619Y-80570771D01*
X143129810Y-80527229D01*
X143129810Y-80440143D01*
X143105619Y-80396600D01*
X143081429Y-80374829D01*
X143033048Y-80353057D01*
X142936286Y-80353057D01*
X142887905Y-80374829D01*
X142863714Y-80396600D01*
X142839524Y-80440143D01*
X159871429Y-100143915D02*
X159895619Y-100165686D01*
X159919810Y-100231000D01*
X159919810Y-100274543D01*
X159895619Y-100339858D01*
X159847238Y-100383400D01*
X159798857Y-100405172D01*
X159702095Y-100426943D01*
X159629524Y-100426943D01*
X159532762Y-100405172D01*
X159484381Y-100383400D01*
X159436000Y-100339858D01*
X159411810Y-100274543D01*
X159411810Y-100231000D01*
X159436000Y-100165686D01*
X159460190Y-100143915D01*
X159460190Y-99969743D02*
X159436000Y-99947972D01*
X159411810Y-99904429D01*
X159411810Y-99795572D01*
X159436000Y-99752029D01*
X159460190Y-99730258D01*
X159508571Y-99708486D01*
X159556952Y-99708486D01*
X159629524Y-99730258D01*
X159919810Y-99991515D01*
X159919810Y-99708486D01*
X159460190Y-99534314D02*
X159436000Y-99512543D01*
X159411810Y-99469000D01*
X159411810Y-99360143D01*
X159436000Y-99316600D01*
X159460190Y-99294829D01*
X159508571Y-99273057D01*
X159556952Y-99273057D01*
X159629524Y-99294829D01*
X159919810Y-99556086D01*
X159919810Y-99273057D01*
X148901429Y-91143915D02*
X148925619Y-91165686D01*
X148949810Y-91231000D01*
X148949810Y-91274543D01*
X148925619Y-91339858D01*
X148877238Y-91383400D01*
X148828857Y-91405172D01*
X148732095Y-91426943D01*
X148659524Y-91426943D01*
X148562762Y-91405172D01*
X148514381Y-91383400D01*
X148466000Y-91339858D01*
X148441810Y-91274543D01*
X148441810Y-91231000D01*
X148466000Y-91165686D01*
X148490190Y-91143915D01*
X148490190Y-90969743D02*
X148466000Y-90947972D01*
X148441810Y-90904429D01*
X148441810Y-90795572D01*
X148466000Y-90752029D01*
X148490190Y-90730258D01*
X148538571Y-90708486D01*
X148586952Y-90708486D01*
X148659524Y-90730258D01*
X148949810Y-90991515D01*
X148949810Y-90708486D01*
X148659524Y-90447229D02*
X148635333Y-90490771D01*
X148611143Y-90512543D01*
X148562762Y-90534314D01*
X148538571Y-90534314D01*
X148490190Y-90512543D01*
X148466000Y-90490771D01*
X148441810Y-90447229D01*
X148441810Y-90360143D01*
X148466000Y-90316600D01*
X148490190Y-90294829D01*
X148538571Y-90273057D01*
X148562762Y-90273057D01*
X148611143Y-90294829D01*
X148635333Y-90316600D01*
X148659524Y-90360143D01*
X148659524Y-90447229D01*
X148683714Y-90490771D01*
X148707905Y-90512543D01*
X148756286Y-90534314D01*
X148853048Y-90534314D01*
X148901429Y-90512543D01*
X148925619Y-90490771D01*
X148949810Y-90447229D01*
X148949810Y-90360143D01*
X148925619Y-90316600D01*
X148901429Y-90294829D01*
X148853048Y-90273057D01*
X148756286Y-90273057D01*
X148707905Y-90294829D01*
X148683714Y-90316600D01*
X148659524Y-90360143D01*
X148921429Y-94023915D02*
X148945619Y-94045686D01*
X148969810Y-94111000D01*
X148969810Y-94154543D01*
X148945619Y-94219858D01*
X148897238Y-94263400D01*
X148848857Y-94285172D01*
X148752095Y-94306943D01*
X148679524Y-94306943D01*
X148582762Y-94285172D01*
X148534381Y-94263400D01*
X148486000Y-94219858D01*
X148461810Y-94154543D01*
X148461810Y-94111000D01*
X148486000Y-94045686D01*
X148510190Y-94023915D01*
X148510190Y-93849743D02*
X148486000Y-93827972D01*
X148461810Y-93784429D01*
X148461810Y-93675572D01*
X148486000Y-93632029D01*
X148510190Y-93610258D01*
X148558571Y-93588486D01*
X148606952Y-93588486D01*
X148679524Y-93610258D01*
X148969810Y-93871515D01*
X148969810Y-93588486D01*
X148969810Y-93370771D02*
X148969810Y-93283686D01*
X148945619Y-93240143D01*
X148921429Y-93218371D01*
X148848857Y-93174829D01*
X148752095Y-93153057D01*
X148558571Y-93153057D01*
X148510190Y-93174829D01*
X148486000Y-93196600D01*
X148461810Y-93240143D01*
X148461810Y-93327229D01*
X148486000Y-93370771D01*
X148510190Y-93392543D01*
X148558571Y-93414314D01*
X148679524Y-93414314D01*
X148727905Y-93392543D01*
X148752095Y-93370771D01*
X148776286Y-93327229D01*
X148776286Y-93240143D01*
X148752095Y-93196600D01*
X148727905Y-93174829D01*
X148679524Y-93153057D01*
X138361429Y-98593915D02*
X138385619Y-98615686D01*
X138409810Y-98681000D01*
X138409810Y-98724543D01*
X138385619Y-98789858D01*
X138337238Y-98833400D01*
X138288857Y-98855172D01*
X138192095Y-98876943D01*
X138119524Y-98876943D01*
X138022762Y-98855172D01*
X137974381Y-98833400D01*
X137926000Y-98789858D01*
X137901810Y-98724543D01*
X137901810Y-98681000D01*
X137926000Y-98615686D01*
X137950190Y-98593915D01*
X137901810Y-98441515D02*
X137901810Y-98158486D01*
X138095333Y-98310886D01*
X138095333Y-98245572D01*
X138119524Y-98202029D01*
X138143714Y-98180258D01*
X138192095Y-98158486D01*
X138313048Y-98158486D01*
X138361429Y-98180258D01*
X138385619Y-98202029D01*
X138409810Y-98245572D01*
X138409810Y-98376200D01*
X138385619Y-98419743D01*
X138361429Y-98441515D01*
X138409810Y-97723057D02*
X138409810Y-97984314D01*
X138409810Y-97853686D02*
X137901810Y-97853686D01*
X137974381Y-97897229D01*
X138022762Y-97940771D01*
X138046952Y-97984314D01*
X144866085Y-98921429D02*
X144844314Y-98945619D01*
X144779000Y-98969810D01*
X144735457Y-98969810D01*
X144670142Y-98945619D01*
X144626600Y-98897238D01*
X144604828Y-98848857D01*
X144583057Y-98752095D01*
X144583057Y-98679524D01*
X144604828Y-98582762D01*
X144626600Y-98534381D01*
X144670142Y-98486000D01*
X144735457Y-98461810D01*
X144779000Y-98461810D01*
X144844314Y-98486000D01*
X144866085Y-98510190D01*
X145018485Y-98461810D02*
X145301514Y-98461810D01*
X145149114Y-98655333D01*
X145214428Y-98655333D01*
X145257971Y-98679524D01*
X145279742Y-98703714D01*
X145301514Y-98752095D01*
X145301514Y-98873048D01*
X145279742Y-98921429D01*
X145257971Y-98945619D01*
X145214428Y-98969810D01*
X145083800Y-98969810D01*
X145040257Y-98945619D01*
X145018485Y-98921429D01*
X145475686Y-98510190D02*
X145497457Y-98486000D01*
X145541000Y-98461810D01*
X145649857Y-98461810D01*
X145693400Y-98486000D01*
X145715171Y-98510190D01*
X145736943Y-98558571D01*
X145736943Y-98606952D01*
X145715171Y-98679524D01*
X145453914Y-98969810D01*
X145736943Y-98969810D01*
X166012543Y-92236829D02*
X166012543Y-91779629D01*
X166121400Y-91779629D01*
X166186715Y-91801400D01*
X166230257Y-91844943D01*
X166252029Y-91888486D01*
X166273800Y-91975571D01*
X166273800Y-92040886D01*
X166252029Y-92127971D01*
X166230257Y-92171514D01*
X166186715Y-92215057D01*
X166121400Y-92236829D01*
X166012543Y-92236829D01*
X166709229Y-92236829D02*
X166447972Y-92236829D01*
X166578600Y-92236829D02*
X166578600Y-91779629D01*
X166535057Y-91844943D01*
X166491515Y-91888486D01*
X166447972Y-91910257D01*
X166002543Y-90666829D02*
X166002543Y-90209629D01*
X166111400Y-90209629D01*
X166176715Y-90231400D01*
X166220257Y-90274943D01*
X166242029Y-90318486D01*
X166263800Y-90405571D01*
X166263800Y-90470886D01*
X166242029Y-90557971D01*
X166220257Y-90601514D01*
X166176715Y-90645057D01*
X166111400Y-90666829D01*
X166002543Y-90666829D01*
X166437972Y-90253171D02*
X166459743Y-90231400D01*
X166503286Y-90209629D01*
X166612143Y-90209629D01*
X166655686Y-90231400D01*
X166677457Y-90253171D01*
X166699229Y-90296714D01*
X166699229Y-90340257D01*
X166677457Y-90405571D01*
X166416200Y-90666829D01*
X166699229Y-90666829D01*
X166062543Y-93846829D02*
X166062543Y-93389629D01*
X166171400Y-93389629D01*
X166236715Y-93411400D01*
X166280257Y-93454943D01*
X166302029Y-93498486D01*
X166323800Y-93585571D01*
X166323800Y-93650886D01*
X166302029Y-93737971D01*
X166280257Y-93781514D01*
X166236715Y-93825057D01*
X166171400Y-93846829D01*
X166062543Y-93846829D01*
X166476200Y-93389629D02*
X166759229Y-93389629D01*
X166606829Y-93563800D01*
X166672143Y-93563800D01*
X166715686Y-93585571D01*
X166737457Y-93607343D01*
X166759229Y-93650886D01*
X166759229Y-93759743D01*
X166737457Y-93803286D01*
X166715686Y-93825057D01*
X166672143Y-93846829D01*
X166541515Y-93846829D01*
X166497972Y-93825057D01*
X166476200Y-93803286D01*
X155814371Y-94323543D02*
X155792600Y-94367086D01*
X155749057Y-94410629D01*
X155683743Y-94475943D01*
X155661971Y-94519486D01*
X155661971Y-94563029D01*
X155770829Y-94541257D02*
X155749057Y-94584800D01*
X155705514Y-94628343D01*
X155618429Y-94650114D01*
X155466029Y-94650114D01*
X155378943Y-94628343D01*
X155335400Y-94584800D01*
X155313629Y-94541257D01*
X155313629Y-94454171D01*
X155335400Y-94410629D01*
X155378943Y-94367086D01*
X155466029Y-94345314D01*
X155618429Y-94345314D01*
X155705514Y-94367086D01*
X155749057Y-94410629D01*
X155770829Y-94454171D01*
X155770829Y-94541257D01*
X155770829Y-93909886D02*
X155770829Y-94171143D01*
X155770829Y-94040515D02*
X155313629Y-94040515D01*
X155378943Y-94084058D01*
X155422486Y-94127600D01*
X155444257Y-94171143D01*
X155804281Y-90583543D02*
X155781300Y-90627086D01*
X155735338Y-90670629D01*
X155666395Y-90735943D01*
X155643414Y-90779486D01*
X155643414Y-90823029D01*
X155758319Y-90801257D02*
X155735338Y-90844800D01*
X155689376Y-90888343D01*
X155597452Y-90910114D01*
X155436586Y-90910114D01*
X155344662Y-90888343D01*
X155298700Y-90844800D01*
X155275719Y-90801257D01*
X155275719Y-90714171D01*
X155298700Y-90670629D01*
X155344662Y-90627086D01*
X155436586Y-90605314D01*
X155597452Y-90605314D01*
X155689376Y-90627086D01*
X155735338Y-90670629D01*
X155758319Y-90714171D01*
X155758319Y-90801257D01*
X155321681Y-90431143D02*
X155298700Y-90409372D01*
X155275719Y-90365829D01*
X155275719Y-90256972D01*
X155298700Y-90213429D01*
X155321681Y-90191658D01*
X155367643Y-90169886D01*
X155413605Y-90169886D01*
X155482548Y-90191658D01*
X155758319Y-90452915D01*
X155758319Y-90169886D01*
X155870371Y-92633543D02*
X155848600Y-92677086D01*
X155805057Y-92720629D01*
X155739743Y-92785943D01*
X155717971Y-92829486D01*
X155717971Y-92873029D01*
X155826829Y-92851257D02*
X155805057Y-92894800D01*
X155761514Y-92938343D01*
X155674429Y-92960114D01*
X155522029Y-92960114D01*
X155434943Y-92938343D01*
X155391400Y-92894800D01*
X155369629Y-92851257D01*
X155369629Y-92764171D01*
X155391400Y-92720629D01*
X155434943Y-92677086D01*
X155522029Y-92655314D01*
X155674429Y-92655314D01*
X155761514Y-92677086D01*
X155805057Y-92720629D01*
X155826829Y-92764171D01*
X155826829Y-92851257D01*
X155369629Y-92502915D02*
X155369629Y-92219886D01*
X155543800Y-92372286D01*
X155543800Y-92306972D01*
X155565571Y-92263429D01*
X155587343Y-92241658D01*
X155630886Y-92219886D01*
X155739743Y-92219886D01*
X155783286Y-92241658D01*
X155805057Y-92263429D01*
X155826829Y-92306972D01*
X155826829Y-92437600D01*
X155805057Y-92481143D01*
X155783286Y-92502915D01*
D11*
X146121523Y-85911429D02*
X146097333Y-85935619D01*
X146024761Y-85959810D01*
X145976380Y-85959810D01*
X145903809Y-85935619D01*
X145855428Y-85887238D01*
X145831237Y-85838857D01*
X145807047Y-85742095D01*
X145807047Y-85669524D01*
X145831237Y-85572762D01*
X145855428Y-85524381D01*
X145903809Y-85476000D01*
X145976380Y-85451810D01*
X146024761Y-85451810D01*
X146097333Y-85476000D01*
X146121523Y-85500190D01*
X146605333Y-85959810D02*
X146315047Y-85959810D01*
X146460190Y-85959810D02*
X146460190Y-85451810D01*
X146411809Y-85524381D01*
X146363428Y-85572762D01*
X146315047Y-85596952D01*
X146919809Y-85451810D02*
X146968190Y-85451810D01*
X147016571Y-85476000D01*
X147040762Y-85500190D01*
X147064952Y-85548571D01*
X147089143Y-85645333D01*
X147089143Y-85766286D01*
X147064952Y-85863048D01*
X147040762Y-85911429D01*
X147016571Y-85935619D01*
X146968190Y-85959810D01*
X146919809Y-85959810D01*
X146871428Y-85935619D01*
X146847238Y-85911429D01*
X146823047Y-85863048D01*
X146798857Y-85766286D01*
X146798857Y-85645333D01*
X146823047Y-85548571D01*
X146847238Y-85500190D01*
X146871428Y-85476000D01*
X146919809Y-85451810D01*
X147403619Y-85451810D02*
X147452000Y-85451810D01*
X147500381Y-85476000D01*
X147524572Y-85500190D01*
X147548762Y-85548571D01*
X147572953Y-85645333D01*
X147572953Y-85766286D01*
X147548762Y-85863048D01*
X147524572Y-85911429D01*
X147500381Y-85935619D01*
X147452000Y-85959810D01*
X147403619Y-85959810D01*
X147355238Y-85935619D01*
X147331048Y-85911429D01*
X147306857Y-85863048D01*
X147282667Y-85766286D01*
X147282667Y-85645333D01*
X147306857Y-85548571D01*
X147331048Y-85500190D01*
X147355238Y-85476000D01*
X147403619Y-85451810D01*
D21*
X164898371Y-80231429D02*
X164876600Y-80255619D01*
X164811286Y-80279810D01*
X164767743Y-80279810D01*
X164702428Y-80255619D01*
X164658886Y-80207238D01*
X164637114Y-80158857D01*
X164615343Y-80062095D01*
X164615343Y-79989524D01*
X164637114Y-79892762D01*
X164658886Y-79844381D01*
X164702428Y-79796000D01*
X164767743Y-79771810D01*
X164811286Y-79771810D01*
X164876600Y-79796000D01*
X164898371Y-79820190D01*
X165333800Y-80279810D02*
X165072543Y-80279810D01*
X165203171Y-80279810D02*
X165203171Y-79771810D01*
X165159628Y-79844381D01*
X165116086Y-79892762D01*
X165072543Y-79916952D01*
X165616829Y-79771810D02*
X165660372Y-79771810D01*
X165703915Y-79796000D01*
X165725686Y-79820190D01*
X165747457Y-79868571D01*
X165769229Y-79965333D01*
X165769229Y-80086286D01*
X165747457Y-80183048D01*
X165725686Y-80231429D01*
X165703915Y-80255619D01*
X165660372Y-80279810D01*
X165616829Y-80279810D01*
X165573286Y-80255619D01*
X165551515Y-80231429D01*
X165529743Y-80183048D01*
X165507972Y-80086286D01*
X165507972Y-79965333D01*
X165529743Y-79868571D01*
X165551515Y-79820190D01*
X165573286Y-79796000D01*
X165616829Y-79771810D01*
X166204658Y-80279810D02*
X165943401Y-80279810D01*
X166074029Y-80279810D02*
X166074029Y-79771810D01*
X166030486Y-79844381D01*
X165986944Y-79892762D01*
X165943401Y-79916952D01*
X152389429Y-89307629D02*
X152413619Y-89329400D01*
X152437810Y-89394714D01*
X152437810Y-89438257D01*
X152413619Y-89503572D01*
X152365238Y-89547114D01*
X152316857Y-89568886D01*
X152220095Y-89590657D01*
X152147524Y-89590657D01*
X152050762Y-89568886D01*
X152002381Y-89547114D01*
X151954000Y-89503572D01*
X151929810Y-89438257D01*
X151929810Y-89394714D01*
X151954000Y-89329400D01*
X151978190Y-89307629D01*
X152437810Y-88872200D02*
X152437810Y-89133457D01*
X152437810Y-89002829D02*
X151929810Y-89002829D01*
X152002381Y-89046372D01*
X152050762Y-89089914D01*
X152074952Y-89133457D01*
X151929810Y-88589171D02*
X151929810Y-88545628D01*
X151954000Y-88502085D01*
X151978190Y-88480314D01*
X152026571Y-88458543D01*
X152123333Y-88436771D01*
X152244286Y-88436771D01*
X152341048Y-88458543D01*
X152389429Y-88480314D01*
X152413619Y-88502085D01*
X152437810Y-88545628D01*
X152437810Y-88589171D01*
X152413619Y-88632714D01*
X152389429Y-88654485D01*
X152341048Y-88676257D01*
X152244286Y-88698028D01*
X152123333Y-88698028D01*
X152026571Y-88676257D01*
X151978190Y-88654485D01*
X151954000Y-88632714D01*
X151929810Y-88589171D01*
X151978190Y-88262599D02*
X151954000Y-88240828D01*
X151929810Y-88197285D01*
X151929810Y-88088428D01*
X151954000Y-88044885D01*
X151978190Y-88023114D01*
X152026571Y-88001342D01*
X152074952Y-88001342D01*
X152147524Y-88023114D01*
X152437810Y-88284371D01*
X152437810Y-88001342D01*
X136672286Y-97159114D02*
X136672286Y-97376829D01*
X136519886Y-96919629D02*
X136672286Y-97159114D01*
X136824686Y-96919629D01*
X136955315Y-96963171D02*
X136977086Y-96941400D01*
X137020629Y-96919629D01*
X137129486Y-96919629D01*
X137173029Y-96941400D01*
X137194800Y-96963171D01*
X137216572Y-97006714D01*
X137216572Y-97050257D01*
X137194800Y-97115571D01*
X136933543Y-97376829D01*
X137216572Y-97376829D01*
X158702543Y-96396362D02*
X158702543Y-95895982D01*
X158876715Y-95895982D01*
X158920257Y-95919810D01*
X158942029Y-95943638D01*
X158963800Y-95991293D01*
X158963800Y-96062776D01*
X158942029Y-96110431D01*
X158920257Y-96134259D01*
X158876715Y-96158086D01*
X158702543Y-96158086D01*
X159137972Y-95943638D02*
X159159743Y-95919810D01*
X159203286Y-95895982D01*
X159312143Y-95895982D01*
X159355686Y-95919810D01*
X159377457Y-95943638D01*
X159399229Y-95991293D01*
X159399229Y-96038948D01*
X159377457Y-96110431D01*
X159116200Y-96396362D01*
X159399229Y-96396362D01*
X143571657Y-84639629D02*
X143571657Y-85009743D01*
X143593429Y-85053286D01*
X143615200Y-85075057D01*
X143658743Y-85096829D01*
X143745829Y-85096829D01*
X143789371Y-85075057D01*
X143811143Y-85053286D01*
X143832914Y-85009743D01*
X143832914Y-84639629D01*
X144028857Y-84683171D02*
X144050628Y-84661400D01*
X144094171Y-84639629D01*
X144203028Y-84639629D01*
X144246571Y-84661400D01*
X144268342Y-84683171D01*
X144290114Y-84726714D01*
X144290114Y-84770257D01*
X144268342Y-84835571D01*
X144007085Y-85096829D01*
X144290114Y-85096829D01*
D11*
X132672667Y-82265619D02*
X132745238Y-82289810D01*
X132866191Y-82289810D01*
X132914572Y-82265619D01*
X132938762Y-82241429D01*
X132962953Y-82193048D01*
X132962953Y-82144667D01*
X132938762Y-82096286D01*
X132914572Y-82072095D01*
X132866191Y-82047905D01*
X132769429Y-82023714D01*
X132721048Y-81999524D01*
X132696857Y-81975333D01*
X132672667Y-81926952D01*
X132672667Y-81878571D01*
X132696857Y-81830190D01*
X132721048Y-81806000D01*
X132769429Y-81781810D01*
X132890381Y-81781810D01*
X132962953Y-81806000D01*
X133132286Y-81781810D02*
X133253239Y-82289810D01*
X133350001Y-81926952D01*
X133446763Y-82289810D01*
X133567715Y-81781810D01*
X133712857Y-81781810D02*
X134027334Y-81781810D01*
X133858000Y-81975333D01*
X133930572Y-81975333D01*
X133978953Y-81999524D01*
X134003143Y-82023714D01*
X134027334Y-82072095D01*
X134027334Y-82193048D01*
X134003143Y-82241429D01*
X133978953Y-82265619D01*
X133930572Y-82289810D01*
X133785429Y-82289810D01*
X133737048Y-82265619D01*
X133712857Y-82241429D01*
D21*
X139376362Y-89923915D02*
X139138086Y-90076315D01*
X139376362Y-90185172D02*
X138875982Y-90185172D01*
X138875982Y-90011000D01*
X138899810Y-89967458D01*
X138923638Y-89945686D01*
X138971293Y-89923915D01*
X139042776Y-89923915D01*
X139090431Y-89945686D01*
X139114259Y-89967458D01*
X139138086Y-90011000D01*
X139138086Y-90185172D01*
X138923638Y-89749743D02*
X138899810Y-89727972D01*
X138875982Y-89684429D01*
X138875982Y-89575572D01*
X138899810Y-89532029D01*
X138923638Y-89510258D01*
X138971293Y-89488486D01*
X139018948Y-89488486D01*
X139090431Y-89510258D01*
X139376362Y-89771515D01*
X139376362Y-89488486D01*
X138875982Y-89074829D02*
X138875982Y-89292543D01*
X139114259Y-89314314D01*
X139090431Y-89292543D01*
X139066603Y-89249000D01*
X139066603Y-89140143D01*
X139090431Y-89096600D01*
X139114259Y-89074829D01*
X139161914Y-89053057D01*
X139281052Y-89053057D01*
X139328707Y-89074829D01*
X139352535Y-89096600D01*
X139376362Y-89140143D01*
X139376362Y-89249000D01*
X139352535Y-89292543D01*
X139328707Y-89314314D01*
M02*
