%FSLAX46Y46*%
G04 Gerber Fmt 4.6, Leading zero omitted, Abs format (unit mm)*
G04 Created by KiCad (PCBNEW (2014-jul-16 BZR unknown)-product) date Mon 18 Aug 2014 12:37:27 PM MDT*
%MOMM*%
G01*
G04 APERTURE LIST*
%ADD10C,0.100000*%
%ADD11R,1.727200X1.727200*%
%ADD12O,1.727200X1.727200*%
%ADD13R,1.727200X2.032000*%
%ADD14O,1.727200X2.032000*%
%ADD15C,2.499360*%
%ADD16C,0.330200*%
%ADD17C,0.400000*%
G04 APERTURE END LIST*
D10*
D11*
X131130000Y-93270000D03*
D12*
X133670000Y-93270000D03*
X131130000Y-95810000D03*
X133670000Y-95810000D03*
X131130000Y-98350000D03*
X133670000Y-98350000D03*
X131130000Y-100890000D03*
X133670000Y-100890000D03*
X131130000Y-103430000D03*
X133670000Y-103430000D03*
X131130000Y-105970000D03*
X133670000Y-105970000D03*
X131130000Y-108510000D03*
X133670000Y-108510000D03*
X131130000Y-111050000D03*
X133670000Y-111050000D03*
X131130000Y-113590000D03*
X133670000Y-113590000D03*
X131130000Y-116130000D03*
X133670000Y-116130000D03*
D11*
X171630000Y-92670000D03*
D12*
X174170000Y-92670000D03*
X171630000Y-95210000D03*
X174170000Y-95210000D03*
X171630000Y-97750000D03*
X174170000Y-97750000D03*
X171630000Y-100290000D03*
X174170000Y-100290000D03*
X171630000Y-102830000D03*
X174170000Y-102830000D03*
X171630000Y-105370000D03*
X174170000Y-105370000D03*
X171630000Y-107910000D03*
X174170000Y-107910000D03*
X171630000Y-110450000D03*
X174170000Y-110450000D03*
X171630000Y-112990000D03*
X174170000Y-112990000D03*
X171630000Y-115530000D03*
X174170000Y-115530000D03*
D13*
X143550000Y-121600000D03*
D14*
X141010000Y-121600000D03*
X138470000Y-121600000D03*
X135930000Y-121600000D03*
X133390000Y-121600000D03*
X130850000Y-121600000D03*
D15*
X-6149340Y0D03*
X6149340Y0D03*
D16*
X142500000Y-78850000D03*
X143500000Y-78850000D03*
X143500000Y-79650000D03*
X142500000Y-79650000D03*
D17*
X143000000Y-79250000D03*
M02*
