%FSLAX46Y46*%
G04 Gerber Fmt 4.6, Leading zero omitted, Abs format (unit mm)*
G04 Created by KiCad (PCBNEW (2014-jul-16 BZR unknown)-product) date Thu 11 Sep 2014 01:41:01 PM MDT*
%MOMM*%
G01*
G04 APERTURE LIST*
%ADD10C,0.100000*%
%ADD11C,0.508000*%
%ADD12C,0.914400*%
%ADD13R,2.500000X1.000000*%
%ADD14R,6.000000X2.500000*%
%ADD15R,1.900000X2.400000*%
%ADD16R,1.200000X1.200000*%
%ADD17R,0.700000X1.200000*%
%ADD18R,1.200000X0.700000*%
%ADD19R,1.727200X1.727200*%
%ADD20O,1.727200X1.727200*%
%ADD21R,1.198880X1.198880*%
%ADD22R,1.727200X2.032000*%
%ADD23O,1.727200X2.032000*%
%ADD24R,1.143000X0.635000*%
%ADD25R,0.635000X1.143000*%
%ADD26R,0.508000X0.356000*%
%ADD27R,0.949960X0.795020*%
%ADD28R,1.350000X0.350000*%
%ADD29R,1.600000X2.100000*%
%ADD30R,1.900000X1.800000*%
%ADD31R,1.900000X1.900000*%
%ADD32O,2.235200X2.235200*%
%ADD33R,1.000000X0.550000*%
%ADD34R,1.550000X1.300000*%
%ADD35C,0.889000*%
%ADD36C,0.254000*%
%ADD37C,0.203200*%
G04 APERTURE END LIST*
D10*
D11*
X172790180Y-76750640D02*
X167540000Y-76750640D01*
X172790180Y-76750640D02*
X172790180Y-81500440D01*
D12*
X172538720Y-77002100D02*
X166788160Y-77002100D01*
D11*
X172790180Y-81500440D02*
X170290820Y-81500440D01*
X170290820Y-81500440D02*
X170290820Y-83999800D01*
X170290820Y-86748080D02*
X170290820Y-86247700D01*
X172040880Y-79250000D02*
X172790180Y-79250000D01*
X168540760Y-91000040D02*
X170290820Y-91000040D01*
X172790180Y-91000040D02*
X170290820Y-91000040D01*
X170290820Y-88749600D02*
X172790180Y-88749600D01*
X170293360Y-86748080D02*
X170293360Y-88749600D01*
X172792720Y-88749600D02*
X172792720Y-91000040D01*
X172790180Y-83999800D02*
X172790180Y-86250240D01*
X170290820Y-83999800D02*
X172790180Y-83999800D01*
X172792720Y-86250240D02*
X170293360Y-86250240D01*
X167039620Y-79250000D02*
X172040880Y-79250000D01*
D13*
X144800000Y-90580000D03*
X144800000Y-93120000D03*
D14*
X138800000Y-91850000D03*
D15*
X159450000Y-78600000D03*
X155850000Y-78600000D03*
X152250000Y-78600000D03*
X159450000Y-82900000D03*
X155850000Y-82900000D03*
X152250000Y-82900000D03*
D16*
X148600000Y-74900000D03*
X148600000Y-86600000D03*
X163100000Y-86600000D03*
X163100000Y-74900000D03*
D17*
X161250000Y-74900000D03*
X160050000Y-74900000D03*
X158850000Y-74900000D03*
X157650000Y-74900000D03*
X156450000Y-74900000D03*
X155250000Y-74900000D03*
X154050000Y-74900000D03*
X152850000Y-74900000D03*
X151650000Y-74900000D03*
X150450000Y-74900000D03*
D18*
X148600000Y-76550000D03*
X148600000Y-77750000D03*
X148600000Y-78950000D03*
X148600000Y-80150000D03*
X148600000Y-81350000D03*
X148600000Y-82550000D03*
X148600000Y-83750000D03*
X148600000Y-84950000D03*
D17*
X150450000Y-86600000D03*
X151650000Y-86600000D03*
X152850000Y-86600000D03*
X154050000Y-86600000D03*
X155250000Y-86600000D03*
X156450000Y-86600000D03*
X157650000Y-86600000D03*
X158850000Y-86600000D03*
X160050000Y-86600000D03*
X161250000Y-86600000D03*
D18*
X163100000Y-84950000D03*
X163100000Y-83750000D03*
X163100000Y-82550000D03*
X163100000Y-81350000D03*
X163100000Y-80150000D03*
X163100000Y-78950000D03*
X163100000Y-77750000D03*
X163100000Y-76550000D03*
D10*
G36*
X155369350Y-112574907D02*
X154449771Y-111655328D01*
X154654832Y-111450267D01*
X155574411Y-112369846D01*
X155369350Y-112574907D01*
X155369350Y-112574907D01*
G37*
G36*
X155723172Y-112221085D02*
X154803593Y-111301506D01*
X155008654Y-111096445D01*
X155928233Y-112016024D01*
X155723172Y-112221085D01*
X155723172Y-112221085D01*
G37*
G36*
X156076994Y-111867262D02*
X155157415Y-110947683D01*
X155362476Y-110742622D01*
X156282055Y-111662201D01*
X156076994Y-111867262D01*
X156076994Y-111867262D01*
G37*
G36*
X156430816Y-111513440D02*
X155511237Y-110593861D01*
X155716298Y-110388800D01*
X156635877Y-111308379D01*
X156430816Y-111513440D01*
X156430816Y-111513440D01*
G37*
G36*
X156784638Y-111159618D02*
X155865059Y-110240039D01*
X156070120Y-110034978D01*
X156989699Y-110954557D01*
X156784638Y-111159618D01*
X156784638Y-111159618D01*
G37*
G36*
X154309679Y-113634577D02*
X153390100Y-112714998D01*
X153595161Y-112509937D01*
X154514740Y-113429516D01*
X154309679Y-113634577D01*
X154309679Y-113634577D01*
G37*
G36*
X154661705Y-113282551D02*
X153742126Y-112362972D01*
X153947187Y-112157911D01*
X154866766Y-113077490D01*
X154661705Y-113282551D01*
X154661705Y-113282551D01*
G37*
G36*
X155015528Y-112928729D02*
X154095949Y-112009150D01*
X154301010Y-111804089D01*
X155220589Y-112723668D01*
X155015528Y-112928729D01*
X155015528Y-112928729D01*
G37*
G36*
X158897105Y-105502057D02*
X158692044Y-105296996D01*
X159611623Y-104377417D01*
X159816684Y-104582478D01*
X158897105Y-105502057D01*
X158897105Y-105502057D01*
G37*
G36*
X158545079Y-105150031D02*
X158340018Y-104944970D01*
X159259597Y-104025391D01*
X159464658Y-104230452D01*
X158545079Y-105150031D01*
X158545079Y-105150031D01*
G37*
G36*
X158191256Y-104796209D02*
X157986195Y-104591148D01*
X158905774Y-103671569D01*
X159110835Y-103876630D01*
X158191256Y-104796209D01*
X158191256Y-104796209D01*
G37*
G36*
X157837434Y-104442387D02*
X157632373Y-104237326D01*
X158551952Y-103317747D01*
X158757013Y-103522808D01*
X157837434Y-104442387D01*
X157837434Y-104442387D01*
G37*
G36*
X157483612Y-104088565D02*
X157278551Y-103883504D01*
X158198130Y-102963925D01*
X158403191Y-103168986D01*
X157483612Y-104088565D01*
X157483612Y-104088565D01*
G37*
G36*
X157129790Y-103734742D02*
X156924729Y-103529681D01*
X157844308Y-102610102D01*
X158049369Y-102815163D01*
X157129790Y-103734742D01*
X157129790Y-103734742D01*
G37*
G36*
X156775968Y-103380920D02*
X156570907Y-103175859D01*
X157490486Y-102256280D01*
X157695547Y-102461341D01*
X156775968Y-103380920D01*
X156775968Y-103380920D01*
G37*
G36*
X156422146Y-103027098D02*
X156217085Y-102822037D01*
X157136664Y-101902458D01*
X157341725Y-102107519D01*
X156422146Y-103027098D01*
X156422146Y-103027098D01*
G37*
G36*
X151479103Y-100200114D02*
X150559524Y-99280535D01*
X150764585Y-99075474D01*
X151684164Y-99995053D01*
X151479103Y-100200114D01*
X151479103Y-100200114D01*
G37*
G36*
X151127077Y-100552140D02*
X150207498Y-99632561D01*
X150412559Y-99427500D01*
X151332138Y-100347079D01*
X151127077Y-100552140D01*
X151127077Y-100552140D01*
G37*
G36*
X150776790Y-100902426D02*
X149857212Y-99982848D01*
X150055202Y-99784858D01*
X150974780Y-100704436D01*
X150776790Y-100902426D01*
X150776790Y-100902426D01*
G37*
G36*
X150419432Y-101259784D02*
X149499853Y-100340205D01*
X149704914Y-100135144D01*
X150624493Y-101054723D01*
X150419432Y-101259784D01*
X150419432Y-101259784D01*
G37*
G36*
X150065610Y-101613606D02*
X149146031Y-100694027D01*
X149351092Y-100488966D01*
X150270671Y-101408545D01*
X150065610Y-101613606D01*
X150065610Y-101613606D01*
G37*
G36*
X149711788Y-101967428D02*
X148792209Y-101047849D01*
X148997270Y-100842788D01*
X149916849Y-101762367D01*
X149711788Y-101967428D01*
X149711788Y-101967428D01*
G37*
G36*
X149357966Y-102321250D02*
X148438387Y-101401671D01*
X148643448Y-101196610D01*
X149563027Y-102116189D01*
X149357966Y-102321250D01*
X149357966Y-102321250D01*
G37*
G36*
X149004144Y-102675072D02*
X148084565Y-101755493D01*
X148289626Y-101550432D01*
X149209205Y-102470011D01*
X149004144Y-102675072D01*
X149004144Y-102675072D01*
G37*
G36*
X145462641Y-108332634D02*
X145257580Y-108127573D01*
X146177159Y-107207994D01*
X146382220Y-107413055D01*
X145462641Y-108332634D01*
X145462641Y-108332634D01*
G37*
G36*
X145814667Y-108684660D02*
X145609606Y-108479599D01*
X146529185Y-107560020D01*
X146734246Y-107765081D01*
X145814667Y-108684660D01*
X145814667Y-108684660D01*
G37*
G36*
X146168490Y-109038482D02*
X145963429Y-108833421D01*
X146883008Y-107913842D01*
X147088069Y-108118903D01*
X146168490Y-109038482D01*
X146168490Y-109038482D01*
G37*
G36*
X146522312Y-109392304D02*
X146317251Y-109187243D01*
X147236830Y-108267664D01*
X147441891Y-108472725D01*
X146522312Y-109392304D01*
X146522312Y-109392304D01*
G37*
G36*
X146876134Y-109746126D02*
X146671073Y-109541065D01*
X147590652Y-108621486D01*
X147795713Y-108826547D01*
X146876134Y-109746126D01*
X146876134Y-109746126D01*
G37*
G36*
X147229956Y-110099948D02*
X147024895Y-109894887D01*
X147944474Y-108975308D01*
X148149535Y-109180369D01*
X147229956Y-110099948D01*
X147229956Y-110099948D01*
G37*
G36*
X147583778Y-110453770D02*
X147378717Y-110248709D01*
X148298296Y-109329130D01*
X148503357Y-109534191D01*
X147583778Y-110453770D01*
X147583778Y-110453770D01*
G37*
G36*
X147937600Y-110807592D02*
X147732539Y-110602531D01*
X148652118Y-109682952D01*
X148857179Y-109888013D01*
X147937600Y-110807592D01*
X147937600Y-110807592D01*
G37*
G36*
X157136664Y-110807592D02*
X156217085Y-109888013D01*
X156422146Y-109682952D01*
X157341725Y-110602531D01*
X157136664Y-110807592D01*
X157136664Y-110807592D01*
G37*
G36*
X157490486Y-110453770D02*
X156570907Y-109534191D01*
X156775968Y-109329130D01*
X157695547Y-110248709D01*
X157490486Y-110453770D01*
X157490486Y-110453770D01*
G37*
G36*
X157844308Y-110099948D02*
X156924729Y-109180369D01*
X157129790Y-108975308D01*
X158049369Y-109894887D01*
X157844308Y-110099948D01*
X157844308Y-110099948D01*
G37*
G36*
X156070120Y-102675072D02*
X155865059Y-102470011D01*
X156784638Y-101550432D01*
X156989699Y-101755493D01*
X156070120Y-102675072D01*
X156070120Y-102675072D01*
G37*
G36*
X155716298Y-102321250D02*
X155511237Y-102116189D01*
X156430816Y-101196610D01*
X156635877Y-101401671D01*
X155716298Y-102321250D01*
X155716298Y-102321250D01*
G37*
G36*
X155362476Y-101967428D02*
X155157415Y-101762367D01*
X156076994Y-100842788D01*
X156282055Y-101047849D01*
X155362476Y-101967428D01*
X155362476Y-101967428D01*
G37*
G36*
X148652118Y-103027098D02*
X147732539Y-102107519D01*
X147937600Y-101902458D01*
X148857179Y-102822037D01*
X148652118Y-103027098D01*
X148652118Y-103027098D01*
G37*
G36*
X148301831Y-103377384D02*
X147382253Y-102457806D01*
X147580243Y-102259816D01*
X148499821Y-103179394D01*
X148301831Y-103377384D01*
X148301831Y-103377384D01*
G37*
G36*
X147944474Y-103734742D02*
X147024895Y-102815163D01*
X147229956Y-102610102D01*
X148149535Y-103529681D01*
X147944474Y-103734742D01*
X147944474Y-103734742D01*
G37*
G36*
X148289626Y-111159618D02*
X148084565Y-110954557D01*
X149004144Y-110034978D01*
X149209205Y-110240039D01*
X148289626Y-111159618D01*
X148289626Y-111159618D01*
G37*
G36*
X148643448Y-111513440D02*
X148438387Y-111308379D01*
X149357966Y-110388800D01*
X149563027Y-110593861D01*
X148643448Y-111513440D01*
X148643448Y-111513440D01*
G37*
G36*
X148997270Y-111867262D02*
X148792209Y-111662201D01*
X149711788Y-110742622D01*
X149916849Y-110947683D01*
X148997270Y-111867262D01*
X148997270Y-111867262D01*
G37*
G36*
X158198130Y-109746126D02*
X157278551Y-108826547D01*
X157483612Y-108621486D01*
X158403191Y-109541065D01*
X158198130Y-109746126D01*
X158198130Y-109746126D01*
G37*
G36*
X158551952Y-109392304D02*
X157632373Y-108472725D01*
X157837434Y-108267664D01*
X158757013Y-109187243D01*
X158551952Y-109392304D01*
X158551952Y-109392304D01*
G37*
G36*
X158905774Y-109038482D02*
X157986195Y-108118903D01*
X158191256Y-107913842D01*
X159110835Y-108833421D01*
X158905774Y-109038482D01*
X158905774Y-109038482D01*
G37*
G36*
X159259597Y-108684660D02*
X158340018Y-107765081D01*
X158545079Y-107560020D01*
X159464658Y-108479599D01*
X159259597Y-108684660D01*
X159259597Y-108684660D01*
G37*
G36*
X159611623Y-108332634D02*
X158692044Y-107413055D01*
X158897105Y-107207994D01*
X159816684Y-108127573D01*
X159611623Y-108332634D01*
X159611623Y-108332634D01*
G37*
G36*
X155008654Y-101613606D02*
X154803593Y-101408545D01*
X155723172Y-100488966D01*
X155928233Y-100694027D01*
X155008654Y-101613606D01*
X155008654Y-101613606D01*
G37*
G36*
X154654832Y-101259784D02*
X154449771Y-101054723D01*
X155369350Y-100135144D01*
X155574411Y-100340205D01*
X154654832Y-101259784D01*
X154654832Y-101259784D01*
G37*
G36*
X154301010Y-100905962D02*
X154095949Y-100700901D01*
X155015528Y-99781322D01*
X155220589Y-99986383D01*
X154301010Y-100905962D01*
X154301010Y-100905962D01*
G37*
G36*
X153947187Y-100552140D02*
X153742126Y-100347079D01*
X154661705Y-99427500D01*
X154866766Y-99632561D01*
X153947187Y-100552140D01*
X153947187Y-100552140D01*
G37*
G36*
X153595161Y-100200114D02*
X153390100Y-99995053D01*
X154309679Y-99075474D01*
X154514740Y-99280535D01*
X153595161Y-100200114D01*
X153595161Y-100200114D01*
G37*
G36*
X147594187Y-104085029D02*
X146674609Y-103165451D01*
X146872599Y-102967461D01*
X147792177Y-103887039D01*
X147594187Y-104085029D01*
X147594187Y-104085029D01*
G37*
G36*
X147236830Y-104442387D02*
X146317251Y-103522808D01*
X146522312Y-103317747D01*
X147441891Y-104237326D01*
X147236830Y-104442387D01*
X147236830Y-104442387D01*
G37*
G36*
X146883008Y-104796209D02*
X145963429Y-103876630D01*
X146168490Y-103671569D01*
X147088069Y-104591148D01*
X146883008Y-104796209D01*
X146883008Y-104796209D01*
G37*
G36*
X146529185Y-105150031D02*
X145609606Y-104230452D01*
X145814667Y-104025391D01*
X146734246Y-104944970D01*
X146529185Y-105150031D01*
X146529185Y-105150031D01*
G37*
G36*
X146177159Y-105502057D02*
X145257580Y-104582478D01*
X145462641Y-104377417D01*
X146382220Y-105296996D01*
X146177159Y-105502057D01*
X146177159Y-105502057D01*
G37*
G36*
X149351092Y-112221085D02*
X149146031Y-112016024D01*
X150065610Y-111096445D01*
X150270671Y-111301506D01*
X149351092Y-112221085D01*
X149351092Y-112221085D01*
G37*
G36*
X149704914Y-112574907D02*
X149499853Y-112369846D01*
X150419432Y-111450267D01*
X150624493Y-111655328D01*
X149704914Y-112574907D01*
X149704914Y-112574907D01*
G37*
G36*
X150058737Y-112928729D02*
X149853676Y-112723668D01*
X150773255Y-111804089D01*
X150978316Y-112009150D01*
X150058737Y-112928729D01*
X150058737Y-112928729D01*
G37*
G36*
X150412559Y-113282551D02*
X150207498Y-113077490D01*
X151127077Y-112157911D01*
X151332138Y-112362972D01*
X150412559Y-113282551D01*
X150412559Y-113282551D01*
G37*
G36*
X150764585Y-113634577D02*
X150559524Y-113429516D01*
X151479103Y-112509937D01*
X151684164Y-112714998D01*
X150764585Y-113634577D01*
X150764585Y-113634577D01*
G37*
D19*
X131090000Y-97190000D03*
D20*
X133630000Y-97190000D03*
X131090000Y-99730000D03*
X133630000Y-99730000D03*
X131090000Y-102270000D03*
X133630000Y-102270000D03*
X131090000Y-104810000D03*
X133630000Y-104810000D03*
X131090000Y-107350000D03*
X133630000Y-107350000D03*
X131090000Y-109890000D03*
X133630000Y-109890000D03*
X131090000Y-112430000D03*
X133630000Y-112430000D03*
X131090000Y-114970000D03*
X133630000Y-114970000D03*
X131090000Y-117510000D03*
X133630000Y-117510000D03*
X131090000Y-120050000D03*
X133630000Y-120050000D03*
D19*
X171505000Y-96645000D03*
D20*
X174045000Y-96645000D03*
X171505000Y-99185000D03*
X174045000Y-99185000D03*
X171505000Y-101725000D03*
X174045000Y-101725000D03*
X171505000Y-104265000D03*
X174045000Y-104265000D03*
X171505000Y-106805000D03*
X174045000Y-106805000D03*
X171505000Y-109345000D03*
X174045000Y-109345000D03*
X171505000Y-111885000D03*
X174045000Y-111885000D03*
X171505000Y-114425000D03*
X174045000Y-114425000D03*
X171505000Y-116965000D03*
X174045000Y-116965000D03*
X171505000Y-119505000D03*
X174045000Y-119505000D03*
D21*
X142910980Y-88290000D03*
X145009020Y-88290000D03*
D22*
X143970000Y-74620000D03*
D23*
X141430000Y-74620000D03*
X138890000Y-74620000D03*
X136350000Y-74620000D03*
X133810000Y-74620000D03*
X131270000Y-74620000D03*
D24*
X162920000Y-98978000D03*
X162920000Y-100502000D03*
D25*
X161012000Y-93625000D03*
X159488000Y-93625000D03*
X161012000Y-90500000D03*
X159488000Y-90500000D03*
X161042000Y-92050000D03*
X159518000Y-92050000D03*
D24*
X148150000Y-116212000D03*
X148150000Y-114688000D03*
D25*
X151138000Y-115900000D03*
X152662000Y-115900000D03*
X165238000Y-96700000D03*
X166762000Y-96700000D03*
X165288000Y-98450000D03*
X166812000Y-98450000D03*
D24*
X135760000Y-84062000D03*
X135760000Y-82538000D03*
D25*
X143412000Y-98290000D03*
X141888000Y-98290000D03*
X144322000Y-86630000D03*
X142798000Y-86630000D03*
D24*
X147570000Y-96408000D03*
X147570000Y-97932000D03*
D25*
X138882000Y-83510000D03*
X137358000Y-83510000D03*
D24*
X153750000Y-96238000D03*
X153750000Y-97762000D03*
X156920000Y-97788000D03*
X156920000Y-99312000D03*
D25*
X142872000Y-109190000D03*
X141348000Y-109190000D03*
X155908000Y-115340000D03*
X157432000Y-115340000D03*
X161028000Y-111980000D03*
X162552000Y-111980000D03*
X141472000Y-100100000D03*
X139948000Y-100100000D03*
X155928000Y-116790000D03*
X157452000Y-116790000D03*
X144762000Y-111350000D03*
X143238000Y-111350000D03*
X158948000Y-101300000D03*
X160472000Y-101300000D03*
X144762000Y-112850000D03*
X143238000Y-112850000D03*
X138862000Y-85010000D03*
X137338000Y-85010000D03*
X145302000Y-80990000D03*
X143778000Y-80990000D03*
X158938000Y-99840000D03*
X160462000Y-99840000D03*
D24*
X147600000Y-90038000D03*
X147600000Y-91562000D03*
X147600000Y-92888000D03*
X147600000Y-94412000D03*
D25*
X140642000Y-98340000D03*
X139118000Y-98340000D03*
D24*
X145140000Y-97872000D03*
X145140000Y-96348000D03*
D21*
X162940980Y-91980000D03*
X165039020Y-91980000D03*
X162950980Y-90400000D03*
X165049020Y-90400000D03*
X163000980Y-93575000D03*
X165099020Y-93575000D03*
D26*
X157759000Y-93980000D03*
X156464000Y-93480000D03*
X156464000Y-94480000D03*
X157735000Y-90140000D03*
X156440000Y-89640000D03*
X156440000Y-90640000D03*
X157765000Y-91990000D03*
X156470000Y-91490000D03*
X156470000Y-92490000D03*
D24*
X146600000Y-88112000D03*
X146600000Y-86588000D03*
X165450000Y-78962000D03*
X165450000Y-77438000D03*
D25*
X149738000Y-88525000D03*
X151262000Y-88525000D03*
D27*
X167039620Y-76999560D03*
X167039620Y-79250000D03*
D28*
X133915000Y-87420000D03*
X133915000Y-88070000D03*
X133915000Y-88720000D03*
X133915000Y-89370000D03*
X133915000Y-90020000D03*
D29*
X133790000Y-84570000D03*
X133790000Y-92870000D03*
D30*
X131240000Y-82920000D03*
D31*
X131240000Y-86320000D03*
X131240000Y-91120000D03*
D30*
X131240000Y-94520000D03*
D15*
X138630000Y-95780000D03*
X142230000Y-95780000D03*
D32*
X159140000Y-97570000D03*
X152350000Y-92080000D03*
D33*
X142580000Y-82280000D03*
X142580000Y-84180000D03*
X145280000Y-84180000D03*
X145280000Y-83230000D03*
X145280000Y-82280000D03*
D34*
X130362500Y-81140000D03*
X137537500Y-81140000D03*
X130362500Y-76640000D03*
X137537500Y-76640000D03*
D25*
X136788000Y-89590000D03*
X138312000Y-89590000D03*
D35*
X157730000Y-76650000D03*
X153990000Y-76590000D03*
X161260000Y-76830000D03*
X150220000Y-80760000D03*
X157600000Y-80720000D03*
X161280000Y-85100000D03*
X157640000Y-85060000D03*
X161230000Y-80770000D03*
X154050000Y-80790000D03*
X150210000Y-76570000D03*
X150350000Y-85020000D03*
X154050000Y-85010000D03*
X161060000Y-98620000D03*
X154080000Y-90260000D03*
X156530000Y-100320000D03*
X145880000Y-110670000D03*
X173070000Y-94640000D03*
X158620000Y-116870000D03*
X163650000Y-111940000D03*
X141890000Y-110640000D03*
X165440000Y-75440000D03*
X135200000Y-99130000D03*
X135060000Y-91160000D03*
X142980000Y-101100000D03*
X144820000Y-101110000D03*
X145170000Y-95290000D03*
X143800000Y-77980000D03*
X146600000Y-75600000D03*
X137260000Y-78480000D03*
X163990000Y-120240000D03*
X149240000Y-108230000D03*
X151040000Y-109650000D03*
X169710000Y-99570000D03*
X167630000Y-99520000D03*
X144850000Y-77310000D03*
X164240000Y-114140000D03*
X158800000Y-88075000D03*
X151810000Y-102070000D03*
X137760000Y-99980000D03*
X137140000Y-106160000D03*
X138430000Y-104050000D03*
X139990000Y-89900000D03*
X137950000Y-105090000D03*
X140100000Y-83450000D03*
X139450000Y-111440000D03*
X138200000Y-107800000D03*
X135840000Y-110970000D03*
X150050000Y-114600000D03*
X148530000Y-117330000D03*
X138120000Y-109150000D03*
X138560000Y-112190000D03*
X135380000Y-109300000D03*
X151170000Y-114600000D03*
X150240000Y-117730000D03*
X135620000Y-113850000D03*
X152740000Y-101460000D03*
X147050000Y-83950000D03*
X160660000Y-114700000D03*
X160800000Y-118060000D03*
X135800000Y-117400000D03*
X152850000Y-119210000D03*
X152820000Y-111770000D03*
X161850000Y-114610000D03*
X162000000Y-117970000D03*
X151690000Y-111710000D03*
X144750000Y-119890000D03*
X163290000Y-117440000D03*
X163030000Y-114610000D03*
X150740000Y-110780000D03*
X143520000Y-120390000D03*
X135430000Y-119400000D03*
X164680000Y-100390000D03*
X158160000Y-106100000D03*
X154720000Y-108540000D03*
X143800000Y-104260000D03*
X138710000Y-105880000D03*
X139810000Y-79760000D03*
X165590000Y-101220000D03*
X144360000Y-105450000D03*
X157830000Y-107170000D03*
X155720000Y-108020000D03*
X163720000Y-102150000D03*
X154040000Y-102180000D03*
X167070000Y-113990000D03*
X161640000Y-109560000D03*
X167590000Y-109490000D03*
X147920000Y-104960000D03*
X167030000Y-112850000D03*
X167700000Y-104170000D03*
X167450000Y-115070000D03*
X166780000Y-105080000D03*
X165560000Y-119420000D03*
X164130000Y-115390000D03*
X165390000Y-114130000D03*
X165980000Y-105840000D03*
X161240000Y-104680000D03*
X156890000Y-105130000D03*
X139540000Y-106610000D03*
X140340000Y-107430000D03*
X141810000Y-107920000D03*
X147070000Y-105910000D03*
X135440000Y-85950000D03*
X138780000Y-101740000D03*
X140120000Y-88700000D03*
X137620000Y-101770000D03*
X138990000Y-88320000D03*
X162240000Y-105700000D03*
X149620000Y-103170000D03*
X169440000Y-106390000D03*
X142880000Y-77340000D03*
X144670000Y-94290000D03*
X167540000Y-102020000D03*
X164910000Y-118280000D03*
X162420000Y-88810000D03*
X165690000Y-95230000D03*
X133830000Y-94950000D03*
X133450000Y-82800000D03*
X155250000Y-93550000D03*
X162990000Y-97620000D03*
X164410000Y-95390000D03*
X155420000Y-91620000D03*
X167820000Y-96730000D03*
X162950000Y-96410000D03*
X169770000Y-119210000D03*
X136910000Y-112040000D03*
X135430000Y-102060000D03*
X138840000Y-79110000D03*
X168040000Y-119230000D03*
X154290000Y-114610000D03*
X155450000Y-119990000D03*
X137350000Y-117700000D03*
X136210000Y-103800000D03*
X155050000Y-110120000D03*
X139160000Y-80790000D03*
X149820000Y-107290000D03*
X153900000Y-109350000D03*
X152500000Y-100180000D03*
X157040000Y-96910000D03*
X152250000Y-95675000D03*
X150975000Y-90275000D03*
X136680000Y-86950000D03*
D36*
X157730000Y-76650000D02*
X161080000Y-76650000D01*
X157670000Y-76590000D02*
X157730000Y-76650000D01*
X150210000Y-76570000D02*
X153970000Y-76570000D01*
X153970000Y-76570000D02*
X153990000Y-76590000D01*
X153990000Y-76590000D02*
X157670000Y-76590000D01*
X161080000Y-76650000D02*
X161260000Y-76830000D01*
X150220000Y-80760000D02*
X150220000Y-76580000D01*
X150250000Y-80790000D02*
X150220000Y-80760000D01*
X157600000Y-80720000D02*
X154120000Y-80720000D01*
X157650000Y-80770000D02*
X157600000Y-80720000D01*
X161280000Y-85100000D02*
X161280000Y-80820000D01*
X161240000Y-85060000D02*
X161280000Y-85100000D01*
X154050000Y-85010000D02*
X157590000Y-85010000D01*
X157590000Y-85010000D02*
X157640000Y-85060000D01*
X157640000Y-85060000D02*
X161240000Y-85060000D01*
X161280000Y-80820000D02*
X161230000Y-80770000D01*
X161230000Y-80770000D02*
X157650000Y-80770000D01*
X154120000Y-80720000D02*
X154050000Y-80790000D01*
X154050000Y-80790000D02*
X150250000Y-80790000D01*
X150220000Y-76580000D02*
X150210000Y-76570000D01*
X150350000Y-85020000D02*
X154040000Y-85020000D01*
X150280000Y-84950000D02*
X150350000Y-85020000D01*
X148600000Y-84950000D02*
X150280000Y-84950000D01*
X154040000Y-85020000D02*
X154050000Y-85010000D01*
X140460000Y-101480000D02*
X142600000Y-101480000D01*
X139948000Y-100100000D02*
X139948000Y-100968000D01*
X139948000Y-100968000D02*
X140460000Y-101480000D01*
X160472000Y-101300000D02*
X160472000Y-99850000D01*
X160472000Y-99850000D02*
X161060000Y-99262000D01*
X161060000Y-99262000D02*
X161060000Y-98620000D01*
X156464000Y-94480000D02*
X154990000Y-94480000D01*
X154080000Y-93570000D02*
X154080000Y-91710000D01*
X154990000Y-94480000D02*
X154080000Y-93570000D01*
X156440000Y-90640000D02*
X154460000Y-90640000D01*
X154860000Y-92490000D02*
X154080000Y-91710000D01*
X154080000Y-91710000D02*
X154080000Y-90260000D01*
X154860000Y-92490000D02*
X156470000Y-92490000D01*
X154460000Y-90640000D02*
X154080000Y-90260000D01*
X156530000Y-100320000D02*
X156680000Y-100320000D01*
X156920000Y-100080000D02*
X156920000Y-99312000D01*
X156680000Y-100320000D02*
X156920000Y-100080000D01*
X162562000Y-112300000D02*
X162562000Y-111762000D01*
X159563533Y-110906468D02*
X157840871Y-109183806D01*
X174045000Y-95615000D02*
X173070000Y-94640000D01*
X174045000Y-96645000D02*
X174045000Y-95615000D01*
X147180000Y-110670000D02*
X145880000Y-110670000D01*
X147941037Y-109908963D02*
X147180000Y-110670000D01*
X147941037Y-109891450D02*
X147941037Y-109908963D01*
X137340000Y-98500000D02*
X138200000Y-98500000D01*
X156530000Y-100560000D02*
X156530000Y-100320000D01*
X155719735Y-101370265D02*
X156530000Y-100560000D01*
X155719735Y-101405108D02*
X155719735Y-101370265D01*
X162356468Y-110906468D02*
X162552000Y-111102000D01*
X162552000Y-111102000D02*
X162552000Y-111980000D01*
X159563533Y-110906468D02*
X162356468Y-110906468D01*
X157432000Y-115142000D02*
X157432000Y-115340000D01*
X154658269Y-112368269D02*
X156185000Y-113895000D01*
X154658269Y-112366409D02*
X154658269Y-112368269D01*
X156795000Y-113895000D02*
X157432000Y-114532000D01*
X157432000Y-114532000D02*
X157432000Y-115340000D01*
X156185000Y-113895000D02*
X156795000Y-113895000D01*
X157532000Y-116870000D02*
X158620000Y-116870000D01*
X157432000Y-116770000D02*
X157532000Y-116870000D01*
X157432000Y-115340000D02*
X157432000Y-116770000D01*
X163610000Y-111980000D02*
X163650000Y-111940000D01*
X162552000Y-111980000D02*
X163610000Y-111980000D01*
X143238000Y-112850000D02*
X143238000Y-111350000D01*
X141348000Y-110048000D02*
X141890000Y-110590000D01*
X141890000Y-110590000D02*
X141890000Y-110640000D01*
X141348000Y-109190000D02*
X141348000Y-110048000D01*
X142528000Y-110640000D02*
X143238000Y-111350000D01*
X141890000Y-110640000D02*
X142528000Y-110640000D01*
X167039620Y-76999560D02*
X166999560Y-76999560D01*
X166999560Y-76999560D02*
X165440000Y-75440000D01*
X134200000Y-99160000D02*
X133630000Y-99730000D01*
X135890000Y-98500000D02*
X135230000Y-99160000D01*
X135230000Y-99160000D02*
X134200000Y-99160000D01*
X137340000Y-98500000D02*
X135890000Y-98500000D01*
X135200000Y-91980000D02*
X135200000Y-93760000D01*
X135200000Y-93760000D02*
X135200000Y-96720000D01*
X135200000Y-96720000D02*
X135200000Y-99130000D01*
X135200000Y-91300000D02*
X135060000Y-91160000D01*
X135200000Y-91980000D02*
X135200000Y-91300000D01*
X134840000Y-90020000D02*
X135060000Y-90240000D01*
X135060000Y-90240000D02*
X135060000Y-91160000D01*
X133915000Y-90020000D02*
X134840000Y-90020000D01*
X137537500Y-81702500D02*
X137537500Y-81140000D01*
X136980000Y-85010000D02*
X136670000Y-84700000D01*
X136670000Y-84700000D02*
X136670000Y-82570000D01*
X136670000Y-82570000D02*
X137537500Y-81702500D01*
X137338000Y-85010000D02*
X136980000Y-85010000D01*
X138958000Y-98500000D02*
X139118000Y-98340000D01*
X138200000Y-98500000D02*
X138958000Y-98500000D01*
X139118000Y-99768000D02*
X139450000Y-100100000D01*
X139450000Y-100100000D02*
X139948000Y-100100000D01*
X139118000Y-98340000D02*
X139118000Y-99768000D01*
X142600000Y-101480000D02*
X142980000Y-101100000D01*
X149000707Y-101758930D02*
X149000707Y-101740707D01*
X146060000Y-98850000D02*
X146060000Y-96510000D01*
X146060000Y-96510000D02*
X145898000Y-96348000D01*
X145898000Y-96348000D02*
X145140000Y-96348000D01*
X148968930Y-101758930D02*
X146060000Y-98850000D01*
X149000707Y-101758930D02*
X148968930Y-101758930D01*
X142980000Y-101100000D02*
X144810000Y-101100000D01*
X144810000Y-101100000D02*
X144820000Y-101110000D01*
X145140000Y-95320000D02*
X145170000Y-95290000D01*
X145140000Y-96348000D02*
X145140000Y-95320000D01*
X143800000Y-77980000D02*
X143800000Y-77990000D01*
X145920000Y-76280000D02*
X146600000Y-75600000D01*
X144520000Y-76280000D02*
X145920000Y-76280000D01*
X143800000Y-77000000D02*
X144520000Y-76280000D01*
X143800000Y-77980000D02*
X143800000Y-77000000D01*
X137260000Y-80862500D02*
X137537500Y-81140000D01*
X143560000Y-77980000D02*
X143800000Y-77980000D01*
X137610000Y-78130000D02*
X137260000Y-78480000D01*
X139550000Y-78130000D02*
X137610000Y-78130000D01*
X139690000Y-78270000D02*
X139550000Y-78130000D01*
X143270000Y-78270000D02*
X139690000Y-78270000D01*
X143560000Y-77980000D02*
X143270000Y-78270000D01*
X137260000Y-80862500D02*
X137260000Y-78480000D01*
X163990000Y-120240000D02*
X163990000Y-120230000D01*
X140470000Y-82280000D02*
X140110000Y-81920000D01*
X140110000Y-81920000D02*
X138317500Y-81920000D01*
X138317500Y-81920000D02*
X137537500Y-81140000D01*
X142580000Y-82280000D02*
X140470000Y-82280000D01*
X146082000Y-86588000D02*
X146600000Y-86588000D01*
X145009020Y-87660980D02*
X146082000Y-86588000D01*
X145009020Y-88290000D02*
X145009020Y-87660980D01*
X154050000Y-74900000D02*
X154050000Y-73980000D01*
X156450000Y-74010000D02*
X156450000Y-74900000D01*
X156070000Y-73630000D02*
X156450000Y-74010000D01*
X154400000Y-73630000D02*
X156070000Y-73630000D01*
X154050000Y-73980000D02*
X154400000Y-73630000D01*
X148294859Y-110245272D02*
X148304728Y-110245272D01*
X148304728Y-110245272D02*
X149240000Y-109310000D01*
X149240000Y-109310000D02*
X149240000Y-108230000D01*
X156407248Y-102112752D02*
X152890000Y-105630000D01*
X152890000Y-105630000D02*
X152890000Y-106913418D01*
X152890000Y-106913418D02*
X151382798Y-108420620D01*
X151382798Y-108420620D02*
X151382798Y-109307202D01*
X151382798Y-109307202D02*
X151040000Y-109650000D01*
X156427379Y-102112752D02*
X156407248Y-102112752D01*
X158938000Y-99840000D02*
X158938000Y-97772000D01*
X158938000Y-97772000D02*
X159140000Y-97570000D01*
X158948000Y-101300000D02*
X158948000Y-99850000D01*
X156427379Y-102112752D02*
X156427379Y-102102621D01*
X156427379Y-102102621D02*
X156990000Y-101540000D01*
X156990000Y-101540000D02*
X158708000Y-101540000D01*
X158708000Y-101540000D02*
X158948000Y-101300000D01*
X156427379Y-102112752D02*
X156439450Y-102112752D01*
X144762000Y-111350000D02*
X144762000Y-112850000D01*
X144762000Y-112850000D02*
X145690131Y-112850000D01*
X145690131Y-112850000D02*
X148294859Y-110245272D01*
X156427379Y-102112752D02*
X156427379Y-102122621D01*
X167680000Y-99570000D02*
X169710000Y-99570000D01*
X167630000Y-99520000D02*
X167680000Y-99570000D01*
X156779405Y-110245272D02*
X156779405Y-110269405D01*
X146570000Y-77490000D02*
X146830000Y-77750000D01*
X146830000Y-77750000D02*
X148600000Y-77750000D01*
X144850000Y-77310000D02*
X146570000Y-77490000D01*
X163040000Y-113800000D02*
X163900000Y-113800000D01*
X163900000Y-113800000D02*
X164240000Y-114140000D01*
X160310000Y-113800000D02*
X163040000Y-113800000D01*
X156779405Y-110269405D02*
X160310000Y-113800000D01*
X148646885Y-110597298D02*
X148662702Y-110597298D01*
X148662702Y-110597298D02*
X149700000Y-109560000D01*
X152280000Y-102540000D02*
X151810000Y-102070000D01*
X152280000Y-104762798D02*
X152280000Y-102540000D01*
X151870000Y-105172798D02*
X152280000Y-104762798D01*
X151870000Y-106430000D02*
X151870000Y-105172798D01*
X150410000Y-107890000D02*
X151870000Y-106430000D01*
X150410000Y-108443418D02*
X150410000Y-107890000D01*
X149700000Y-109153418D02*
X150410000Y-108443418D01*
X149700000Y-109560000D02*
X149700000Y-109153418D01*
X158800000Y-88075000D02*
X158850000Y-88025000D01*
X158850000Y-88025000D02*
X158850000Y-86600000D01*
X148646885Y-110597298D02*
X148627702Y-110597298D01*
X148646885Y-110597298D02*
X148652702Y-110597298D01*
X142890000Y-113875000D02*
X142585000Y-113875000D01*
X142585000Y-113875000D02*
X141710000Y-113000000D01*
X145350000Y-113875000D02*
X142890000Y-113875000D01*
X148627702Y-110597298D02*
X145350000Y-113875000D01*
X137760000Y-99980000D02*
X137760000Y-100000000D01*
X137760000Y-100000000D02*
X137760000Y-99980000D01*
X137760000Y-99980000D02*
X137760000Y-100000000D01*
X139770000Y-109170000D02*
X141070000Y-110470000D01*
X139770000Y-108140000D02*
X139770000Y-109170000D01*
X137790000Y-106160000D02*
X139770000Y-108140000D01*
X137140000Y-106160000D02*
X137790000Y-106160000D01*
X141060000Y-112350000D02*
X141060000Y-110480000D01*
X141060000Y-110480000D02*
X141070000Y-110470000D01*
X141710000Y-113000000D02*
X141060000Y-112350000D01*
X137420000Y-99980000D02*
X136340000Y-101060000D01*
X136340000Y-101060000D02*
X132420000Y-101060000D01*
X132420000Y-101060000D02*
X131090000Y-99730000D01*
X137760000Y-99980000D02*
X137420000Y-99980000D01*
X138312000Y-89590000D02*
X139680000Y-89590000D01*
X138430000Y-104050000D02*
X138430000Y-104060000D01*
X139680000Y-89590000D02*
X139990000Y-89900000D01*
X146860067Y-103880067D02*
X145980000Y-103000000D01*
X145980000Y-103000000D02*
X142790000Y-103000000D01*
X142540000Y-103000000D02*
X141470000Y-104070000D01*
X141470000Y-104070000D02*
X140020000Y-104070000D01*
X142790000Y-103000000D02*
X142540000Y-103000000D01*
X138430000Y-104060000D02*
X138430000Y-104070000D01*
X138400000Y-104070000D02*
X137330000Y-103000000D01*
X137330000Y-103000000D02*
X135490000Y-103000000D01*
X138430000Y-104070000D02*
X138400000Y-104070000D01*
X138440000Y-104070000D02*
X138430000Y-104060000D01*
X141470000Y-104070000D02*
X138440000Y-104070000D01*
X135130000Y-103000000D02*
X134570000Y-103560000D01*
X134570000Y-103560000D02*
X132380000Y-103560000D01*
X132380000Y-103560000D02*
X131090000Y-102270000D01*
X135490000Y-103000000D02*
X135130000Y-103000000D01*
X146525749Y-104233889D02*
X146525749Y-104225749D01*
X146525749Y-104233889D02*
X146525749Y-104232951D01*
X145730000Y-103457202D02*
X143332798Y-103457202D01*
X146506687Y-104233889D02*
X145730000Y-103457202D01*
X146525749Y-104233889D02*
X146506687Y-104233889D01*
X137950000Y-105080000D02*
X141710000Y-105080000D01*
X143332798Y-103457202D02*
X142940000Y-103850000D01*
X141710000Y-105080000D02*
X142940000Y-103850000D01*
X137950000Y-105090000D02*
X137950000Y-105080000D01*
X137950000Y-105080000D02*
X137950000Y-105090000D01*
X137950000Y-105090000D02*
X137950000Y-105080000D01*
X141700000Y-105090000D02*
X143332798Y-103457202D01*
X137950000Y-105090000D02*
X141700000Y-105090000D01*
X136150000Y-105090000D02*
X135100000Y-106140000D01*
X135100000Y-106140000D02*
X132420000Y-106140000D01*
X132420000Y-106140000D02*
X131090000Y-104810000D01*
X137950000Y-105090000D02*
X136150000Y-105090000D01*
X137358000Y-83510000D02*
X137358000Y-82812000D01*
X137740000Y-82430000D02*
X138940000Y-82430000D01*
X137358000Y-82812000D02*
X137740000Y-82430000D01*
X139380000Y-82430000D02*
X140100000Y-83150000D01*
X140100000Y-83150000D02*
X140100000Y-83450000D01*
X138940000Y-82430000D02*
X139380000Y-82430000D01*
X145885596Y-114789404D02*
X141940000Y-114789404D01*
X149354529Y-111320471D02*
X145885596Y-114789404D01*
X149354529Y-111304942D02*
X149354529Y-111320471D01*
X149354529Y-111304942D02*
X149345058Y-111304942D01*
X141889404Y-114789404D02*
X140160000Y-113060000D01*
X141940000Y-114789404D02*
X141889404Y-114789404D01*
X140150000Y-113060000D02*
X139450000Y-112360000D01*
X139450000Y-112360000D02*
X139450000Y-111440000D01*
X140160000Y-113060000D02*
X140150000Y-113060000D01*
X135360000Y-107800000D02*
X134530000Y-108630000D01*
X134530000Y-108630000D02*
X132370000Y-108630000D01*
X132370000Y-108630000D02*
X131090000Y-107350000D01*
X138200000Y-107800000D02*
X135360000Y-107800000D01*
X135840000Y-112090000D02*
X135840000Y-110970000D01*
X137465000Y-113715000D02*
X135840000Y-112090000D01*
X150050000Y-113450000D02*
X150050000Y-114600000D01*
X150769818Y-112730182D02*
X150050000Y-113450000D01*
X147217202Y-117067202D02*
X147480000Y-117330000D01*
X147480000Y-117330000D02*
X148530000Y-117330000D01*
X138495000Y-113715000D02*
X141080000Y-116300000D01*
X141080000Y-116300000D02*
X146450000Y-116300000D01*
X146450000Y-116300000D02*
X147217202Y-117067202D01*
X137465000Y-113715000D02*
X138495000Y-113715000D01*
X149708351Y-111658765D02*
X149691235Y-111658765D01*
X149691235Y-111658765D02*
X146025000Y-115325000D01*
X138560000Y-112320000D02*
X139280000Y-113040000D01*
X138560000Y-112190000D02*
X138560000Y-112320000D01*
X141565000Y-115325000D02*
X139280000Y-113040000D01*
X141830000Y-115325000D02*
X141565000Y-115325000D01*
X146025000Y-115325000D02*
X141830000Y-115325000D01*
X135530000Y-109150000D02*
X135380000Y-109300000D01*
X138120000Y-109150000D02*
X135530000Y-109150000D01*
X151097743Y-113072257D02*
X150530000Y-113640000D01*
X150530000Y-113640000D02*
X150530000Y-113970000D01*
X150530000Y-113970000D02*
X151160000Y-114600000D01*
X151160000Y-114600000D02*
X151170000Y-114600000D01*
X149630000Y-117730000D02*
X149200000Y-118160000D01*
X149200000Y-118160000D02*
X147602798Y-118160000D01*
X147602798Y-118160000D02*
X146200000Y-116757202D01*
X146200000Y-116757202D02*
X140835000Y-116757202D01*
X140835000Y-116757202D02*
X138277798Y-114200000D01*
X138277798Y-114200000D02*
X136840000Y-114200000D01*
X136840000Y-114200000D02*
X136490000Y-113850000D01*
X136490000Y-113850000D02*
X135620000Y-113850000D01*
X150240000Y-117730000D02*
X149630000Y-117730000D01*
X149000707Y-110951120D02*
X149000707Y-110929293D01*
X149000707Y-110929293D02*
X150170000Y-109760000D01*
X152740000Y-105110000D02*
X152740000Y-102580000D01*
X152410000Y-105440000D02*
X152740000Y-105110000D01*
X152410000Y-106620000D02*
X152410000Y-105440000D01*
X150900000Y-108130000D02*
X152410000Y-106620000D01*
X150900000Y-108600000D02*
X150900000Y-108130000D01*
X150170000Y-109330000D02*
X150900000Y-108600000D01*
X150170000Y-109760000D02*
X150170000Y-109330000D01*
X152740000Y-102580000D02*
X152740000Y-101460000D01*
X149000707Y-110951120D02*
X148998880Y-110951120D01*
X148998880Y-110951120D02*
X145617798Y-114332202D01*
X137525000Y-110100000D02*
X136160000Y-110100000D01*
X145617798Y-114332202D02*
X142530000Y-114332202D01*
X149000707Y-110951120D02*
X148973880Y-110951120D01*
X149000707Y-110951120D02*
X149000707Y-110949293D01*
X142222202Y-114332202D02*
X141160000Y-113270000D01*
X140350000Y-110660000D02*
X139790000Y-110100000D01*
X139790000Y-110100000D02*
X137525000Y-110100000D01*
X142530000Y-114332202D02*
X142222202Y-114332202D01*
X147250000Y-83750000D02*
X148600000Y-83750000D01*
X147050000Y-83950000D02*
X147250000Y-83750000D01*
X141160000Y-113260000D02*
X140350000Y-112450000D01*
X140350000Y-112450000D02*
X140350000Y-110660000D01*
X141160000Y-113270000D02*
X141160000Y-113260000D01*
X135400000Y-110100000D02*
X134290000Y-111210000D01*
X134290000Y-111210000D02*
X132310000Y-111210000D01*
X132310000Y-111210000D02*
X131090000Y-112430000D01*
X136160000Y-110100000D02*
X135400000Y-110100000D01*
X156427379Y-110597298D02*
X156427379Y-110597379D01*
X160660000Y-114700000D02*
X160530000Y-114700000D01*
X156427379Y-110597379D02*
X157440000Y-111610000D01*
X160530000Y-114700000D02*
X157440000Y-111610000D01*
X152350000Y-117357202D02*
X154417202Y-117357202D01*
X154417202Y-117357202D02*
X155280000Y-118220000D01*
X155280000Y-118220000D02*
X160640000Y-118220000D01*
X160640000Y-118220000D02*
X160800000Y-118060000D01*
X147496216Y-118700000D02*
X150400000Y-118700000D01*
X146010620Y-117214404D02*
X147496216Y-118700000D01*
X140604404Y-117214404D02*
X146010620Y-117214404D01*
X138090000Y-114700000D02*
X140604404Y-117214404D01*
X135130000Y-114700000D02*
X138090000Y-114700000D01*
X134810000Y-114380000D02*
X135130000Y-114700000D01*
X150400000Y-118700000D02*
X150670000Y-118700000D01*
X152012798Y-117357202D02*
X150670000Y-118700000D01*
X152350000Y-117357202D02*
X152012798Y-117357202D01*
X134810000Y-113610000D02*
X133630000Y-112430000D01*
X134810000Y-114380000D02*
X134810000Y-113610000D01*
X157487049Y-103172422D02*
X157487049Y-103172951D01*
X157487049Y-103172422D02*
X157477578Y-103172422D01*
X157487049Y-103172422D02*
X157487049Y-103192951D01*
X140063418Y-118640000D02*
X138320620Y-116897202D01*
X138320620Y-116897202D02*
X136302798Y-116897202D01*
X136302798Y-116897202D02*
X135800000Y-117400000D01*
X157487049Y-103192951D02*
X154370000Y-106310000D01*
X145379380Y-118640000D02*
X144880000Y-118640000D01*
X146810986Y-120071606D02*
X145379380Y-118640000D01*
X151988394Y-120071606D02*
X146810986Y-120071606D01*
X152850000Y-119210000D02*
X151988394Y-120071606D01*
X153160000Y-111430000D02*
X152820000Y-111770000D01*
X153160000Y-109930000D02*
X153160000Y-111430000D01*
X152820000Y-109590000D02*
X153160000Y-109930000D01*
X152820000Y-108980000D02*
X152820000Y-109590000D01*
X154370000Y-107430000D02*
X152820000Y-108980000D01*
X154370000Y-106310000D02*
X154370000Y-107430000D01*
X144880000Y-118640000D02*
X140063418Y-118640000D01*
X161850000Y-115070000D02*
X161360000Y-115560000D01*
X161360000Y-115560000D02*
X160320000Y-115560000D01*
X160320000Y-115560000D02*
X159616709Y-114856709D01*
X159616709Y-114856709D02*
X159616709Y-114494272D01*
X159616709Y-114494272D02*
X156073557Y-110951120D01*
X161850000Y-114610000D02*
X161850000Y-115070000D01*
X162000000Y-118140000D02*
X161270000Y-118870000D01*
X161270000Y-118870000D02*
X160230000Y-118870000D01*
X160230000Y-118870000D02*
X160040000Y-118680000D01*
X160040000Y-118680000D02*
X154990000Y-118680000D01*
X154990000Y-118680000D02*
X154190000Y-117880000D01*
X154190000Y-117880000D02*
X152210000Y-117880000D01*
X152210000Y-117880000D02*
X150932798Y-119157202D01*
X150932798Y-119157202D02*
X147306836Y-119157202D01*
X147306836Y-119157202D02*
X145821240Y-117671606D01*
X145821240Y-117671606D02*
X140415024Y-117671606D01*
X140415024Y-117671606D02*
X137933418Y-115190000D01*
X137933418Y-115190000D02*
X134660000Y-115190000D01*
X162000000Y-117970000D02*
X162000000Y-118140000D01*
X133850000Y-115190000D02*
X133630000Y-114970000D01*
X134660000Y-115190000D02*
X133850000Y-115190000D01*
X135590000Y-118520000D02*
X134590000Y-118520000D01*
X132420000Y-118840000D02*
X131090000Y-117510000D01*
X134270000Y-118840000D02*
X132420000Y-118840000D01*
X134590000Y-118520000D02*
X134270000Y-118840000D01*
X152680000Y-110360000D02*
X152680000Y-110720000D01*
X152680000Y-110720000D02*
X151690000Y-111710000D01*
X152680000Y-110110000D02*
X152340000Y-109770000D01*
X152680000Y-110360000D02*
X152680000Y-110110000D01*
X153907202Y-106250000D02*
X153907202Y-106032798D01*
X153907202Y-106032798D02*
X155720000Y-104220000D01*
X157121400Y-102818600D02*
X155720000Y-104220000D01*
X153907202Y-106250000D02*
X153907202Y-107050000D01*
X153907202Y-107222798D02*
X152670000Y-108460000D01*
X153907202Y-107050000D02*
X153907202Y-107222798D01*
X152670000Y-108470000D02*
X152340000Y-108800000D01*
X152340000Y-108800000D02*
X152340000Y-109480000D01*
X152670000Y-108460000D02*
X152670000Y-108470000D01*
X152340000Y-109480000D02*
X152340000Y-109770000D01*
X157133227Y-102818600D02*
X157101400Y-102818600D01*
X157133227Y-102818600D02*
X157121400Y-102818600D01*
X143050000Y-119590000D02*
X139520000Y-119590000D01*
X139520000Y-119590000D02*
X138450000Y-118520000D01*
X138450000Y-118520000D02*
X135590000Y-118520000D01*
X144450000Y-119590000D02*
X144750000Y-119890000D01*
X143050000Y-119590000D02*
X144450000Y-119590000D01*
X163290000Y-117440000D02*
X163290000Y-118000000D01*
X163290000Y-118000000D02*
X162830000Y-118460000D01*
X161760000Y-115880000D02*
X163030000Y-114610000D01*
X161760000Y-115890000D02*
X161530000Y-116120000D01*
X161530000Y-116120000D02*
X160490000Y-116120000D01*
X161760000Y-115880000D02*
X161760000Y-115890000D01*
X155719735Y-111304942D02*
X155754942Y-111304942D01*
X155734942Y-111304942D02*
X159000000Y-114570000D01*
X155719735Y-111304942D02*
X155734942Y-111304942D01*
X159530000Y-115480000D02*
X160170000Y-116120000D01*
X160170000Y-116120000D02*
X160490000Y-116120000D01*
X159000000Y-114940000D02*
X159530000Y-115470000D01*
X159530000Y-115470000D02*
X159530000Y-115480000D01*
X159000000Y-114570000D02*
X159000000Y-114940000D01*
X162830000Y-118460000D02*
X161860000Y-119430000D01*
X161860000Y-119430000D02*
X159882798Y-119430000D01*
X159882798Y-119430000D02*
X159590000Y-119137202D01*
X159590000Y-119137202D02*
X154740000Y-119137202D01*
X154740000Y-119137202D02*
X153942798Y-118340000D01*
X153942798Y-118340000D02*
X152396582Y-118340000D01*
X152396582Y-118340000D02*
X151122178Y-119614404D01*
X151122178Y-119614404D02*
X147015596Y-119614404D01*
X147015596Y-119614404D02*
X145541192Y-118140000D01*
X145541192Y-118140000D02*
X140210000Y-118140000D01*
X140210000Y-118140000D02*
X138510000Y-116440000D01*
X138510000Y-116440000D02*
X134770000Y-116440000D01*
X134700000Y-116440000D02*
X133630000Y-117510000D01*
X134770000Y-116440000D02*
X134700000Y-116440000D01*
X156779405Y-102464778D02*
X156775222Y-102464778D01*
X156779405Y-102464778D02*
X156779405Y-102470595D01*
X153450000Y-105770000D02*
X153450000Y-107020000D01*
X153450000Y-107020000D02*
X151860000Y-108610000D01*
X151860000Y-108610000D02*
X151860000Y-110080000D01*
X151860000Y-110080000D02*
X151160000Y-110780000D01*
X151160000Y-110780000D02*
X150740000Y-110780000D01*
X143520000Y-120390000D02*
X143177202Y-120047202D01*
X143177202Y-120047202D02*
X139217202Y-120047202D01*
X139217202Y-120047202D02*
X138147202Y-118977202D01*
X138147202Y-118977202D02*
X135852798Y-118977202D01*
X135852798Y-118977202D02*
X135430000Y-119400000D01*
X156755222Y-102464778D02*
X153450000Y-105770000D01*
X156779405Y-102464778D02*
X156755222Y-102464778D01*
X154720000Y-108540000D02*
X154720000Y-107920000D01*
X156540000Y-106100000D02*
X158160000Y-106100000D01*
X154720000Y-107920000D02*
X156540000Y-106100000D01*
X164680000Y-100390000D02*
X172840000Y-100390000D01*
X172840000Y-100390000D02*
X174045000Y-99185000D01*
X146171926Y-104587711D02*
X146170509Y-104587711D01*
X146171926Y-104587711D02*
X146163307Y-104587711D01*
X145498619Y-103914404D02*
X146171926Y-104587711D01*
X144175596Y-103914404D02*
X145498619Y-103914404D01*
X143830000Y-104260000D02*
X144175596Y-103914404D01*
X143800000Y-104260000D02*
X143830000Y-104260000D01*
X146720000Y-80150000D02*
X146140000Y-79570000D01*
X138757202Y-105810000D02*
X142210000Y-105810000D01*
X138710000Y-105857202D02*
X138757202Y-105810000D01*
X138710000Y-105880000D02*
X138710000Y-105857202D01*
X142250000Y-105810000D02*
X143800000Y-104260000D01*
X142210000Y-105810000D02*
X142250000Y-105810000D01*
X148600000Y-80150000D02*
X146720000Y-80150000D01*
X140000000Y-79570000D02*
X139810000Y-79760000D01*
X146140000Y-79570000D02*
X140000000Y-79570000D01*
X171505000Y-101725000D02*
X171427798Y-101725000D01*
X170922798Y-101220000D02*
X165590000Y-101220000D01*
X171000000Y-101220000D02*
X171505000Y-101725000D01*
X145819900Y-104939737D02*
X145818131Y-104939737D01*
X145818131Y-104939737D02*
X145250000Y-104371606D01*
X145250000Y-104371606D02*
X145170000Y-104371606D01*
X144360000Y-104910000D02*
X144360000Y-105450000D01*
X144898394Y-104371606D02*
X144360000Y-104910000D01*
X145170000Y-104371606D02*
X144898394Y-104371606D01*
X155720000Y-108000000D02*
X156550000Y-107170000D01*
X156550000Y-107170000D02*
X157830000Y-107170000D01*
X155710000Y-108010000D02*
X155720000Y-108020000D01*
X155720000Y-108020000D02*
X155710000Y-108010000D01*
X156550000Y-107170000D02*
X157830000Y-107170000D01*
X155720000Y-108000000D02*
X156550000Y-107170000D01*
X155720000Y-108020000D02*
X155720000Y-108000000D01*
X159254364Y-107772162D02*
X159757202Y-108275000D01*
X159757202Y-108275000D02*
X160130000Y-108275000D01*
X170250000Y-106825000D02*
X170250000Y-105520000D01*
X170250000Y-105520000D02*
X171505000Y-104265000D01*
X160295000Y-108275000D02*
X160800000Y-107770000D01*
X160800000Y-107770000D02*
X163940000Y-107770000D01*
X160130000Y-108275000D02*
X160295000Y-108275000D01*
X169620000Y-107455000D02*
X170250000Y-106825000D01*
X169310000Y-107770000D02*
X169620000Y-107460000D01*
X169620000Y-107460000D02*
X169620000Y-107455000D01*
X163940000Y-107770000D02*
X169310000Y-107770000D01*
X163720000Y-102150000D02*
X163720000Y-102550000D01*
X164470000Y-103300000D02*
X167980000Y-103300000D01*
X163720000Y-102550000D02*
X164470000Y-103300000D01*
X169660000Y-103990000D02*
X170690000Y-102960000D01*
X168670000Y-103990000D02*
X169660000Y-103990000D01*
X167980000Y-103300000D02*
X168670000Y-103990000D01*
X155365913Y-101051286D02*
X155358714Y-101051286D01*
X155358714Y-101051286D02*
X154180000Y-102180000D01*
X154180000Y-102180000D02*
X154040000Y-102180000D01*
X154237199Y-102180000D02*
X155365913Y-101051286D01*
X154040000Y-102180000D02*
X154237199Y-102180000D01*
X172740000Y-102960000D02*
X174045000Y-104265000D01*
X170690000Y-102960000D02*
X172740000Y-102960000D01*
X158909542Y-108122340D02*
X159537202Y-108750000D01*
X159537202Y-108750000D02*
X160160000Y-108750000D01*
X160466582Y-108750000D02*
X160989380Y-108227202D01*
X160989380Y-108227202D02*
X163727202Y-108227202D01*
X160160000Y-108750000D02*
X160466582Y-108750000D01*
X170082798Y-108227202D02*
X171505000Y-106805000D01*
X163727202Y-108227202D02*
X170082798Y-108227202D01*
X158551162Y-108476162D02*
X159420000Y-109345000D01*
X159420000Y-109345000D02*
X160340000Y-109345000D01*
X160589404Y-109345000D02*
X161250000Y-108684404D01*
X161250000Y-108684404D02*
X163524404Y-108684404D01*
X160340000Y-109345000D02*
X160589404Y-109345000D01*
X170844404Y-108684404D02*
X171505000Y-109345000D01*
X163524404Y-108684404D02*
X170844404Y-108684404D01*
X158212186Y-108829984D02*
X159766101Y-110383899D01*
X170445000Y-110825000D02*
X171505000Y-111885000D01*
X170003899Y-110383899D02*
X170445000Y-110825000D01*
X159766101Y-110383899D02*
X170003899Y-110383899D01*
X167070000Y-113990000D02*
X171070000Y-113990000D01*
X171070000Y-113990000D02*
X171505000Y-114425000D01*
X171070000Y-113990000D02*
X171505000Y-114425000D01*
X166850000Y-109270000D02*
X167370000Y-109270000D01*
X161640000Y-109560000D02*
X161930000Y-109270000D01*
X161930000Y-109270000D02*
X166850000Y-109270000D01*
X167370000Y-109270000D02*
X167590000Y-109490000D01*
X147233393Y-109183806D02*
X147246194Y-109183806D01*
X147246194Y-109183806D02*
X147950000Y-108480000D01*
X147950000Y-104990000D02*
X147920000Y-104960000D01*
X147950000Y-108480000D02*
X147950000Y-104990000D01*
X147233393Y-109183806D02*
X147236194Y-109183806D01*
X171030000Y-113950000D02*
X171505000Y-114425000D01*
X147233393Y-109183806D02*
X147233393Y-109176607D01*
X167300000Y-113120000D02*
X167800000Y-113120000D01*
X167030000Y-112850000D02*
X167300000Y-113120000D01*
X165980000Y-104130000D02*
X167660000Y-104130000D01*
X167660000Y-104130000D02*
X167700000Y-104170000D01*
X157858159Y-103526245D02*
X158490000Y-102894404D01*
X158490000Y-102890000D02*
X158930000Y-102450000D01*
X158930000Y-102450000D02*
X162700000Y-102450000D01*
X162700000Y-102450000D02*
X164380000Y-104130000D01*
X158490000Y-102894404D02*
X158490000Y-102890000D01*
X164380000Y-104130000D02*
X165980000Y-104130000D01*
X172740000Y-113120000D02*
X174045000Y-114425000D01*
X167800000Y-113120000D02*
X172740000Y-113120000D01*
X165590000Y-113315000D02*
X165745000Y-113315000D01*
X166220000Y-115020000D02*
X166620000Y-115420000D01*
X166220000Y-113790000D02*
X166220000Y-115020000D01*
X165745000Y-113315000D02*
X166220000Y-113790000D01*
X167520000Y-116300000D02*
X168185000Y-116965000D01*
X168185000Y-116965000D02*
X171505000Y-116965000D01*
X163990000Y-113310000D02*
X164050000Y-113310000D01*
X160577202Y-113310000D02*
X163990000Y-113310000D01*
X157158652Y-109891450D02*
X160577202Y-113310000D01*
X167500000Y-116300000D02*
X167510000Y-116300000D01*
X167170000Y-115970000D02*
X167500000Y-116300000D01*
X164050000Y-113310000D02*
X164055000Y-113315000D01*
X167510000Y-116300000D02*
X167520000Y-116300000D01*
X164055000Y-113315000D02*
X164625000Y-113315000D01*
X166620000Y-115420000D02*
X167170000Y-115970000D01*
X164625000Y-113315000D02*
X165590000Y-113315000D01*
X167450000Y-115070000D02*
X167450000Y-115240000D01*
X167930000Y-115720000D02*
X168740000Y-115720000D01*
X167450000Y-115240000D02*
X167930000Y-115720000D01*
X162270000Y-103050000D02*
X163500000Y-104280000D01*
X159007202Y-103050000D02*
X162270000Y-103050000D01*
X158194693Y-103862509D02*
X159007202Y-103050000D01*
X163980000Y-104750000D02*
X165500000Y-104750000D01*
X163510000Y-104280000D02*
X163980000Y-104750000D01*
X163500000Y-104280000D02*
X163510000Y-104280000D01*
X158194693Y-103880067D02*
X158194693Y-103862509D01*
X168740000Y-115720000D02*
X172800000Y-115720000D01*
X172800000Y-115720000D02*
X174045000Y-116965000D01*
X166450000Y-104750000D02*
X166780000Y-105080000D01*
X165500000Y-104750000D02*
X166450000Y-104750000D01*
X166590000Y-120450000D02*
X167640000Y-120450000D01*
X165560000Y-119420000D02*
X166590000Y-120450000D01*
X167640000Y-120450000D02*
X168840000Y-120450000D01*
X170945000Y-119505000D02*
X170000000Y-120450000D01*
X170000000Y-120450000D02*
X168840000Y-120450000D01*
X161570000Y-116730000D02*
X161840000Y-116730000D01*
X163180000Y-115390000D02*
X164130000Y-115390000D01*
X161840000Y-116730000D02*
X163180000Y-115390000D01*
X171505000Y-119505000D02*
X170945000Y-119505000D01*
X155365913Y-111658765D02*
X155368765Y-111658765D01*
X160070000Y-116730000D02*
X161570000Y-116730000D01*
X158470000Y-114770000D02*
X158470000Y-115130000D01*
X158470000Y-115130000D02*
X160070000Y-116730000D01*
X155365913Y-111665913D02*
X158470000Y-114770000D01*
X155365913Y-111658765D02*
X155365913Y-111665913D01*
X165440000Y-115660000D02*
X166050000Y-115660000D01*
X165170000Y-115390000D02*
X165440000Y-115660000D01*
X165170000Y-114350000D02*
X165170000Y-115390000D01*
X165390000Y-114130000D02*
X165170000Y-114350000D01*
X166050000Y-115660000D02*
X167870000Y-117480000D01*
X165390000Y-105360000D02*
X163580000Y-105360000D01*
X163580000Y-105360000D02*
X162980000Y-104760000D01*
X159145000Y-103605000D02*
X161365000Y-103605000D01*
X162268291Y-104048291D02*
X162980000Y-104760000D01*
X158548515Y-104201485D02*
X159145000Y-103605000D01*
X161825000Y-103605000D02*
X162268291Y-104048291D01*
X161365000Y-103605000D02*
X161825000Y-103605000D01*
X165500000Y-105360000D02*
X165980000Y-105840000D01*
X165390000Y-105360000D02*
X165500000Y-105360000D01*
X167870000Y-117480000D02*
X168960000Y-117480000D01*
X168960000Y-117480000D02*
X169370000Y-117480000D01*
X169370000Y-117480000D02*
X170150000Y-118260000D01*
X170150000Y-118260000D02*
X172800000Y-118260000D01*
X172800000Y-118260000D02*
X174045000Y-119505000D01*
X159254364Y-104939737D02*
X159254364Y-104915636D01*
X160880000Y-104320000D02*
X161240000Y-104680000D01*
X159850000Y-104320000D02*
X160880000Y-104320000D01*
X159254364Y-104915636D02*
X159850000Y-104320000D01*
X158902338Y-104587711D02*
X158902338Y-104597662D01*
X158360000Y-105130000D02*
X156890000Y-105130000D01*
X158902289Y-104587711D02*
X158360000Y-105130000D01*
X158902338Y-104587711D02*
X158902289Y-104587711D01*
X143080000Y-106610000D02*
X139540000Y-106610000D01*
X144840000Y-108370000D02*
X143080000Y-106610000D01*
X145240000Y-108370000D02*
X144840000Y-108370000D01*
X145819900Y-107790100D02*
X145240000Y-108370000D01*
X145819900Y-107770314D02*
X145819900Y-107790100D01*
X146171926Y-108122340D02*
X146171926Y-108108074D01*
X145450000Y-108850000D02*
X144673418Y-108850000D01*
X146171926Y-108128074D02*
X145450000Y-108850000D01*
X140660000Y-107110000D02*
X140340000Y-107430000D01*
X142933418Y-107110000D02*
X140660000Y-107110000D01*
X144673418Y-108850000D02*
X142933418Y-107110000D01*
X146171926Y-108122340D02*
X146171926Y-108128074D01*
X146525749Y-108476162D02*
X146525749Y-108494251D01*
X144484038Y-109307202D02*
X143096836Y-107920000D01*
X143096836Y-107920000D02*
X141810000Y-107920000D01*
X146525749Y-108494251D02*
X145712798Y-109307202D01*
X145712798Y-109307202D02*
X144740000Y-109307202D01*
X144740000Y-109307202D02*
X144484038Y-109307202D01*
X147470000Y-107630000D02*
X147470000Y-106310000D01*
X147470000Y-106310000D02*
X147070000Y-105910000D01*
X146880016Y-108829984D02*
X147465000Y-108245000D01*
X146879571Y-108829984D02*
X146880016Y-108829984D01*
X147470000Y-107640000D02*
X147470000Y-107630000D01*
X147470000Y-107630000D02*
X147470000Y-107640000D01*
X147465000Y-107625000D02*
X147470000Y-107630000D01*
X147465000Y-108245000D02*
X147465000Y-107625000D01*
X141810000Y-84180000D02*
X141270000Y-84720000D01*
X142580000Y-84180000D02*
X141810000Y-84180000D01*
X140760000Y-84180000D02*
X139930000Y-85010000D01*
X139930000Y-85010000D02*
X138862000Y-85010000D01*
X142580000Y-84180000D02*
X140760000Y-84180000D01*
X138882000Y-84990000D02*
X138862000Y-85010000D01*
X138882000Y-83510000D02*
X138882000Y-84990000D01*
X140010000Y-85980000D02*
X141270000Y-84720000D01*
X137620000Y-85980000D02*
X140010000Y-85980000D01*
X135440000Y-87060000D02*
X135440000Y-85950000D01*
X135080000Y-87420000D02*
X135440000Y-87060000D01*
X133915000Y-87420000D02*
X135080000Y-87420000D01*
X136520000Y-85980000D02*
X135440000Y-87060000D01*
X137620000Y-85980000D02*
X136520000Y-85980000D01*
X145790000Y-80990000D02*
X146210000Y-81410000D01*
X146210000Y-81410000D02*
X146210000Y-82060000D01*
X146210000Y-82060000D02*
X145990000Y-82280000D01*
X145990000Y-82280000D02*
X145280000Y-82280000D01*
X145302000Y-80990000D02*
X145790000Y-80990000D01*
X146912000Y-90038000D02*
X146370000Y-90580000D01*
X146370000Y-90580000D02*
X144800000Y-90580000D01*
X147600000Y-90038000D02*
X146912000Y-90038000D01*
X148388000Y-90038000D02*
X148750000Y-90400000D01*
X148750000Y-90400000D02*
X148750000Y-92078418D01*
X148750000Y-92078418D02*
X149882202Y-93210620D01*
X149882202Y-93210620D02*
X149882202Y-99102204D01*
X149882202Y-99102204D02*
X150769818Y-99989820D01*
X147600000Y-90038000D02*
X148388000Y-90038000D01*
X147600000Y-91562000D02*
X147600000Y-92888000D01*
X148913000Y-92888000D02*
X147600000Y-92888000D01*
X149425000Y-93400000D02*
X148913000Y-92888000D01*
X149425000Y-99350000D02*
X149425000Y-93400000D01*
X150415996Y-100340996D02*
X149425000Y-99350000D01*
X140642000Y-98340000D02*
X140642000Y-98172000D01*
X138630000Y-97080000D02*
X138970000Y-97420000D01*
X138970000Y-97420000D02*
X140340000Y-97420000D01*
X140340000Y-97420000D02*
X140642000Y-97722000D01*
X140642000Y-97722000D02*
X140642000Y-98340000D01*
X138630000Y-95780000D02*
X138630000Y-97080000D01*
X140692000Y-98290000D02*
X140642000Y-98340000D01*
X141888000Y-98290000D02*
X140692000Y-98290000D01*
X148646885Y-102112752D02*
X148642752Y-102112752D01*
X142230000Y-95780000D02*
X143010000Y-95780000D01*
X143360000Y-95780000D02*
X143890000Y-96310000D01*
X143890000Y-96310000D02*
X143890000Y-97380000D01*
X143890000Y-97380000D02*
X144382000Y-97872000D01*
X144382000Y-97872000D02*
X145140000Y-97872000D01*
X142230000Y-95780000D02*
X143360000Y-95780000D01*
X145140000Y-98605867D02*
X148646885Y-102112752D01*
X145140000Y-97872000D02*
X145140000Y-98605867D01*
X133915000Y-88070000D02*
X135160000Y-88070000D01*
X140460000Y-101940000D02*
X138980000Y-101940000D01*
X138980000Y-101940000D02*
X138780000Y-101740000D01*
X146360000Y-101940000D02*
X147587215Y-103167215D01*
X143610000Y-101940000D02*
X146360000Y-101940000D01*
X143610000Y-101940000D02*
X140460000Y-101940000D01*
X135500000Y-88070000D02*
X135750000Y-87820000D01*
X135750000Y-87820000D02*
X138130000Y-87820000D01*
X138130000Y-87820000D02*
X138500000Y-87450000D01*
X138500000Y-87450000D02*
X139310000Y-87450000D01*
X139310000Y-87450000D02*
X140120000Y-88260000D01*
X140120000Y-88260000D02*
X140120000Y-88700000D01*
X135160000Y-88070000D02*
X135500000Y-88070000D01*
X138720000Y-102540000D02*
X138390000Y-102540000D01*
X138390000Y-102540000D02*
X137620000Y-101770000D01*
X138720000Y-102540000D02*
X143050000Y-102540000D01*
X143050000Y-102540000D02*
X143110000Y-102480000D01*
X144560000Y-102480000D02*
X143110000Y-102480000D01*
X146180000Y-102480000D02*
X144560000Y-102480000D01*
X147226245Y-103526245D02*
X146180000Y-102480000D01*
X133915000Y-88720000D02*
X135400000Y-88720000D01*
X135570000Y-88720000D02*
X135870000Y-88420000D01*
X135870000Y-88420000D02*
X138890000Y-88420000D01*
X138890000Y-88420000D02*
X138990000Y-88320000D01*
X135400000Y-88720000D02*
X135570000Y-88720000D01*
X142798000Y-88177020D02*
X142910980Y-88290000D01*
X142798000Y-86630000D02*
X142798000Y-88177020D01*
X148294859Y-102454859D02*
X146730000Y-100890000D01*
X145560000Y-99720000D02*
X146730000Y-100890000D01*
X144130000Y-98290000D02*
X145560000Y-99720000D01*
X143412000Y-98290000D02*
X144130000Y-98290000D01*
X169440000Y-106390000D02*
X169330000Y-106390000D01*
X169330000Y-106390000D02*
X168407202Y-107312798D01*
X163572798Y-107312798D02*
X168407202Y-107312798D01*
X162240000Y-105700000D02*
X162240000Y-105980000D01*
X162240000Y-105980000D02*
X163572798Y-107312798D01*
X150100000Y-102690000D02*
X149620000Y-103170000D01*
X150100000Y-102150000D02*
X150100000Y-102690000D01*
X149354529Y-101405108D02*
X149355108Y-101405108D01*
X149355108Y-101405108D02*
X150100000Y-102150000D01*
X149355108Y-101405108D02*
X150100000Y-102150000D01*
X147570000Y-99620000D02*
X147570000Y-97932000D01*
X149354529Y-101404529D02*
X147570000Y-99620000D01*
X149354529Y-101405108D02*
X149365108Y-101405108D01*
X149354529Y-101405108D02*
X149354529Y-101414529D01*
X146742000Y-97932000D02*
X146520000Y-97710000D01*
X146520000Y-97710000D02*
X146520000Y-95380000D01*
X142880000Y-77340000D02*
X142210000Y-76640000D01*
X142210000Y-76640000D02*
X137537500Y-76640000D01*
X147570000Y-97932000D02*
X146742000Y-97932000D01*
X146520000Y-94890000D02*
X145920000Y-94290000D01*
X145920000Y-94290000D02*
X144670000Y-94290000D01*
X146520000Y-95380000D02*
X146520000Y-94890000D01*
X153750000Y-97762000D02*
X153762000Y-97762000D01*
X154600000Y-98612000D02*
X153750000Y-97762000D01*
X154600000Y-98990000D02*
X154600000Y-98612000D01*
X153952420Y-99637580D02*
X154600000Y-98990000D01*
X162870980Y-92050000D02*
X162940980Y-91980000D01*
X161042000Y-92050000D02*
X162870980Y-92050000D01*
X134917202Y-120527202D02*
X134107202Y-120527202D01*
X134107202Y-120527202D02*
X133630000Y-120050000D01*
X166330000Y-102500000D02*
X167060000Y-102500000D01*
X165210000Y-102500000D02*
X166330000Y-102500000D01*
X163212000Y-100502000D02*
X165210000Y-102500000D01*
X167060000Y-102500000D02*
X167540000Y-102020000D01*
X163800000Y-118860000D02*
X161550000Y-121110000D01*
X161550000Y-121110000D02*
X144830000Y-121110000D01*
X144830000Y-121110000D02*
X144650000Y-121290000D01*
X144650000Y-121290000D02*
X143010000Y-121290000D01*
X143010000Y-121290000D02*
X142247202Y-120527202D01*
X142247202Y-120527202D02*
X134917202Y-120527202D01*
X163810000Y-118860000D02*
X164390000Y-118280000D01*
X164390000Y-118280000D02*
X164910000Y-118280000D01*
X163800000Y-118860000D02*
X163810000Y-118860000D01*
X162920000Y-100502000D02*
X163212000Y-100502000D01*
X159450000Y-96094404D02*
X159590000Y-96094404D01*
X161870000Y-96260000D02*
X161870000Y-96760000D01*
X161374404Y-95764404D02*
X161870000Y-96260000D01*
X159920000Y-95764404D02*
X161374404Y-95764404D01*
X159590000Y-96094404D02*
X159920000Y-95764404D01*
X162062000Y-100502000D02*
X162920000Y-100502000D01*
X161870000Y-96760000D02*
X161870000Y-100310000D01*
X161870000Y-100310000D02*
X162062000Y-100502000D01*
X155012091Y-100697464D02*
X155032536Y-100697464D01*
X155032536Y-100697464D02*
X155984404Y-99745596D01*
X156565596Y-96094404D02*
X159450000Y-96094404D01*
X155984404Y-96675596D02*
X156565596Y-96094404D01*
X155984404Y-99745596D02*
X155984404Y-96675596D01*
X155012091Y-100697464D02*
X155012091Y-100697909D01*
X157759000Y-93980000D02*
X158195000Y-93980000D01*
X158550000Y-93625000D02*
X159488000Y-93625000D01*
X158195000Y-93980000D02*
X158550000Y-93625000D01*
X162340000Y-88890000D02*
X162420000Y-88810000D01*
X159470000Y-88890000D02*
X162340000Y-88890000D01*
X156440000Y-89640000D02*
X156440000Y-89300000D01*
X156850000Y-88890000D02*
X159470000Y-88890000D01*
X156440000Y-89300000D02*
X156850000Y-88890000D01*
X165238000Y-95682000D02*
X165238000Y-96700000D01*
X165238000Y-95682000D02*
X165690000Y-95230000D01*
X158190000Y-90140000D02*
X158550000Y-90500000D01*
X158550000Y-90500000D02*
X159488000Y-90500000D01*
X157735000Y-90140000D02*
X158190000Y-90140000D01*
X155070000Y-96580000D02*
X155070000Y-96250000D01*
X159000000Y-95180000D02*
X159330000Y-94850000D01*
X156140000Y-95180000D02*
X159000000Y-95180000D01*
X155070000Y-96250000D02*
X156140000Y-95180000D01*
X154304446Y-99989820D02*
X154304446Y-99975554D01*
X154304446Y-99975554D02*
X155070000Y-99210000D01*
X155070000Y-99210000D02*
X155070000Y-96580000D01*
X159330000Y-94850000D02*
X161900000Y-94850000D01*
X161900000Y-94850000D02*
X162554404Y-95504404D01*
X166812000Y-98450000D02*
X170770000Y-98450000D01*
X170770000Y-98450000D02*
X171505000Y-99185000D01*
X163810000Y-96827202D02*
X163810000Y-96827202D01*
X163810000Y-96827202D02*
X163810000Y-97970000D01*
X163980000Y-98140000D02*
X163980000Y-98146582D01*
X163980000Y-98146582D02*
X164530000Y-98696582D01*
X164530000Y-98696582D02*
X164530000Y-99280000D01*
X164530000Y-99280000D02*
X164810000Y-99560000D01*
X164810000Y-99560000D02*
X166540000Y-99560000D01*
X166540000Y-99560000D02*
X166812000Y-99288000D01*
X166812000Y-99288000D02*
X166812000Y-98450000D01*
X163810000Y-97970000D02*
X163980000Y-98140000D01*
X162554404Y-95504404D02*
X163397202Y-95504404D01*
X163397202Y-95504404D02*
X163812798Y-95920000D01*
X163812798Y-95920000D02*
X163812798Y-96827202D01*
X163812798Y-96827202D02*
X163810000Y-96827202D01*
X159458000Y-91990000D02*
X159518000Y-92050000D01*
X157765000Y-91990000D02*
X159458000Y-91990000D01*
X132140000Y-82920000D02*
X133790000Y-84570000D01*
X131240000Y-82920000D02*
X132140000Y-82920000D01*
X132990000Y-84570000D02*
X131240000Y-86320000D01*
X133790000Y-84570000D02*
X132990000Y-84570000D01*
X132650000Y-92870000D02*
X133790000Y-92870000D01*
X131240000Y-91460000D02*
X132650000Y-92870000D01*
X131240000Y-91120000D02*
X131240000Y-91460000D01*
X131240000Y-94280000D02*
X132650000Y-92870000D01*
X131240000Y-94520000D02*
X131240000Y-94280000D01*
X133790000Y-94910000D02*
X133830000Y-94950000D01*
X133450000Y-82800000D02*
X133790000Y-83140000D01*
X133790000Y-83140000D02*
X133790000Y-84570000D01*
X133790000Y-92870000D02*
X133790000Y-94910000D01*
X135252000Y-84570000D02*
X135760000Y-84062000D01*
X133790000Y-84570000D02*
X135252000Y-84570000D01*
X156464000Y-93480000D02*
X155320000Y-93480000D01*
X155320000Y-93480000D02*
X155250000Y-93550000D01*
X162990000Y-97620000D02*
X162920000Y-97690000D01*
X162920000Y-97690000D02*
X162920000Y-98978000D01*
X164270000Y-96030000D02*
X164270000Y-95530000D01*
X164270000Y-95530000D02*
X164410000Y-95390000D01*
X165288000Y-98450000D02*
X165250000Y-98450000D01*
X165288000Y-98450000D02*
X165288000Y-98428000D01*
X165288000Y-98450000D02*
X165220000Y-98450000D01*
X156464000Y-91482798D02*
X156470000Y-91490000D01*
D37*
X156470000Y-91490000D02*
X155550000Y-91490000D01*
X155550000Y-91490000D02*
X155420000Y-91620000D01*
X164270000Y-95530000D02*
X164410000Y-95390000D01*
D36*
X164270000Y-96030000D02*
X164270000Y-96490000D01*
X164270000Y-97470000D02*
X165250000Y-98450000D01*
X164270000Y-96490000D02*
X164270000Y-97470000D01*
X161012000Y-93625000D02*
X162950980Y-93625000D01*
X162950980Y-93625000D02*
X163000980Y-93575000D01*
X162950980Y-93500000D02*
X163000980Y-93450000D01*
X162850980Y-90500000D02*
X162950980Y-90400000D01*
X161012000Y-90500000D02*
X162850980Y-90500000D01*
X161410000Y-95307202D02*
X161617202Y-95307202D01*
X155527202Y-99492798D02*
X155527202Y-96910000D01*
X154676358Y-100343642D02*
X155527202Y-99492798D01*
X155527202Y-96439380D02*
X156329380Y-95637202D01*
X156329380Y-95637202D02*
X159260000Y-95637202D01*
X159260000Y-95637202D02*
X159590000Y-95307202D01*
X159590000Y-95307202D02*
X161410000Y-95307202D01*
X155527202Y-96910000D02*
X155527202Y-96439380D01*
X167830000Y-96720000D02*
X167810000Y-96700000D01*
X167820000Y-96730000D02*
X167830000Y-96720000D01*
X162720000Y-96410000D02*
X162950000Y-96410000D01*
X161617202Y-95307202D02*
X162720000Y-96410000D01*
X154658269Y-100343642D02*
X154676358Y-100343642D01*
X171450000Y-96700000D02*
X171505000Y-96645000D01*
X166760000Y-96698000D02*
X166762000Y-96700000D01*
X154658269Y-100343642D02*
X154658269Y-100331731D01*
D37*
X171370000Y-96780000D02*
X171505000Y-96645000D01*
X171350000Y-96800000D02*
X171505000Y-96645000D01*
D36*
X167810000Y-96700000D02*
X167910000Y-96800000D01*
X167910000Y-96800000D02*
X171350000Y-96800000D01*
X166762000Y-96700000D02*
X167810000Y-96700000D01*
X171350000Y-96800000D02*
X171505000Y-96645000D01*
X166907620Y-78962000D02*
X167079620Y-78790000D01*
X165450000Y-78962000D02*
X166907620Y-78962000D01*
X164502000Y-77438000D02*
X164190000Y-77750000D01*
X164190000Y-77750000D02*
X163100000Y-77750000D01*
X165450000Y-77438000D02*
X164502000Y-77438000D01*
X162310000Y-117190000D02*
X162400000Y-117190000D01*
X165930000Y-116220000D02*
X166900000Y-117190000D01*
X163370000Y-116220000D02*
X165930000Y-116220000D01*
X162400000Y-117190000D02*
X163370000Y-116220000D01*
X168880000Y-118320000D02*
X169770000Y-119210000D01*
X168030000Y-118320000D02*
X168880000Y-118320000D01*
X166900000Y-117190000D02*
X168030000Y-118320000D01*
X153900000Y-116900000D02*
X150510000Y-116900000D01*
X148150000Y-114688000D02*
X148150000Y-113924760D01*
X148150000Y-113924760D02*
X150062173Y-112012587D01*
X149102000Y-116212000D02*
X149790000Y-116900000D01*
X149790000Y-116900000D02*
X150510000Y-116900000D01*
X148150000Y-116212000D02*
X149102000Y-116212000D01*
X159870000Y-117730000D02*
X160410000Y-117190000D01*
X160410000Y-117190000D02*
X162310000Y-117190000D01*
X155170000Y-117410000D02*
X155505000Y-117745000D01*
X155170000Y-114290000D02*
X155170000Y-117410000D01*
X153952420Y-113072420D02*
X155170000Y-114290000D01*
X153952420Y-113072257D02*
X153952420Y-113072420D01*
X154660000Y-116900000D02*
X155170000Y-117410000D01*
X153900000Y-116900000D02*
X154660000Y-116900000D01*
X147332000Y-116212000D02*
X146940000Y-115820000D01*
X146940000Y-115820000D02*
X141413418Y-115820000D01*
X141413418Y-115820000D02*
X138781709Y-113188291D01*
X148150000Y-116212000D02*
X147332000Y-116212000D01*
X138781709Y-113188291D02*
X138778291Y-113188291D01*
X138058291Y-113188291D02*
X136910000Y-112040000D01*
X138778291Y-113188291D02*
X138058291Y-113188291D01*
X159855000Y-117745000D02*
X159860000Y-117740000D01*
X159860000Y-117740000D02*
X159870000Y-117740000D01*
X159870000Y-117740000D02*
X159870000Y-117730000D01*
X155505000Y-117745000D02*
X159855000Y-117745000D01*
X135430000Y-102060000D02*
X135220000Y-102270000D01*
X135220000Y-102270000D02*
X133630000Y-102270000D01*
X148600000Y-78950000D02*
X140970000Y-78950000D01*
X139000000Y-78950000D02*
X138840000Y-79110000D01*
X140970000Y-78950000D02*
X139000000Y-78950000D01*
X161980000Y-119980000D02*
X161980000Y-119956582D01*
X166190000Y-117380000D02*
X168040000Y-119230000D01*
X164556582Y-117380000D02*
X166190000Y-117380000D01*
X161980000Y-119956582D02*
X164556582Y-117380000D01*
X149700000Y-115900000D02*
X151138000Y-115900000D01*
X149150000Y-115350000D02*
X149700000Y-115900000D01*
X149150000Y-113650000D02*
X149150000Y-115350000D01*
X150415996Y-112384004D02*
X149150000Y-113650000D01*
X155012091Y-112012587D02*
X155012091Y-112012091D01*
X153900000Y-115900000D02*
X154290000Y-115510000D01*
X154290000Y-115510000D02*
X154290000Y-114610000D01*
X152662000Y-115900000D02*
X153900000Y-115900000D01*
X155760000Y-119990000D02*
X156155596Y-119594404D01*
X156155596Y-119594404D02*
X159354404Y-119594404D01*
X159354404Y-119594404D02*
X159740000Y-119980000D01*
X159740000Y-119980000D02*
X161980000Y-119980000D01*
X155450000Y-119990000D02*
X155760000Y-119990000D01*
X154550000Y-119990000D02*
X154011192Y-120528808D01*
X154011192Y-120528808D02*
X146621606Y-120528808D01*
X146621606Y-120528808D02*
X145190000Y-119097202D01*
X145190000Y-119097202D02*
X139827202Y-119097202D01*
X139827202Y-119097202D02*
X138430000Y-117700000D01*
X138430000Y-117700000D02*
X137350000Y-117700000D01*
X155450000Y-119990000D02*
X154550000Y-119990000D01*
X154330000Y-111340000D02*
X154330000Y-110730000D01*
X154330000Y-110730000D02*
X155050000Y-110120000D01*
X155002587Y-112012587D02*
X154330000Y-111340000D01*
X155012091Y-112012587D02*
X155002587Y-112012587D01*
X136130000Y-103800000D02*
X135120000Y-104810000D01*
X135120000Y-104810000D02*
X133630000Y-104810000D01*
X136210000Y-103800000D02*
X136130000Y-103800000D01*
X147190000Y-81350000D02*
X145900000Y-80060000D01*
X148600000Y-81350000D02*
X147190000Y-81350000D01*
X141630000Y-80060000D02*
X140900000Y-80790000D01*
X140900000Y-80790000D02*
X139160000Y-80790000D01*
X145900000Y-80060000D02*
X141630000Y-80060000D01*
X146962000Y-94412000D02*
X146500000Y-93950000D01*
X146500000Y-93950000D02*
X146500000Y-93450000D01*
X146500000Y-93450000D02*
X146170000Y-93120000D01*
X146170000Y-93120000D02*
X144800000Y-93120000D01*
X147600000Y-94412000D02*
X146962000Y-94412000D01*
X148950000Y-95762000D02*
X147600000Y-94412000D01*
X148950000Y-99575000D02*
X148950000Y-95762000D01*
X150062173Y-100687173D02*
X148950000Y-99575000D01*
X150375000Y-98910596D02*
X150375000Y-93525000D01*
X150375000Y-93525000D02*
X151900000Y-92000000D01*
X151102198Y-99637794D02*
X150375000Y-98910596D01*
X147941037Y-102818600D02*
X147968600Y-102818600D01*
X147968600Y-102818600D02*
X149820000Y-104670000D01*
X149820000Y-104670000D02*
X149820000Y-104960000D01*
X148462422Y-107820000D02*
X148462422Y-107707578D01*
X148880000Y-107290000D02*
X149820000Y-107290000D01*
X148462422Y-107707578D02*
X148880000Y-107290000D01*
X149820000Y-107290000D02*
X149820000Y-104960000D01*
X149820000Y-104960000D02*
X150855000Y-103925000D01*
X150855000Y-103925000D02*
X150855000Y-103045000D01*
X148462422Y-108167578D02*
X148462422Y-107820000D01*
X150855000Y-101895000D02*
X150855000Y-103045000D01*
X156073557Y-101758930D02*
X156051070Y-101758930D01*
X152500000Y-100180000D02*
X152500000Y-100250000D01*
X152500000Y-100250000D02*
X150855000Y-101895000D01*
X156920000Y-97788000D02*
X156920000Y-97030000D01*
X156920000Y-97030000D02*
X157040000Y-96910000D01*
X156920000Y-97788000D02*
X157328000Y-97788000D01*
X157328000Y-97788000D02*
X157840000Y-98300000D01*
X157840000Y-98300000D02*
X157840000Y-100390000D01*
X157840000Y-100390000D02*
X157147202Y-101082798D01*
X156073557Y-101758930D02*
X156073557Y-101756443D01*
X156073557Y-101756443D02*
X156747202Y-101082798D01*
X156747202Y-101082798D02*
X157147202Y-101082798D01*
X150855000Y-101895000D02*
X151035000Y-101715000D01*
X150850000Y-101700000D02*
X151050000Y-101700000D01*
X151035000Y-101715000D02*
X151050000Y-101700000D01*
X156073557Y-101756443D02*
X156755000Y-101075000D01*
X149726286Y-101051286D02*
X150375000Y-101700000D01*
X150375000Y-101700000D02*
X150850000Y-101700000D01*
X151350000Y-89525000D02*
X151350000Y-89900000D01*
X152813000Y-96238000D02*
X153750000Y-96238000D01*
X152250000Y-95675000D02*
X152813000Y-96238000D01*
X151350000Y-89900000D02*
X150975000Y-90275000D01*
X148208000Y-96408000D02*
X147570000Y-96408000D01*
X148475000Y-96675000D02*
X148208000Y-96408000D01*
X148475000Y-99825000D02*
X148475000Y-96675000D01*
X149701286Y-101051286D02*
X148475000Y-99825000D01*
X147928600Y-102818600D02*
X146495000Y-101385000D01*
X155250000Y-87600000D02*
X154800000Y-88050000D01*
X154800000Y-88050000D02*
X154100000Y-88050000D01*
X148700000Y-89525000D02*
X148400000Y-89225000D01*
X148400000Y-89225000D02*
X145925000Y-89225000D01*
X151350000Y-89525000D02*
X148700000Y-89525000D01*
X155250000Y-86600000D02*
X155250000Y-87600000D01*
X148287000Y-88112000D02*
X146600000Y-88112000D01*
X148700000Y-88525000D02*
X148287000Y-88112000D01*
X149738000Y-88525000D02*
X148700000Y-88525000D01*
X149738000Y-87912000D02*
X149975000Y-87675000D01*
X149975000Y-87675000D02*
X150300000Y-87675000D01*
X150300000Y-87675000D02*
X150450000Y-87525000D01*
X150450000Y-87525000D02*
X150450000Y-86600000D01*
X149738000Y-88525000D02*
X149738000Y-87912000D01*
X157487049Y-109537628D02*
X157487049Y-109507049D01*
X148462422Y-108662421D02*
X147587215Y-109537628D01*
X148462422Y-108662421D02*
X148462422Y-108167578D01*
X156789421Y-108810000D02*
X157487049Y-109537628D01*
X156370000Y-108810000D02*
X156789421Y-108810000D01*
X156350000Y-108790000D02*
X156370000Y-108810000D01*
X156769421Y-108790000D02*
X156350000Y-108790000D01*
X157487049Y-109507628D02*
X156769421Y-108790000D01*
X157487049Y-109537628D02*
X157487049Y-109507628D01*
X156073557Y-101756443D02*
X156755000Y-101075000D01*
X159929421Y-111980000D02*
X157487049Y-109537628D01*
X161028000Y-111980000D02*
X159929421Y-111980000D01*
X155908000Y-114318000D02*
X155908000Y-115340000D01*
X154310231Y-112720231D02*
X155908000Y-114318000D01*
X154304446Y-112720231D02*
X154310231Y-112720231D01*
X155908000Y-116770000D02*
X155928000Y-116790000D01*
X155908000Y-115340000D02*
X155908000Y-116770000D01*
X154304446Y-112720231D02*
X154290231Y-112720231D01*
X154100000Y-88050000D02*
X152625000Y-89525000D01*
X152625000Y-89525000D02*
X151350000Y-89525000D01*
X147020000Y-110110000D02*
X146430000Y-110110000D01*
X146430000Y-110110000D02*
X146150000Y-109830000D01*
X146150000Y-109830000D02*
X144800000Y-109830000D01*
X147587215Y-109542785D02*
X147020000Y-110110000D01*
X147587215Y-109537628D02*
X147587215Y-109542785D01*
X144360254Y-109830000D02*
X143720254Y-109190000D01*
X143720254Y-109190000D02*
X142872000Y-109190000D01*
X144800000Y-109830000D02*
X144360254Y-109830000D01*
X154700000Y-109330000D02*
X155810000Y-109330000D01*
X155810000Y-109330000D02*
X156350000Y-108790000D01*
X153660000Y-112080000D02*
X153660000Y-110370000D01*
X154300231Y-112720231D02*
X153660000Y-112080000D01*
X154304446Y-112720231D02*
X154300231Y-112720231D01*
X153920000Y-109330000D02*
X154700000Y-109330000D01*
X153920000Y-109330000D02*
X153900000Y-109350000D01*
X153660000Y-109590000D02*
X153900000Y-109350000D01*
X153660000Y-110370000D02*
X153660000Y-109590000D01*
X146330000Y-84470000D02*
X146330000Y-85090000D01*
X146040000Y-84180000D02*
X146330000Y-84470000D01*
X145280000Y-84180000D02*
X146040000Y-84180000D01*
X146020000Y-85400000D02*
X146330000Y-85090000D01*
X142360000Y-85400000D02*
X146020000Y-85400000D01*
X141150000Y-86610000D02*
X142360000Y-85400000D01*
X142300000Y-100100000D02*
X142920000Y-99480000D01*
X142920000Y-99480000D02*
X144590000Y-99480000D01*
X144590000Y-99480000D02*
X146495000Y-101385000D01*
X141472000Y-100100000D02*
X142300000Y-100100000D01*
X140810000Y-86950000D02*
X141150000Y-86610000D01*
X139350000Y-86950000D02*
X140810000Y-86950000D01*
X136680000Y-86950000D02*
X139350000Y-86950000D01*
X139820000Y-86950000D02*
X142095000Y-89225000D01*
X145690000Y-89225000D02*
X145925000Y-89225000D01*
X142095000Y-89225000D02*
X145690000Y-89225000D01*
X139350000Y-86950000D02*
X139820000Y-86950000D01*
X146325000Y-89225000D02*
X146600000Y-88950000D01*
X146600000Y-88950000D02*
X146600000Y-88112000D01*
X145690000Y-89225000D02*
X146325000Y-89225000D01*
X144790000Y-86630000D02*
X146020000Y-85400000D01*
X144322000Y-86630000D02*
X144790000Y-86630000D01*
X133915000Y-89370000D02*
X136568000Y-89370000D01*
X136568000Y-89370000D02*
X136788000Y-89590000D01*
X136568000Y-89370000D02*
X136788000Y-89590000D01*
G36*
X135369974Y-90132000D02*
X135261673Y-90240301D01*
X135165000Y-90473690D01*
X135165000Y-90726309D01*
X135165000Y-91548838D01*
X135128327Y-91460302D01*
X134949699Y-91281673D01*
X134716310Y-91185000D01*
X134463691Y-91185000D01*
X132863691Y-91185000D01*
X132825000Y-91201026D01*
X132825000Y-90678025D01*
X132880301Y-90733327D01*
X133113690Y-90830000D01*
X133366309Y-90830000D01*
X133629250Y-90830000D01*
X133788000Y-90671250D01*
X133788000Y-90180000D01*
X134042000Y-90180000D01*
X134042000Y-90671250D01*
X134200750Y-90830000D01*
X134463691Y-90830000D01*
X134716310Y-90830000D01*
X134949699Y-90733327D01*
X135128327Y-90554698D01*
X135225000Y-90321309D01*
X135225000Y-90266250D01*
X135105752Y-90147002D01*
X135225000Y-90147002D01*
X135225000Y-90132000D01*
X135369974Y-90132000D01*
X135369974Y-90132000D01*
G37*
X135369974Y-90132000D02*
X135261673Y-90240301D01*
X135165000Y-90473690D01*
X135165000Y-90726309D01*
X135165000Y-91548838D01*
X135128327Y-91460302D01*
X134949699Y-91281673D01*
X134716310Y-91185000D01*
X134463691Y-91185000D01*
X132863691Y-91185000D01*
X132825000Y-91201026D01*
X132825000Y-90678025D01*
X132880301Y-90733327D01*
X133113690Y-90830000D01*
X133366309Y-90830000D01*
X133629250Y-90830000D01*
X133788000Y-90671250D01*
X133788000Y-90180000D01*
X134042000Y-90180000D01*
X134042000Y-90671250D01*
X134200750Y-90830000D01*
X134463691Y-90830000D01*
X134716310Y-90830000D01*
X134949699Y-90733327D01*
X135128327Y-90554698D01*
X135225000Y-90321309D01*
X135225000Y-90266250D01*
X135105752Y-90147002D01*
X135225000Y-90147002D01*
X135225000Y-90132000D01*
X135369974Y-90132000D01*
G36*
X137485000Y-85137000D02*
X137465000Y-85137000D01*
X137465000Y-85157000D01*
X137211000Y-85157000D01*
X137211000Y-85137000D01*
X137191000Y-85137000D01*
X137191000Y-84883000D01*
X137211000Y-84883000D01*
X137211000Y-84863000D01*
X137465000Y-84863000D01*
X137465000Y-84883000D01*
X137485000Y-84883000D01*
X137485000Y-85137000D01*
X137485000Y-85137000D01*
G37*
X137485000Y-85137000D02*
X137465000Y-85137000D01*
X137465000Y-85157000D01*
X137211000Y-85157000D01*
X137211000Y-85137000D01*
X137191000Y-85137000D01*
X137191000Y-84883000D01*
X137211000Y-84883000D01*
X137211000Y-84863000D01*
X137465000Y-84863000D01*
X137465000Y-84883000D01*
X137485000Y-84883000D01*
X137485000Y-85137000D01*
G36*
X140095000Y-100227000D02*
X140075000Y-100227000D01*
X140075000Y-100247000D01*
X139821000Y-100247000D01*
X139821000Y-100227000D01*
X139154250Y-100227000D01*
X138995500Y-100385750D01*
X138995500Y-100545191D01*
X138995500Y-100660686D01*
X138606441Y-100660348D01*
X138674622Y-100592286D01*
X138839313Y-100195668D01*
X138839687Y-99766216D01*
X138748902Y-99546500D01*
X138832250Y-99546500D01*
X138990998Y-99387752D01*
X138990998Y-99546500D01*
X138995500Y-99546500D01*
X138995500Y-99654809D01*
X138995500Y-99814250D01*
X139154250Y-99973000D01*
X139821000Y-99973000D01*
X139821000Y-99953000D01*
X140075000Y-99953000D01*
X140075000Y-99973000D01*
X140095000Y-99973000D01*
X140095000Y-100227000D01*
X140095000Y-100227000D01*
G37*
X140095000Y-100227000D02*
X140075000Y-100227000D01*
X140075000Y-100247000D01*
X139821000Y-100247000D01*
X139821000Y-100227000D01*
X139154250Y-100227000D01*
X138995500Y-100385750D01*
X138995500Y-100545191D01*
X138995500Y-100660686D01*
X138606441Y-100660348D01*
X138674622Y-100592286D01*
X138839313Y-100195668D01*
X138839687Y-99766216D01*
X138748902Y-99546500D01*
X138832250Y-99546500D01*
X138990998Y-99387752D01*
X138990998Y-99546500D01*
X138995500Y-99546500D01*
X138995500Y-99654809D01*
X138995500Y-99814250D01*
X139154250Y-99973000D01*
X139821000Y-99973000D01*
X139821000Y-99953000D01*
X140075000Y-99953000D01*
X140075000Y-99973000D01*
X140095000Y-99973000D01*
X140095000Y-100227000D01*
G36*
X141495000Y-109317000D02*
X141475000Y-109317000D01*
X141475000Y-109337000D01*
X141221000Y-109337000D01*
X141221000Y-109317000D01*
X141201000Y-109317000D01*
X141201000Y-109063000D01*
X141221000Y-109063000D01*
X141221000Y-109043000D01*
X141475000Y-109043000D01*
X141475000Y-109063000D01*
X141495000Y-109063000D01*
X141495000Y-109317000D01*
X141495000Y-109317000D01*
G37*
X141495000Y-109317000D02*
X141475000Y-109317000D01*
X141475000Y-109337000D01*
X141221000Y-109337000D01*
X141221000Y-109317000D01*
X141201000Y-109317000D01*
X141201000Y-109063000D01*
X141221000Y-109063000D01*
X141221000Y-109043000D01*
X141475000Y-109043000D01*
X141475000Y-109063000D01*
X141495000Y-109063000D01*
X141495000Y-109317000D01*
G36*
X142201208Y-78188000D02*
X140970000Y-78188000D01*
X139434517Y-78188000D01*
X139055668Y-78030687D01*
X138626216Y-78030313D01*
X138229311Y-78194311D01*
X137925378Y-78497714D01*
X137760687Y-78894332D01*
X137760313Y-79323784D01*
X137924311Y-79720689D01*
X138058387Y-79855000D01*
X137823250Y-79855000D01*
X137664500Y-80013750D01*
X137664500Y-81013000D01*
X137684500Y-81013000D01*
X137684500Y-81267000D01*
X137664500Y-81267000D01*
X137664500Y-81287000D01*
X137410500Y-81287000D01*
X137410500Y-81267000D01*
X137410500Y-81013000D01*
X137410500Y-80013750D01*
X137251750Y-79855000D01*
X136636191Y-79855000D01*
X136402802Y-79951673D01*
X136224173Y-80130301D01*
X136127500Y-80363690D01*
X136127500Y-80616309D01*
X136127500Y-80854250D01*
X136286250Y-81013000D01*
X137410500Y-81013000D01*
X137410500Y-81267000D01*
X136286250Y-81267000D01*
X136127500Y-81425750D01*
X136127500Y-81585500D01*
X136045750Y-81585500D01*
X135887000Y-81744250D01*
X135887000Y-82411000D01*
X135907000Y-82411000D01*
X135907000Y-82665000D01*
X135887000Y-82665000D01*
X135887000Y-82685000D01*
X135633000Y-82685000D01*
X135633000Y-82665000D01*
X135633000Y-82411000D01*
X135633000Y-81744250D01*
X135474250Y-81585500D01*
X135314809Y-81585500D01*
X135062190Y-81585500D01*
X134828801Y-81682173D01*
X134650173Y-81860802D01*
X134553500Y-82094191D01*
X134553500Y-82252250D01*
X134712250Y-82411000D01*
X135633000Y-82411000D01*
X135633000Y-82665000D01*
X134712250Y-82665000D01*
X134553500Y-82823750D01*
X134553500Y-82885000D01*
X134529426Y-82885000D01*
X134529687Y-82586216D01*
X134365689Y-82189311D01*
X134062286Y-81885378D01*
X133665668Y-81720687D01*
X133236216Y-81720313D01*
X132839311Y-81884311D01*
X132825000Y-81898597D01*
X132825000Y-81893691D01*
X132728327Y-81660302D01*
X132549699Y-81481673D01*
X132316310Y-81385000D01*
X132063691Y-81385000D01*
X131772500Y-81385000D01*
X131772500Y-80854250D01*
X131772500Y-80616309D01*
X131772500Y-80363690D01*
X131675827Y-80130301D01*
X131497198Y-79951673D01*
X131263809Y-79855000D01*
X130648250Y-79855000D01*
X130489500Y-80013750D01*
X130489500Y-81013000D01*
X131613750Y-81013000D01*
X131772500Y-80854250D01*
X131772500Y-81385000D01*
X131731750Y-81385000D01*
X131613750Y-81267000D01*
X130489500Y-81267000D01*
X130489500Y-81287000D01*
X130235500Y-81287000D01*
X130235500Y-81267000D01*
X130215500Y-81267000D01*
X130215500Y-81013000D01*
X130235500Y-81013000D01*
X130235500Y-80013750D01*
X130076750Y-79855000D01*
X129515000Y-79855000D01*
X129515000Y-77925000D01*
X129713809Y-77925000D01*
X131263809Y-77925000D01*
X131497198Y-77828327D01*
X131675827Y-77649699D01*
X131772500Y-77416310D01*
X131772500Y-77163691D01*
X131772500Y-76203391D01*
X131843489Y-76189271D01*
X132329670Y-75864415D01*
X132540000Y-75549634D01*
X132750330Y-75864415D01*
X133236511Y-76189271D01*
X133810000Y-76303345D01*
X134383489Y-76189271D01*
X134869670Y-75864415D01*
X135080000Y-75549634D01*
X135290330Y-75864415D01*
X135776511Y-76189271D01*
X136127500Y-76259087D01*
X136127500Y-77416309D01*
X136224173Y-77649698D01*
X136402801Y-77828327D01*
X136636190Y-77925000D01*
X136888809Y-77925000D01*
X138438809Y-77925000D01*
X138672198Y-77828327D01*
X138850827Y-77649699D01*
X138947500Y-77416310D01*
X138947500Y-77402000D01*
X141800445Y-77402000D01*
X141800313Y-77553784D01*
X141964311Y-77950689D01*
X142201208Y-78188000D01*
X142201208Y-78188000D01*
G37*
X142201208Y-78188000D02*
X140970000Y-78188000D01*
X139434517Y-78188000D01*
X139055668Y-78030687D01*
X138626216Y-78030313D01*
X138229311Y-78194311D01*
X137925378Y-78497714D01*
X137760687Y-78894332D01*
X137760313Y-79323784D01*
X137924311Y-79720689D01*
X138058387Y-79855000D01*
X137823250Y-79855000D01*
X137664500Y-80013750D01*
X137664500Y-81013000D01*
X137684500Y-81013000D01*
X137684500Y-81267000D01*
X137664500Y-81267000D01*
X137664500Y-81287000D01*
X137410500Y-81287000D01*
X137410500Y-81267000D01*
X137410500Y-81013000D01*
X137410500Y-80013750D01*
X137251750Y-79855000D01*
X136636191Y-79855000D01*
X136402802Y-79951673D01*
X136224173Y-80130301D01*
X136127500Y-80363690D01*
X136127500Y-80616309D01*
X136127500Y-80854250D01*
X136286250Y-81013000D01*
X137410500Y-81013000D01*
X137410500Y-81267000D01*
X136286250Y-81267000D01*
X136127500Y-81425750D01*
X136127500Y-81585500D01*
X136045750Y-81585500D01*
X135887000Y-81744250D01*
X135887000Y-82411000D01*
X135907000Y-82411000D01*
X135907000Y-82665000D01*
X135887000Y-82665000D01*
X135887000Y-82685000D01*
X135633000Y-82685000D01*
X135633000Y-82665000D01*
X135633000Y-82411000D01*
X135633000Y-81744250D01*
X135474250Y-81585500D01*
X135314809Y-81585500D01*
X135062190Y-81585500D01*
X134828801Y-81682173D01*
X134650173Y-81860802D01*
X134553500Y-82094191D01*
X134553500Y-82252250D01*
X134712250Y-82411000D01*
X135633000Y-82411000D01*
X135633000Y-82665000D01*
X134712250Y-82665000D01*
X134553500Y-82823750D01*
X134553500Y-82885000D01*
X134529426Y-82885000D01*
X134529687Y-82586216D01*
X134365689Y-82189311D01*
X134062286Y-81885378D01*
X133665668Y-81720687D01*
X133236216Y-81720313D01*
X132839311Y-81884311D01*
X132825000Y-81898597D01*
X132825000Y-81893691D01*
X132728327Y-81660302D01*
X132549699Y-81481673D01*
X132316310Y-81385000D01*
X132063691Y-81385000D01*
X131772500Y-81385000D01*
X131772500Y-80854250D01*
X131772500Y-80616309D01*
X131772500Y-80363690D01*
X131675827Y-80130301D01*
X131497198Y-79951673D01*
X131263809Y-79855000D01*
X130648250Y-79855000D01*
X130489500Y-80013750D01*
X130489500Y-81013000D01*
X131613750Y-81013000D01*
X131772500Y-80854250D01*
X131772500Y-81385000D01*
X131731750Y-81385000D01*
X131613750Y-81267000D01*
X130489500Y-81267000D01*
X130489500Y-81287000D01*
X130235500Y-81287000D01*
X130235500Y-81267000D01*
X130215500Y-81267000D01*
X130215500Y-81013000D01*
X130235500Y-81013000D01*
X130235500Y-80013750D01*
X130076750Y-79855000D01*
X129515000Y-79855000D01*
X129515000Y-77925000D01*
X129713809Y-77925000D01*
X131263809Y-77925000D01*
X131497198Y-77828327D01*
X131675827Y-77649699D01*
X131772500Y-77416310D01*
X131772500Y-77163691D01*
X131772500Y-76203391D01*
X131843489Y-76189271D01*
X132329670Y-75864415D01*
X132540000Y-75549634D01*
X132750330Y-75864415D01*
X133236511Y-76189271D01*
X133810000Y-76303345D01*
X134383489Y-76189271D01*
X134869670Y-75864415D01*
X135080000Y-75549634D01*
X135290330Y-75864415D01*
X135776511Y-76189271D01*
X136127500Y-76259087D01*
X136127500Y-77416309D01*
X136224173Y-77649698D01*
X136402801Y-77828327D01*
X136636190Y-77925000D01*
X136888809Y-77925000D01*
X138438809Y-77925000D01*
X138672198Y-77828327D01*
X138850827Y-77649699D01*
X138947500Y-77416310D01*
X138947500Y-77402000D01*
X141800445Y-77402000D01*
X141800313Y-77553784D01*
X141964311Y-77950689D01*
X142201208Y-78188000D01*
G36*
X143385000Y-112977000D02*
X143365000Y-112977000D01*
X143365000Y-112997000D01*
X143111000Y-112997000D01*
X143111000Y-112977000D01*
X143091000Y-112977000D01*
X143091000Y-112723000D01*
X143111000Y-112723000D01*
X143111000Y-112397750D01*
X143111000Y-111802250D01*
X143111000Y-111477000D01*
X142444250Y-111477000D01*
X142285500Y-111635750D01*
X142285500Y-111795191D01*
X142285500Y-112047810D01*
X142307117Y-112100000D01*
X142285500Y-112152190D01*
X142285500Y-112404809D01*
X142285500Y-112497870D01*
X142248815Y-112461185D01*
X141822000Y-112034370D01*
X141822000Y-110520273D01*
X141822000Y-110520269D01*
X141831999Y-110470000D01*
X141832000Y-110470000D01*
X141815433Y-110386714D01*
X142025198Y-110299827D01*
X142109999Y-110215025D01*
X142194801Y-110299827D01*
X142411420Y-110389553D01*
X142382173Y-110418801D01*
X142285500Y-110652190D01*
X142285500Y-110904809D01*
X142285500Y-111064250D01*
X142444250Y-111223000D01*
X143111000Y-111223000D01*
X143111000Y-111203000D01*
X143365000Y-111203000D01*
X143365000Y-111223000D01*
X143385000Y-111223000D01*
X143385000Y-111477000D01*
X143365000Y-111477000D01*
X143365000Y-111802250D01*
X143365000Y-112397750D01*
X143365000Y-112723000D01*
X143385000Y-112723000D01*
X143385000Y-112977000D01*
X143385000Y-112977000D01*
G37*
X143385000Y-112977000D02*
X143365000Y-112977000D01*
X143365000Y-112997000D01*
X143111000Y-112997000D01*
X143111000Y-112977000D01*
X143091000Y-112977000D01*
X143091000Y-112723000D01*
X143111000Y-112723000D01*
X143111000Y-112397750D01*
X143111000Y-111802250D01*
X143111000Y-111477000D01*
X142444250Y-111477000D01*
X142285500Y-111635750D01*
X142285500Y-111795191D01*
X142285500Y-112047810D01*
X142307117Y-112100000D01*
X142285500Y-112152190D01*
X142285500Y-112404809D01*
X142285500Y-112497870D01*
X142248815Y-112461185D01*
X141822000Y-112034370D01*
X141822000Y-110520273D01*
X141822000Y-110520269D01*
X141831999Y-110470000D01*
X141832000Y-110470000D01*
X141815433Y-110386714D01*
X142025198Y-110299827D01*
X142109999Y-110215025D01*
X142194801Y-110299827D01*
X142411420Y-110389553D01*
X142382173Y-110418801D01*
X142285500Y-110652190D01*
X142285500Y-110904809D01*
X142285500Y-111064250D01*
X142444250Y-111223000D01*
X143111000Y-111223000D01*
X143111000Y-111203000D01*
X143365000Y-111203000D01*
X143365000Y-111223000D01*
X143385000Y-111223000D01*
X143385000Y-111477000D01*
X143365000Y-111477000D01*
X143365000Y-111802250D01*
X143365000Y-112397750D01*
X143365000Y-112723000D01*
X143385000Y-112723000D01*
X143385000Y-112977000D01*
G36*
X144175523Y-83704999D02*
X144145000Y-83778690D01*
X144145000Y-84031309D01*
X144145000Y-84581309D01*
X144168482Y-84638000D01*
X143691518Y-84638000D01*
X143715000Y-84581310D01*
X143715000Y-84328691D01*
X143715000Y-83778691D01*
X143715000Y-82681309D01*
X143715000Y-82565750D01*
X143715000Y-81994250D01*
X143715000Y-81878691D01*
X143651000Y-81724181D01*
X143651000Y-81117000D01*
X142984250Y-81117000D01*
X142825500Y-81275750D01*
X142825500Y-81410250D01*
X142707000Y-81528750D01*
X142707000Y-82153000D01*
X143229172Y-82153000D01*
X143334191Y-82196500D01*
X143492250Y-82196500D01*
X143535750Y-82153000D01*
X143556250Y-82153000D01*
X143715000Y-81994250D01*
X143715000Y-82565750D01*
X143556250Y-82407000D01*
X142707000Y-82407000D01*
X142707000Y-83031250D01*
X142865750Y-83190000D01*
X142953691Y-83190000D01*
X143206310Y-83190000D01*
X143439699Y-83093327D01*
X143618327Y-82914698D01*
X143715000Y-82681309D01*
X143715000Y-83778691D01*
X143618327Y-83545302D01*
X143439699Y-83366673D01*
X143206310Y-83270000D01*
X142953691Y-83270000D01*
X142453000Y-83270000D01*
X142453000Y-83031250D01*
X142453000Y-82407000D01*
X142453000Y-82153000D01*
X142453000Y-81528750D01*
X142294250Y-81370000D01*
X142206309Y-81370000D01*
X141953690Y-81370000D01*
X141720301Y-81466673D01*
X141541673Y-81645302D01*
X141445000Y-81878691D01*
X141445000Y-81994250D01*
X141603750Y-82153000D01*
X142453000Y-82153000D01*
X142453000Y-82407000D01*
X141603750Y-82407000D01*
X141445000Y-82565750D01*
X141445000Y-82681309D01*
X141541673Y-82914698D01*
X141720301Y-83093327D01*
X141953690Y-83190000D01*
X142206309Y-83190000D01*
X142294250Y-83190000D01*
X142453000Y-83031250D01*
X142453000Y-83270000D01*
X141953691Y-83270000D01*
X141720302Y-83366673D01*
X141668974Y-83418000D01*
X141179528Y-83418000D01*
X141179687Y-83236216D01*
X141015689Y-82839311D01*
X140712286Y-82535378D01*
X140457007Y-82429376D01*
X139918815Y-81891185D01*
X139690678Y-81738748D01*
X139770689Y-81705689D01*
X139924646Y-81552000D01*
X140900000Y-81552000D01*
X140900000Y-81551999D01*
X141191604Y-81493996D01*
X141191605Y-81493996D01*
X141438815Y-81328815D01*
X141945630Y-80822000D01*
X142943250Y-80822000D01*
X142984250Y-80863000D01*
X143651000Y-80863000D01*
X143651000Y-80843000D01*
X143905000Y-80843000D01*
X143905000Y-80863000D01*
X143925000Y-80863000D01*
X143925000Y-81117000D01*
X143905000Y-81117000D01*
X143905000Y-82037750D01*
X144063750Y-82196500D01*
X144145000Y-82196500D01*
X144145000Y-82681309D01*
X144175523Y-82754999D01*
X144145000Y-82828690D01*
X144145000Y-83081309D01*
X144145000Y-83631309D01*
X144175523Y-83704999D01*
X144175523Y-83704999D01*
G37*
X144175523Y-83704999D02*
X144145000Y-83778690D01*
X144145000Y-84031309D01*
X144145000Y-84581309D01*
X144168482Y-84638000D01*
X143691518Y-84638000D01*
X143715000Y-84581310D01*
X143715000Y-84328691D01*
X143715000Y-83778691D01*
X143715000Y-82681309D01*
X143715000Y-82565750D01*
X143715000Y-81994250D01*
X143715000Y-81878691D01*
X143651000Y-81724181D01*
X143651000Y-81117000D01*
X142984250Y-81117000D01*
X142825500Y-81275750D01*
X142825500Y-81410250D01*
X142707000Y-81528750D01*
X142707000Y-82153000D01*
X143229172Y-82153000D01*
X143334191Y-82196500D01*
X143492250Y-82196500D01*
X143535750Y-82153000D01*
X143556250Y-82153000D01*
X143715000Y-81994250D01*
X143715000Y-82565750D01*
X143556250Y-82407000D01*
X142707000Y-82407000D01*
X142707000Y-83031250D01*
X142865750Y-83190000D01*
X142953691Y-83190000D01*
X143206310Y-83190000D01*
X143439699Y-83093327D01*
X143618327Y-82914698D01*
X143715000Y-82681309D01*
X143715000Y-83778691D01*
X143618327Y-83545302D01*
X143439699Y-83366673D01*
X143206310Y-83270000D01*
X142953691Y-83270000D01*
X142453000Y-83270000D01*
X142453000Y-83031250D01*
X142453000Y-82407000D01*
X142453000Y-82153000D01*
X142453000Y-81528750D01*
X142294250Y-81370000D01*
X142206309Y-81370000D01*
X141953690Y-81370000D01*
X141720301Y-81466673D01*
X141541673Y-81645302D01*
X141445000Y-81878691D01*
X141445000Y-81994250D01*
X141603750Y-82153000D01*
X142453000Y-82153000D01*
X142453000Y-82407000D01*
X141603750Y-82407000D01*
X141445000Y-82565750D01*
X141445000Y-82681309D01*
X141541673Y-82914698D01*
X141720301Y-83093327D01*
X141953690Y-83190000D01*
X142206309Y-83190000D01*
X142294250Y-83190000D01*
X142453000Y-83031250D01*
X142453000Y-83270000D01*
X141953691Y-83270000D01*
X141720302Y-83366673D01*
X141668974Y-83418000D01*
X141179528Y-83418000D01*
X141179687Y-83236216D01*
X141015689Y-82839311D01*
X140712286Y-82535378D01*
X140457007Y-82429376D01*
X139918815Y-81891185D01*
X139690678Y-81738748D01*
X139770689Y-81705689D01*
X139924646Y-81552000D01*
X140900000Y-81552000D01*
X140900000Y-81551999D01*
X141191604Y-81493996D01*
X141191605Y-81493996D01*
X141438815Y-81328815D01*
X141945630Y-80822000D01*
X142943250Y-80822000D01*
X142984250Y-80863000D01*
X143651000Y-80863000D01*
X143651000Y-80843000D01*
X143905000Y-80843000D01*
X143905000Y-80863000D01*
X143925000Y-80863000D01*
X143925000Y-81117000D01*
X143905000Y-81117000D01*
X143905000Y-82037750D01*
X144063750Y-82196500D01*
X144145000Y-82196500D01*
X144145000Y-82681309D01*
X144175523Y-82754999D01*
X144145000Y-82828690D01*
X144145000Y-83081309D01*
X144145000Y-83631309D01*
X144175523Y-83704999D01*
G36*
X144201155Y-78188000D02*
X143558496Y-78188000D01*
X143794622Y-77952286D01*
X143871182Y-77767907D01*
X143934311Y-77920689D01*
X144201155Y-78188000D01*
X144201155Y-78188000D01*
G37*
X144201155Y-78188000D02*
X143558496Y-78188000D01*
X143794622Y-77952286D01*
X143871182Y-77767907D01*
X143934311Y-77920689D01*
X144201155Y-78188000D01*
G36*
X145156020Y-88417000D02*
X145136020Y-88417000D01*
X145136020Y-88437000D01*
X144882020Y-88437000D01*
X144882020Y-88417000D01*
X144862020Y-88417000D01*
X144862020Y-88163000D01*
X144882020Y-88163000D01*
X144882020Y-88143000D01*
X145136020Y-88143000D01*
X145136020Y-88163000D01*
X145156020Y-88163000D01*
X145156020Y-88417000D01*
X145156020Y-88417000D01*
G37*
X145156020Y-88417000D02*
X145136020Y-88417000D01*
X145136020Y-88437000D01*
X144882020Y-88437000D01*
X144882020Y-88417000D01*
X144862020Y-88417000D01*
X144862020Y-88163000D01*
X144882020Y-88163000D01*
X144882020Y-88143000D01*
X145136020Y-88143000D01*
X145136020Y-88163000D01*
X145156020Y-88163000D01*
X145156020Y-88417000D01*
G36*
X145210370Y-101178000D02*
X143610000Y-101178000D01*
X142181025Y-101178000D01*
X142327827Y-101031199D01*
X142406703Y-100840775D01*
X142591604Y-100803996D01*
X142591605Y-100803996D01*
X142838815Y-100638815D01*
X143235630Y-100242000D01*
X144274370Y-100242000D01*
X145210370Y-101178000D01*
X145210370Y-101178000D01*
G37*
X145210370Y-101178000D02*
X143610000Y-101178000D01*
X142181025Y-101178000D01*
X142327827Y-101031199D01*
X142406703Y-100840775D01*
X142591604Y-100803996D01*
X142591605Y-100803996D01*
X142838815Y-100638815D01*
X143235630Y-100242000D01*
X144274370Y-100242000D01*
X145210370Y-101178000D01*
G36*
X145758000Y-95395500D02*
X145585191Y-95395500D01*
X145425750Y-95395500D01*
X145267000Y-95554250D01*
X145267000Y-96221000D01*
X145287000Y-96221000D01*
X145287000Y-96475000D01*
X145267000Y-96475000D01*
X145267000Y-96495000D01*
X145013000Y-96495000D01*
X145013000Y-96475000D01*
X144993000Y-96475000D01*
X144993000Y-96221000D01*
X145013000Y-96221000D01*
X145013000Y-95554250D01*
X144854250Y-95395500D01*
X144694809Y-95395500D01*
X144442190Y-95395500D01*
X144208801Y-95492173D01*
X144179302Y-95521671D01*
X143898815Y-95241185D01*
X143815000Y-95185181D01*
X143815000Y-94961484D01*
X144057714Y-95204622D01*
X144454332Y-95369313D01*
X144883784Y-95369687D01*
X145280689Y-95205689D01*
X145434646Y-95052000D01*
X145604370Y-95052000D01*
X145758000Y-95205630D01*
X145758000Y-95380000D01*
X145758000Y-95395500D01*
X145758000Y-95395500D01*
G37*
X145758000Y-95395500D02*
X145585191Y-95395500D01*
X145425750Y-95395500D01*
X145267000Y-95554250D01*
X145267000Y-96221000D01*
X145287000Y-96221000D01*
X145287000Y-96475000D01*
X145267000Y-96475000D01*
X145267000Y-96495000D01*
X145013000Y-96495000D01*
X145013000Y-96475000D01*
X144993000Y-96475000D01*
X144993000Y-96221000D01*
X145013000Y-96221000D01*
X145013000Y-95554250D01*
X144854250Y-95395500D01*
X144694809Y-95395500D01*
X144442190Y-95395500D01*
X144208801Y-95492173D01*
X144179302Y-95521671D01*
X143898815Y-95241185D01*
X143815000Y-95185181D01*
X143815000Y-94961484D01*
X144057714Y-95204622D01*
X144454332Y-95369313D01*
X144883784Y-95369687D01*
X145280689Y-95205689D01*
X145434646Y-95052000D01*
X145604370Y-95052000D01*
X145758000Y-95205630D01*
X145758000Y-95380000D01*
X145758000Y-95395500D01*
G36*
X146435689Y-92107663D02*
X146409699Y-92081673D01*
X146176310Y-91985000D01*
X145923691Y-91985000D01*
X143423691Y-91985000D01*
X143190302Y-92081673D01*
X143011673Y-92260301D01*
X142915000Y-92493690D01*
X142915000Y-92746309D01*
X142915000Y-93746309D01*
X142997300Y-93945000D01*
X141153691Y-93945000D01*
X140920302Y-94041673D01*
X140741673Y-94220301D01*
X140645000Y-94453690D01*
X140645000Y-94706309D01*
X140645000Y-96724954D01*
X140631605Y-96716004D01*
X140340000Y-96658000D01*
X140215000Y-96658000D01*
X140215000Y-94453691D01*
X140118327Y-94220302D01*
X139939699Y-94041673D01*
X139706310Y-93945000D01*
X139453691Y-93945000D01*
X137553691Y-93945000D01*
X137320302Y-94041673D01*
X137141673Y-94220301D01*
X137045000Y-94453690D01*
X137045000Y-94706309D01*
X137045000Y-97106309D01*
X137141673Y-97339698D01*
X137320301Y-97518327D01*
X137553690Y-97615000D01*
X137806309Y-97615000D01*
X138088635Y-97615000D01*
X138091185Y-97618815D01*
X138165500Y-97693130D01*
X138165500Y-97894809D01*
X138165500Y-98054250D01*
X138324250Y-98213000D01*
X138991000Y-98213000D01*
X138991000Y-98193000D01*
X139245000Y-98193000D01*
X139245000Y-98213000D01*
X139265000Y-98213000D01*
X139265000Y-98467000D01*
X139245000Y-98467000D01*
X139245000Y-98487000D01*
X138991000Y-98487000D01*
X138991000Y-98467000D01*
X138324250Y-98467000D01*
X138165500Y-98625750D01*
X138165500Y-98785191D01*
X138165500Y-98979512D01*
X137975668Y-98900687D01*
X137546216Y-98900313D01*
X137149311Y-99064311D01*
X136845378Y-99367714D01*
X136767780Y-99554588D01*
X136024369Y-100298000D01*
X134987027Y-100298000D01*
X135084968Y-100089027D01*
X134964469Y-99857000D01*
X133757000Y-99857000D01*
X133757000Y-99877000D01*
X133503000Y-99877000D01*
X133503000Y-99857000D01*
X133483000Y-99857000D01*
X133483000Y-99603000D01*
X133503000Y-99603000D01*
X133503000Y-99583000D01*
X133757000Y-99583000D01*
X133757000Y-99603000D01*
X134964469Y-99603000D01*
X135084968Y-99370973D01*
X134836821Y-98841510D01*
X134418839Y-98459992D01*
X134689670Y-98279029D01*
X135014526Y-97792848D01*
X135128600Y-97219359D01*
X135128600Y-97160641D01*
X135014526Y-96587152D01*
X134689670Y-96100971D01*
X134376956Y-95892022D01*
X134440689Y-95865689D01*
X134744622Y-95562286D01*
X134909313Y-95165668D01*
X134909687Y-94736216D01*
X134817492Y-94513088D01*
X134949698Y-94458327D01*
X135128327Y-94279699D01*
X135225000Y-94046310D01*
X135225000Y-93793691D01*
X135225000Y-93371161D01*
X135261673Y-93459698D01*
X135440301Y-93638327D01*
X135673690Y-93735000D01*
X135926309Y-93735000D01*
X141926309Y-93735000D01*
X142159698Y-93638327D01*
X142338327Y-93459699D01*
X142435000Y-93226310D01*
X142435000Y-92973691D01*
X142435000Y-90473691D01*
X142338327Y-90240302D01*
X142159699Y-90061673D01*
X141926310Y-89965000D01*
X141673691Y-89965000D01*
X141069444Y-89965000D01*
X141069687Y-89686216D01*
X140950061Y-89396699D01*
X141034622Y-89312286D01*
X141055170Y-89262800D01*
X141556185Y-89763815D01*
X141803395Y-89928996D01*
X141803396Y-89928996D01*
X142095000Y-89987000D01*
X142915000Y-89987000D01*
X142915000Y-90206309D01*
X142915000Y-91206309D01*
X143011673Y-91439698D01*
X143190301Y-91618327D01*
X143423690Y-91715000D01*
X143676309Y-91715000D01*
X146176309Y-91715000D01*
X146393500Y-91625036D01*
X146393500Y-92005809D01*
X146435689Y-92107663D01*
X146435689Y-92107663D01*
G37*
X146435689Y-92107663D02*
X146409699Y-92081673D01*
X146176310Y-91985000D01*
X145923691Y-91985000D01*
X143423691Y-91985000D01*
X143190302Y-92081673D01*
X143011673Y-92260301D01*
X142915000Y-92493690D01*
X142915000Y-92746309D01*
X142915000Y-93746309D01*
X142997300Y-93945000D01*
X141153691Y-93945000D01*
X140920302Y-94041673D01*
X140741673Y-94220301D01*
X140645000Y-94453690D01*
X140645000Y-94706309D01*
X140645000Y-96724954D01*
X140631605Y-96716004D01*
X140340000Y-96658000D01*
X140215000Y-96658000D01*
X140215000Y-94453691D01*
X140118327Y-94220302D01*
X139939699Y-94041673D01*
X139706310Y-93945000D01*
X139453691Y-93945000D01*
X137553691Y-93945000D01*
X137320302Y-94041673D01*
X137141673Y-94220301D01*
X137045000Y-94453690D01*
X137045000Y-94706309D01*
X137045000Y-97106309D01*
X137141673Y-97339698D01*
X137320301Y-97518327D01*
X137553690Y-97615000D01*
X137806309Y-97615000D01*
X138088635Y-97615000D01*
X138091185Y-97618815D01*
X138165500Y-97693130D01*
X138165500Y-97894809D01*
X138165500Y-98054250D01*
X138324250Y-98213000D01*
X138991000Y-98213000D01*
X138991000Y-98193000D01*
X139245000Y-98193000D01*
X139245000Y-98213000D01*
X139265000Y-98213000D01*
X139265000Y-98467000D01*
X139245000Y-98467000D01*
X139245000Y-98487000D01*
X138991000Y-98487000D01*
X138991000Y-98467000D01*
X138324250Y-98467000D01*
X138165500Y-98625750D01*
X138165500Y-98785191D01*
X138165500Y-98979512D01*
X137975668Y-98900687D01*
X137546216Y-98900313D01*
X137149311Y-99064311D01*
X136845378Y-99367714D01*
X136767780Y-99554588D01*
X136024369Y-100298000D01*
X134987027Y-100298000D01*
X135084968Y-100089027D01*
X134964469Y-99857000D01*
X133757000Y-99857000D01*
X133757000Y-99877000D01*
X133503000Y-99877000D01*
X133503000Y-99857000D01*
X133483000Y-99857000D01*
X133483000Y-99603000D01*
X133503000Y-99603000D01*
X133503000Y-99583000D01*
X133757000Y-99583000D01*
X133757000Y-99603000D01*
X134964469Y-99603000D01*
X135084968Y-99370973D01*
X134836821Y-98841510D01*
X134418839Y-98459992D01*
X134689670Y-98279029D01*
X135014526Y-97792848D01*
X135128600Y-97219359D01*
X135128600Y-97160641D01*
X135014526Y-96587152D01*
X134689670Y-96100971D01*
X134376956Y-95892022D01*
X134440689Y-95865689D01*
X134744622Y-95562286D01*
X134909313Y-95165668D01*
X134909687Y-94736216D01*
X134817492Y-94513088D01*
X134949698Y-94458327D01*
X135128327Y-94279699D01*
X135225000Y-94046310D01*
X135225000Y-93793691D01*
X135225000Y-93371161D01*
X135261673Y-93459698D01*
X135440301Y-93638327D01*
X135673690Y-93735000D01*
X135926309Y-93735000D01*
X141926309Y-93735000D01*
X142159698Y-93638327D01*
X142338327Y-93459699D01*
X142435000Y-93226310D01*
X142435000Y-92973691D01*
X142435000Y-90473691D01*
X142338327Y-90240302D01*
X142159699Y-90061673D01*
X141926310Y-89965000D01*
X141673691Y-89965000D01*
X141069444Y-89965000D01*
X141069687Y-89686216D01*
X140950061Y-89396699D01*
X141034622Y-89312286D01*
X141055170Y-89262800D01*
X141556185Y-89763815D01*
X141803395Y-89928996D01*
X141803396Y-89928996D01*
X142095000Y-89987000D01*
X142915000Y-89987000D01*
X142915000Y-90206309D01*
X142915000Y-91206309D01*
X143011673Y-91439698D01*
X143190301Y-91618327D01*
X143423690Y-91715000D01*
X143676309Y-91715000D01*
X146176309Y-91715000D01*
X146393500Y-91625036D01*
X146393500Y-92005809D01*
X146435689Y-92107663D01*
G36*
X146590500Y-110872000D02*
X145714500Y-111748000D01*
X145714500Y-110652191D01*
X145689568Y-110592000D01*
X145834369Y-110592000D01*
X145891185Y-110648816D01*
X146039376Y-110747834D01*
X146138395Y-110813996D01*
X146138396Y-110813996D01*
X146430000Y-110872000D01*
X146590500Y-110872000D01*
X146590500Y-110872000D01*
G37*
X146590500Y-110872000D02*
X145714500Y-111748000D01*
X145714500Y-110652191D01*
X145689568Y-110592000D01*
X145834369Y-110592000D01*
X145891185Y-110648816D01*
X146039376Y-110747834D01*
X146138395Y-110813996D01*
X146138396Y-110813996D01*
X146430000Y-110872000D01*
X146590500Y-110872000D01*
G36*
X156587000Y-90677000D02*
X156293000Y-90677000D01*
X156293000Y-90551000D01*
X156313000Y-90551000D01*
X156313000Y-90493000D01*
X156567000Y-90493000D01*
X156567000Y-90551000D01*
X156587000Y-90551000D01*
X156587000Y-90677000D01*
X156587000Y-90677000D01*
G37*
X156587000Y-90677000D02*
X156293000Y-90677000D01*
X156293000Y-90551000D01*
X156313000Y-90551000D01*
X156313000Y-90493000D01*
X156567000Y-90493000D01*
X156567000Y-90551000D01*
X156587000Y-90551000D01*
X156587000Y-90677000D01*
G36*
X156617000Y-92579000D02*
X156597000Y-92579000D01*
X156597000Y-92637000D01*
X156343000Y-92637000D01*
X156343000Y-92579000D01*
X156323000Y-92579000D01*
X156323000Y-92401000D01*
X156343000Y-92401000D01*
X156343000Y-92343000D01*
X156597000Y-92343000D01*
X156597000Y-92401000D01*
X156617000Y-92401000D01*
X156617000Y-92579000D01*
X156617000Y-92579000D01*
G37*
X156617000Y-92579000D02*
X156597000Y-92579000D01*
X156597000Y-92637000D01*
X156343000Y-92637000D01*
X156343000Y-92579000D01*
X156323000Y-92579000D01*
X156323000Y-92401000D01*
X156343000Y-92401000D01*
X156343000Y-92343000D01*
X156597000Y-92343000D01*
X156597000Y-92401000D01*
X156617000Y-92401000D01*
X156617000Y-92579000D01*
G36*
X156887869Y-100264500D02*
X156831571Y-100320798D01*
X156794203Y-100320798D01*
X156755000Y-100313000D01*
X156496624Y-100364394D01*
X156480354Y-100367630D01*
X156468534Y-100339096D01*
X156469930Y-100337700D01*
X156523219Y-100284411D01*
X156523220Y-100284411D01*
X156536523Y-100264500D01*
X156536524Y-100264500D01*
X156634250Y-100264500D01*
X156792998Y-100105752D01*
X156792998Y-100264500D01*
X156887869Y-100264500D01*
X156887869Y-100264500D01*
G37*
X156887869Y-100264500D02*
X156831571Y-100320798D01*
X156794203Y-100320798D01*
X156755000Y-100313000D01*
X156496624Y-100364394D01*
X156480354Y-100367630D01*
X156468534Y-100339096D01*
X156469930Y-100337700D01*
X156523219Y-100284411D01*
X156523220Y-100284411D01*
X156536523Y-100264500D01*
X156536524Y-100264500D01*
X156634250Y-100264500D01*
X156792998Y-100105752D01*
X156792998Y-100264500D01*
X156887869Y-100264500D01*
G36*
X157067000Y-99439000D02*
X157047000Y-99439000D01*
X157047000Y-99459000D01*
X156793000Y-99459000D01*
X156793000Y-99439000D01*
X156773000Y-99439000D01*
X156773000Y-99185000D01*
X156793000Y-99185000D01*
X156793000Y-99165000D01*
X157047000Y-99165000D01*
X157047000Y-99185000D01*
X157067000Y-99185000D01*
X157067000Y-99439000D01*
X157067000Y-99439000D01*
G37*
X157067000Y-99439000D02*
X157047000Y-99439000D01*
X157047000Y-99459000D01*
X156793000Y-99459000D01*
X156793000Y-99439000D01*
X156773000Y-99439000D01*
X156773000Y-99185000D01*
X156793000Y-99185000D01*
X156793000Y-99165000D01*
X157047000Y-99165000D01*
X157047000Y-99185000D01*
X157067000Y-99185000D01*
X157067000Y-99439000D01*
G36*
X159245369Y-116983000D02*
X158311750Y-116983000D01*
X158245750Y-116917000D01*
X157579000Y-116917000D01*
X157579000Y-116937000D01*
X157325000Y-116937000D01*
X157325000Y-116917000D01*
X157305000Y-116917000D01*
X157305000Y-116663000D01*
X157325000Y-116663000D01*
X157325000Y-115742250D01*
X157305000Y-115722250D01*
X157305000Y-115467000D01*
X157285000Y-115467000D01*
X157285000Y-115213000D01*
X157305000Y-115213000D01*
X157305000Y-115193000D01*
X157559000Y-115193000D01*
X157559000Y-115213000D01*
X157579000Y-115213000D01*
X157579000Y-115467000D01*
X157559000Y-115467000D01*
X157559000Y-116387750D01*
X157579000Y-116407750D01*
X157579000Y-116663000D01*
X158245750Y-116663000D01*
X158404500Y-116504250D01*
X158404500Y-116344809D01*
X158404500Y-116142130D01*
X159245369Y-116983000D01*
X159245369Y-116983000D01*
G37*
X159245369Y-116983000D02*
X158311750Y-116983000D01*
X158245750Y-116917000D01*
X157579000Y-116917000D01*
X157579000Y-116937000D01*
X157325000Y-116937000D01*
X157325000Y-116917000D01*
X157305000Y-116917000D01*
X157305000Y-116663000D01*
X157325000Y-116663000D01*
X157325000Y-115742250D01*
X157305000Y-115722250D01*
X157305000Y-115467000D01*
X157285000Y-115467000D01*
X157285000Y-115213000D01*
X157305000Y-115213000D01*
X157305000Y-115193000D01*
X157559000Y-115193000D01*
X157559000Y-115213000D01*
X157579000Y-115213000D01*
X157579000Y-115467000D01*
X157559000Y-115467000D01*
X157559000Y-116387750D01*
X157579000Y-116407750D01*
X157579000Y-116663000D01*
X158245750Y-116663000D01*
X158404500Y-116504250D01*
X158404500Y-116344809D01*
X158404500Y-116142130D01*
X159245369Y-116983000D01*
G36*
X161108000Y-98717250D02*
X160905809Y-98633500D01*
X160747750Y-98633500D01*
X160589002Y-98792248D01*
X160589002Y-98633500D01*
X160531059Y-98633500D01*
X160793526Y-98240691D01*
X160926935Y-97570000D01*
X160793526Y-96899309D01*
X160544358Y-96526404D01*
X161058773Y-96526404D01*
X161108000Y-96575630D01*
X161108000Y-96760000D01*
X161108000Y-98717250D01*
X161108000Y-98717250D01*
G37*
X161108000Y-98717250D02*
X160905809Y-98633500D01*
X160747750Y-98633500D01*
X160589002Y-98792248D01*
X160589002Y-98633500D01*
X160531059Y-98633500D01*
X160793526Y-98240691D01*
X160926935Y-97570000D01*
X160793526Y-96899309D01*
X160544358Y-96526404D01*
X161058773Y-96526404D01*
X161108000Y-96575630D01*
X161108000Y-96760000D01*
X161108000Y-98717250D01*
G36*
X162888737Y-101454500D02*
X162805378Y-101537714D01*
X162739694Y-101695895D01*
X162700000Y-101688000D01*
X161424500Y-101688000D01*
X161424500Y-101585750D01*
X161265750Y-101427000D01*
X160599000Y-101427000D01*
X160599000Y-101447000D01*
X160345000Y-101447000D01*
X160345000Y-101427000D01*
X160325000Y-101427000D01*
X160325000Y-101173000D01*
X160345000Y-101173000D01*
X160345000Y-100252250D01*
X160335000Y-100242250D01*
X160335000Y-99967000D01*
X160315000Y-99967000D01*
X160315000Y-99713000D01*
X160335000Y-99713000D01*
X160335000Y-99693000D01*
X160589000Y-99693000D01*
X160589000Y-99713000D01*
X160609000Y-99713000D01*
X160609000Y-99967000D01*
X160589000Y-99967000D01*
X160589000Y-100887750D01*
X160599000Y-100897750D01*
X160599000Y-101173000D01*
X161265750Y-101173000D01*
X161424500Y-101014250D01*
X161424500Y-100942130D01*
X161523185Y-101040815D01*
X161770395Y-101205996D01*
X161770396Y-101205996D01*
X161853501Y-101222526D01*
X161853501Y-101222527D01*
X161988801Y-101357827D01*
X162222190Y-101454500D01*
X162474809Y-101454500D01*
X162888737Y-101454500D01*
X162888737Y-101454500D01*
G37*
X162888737Y-101454500D02*
X162805378Y-101537714D01*
X162739694Y-101695895D01*
X162700000Y-101688000D01*
X161424500Y-101688000D01*
X161424500Y-101585750D01*
X161265750Y-101427000D01*
X160599000Y-101427000D01*
X160599000Y-101447000D01*
X160345000Y-101447000D01*
X160345000Y-101427000D01*
X160325000Y-101427000D01*
X160325000Y-101173000D01*
X160345000Y-101173000D01*
X160345000Y-100252250D01*
X160335000Y-100242250D01*
X160335000Y-99967000D01*
X160315000Y-99967000D01*
X160315000Y-99713000D01*
X160335000Y-99713000D01*
X160335000Y-99693000D01*
X160589000Y-99693000D01*
X160589000Y-99713000D01*
X160609000Y-99713000D01*
X160609000Y-99967000D01*
X160589000Y-99967000D01*
X160589000Y-100887750D01*
X160599000Y-100897750D01*
X160599000Y-101173000D01*
X161265750Y-101173000D01*
X161424500Y-101014250D01*
X161424500Y-100942130D01*
X161523185Y-101040815D01*
X161770395Y-101205996D01*
X161770396Y-101205996D01*
X161853501Y-101222526D01*
X161853501Y-101222527D01*
X161988801Y-101357827D01*
X162222190Y-101454500D01*
X162474809Y-101454500D01*
X162888737Y-101454500D01*
G36*
X166284931Y-121145000D02*
X162592630Y-121145000D01*
X164318681Y-119418949D01*
X164348815Y-119398815D01*
X164478103Y-119269526D01*
X164480629Y-119270575D01*
X164480313Y-119633784D01*
X164644311Y-120030689D01*
X164947714Y-120334622D01*
X165344332Y-120499313D01*
X165561872Y-120499502D01*
X166051185Y-120988815D01*
X166284931Y-121145000D01*
X166284931Y-121145000D01*
G37*
X166284931Y-121145000D02*
X162592630Y-121145000D01*
X164318681Y-119418949D01*
X164348815Y-119398815D01*
X164478103Y-119269526D01*
X164480629Y-119270575D01*
X164480313Y-119633784D01*
X164644311Y-120030689D01*
X164947714Y-120334622D01*
X165344332Y-120499313D01*
X165561872Y-120499502D01*
X166051185Y-120988815D01*
X166284931Y-121145000D01*
G36*
X170094645Y-112358000D02*
X167994730Y-112358000D01*
X167945689Y-112239311D01*
X167642286Y-111935378D01*
X167245668Y-111770687D01*
X166816216Y-111770313D01*
X166419311Y-111934311D01*
X166115378Y-112237714D01*
X165966189Y-112596997D01*
X165745000Y-112553000D01*
X165590000Y-112553000D01*
X164625000Y-112553000D01*
X164075136Y-112553000D01*
X164050000Y-112548000D01*
X163990000Y-112548000D01*
X163504500Y-112548000D01*
X163504500Y-112425191D01*
X163504500Y-112265750D01*
X163345750Y-112107000D01*
X162679000Y-112107000D01*
X162679000Y-112127000D01*
X162425000Y-112127000D01*
X162425000Y-112107000D01*
X162405000Y-112107000D01*
X162405000Y-111853000D01*
X162425000Y-111853000D01*
X162425000Y-111833000D01*
X162679000Y-111833000D01*
X162679000Y-111853000D01*
X163345750Y-111853000D01*
X163504500Y-111694250D01*
X163504500Y-111534809D01*
X163504500Y-111282190D01*
X163448046Y-111145899D01*
X169688269Y-111145899D01*
X169906185Y-111363815D01*
X170071372Y-111529002D01*
X170006400Y-111855641D01*
X170006400Y-111914359D01*
X170094645Y-112358000D01*
X170094645Y-112358000D01*
G37*
X170094645Y-112358000D02*
X167994730Y-112358000D01*
X167945689Y-112239311D01*
X167642286Y-111935378D01*
X167245668Y-111770687D01*
X166816216Y-111770313D01*
X166419311Y-111934311D01*
X166115378Y-112237714D01*
X165966189Y-112596997D01*
X165745000Y-112553000D01*
X165590000Y-112553000D01*
X164625000Y-112553000D01*
X164075136Y-112553000D01*
X164050000Y-112548000D01*
X163990000Y-112548000D01*
X163504500Y-112548000D01*
X163504500Y-112425191D01*
X163504500Y-112265750D01*
X163345750Y-112107000D01*
X162679000Y-112107000D01*
X162679000Y-112127000D01*
X162425000Y-112127000D01*
X162425000Y-112107000D01*
X162405000Y-112107000D01*
X162405000Y-111853000D01*
X162425000Y-111853000D01*
X162425000Y-111833000D01*
X162679000Y-111833000D01*
X162679000Y-111853000D01*
X163345750Y-111853000D01*
X163504500Y-111694250D01*
X163504500Y-111534809D01*
X163504500Y-111282190D01*
X163448046Y-111145899D01*
X169688269Y-111145899D01*
X169906185Y-111363815D01*
X170071372Y-111529002D01*
X170006400Y-111855641D01*
X170006400Y-111914359D01*
X170094645Y-112358000D01*
G36*
X175175000Y-95686390D02*
X174819947Y-95362312D01*
X174404026Y-95190042D01*
X174172000Y-95311183D01*
X174172000Y-96518000D01*
X174192000Y-96518000D01*
X174192000Y-96772000D01*
X174172000Y-96772000D01*
X174172000Y-96792000D01*
X173918000Y-96792000D01*
X173918000Y-96772000D01*
X173898000Y-96772000D01*
X173898000Y-96518000D01*
X173918000Y-96518000D01*
X173918000Y-95311183D01*
X173685974Y-95190042D01*
X173270053Y-95362312D01*
X172988700Y-95619119D01*
X172906927Y-95421702D01*
X172728299Y-95243073D01*
X172494910Y-95146400D01*
X172242291Y-95146400D01*
X170515091Y-95146400D01*
X170281702Y-95243073D01*
X170103073Y-95421701D01*
X170006400Y-95655090D01*
X170006400Y-95907709D01*
X170006400Y-96038000D01*
X168654519Y-96038000D01*
X168432286Y-95815378D01*
X168035668Y-95650687D01*
X167606216Y-95650313D01*
X167530587Y-95681562D01*
X167439199Y-95590173D01*
X167205810Y-95493500D01*
X166953191Y-95493500D01*
X166749451Y-95493500D01*
X166769313Y-95445668D01*
X166769687Y-95016216D01*
X166605689Y-94619311D01*
X166320035Y-94333158D01*
X166333460Y-94300750D01*
X166333460Y-94048131D01*
X166333460Y-93860750D01*
X166174710Y-93702000D01*
X165226020Y-93702000D01*
X165226020Y-93722000D01*
X164972020Y-93722000D01*
X164972020Y-93702000D01*
X164952020Y-93702000D01*
X164952020Y-93448000D01*
X164972020Y-93448000D01*
X164972020Y-92499310D01*
X164912020Y-92439310D01*
X164912020Y-92107000D01*
X164892020Y-92107000D01*
X164892020Y-91853000D01*
X164912020Y-91853000D01*
X164912020Y-91485690D01*
X164922020Y-91475690D01*
X164922020Y-90527000D01*
X164902020Y-90527000D01*
X164902020Y-90273000D01*
X164922020Y-90273000D01*
X164922020Y-89324310D01*
X164763270Y-89165560D01*
X164335000Y-89165560D01*
X164335000Y-87326309D01*
X164335000Y-86885750D01*
X164176250Y-86727000D01*
X163227000Y-86727000D01*
X163227000Y-87676250D01*
X163385750Y-87835000D01*
X163573691Y-87835000D01*
X163826310Y-87835000D01*
X164059699Y-87738327D01*
X164238327Y-87559698D01*
X164335000Y-87326309D01*
X164335000Y-89165560D01*
X164323271Y-89165560D01*
X164089882Y-89262233D01*
X163999999Y-89352114D01*
X163910119Y-89262233D01*
X163676730Y-89165560D01*
X163441224Y-89165560D01*
X163499313Y-89025668D01*
X163499687Y-88596216D01*
X163335689Y-88199311D01*
X163032286Y-87895378D01*
X162835560Y-87813689D01*
X162973000Y-87676250D01*
X162973000Y-86727000D01*
X162953000Y-86727000D01*
X162953000Y-86473000D01*
X162973000Y-86473000D01*
X162973000Y-86453000D01*
X163227000Y-86453000D01*
X163227000Y-86473000D01*
X164176250Y-86473000D01*
X164335000Y-86314250D01*
X164335000Y-85873691D01*
X164242344Y-85650000D01*
X164335000Y-85426310D01*
X164335000Y-85173691D01*
X164335000Y-84473691D01*
X164283765Y-84350000D01*
X164335000Y-84226310D01*
X164335000Y-83973691D01*
X164335000Y-83273691D01*
X164283765Y-83150000D01*
X164335000Y-83026310D01*
X164335000Y-82835750D01*
X164335000Y-82264250D01*
X164335000Y-82073690D01*
X164283765Y-81950000D01*
X164335000Y-81826310D01*
X164335000Y-81635750D01*
X164335000Y-81064250D01*
X164335000Y-80873690D01*
X164283765Y-80750000D01*
X164335000Y-80626310D01*
X164335000Y-80435750D01*
X164176250Y-80277000D01*
X163227000Y-80277000D01*
X163227000Y-80523750D01*
X163227000Y-80976250D01*
X163227000Y-81223000D01*
X164176250Y-81223000D01*
X164335000Y-81064250D01*
X164335000Y-81635750D01*
X164176250Y-81477000D01*
X163227000Y-81477000D01*
X163227000Y-81723750D01*
X163227000Y-82176250D01*
X163227000Y-82423000D01*
X164176250Y-82423000D01*
X164335000Y-82264250D01*
X164335000Y-82835750D01*
X164176250Y-82677000D01*
X163227000Y-82677000D01*
X163227000Y-82697000D01*
X162973000Y-82697000D01*
X162973000Y-82677000D01*
X162973000Y-82423000D01*
X162973000Y-82176250D01*
X162973000Y-81723750D01*
X162973000Y-81477000D01*
X162973000Y-81223000D01*
X162973000Y-80976250D01*
X162973000Y-80523750D01*
X162973000Y-80277000D01*
X162973000Y-80023000D01*
X162973000Y-79776250D01*
X162973000Y-79323750D01*
X162973000Y-79077000D01*
X162023750Y-79077000D01*
X161865000Y-79235750D01*
X161865000Y-79426310D01*
X161916234Y-79550000D01*
X161865000Y-79673690D01*
X161865000Y-79864250D01*
X162023750Y-80023000D01*
X162973000Y-80023000D01*
X162973000Y-80277000D01*
X162023750Y-80277000D01*
X161865000Y-80435750D01*
X161865000Y-80626310D01*
X161916234Y-80750000D01*
X161865000Y-80873690D01*
X161865000Y-81064250D01*
X162023750Y-81223000D01*
X162973000Y-81223000D01*
X162973000Y-81477000D01*
X162023750Y-81477000D01*
X161865000Y-81635750D01*
X161865000Y-81826310D01*
X161916234Y-81950000D01*
X161865000Y-82073690D01*
X161865000Y-82264250D01*
X162023750Y-82423000D01*
X162973000Y-82423000D01*
X162973000Y-82677000D01*
X162023750Y-82677000D01*
X161865000Y-82835750D01*
X161865000Y-83026310D01*
X161916234Y-83150000D01*
X161865000Y-83273690D01*
X161865000Y-83526309D01*
X161865000Y-84226309D01*
X161916234Y-84349999D01*
X161865000Y-84473690D01*
X161865000Y-84726309D01*
X161865000Y-85422447D01*
X161726310Y-85365000D01*
X161473691Y-85365000D01*
X161035000Y-85365000D01*
X161035000Y-84226309D01*
X161035000Y-83185750D01*
X161035000Y-82614250D01*
X161035000Y-81573691D01*
X161035000Y-79926309D01*
X161035000Y-78885750D01*
X161035000Y-78314250D01*
X161035000Y-77273691D01*
X160938327Y-77040302D01*
X160759699Y-76861673D01*
X160526310Y-76765000D01*
X160273691Y-76765000D01*
X159735750Y-76765000D01*
X159577000Y-76923750D01*
X159577000Y-78473000D01*
X160876250Y-78473000D01*
X161035000Y-78314250D01*
X161035000Y-78885750D01*
X160876250Y-78727000D01*
X159577000Y-78727000D01*
X159577000Y-80276250D01*
X159735750Y-80435000D01*
X160273691Y-80435000D01*
X160526310Y-80435000D01*
X160759699Y-80338327D01*
X160938327Y-80159698D01*
X161035000Y-79926309D01*
X161035000Y-81573691D01*
X160938327Y-81340302D01*
X160759699Y-81161673D01*
X160526310Y-81065000D01*
X160273691Y-81065000D01*
X159735750Y-81065000D01*
X159577000Y-81223750D01*
X159577000Y-82773000D01*
X160876250Y-82773000D01*
X161035000Y-82614250D01*
X161035000Y-83185750D01*
X160876250Y-83027000D01*
X159577000Y-83027000D01*
X159577000Y-84576250D01*
X159735750Y-84735000D01*
X160273691Y-84735000D01*
X160526310Y-84735000D01*
X160759699Y-84638327D01*
X160938327Y-84459698D01*
X161035000Y-84226309D01*
X161035000Y-85365000D01*
X160773691Y-85365000D01*
X160650000Y-85416234D01*
X160526310Y-85365000D01*
X160273691Y-85365000D01*
X159573691Y-85365000D01*
X159450000Y-85416234D01*
X159326310Y-85365000D01*
X159323000Y-85365000D01*
X159323000Y-84576250D01*
X159323000Y-83027000D01*
X159323000Y-82773000D01*
X159323000Y-81223750D01*
X159323000Y-80276250D01*
X159323000Y-78727000D01*
X159323000Y-78473000D01*
X159323000Y-76923750D01*
X159164250Y-76765000D01*
X158626309Y-76765000D01*
X158373690Y-76765000D01*
X158140301Y-76861673D01*
X157961673Y-77040302D01*
X157865000Y-77273691D01*
X157865000Y-78314250D01*
X158023750Y-78473000D01*
X159323000Y-78473000D01*
X159323000Y-78727000D01*
X158023750Y-78727000D01*
X157865000Y-78885750D01*
X157865000Y-79926309D01*
X157961673Y-80159698D01*
X158140301Y-80338327D01*
X158373690Y-80435000D01*
X158626309Y-80435000D01*
X159164250Y-80435000D01*
X159323000Y-80276250D01*
X159323000Y-81223750D01*
X159164250Y-81065000D01*
X158626309Y-81065000D01*
X158373690Y-81065000D01*
X158140301Y-81161673D01*
X157961673Y-81340302D01*
X157865000Y-81573691D01*
X157865000Y-82614250D01*
X158023750Y-82773000D01*
X159323000Y-82773000D01*
X159323000Y-83027000D01*
X158023750Y-83027000D01*
X157865000Y-83185750D01*
X157865000Y-84226309D01*
X157961673Y-84459698D01*
X158140301Y-84638327D01*
X158373690Y-84735000D01*
X158626309Y-84735000D01*
X159164250Y-84735000D01*
X159323000Y-84576250D01*
X159323000Y-85365000D01*
X159073691Y-85365000D01*
X158373691Y-85365000D01*
X158250000Y-85416234D01*
X158126310Y-85365000D01*
X157935750Y-85365000D01*
X157777000Y-85523750D01*
X157777000Y-86473000D01*
X157797000Y-86473000D01*
X157797000Y-86727000D01*
X157777000Y-86727000D01*
X157777000Y-87676250D01*
X157790926Y-87690176D01*
X157720687Y-87859332D01*
X157720453Y-88128000D01*
X156850000Y-88128000D01*
X156558396Y-88186003D01*
X156311185Y-88351184D01*
X155901185Y-88761185D01*
X155736004Y-89008395D01*
X155734619Y-89015354D01*
X155647673Y-89102301D01*
X155551000Y-89335690D01*
X155551000Y-89588309D01*
X155551000Y-89944309D01*
X155632057Y-90140000D01*
X155551000Y-90335691D01*
X155551000Y-90392250D01*
X155671748Y-90512998D01*
X155551000Y-90512998D01*
X155551000Y-90540613D01*
X155206216Y-90540313D01*
X154809311Y-90704311D01*
X154505378Y-91007714D01*
X154340687Y-91404332D01*
X154340313Y-91833784D01*
X154504311Y-92230689D01*
X154807714Y-92534622D01*
X154844055Y-92549712D01*
X154639311Y-92634311D01*
X154335378Y-92937714D01*
X154170687Y-93334332D01*
X154170313Y-93763784D01*
X154334311Y-94160689D01*
X154637714Y-94464622D01*
X155034332Y-94629313D01*
X155463784Y-94629687D01*
X155575000Y-94583733D01*
X155575000Y-94607002D01*
X155652342Y-94607002D01*
X155601185Y-94641184D01*
X154770697Y-95471672D01*
X154681199Y-95382173D01*
X154447810Y-95285500D01*
X154195191Y-95285500D01*
X153257082Y-95285500D01*
X153165689Y-95064311D01*
X152862286Y-94760378D01*
X152465668Y-94595687D01*
X152036216Y-94595313D01*
X151639311Y-94759311D01*
X151335378Y-95062714D01*
X151170687Y-95459332D01*
X151170313Y-95888784D01*
X151334311Y-96285689D01*
X151637714Y-96589622D01*
X152034332Y-96754313D01*
X152251871Y-96754502D01*
X152274184Y-96776815D01*
X152274185Y-96776815D01*
X152521395Y-96941996D01*
X152703116Y-96978142D01*
X152703117Y-96978142D01*
X152724974Y-96999999D01*
X152640173Y-97084801D01*
X152543500Y-97318190D01*
X152543500Y-97570809D01*
X152543500Y-98205809D01*
X152640173Y-98439198D01*
X152818801Y-98617827D01*
X153052190Y-98714500D01*
X153304809Y-98714500D01*
X153624869Y-98714500D01*
X153698748Y-98788379D01*
X153166970Y-99320157D01*
X153112286Y-99265378D01*
X152715668Y-99100687D01*
X152286216Y-99100313D01*
X151889311Y-99264311D01*
X151870362Y-99283226D01*
X151137000Y-98549864D01*
X151137000Y-93840630D01*
X151425252Y-93552377D01*
X151644974Y-93699191D01*
X152315665Y-93832600D01*
X152384335Y-93832600D01*
X153055026Y-93699191D01*
X153623610Y-93319275D01*
X154003526Y-92750691D01*
X154136935Y-92080000D01*
X154003526Y-91409309D01*
X153623610Y-90840725D01*
X153055026Y-90460809D01*
X152384335Y-90327400D01*
X152315665Y-90327400D01*
X152054409Y-90379366D01*
X152054490Y-90287000D01*
X152625000Y-90287000D01*
X152625000Y-90286999D01*
X152916604Y-90228996D01*
X152916605Y-90228996D01*
X153163815Y-90063815D01*
X154415630Y-88812000D01*
X154800000Y-88812000D01*
X154800000Y-88811999D01*
X155091604Y-88753996D01*
X155091605Y-88753996D01*
X155338815Y-88588815D01*
X155788815Y-88138815D01*
X155953996Y-87891605D01*
X155965897Y-87831772D01*
X155973690Y-87835000D01*
X156226309Y-87835000D01*
X156926309Y-87835000D01*
X157049999Y-87783765D01*
X157173690Y-87835000D01*
X157364250Y-87835000D01*
X157523000Y-87676250D01*
X157523000Y-86727000D01*
X157503000Y-86727000D01*
X157503000Y-86473000D01*
X157523000Y-86473000D01*
X157523000Y-85523750D01*
X157435000Y-85435750D01*
X157435000Y-84226309D01*
X157435000Y-83185750D01*
X157435000Y-82614250D01*
X157435000Y-81573691D01*
X157435000Y-79926309D01*
X157435000Y-78885750D01*
X157435000Y-78314250D01*
X157435000Y-77273691D01*
X157338327Y-77040302D01*
X157159699Y-76861673D01*
X156926310Y-76765000D01*
X156673691Y-76765000D01*
X156135750Y-76765000D01*
X155977000Y-76923750D01*
X155977000Y-78473000D01*
X157276250Y-78473000D01*
X157435000Y-78314250D01*
X157435000Y-78885750D01*
X157276250Y-78727000D01*
X155977000Y-78727000D01*
X155977000Y-80276250D01*
X156135750Y-80435000D01*
X156673691Y-80435000D01*
X156926310Y-80435000D01*
X157159699Y-80338327D01*
X157338327Y-80159698D01*
X157435000Y-79926309D01*
X157435000Y-81573691D01*
X157338327Y-81340302D01*
X157159699Y-81161673D01*
X156926310Y-81065000D01*
X156673691Y-81065000D01*
X156135750Y-81065000D01*
X155977000Y-81223750D01*
X155977000Y-82773000D01*
X157276250Y-82773000D01*
X157435000Y-82614250D01*
X157435000Y-83185750D01*
X157276250Y-83027000D01*
X155977000Y-83027000D01*
X155977000Y-84576250D01*
X156135750Y-84735000D01*
X156673691Y-84735000D01*
X156926310Y-84735000D01*
X157159699Y-84638327D01*
X157338327Y-84459698D01*
X157435000Y-84226309D01*
X157435000Y-85435750D01*
X157364250Y-85365000D01*
X157173690Y-85365000D01*
X157050000Y-85416234D01*
X156926310Y-85365000D01*
X156673691Y-85365000D01*
X155973691Y-85365000D01*
X155850000Y-85416234D01*
X155726310Y-85365000D01*
X155723000Y-85365000D01*
X155723000Y-84576250D01*
X155723000Y-83027000D01*
X155723000Y-82773000D01*
X155723000Y-81223750D01*
X155723000Y-80276250D01*
X155723000Y-78727000D01*
X155723000Y-78473000D01*
X155723000Y-76923750D01*
X155564250Y-76765000D01*
X155026309Y-76765000D01*
X154773690Y-76765000D01*
X154540301Y-76861673D01*
X154361673Y-77040302D01*
X154265000Y-77273691D01*
X154265000Y-78314250D01*
X154423750Y-78473000D01*
X155723000Y-78473000D01*
X155723000Y-78727000D01*
X154423750Y-78727000D01*
X154265000Y-78885750D01*
X154265000Y-79926309D01*
X154361673Y-80159698D01*
X154540301Y-80338327D01*
X154773690Y-80435000D01*
X155026309Y-80435000D01*
X155564250Y-80435000D01*
X155723000Y-80276250D01*
X155723000Y-81223750D01*
X155564250Y-81065000D01*
X155026309Y-81065000D01*
X154773690Y-81065000D01*
X154540301Y-81161673D01*
X154361673Y-81340302D01*
X154265000Y-81573691D01*
X154265000Y-82614250D01*
X154423750Y-82773000D01*
X155723000Y-82773000D01*
X155723000Y-83027000D01*
X154423750Y-83027000D01*
X154265000Y-83185750D01*
X154265000Y-84226309D01*
X154361673Y-84459698D01*
X154540301Y-84638327D01*
X154773690Y-84735000D01*
X155026309Y-84735000D01*
X155564250Y-84735000D01*
X155723000Y-84576250D01*
X155723000Y-85365000D01*
X155473691Y-85365000D01*
X154773691Y-85365000D01*
X154650000Y-85416234D01*
X154526310Y-85365000D01*
X154335750Y-85365000D01*
X154177000Y-85523750D01*
X154177000Y-86473000D01*
X154197000Y-86473000D01*
X154197000Y-86727000D01*
X154177000Y-86727000D01*
X154177000Y-86747000D01*
X153923000Y-86747000D01*
X153923000Y-86727000D01*
X153923000Y-86473000D01*
X153923000Y-85523750D01*
X153835000Y-85435750D01*
X153835000Y-84226309D01*
X153835000Y-83185750D01*
X153835000Y-82614250D01*
X153835000Y-81573691D01*
X153835000Y-79926309D01*
X153835000Y-78885750D01*
X153835000Y-78314250D01*
X153835000Y-77273691D01*
X153738327Y-77040302D01*
X153559699Y-76861673D01*
X153326310Y-76765000D01*
X153073691Y-76765000D01*
X152535750Y-76765000D01*
X152377000Y-76923750D01*
X152377000Y-78473000D01*
X153676250Y-78473000D01*
X153835000Y-78314250D01*
X153835000Y-78885750D01*
X153676250Y-78727000D01*
X152377000Y-78727000D01*
X152377000Y-80276250D01*
X152535750Y-80435000D01*
X153073691Y-80435000D01*
X153326310Y-80435000D01*
X153559699Y-80338327D01*
X153738327Y-80159698D01*
X153835000Y-79926309D01*
X153835000Y-81573691D01*
X153738327Y-81340302D01*
X153559699Y-81161673D01*
X153326310Y-81065000D01*
X153073691Y-81065000D01*
X152535750Y-81065000D01*
X152377000Y-81223750D01*
X152377000Y-82773000D01*
X153676250Y-82773000D01*
X153835000Y-82614250D01*
X153835000Y-83185750D01*
X153676250Y-83027000D01*
X152377000Y-83027000D01*
X152377000Y-84576250D01*
X152535750Y-84735000D01*
X153073691Y-84735000D01*
X153326310Y-84735000D01*
X153559699Y-84638327D01*
X153738327Y-84459698D01*
X153835000Y-84226309D01*
X153835000Y-85435750D01*
X153764250Y-85365000D01*
X153573690Y-85365000D01*
X153450000Y-85416234D01*
X153326310Y-85365000D01*
X153135750Y-85365000D01*
X152977000Y-85523750D01*
X152977000Y-86473000D01*
X153223750Y-86473000D01*
X153676250Y-86473000D01*
X153923000Y-86473000D01*
X153923000Y-86727000D01*
X153676250Y-86727000D01*
X153223750Y-86727000D01*
X152977000Y-86727000D01*
X152977000Y-87676250D01*
X153135750Y-87835000D01*
X153237370Y-87835000D01*
X152309370Y-88763000D01*
X152166750Y-88763000D01*
X152055750Y-88652000D01*
X151389000Y-88652000D01*
X151389000Y-88672000D01*
X151135000Y-88672000D01*
X151135000Y-88652000D01*
X151115000Y-88652000D01*
X151115000Y-88398000D01*
X151135000Y-88398000D01*
X151135000Y-88378000D01*
X151389000Y-88378000D01*
X151389000Y-88398000D01*
X152055750Y-88398000D01*
X152214500Y-88239250D01*
X152214500Y-88079809D01*
X152214500Y-87827190D01*
X152204346Y-87802676D01*
X152250000Y-87783765D01*
X152373690Y-87835000D01*
X152564250Y-87835000D01*
X152723000Y-87676250D01*
X152723000Y-86727000D01*
X152723000Y-86473000D01*
X152723000Y-85523750D01*
X152564250Y-85365000D01*
X152373690Y-85365000D01*
X152250000Y-85416234D01*
X152126310Y-85365000D01*
X152123000Y-85365000D01*
X152123000Y-84576250D01*
X152123000Y-83027000D01*
X152123000Y-82773000D01*
X152123000Y-81223750D01*
X152123000Y-80276250D01*
X152123000Y-78727000D01*
X152123000Y-78473000D01*
X152123000Y-76923750D01*
X151964250Y-76765000D01*
X151523000Y-76765000D01*
X151523000Y-75976250D01*
X151523000Y-75027000D01*
X151276250Y-75027000D01*
X150823750Y-75027000D01*
X150577000Y-75027000D01*
X150577000Y-75976250D01*
X150735750Y-76135000D01*
X150926310Y-76135000D01*
X151050000Y-76083765D01*
X151173690Y-76135000D01*
X151364250Y-76135000D01*
X151523000Y-75976250D01*
X151523000Y-76765000D01*
X151426309Y-76765000D01*
X151173690Y-76765000D01*
X150940301Y-76861673D01*
X150761673Y-77040302D01*
X150665000Y-77273691D01*
X150665000Y-78314250D01*
X150823750Y-78473000D01*
X152123000Y-78473000D01*
X152123000Y-78727000D01*
X150823750Y-78727000D01*
X150665000Y-78885750D01*
X150665000Y-79926309D01*
X150761673Y-80159698D01*
X150940301Y-80338327D01*
X151173690Y-80435000D01*
X151426309Y-80435000D01*
X151964250Y-80435000D01*
X152123000Y-80276250D01*
X152123000Y-81223750D01*
X151964250Y-81065000D01*
X151426309Y-81065000D01*
X151173690Y-81065000D01*
X150940301Y-81161673D01*
X150761673Y-81340302D01*
X150665000Y-81573691D01*
X150665000Y-82614250D01*
X150823750Y-82773000D01*
X152123000Y-82773000D01*
X152123000Y-83027000D01*
X150823750Y-83027000D01*
X150665000Y-83185750D01*
X150665000Y-84226309D01*
X150761673Y-84459698D01*
X150940301Y-84638327D01*
X151173690Y-84735000D01*
X151426309Y-84735000D01*
X151964250Y-84735000D01*
X152123000Y-84576250D01*
X152123000Y-85365000D01*
X151935750Y-85365000D01*
X151777000Y-85523750D01*
X151777000Y-86473000D01*
X152023750Y-86473000D01*
X152476250Y-86473000D01*
X152723000Y-86473000D01*
X152723000Y-86727000D01*
X152476250Y-86727000D01*
X152023750Y-86727000D01*
X151777000Y-86727000D01*
X151777000Y-86747000D01*
X151523000Y-86747000D01*
X151523000Y-86727000D01*
X151503000Y-86727000D01*
X151503000Y-86473000D01*
X151523000Y-86473000D01*
X151523000Y-85523750D01*
X151364250Y-85365000D01*
X151173690Y-85365000D01*
X151050000Y-85416234D01*
X150926310Y-85365000D01*
X150673691Y-85365000D01*
X150323000Y-85365000D01*
X150323000Y-75976250D01*
X150323000Y-75027000D01*
X149676250Y-75027000D01*
X149623750Y-75027000D01*
X148727000Y-75027000D01*
X148727000Y-75723750D01*
X148727000Y-75976250D01*
X148727000Y-76423000D01*
X149676250Y-76423000D01*
X149835000Y-76264250D01*
X149835000Y-76077552D01*
X149973690Y-76135000D01*
X150164250Y-76135000D01*
X150323000Y-75976250D01*
X150323000Y-85365000D01*
X149973691Y-85365000D01*
X149835000Y-85422447D01*
X149835000Y-85235750D01*
X149676250Y-85077000D01*
X148727000Y-85077000D01*
X148727000Y-85523750D01*
X148727000Y-85776250D01*
X148727000Y-86473000D01*
X148747000Y-86473000D01*
X148747000Y-86727000D01*
X148727000Y-86727000D01*
X148727000Y-86747000D01*
X148473000Y-86747000D01*
X148473000Y-86727000D01*
X147659750Y-86727000D01*
X147647750Y-86715000D01*
X146727000Y-86715000D01*
X146727000Y-86735000D01*
X146473000Y-86735000D01*
X146473000Y-86715000D01*
X146453000Y-86715000D01*
X146453000Y-86461000D01*
X146473000Y-86461000D01*
X146473000Y-86441000D01*
X146727000Y-86441000D01*
X146727000Y-86461000D01*
X147511750Y-86461000D01*
X147523750Y-86473000D01*
X148473000Y-86473000D01*
X148473000Y-85776250D01*
X148473000Y-85523750D01*
X148473000Y-85077000D01*
X148453000Y-85077000D01*
X148453000Y-84823000D01*
X148473000Y-84823000D01*
X148473000Y-84803000D01*
X148727000Y-84803000D01*
X148727000Y-84823000D01*
X149676250Y-84823000D01*
X149835000Y-84664250D01*
X149835000Y-84473690D01*
X149783765Y-84350000D01*
X149835000Y-84226310D01*
X149835000Y-83973691D01*
X149835000Y-83273691D01*
X149783765Y-83150000D01*
X149835000Y-83026310D01*
X149835000Y-82835750D01*
X149676250Y-82677000D01*
X148727000Y-82677000D01*
X148727000Y-82697000D01*
X148473000Y-82697000D01*
X148473000Y-82677000D01*
X147523750Y-82677000D01*
X147365000Y-82835750D01*
X147365000Y-82911933D01*
X147265668Y-82870687D01*
X146836216Y-82870313D01*
X146439311Y-83034311D01*
X146415000Y-83058579D01*
X146415000Y-82894864D01*
X146415000Y-82894863D01*
X146528815Y-82818815D01*
X146748815Y-82598815D01*
X146913996Y-82351605D01*
X146913996Y-82351604D01*
X146970347Y-82068308D01*
X147190000Y-82112000D01*
X147365000Y-82112000D01*
X147365000Y-82264250D01*
X147523750Y-82423000D01*
X148473000Y-82423000D01*
X148473000Y-82403000D01*
X148727000Y-82403000D01*
X148727000Y-82423000D01*
X149676250Y-82423000D01*
X149835000Y-82264250D01*
X149835000Y-82073690D01*
X149783765Y-81950000D01*
X149835000Y-81826310D01*
X149835000Y-81573691D01*
X149835000Y-80873691D01*
X149783765Y-80750000D01*
X149835000Y-80626310D01*
X149835000Y-80373691D01*
X149835000Y-79673691D01*
X149783765Y-79550000D01*
X149835000Y-79426310D01*
X149835000Y-79173691D01*
X149835000Y-78473691D01*
X149783765Y-78350000D01*
X149835000Y-78226310D01*
X149835000Y-77973691D01*
X149835000Y-77273691D01*
X149783765Y-77150000D01*
X149835000Y-77026310D01*
X149835000Y-76835750D01*
X149676250Y-76677000D01*
X148727000Y-76677000D01*
X148727000Y-76697000D01*
X148473000Y-76697000D01*
X148473000Y-76677000D01*
X148473000Y-76423000D01*
X148473000Y-75976250D01*
X148473000Y-75723750D01*
X148473000Y-75027000D01*
X147523750Y-75027000D01*
X147365000Y-75185750D01*
X147365000Y-75626309D01*
X147457655Y-75849999D01*
X147365000Y-76073690D01*
X147365000Y-76264250D01*
X147523750Y-76423000D01*
X148473000Y-76423000D01*
X148473000Y-76677000D01*
X147523750Y-76677000D01*
X147365000Y-76835750D01*
X147365000Y-76988000D01*
X147145630Y-76988000D01*
X147108815Y-76951185D01*
X147017637Y-76890262D01*
X146933295Y-76820179D01*
X146894967Y-76808296D01*
X146861604Y-76786004D01*
X146754054Y-76764611D01*
X146649311Y-76732139D01*
X145699203Y-76632709D01*
X145462286Y-76395378D01*
X145065668Y-76230687D01*
X145057250Y-76230679D01*
X145193298Y-76174327D01*
X145371927Y-75995699D01*
X145468600Y-75762310D01*
X145468600Y-75509691D01*
X145468600Y-73695000D01*
X147801263Y-73695000D01*
X147640301Y-73761673D01*
X147461673Y-73940302D01*
X147365000Y-74173691D01*
X147365000Y-74614250D01*
X147523750Y-74773000D01*
X148473000Y-74773000D01*
X148473000Y-74753000D01*
X148727000Y-74753000D01*
X148727000Y-74773000D01*
X149623750Y-74773000D01*
X149676250Y-74773000D01*
X150323000Y-74773000D01*
X150323000Y-74753000D01*
X150577000Y-74753000D01*
X150577000Y-74773000D01*
X150823750Y-74773000D01*
X151276250Y-74773000D01*
X151523000Y-74773000D01*
X151523000Y-74753000D01*
X151777000Y-74753000D01*
X151777000Y-74773000D01*
X151797000Y-74773000D01*
X151797000Y-75027000D01*
X151777000Y-75027000D01*
X151777000Y-75976250D01*
X151935750Y-76135000D01*
X152126310Y-76135000D01*
X152250000Y-76083765D01*
X152373690Y-76135000D01*
X152626309Y-76135000D01*
X153326309Y-76135000D01*
X153449999Y-76083765D01*
X153573690Y-76135000D01*
X153826309Y-76135000D01*
X154526309Y-76135000D01*
X154649999Y-76083765D01*
X154773690Y-76135000D01*
X155026309Y-76135000D01*
X155726309Y-76135000D01*
X155849999Y-76083765D01*
X155973690Y-76135000D01*
X156226309Y-76135000D01*
X156926309Y-76135000D01*
X157049999Y-76083765D01*
X157173690Y-76135000D01*
X157426309Y-76135000D01*
X158126309Y-76135000D01*
X158249999Y-76083765D01*
X158373690Y-76135000D01*
X158626309Y-76135000D01*
X159326309Y-76135000D01*
X159449999Y-76083765D01*
X159573690Y-76135000D01*
X159826309Y-76135000D01*
X160526309Y-76135000D01*
X160649999Y-76083765D01*
X160773690Y-76135000D01*
X160964250Y-76135000D01*
X161123000Y-75976250D01*
X161123000Y-75027000D01*
X161103000Y-75027000D01*
X161103000Y-74773000D01*
X161123000Y-74773000D01*
X161123000Y-74753000D01*
X161377000Y-74753000D01*
X161377000Y-74773000D01*
X162023750Y-74773000D01*
X162076250Y-74773000D01*
X162973000Y-74773000D01*
X162973000Y-74753000D01*
X163227000Y-74753000D01*
X163227000Y-74773000D01*
X164176250Y-74773000D01*
X164335000Y-74614250D01*
X164335000Y-74173691D01*
X164238327Y-73940302D01*
X164059699Y-73761673D01*
X163898736Y-73695000D01*
X166340945Y-73695000D01*
X166327910Y-76012787D01*
X166204941Y-76063723D01*
X166085198Y-76183466D01*
X166015858Y-76229798D01*
X165845003Y-76485500D01*
X164752191Y-76485500D01*
X164518802Y-76582173D01*
X164405848Y-76695125D01*
X164335000Y-76709217D01*
X164335000Y-76264250D01*
X164335000Y-76073690D01*
X164242344Y-75849999D01*
X164335000Y-75626309D01*
X164335000Y-75185750D01*
X164176250Y-75027000D01*
X163227000Y-75027000D01*
X163227000Y-75723750D01*
X163227000Y-75976250D01*
X163227000Y-76423000D01*
X164176250Y-76423000D01*
X164335000Y-76264250D01*
X164335000Y-76709217D01*
X164229461Y-76730211D01*
X164176250Y-76677000D01*
X163227000Y-76677000D01*
X163227000Y-76697000D01*
X162973000Y-76697000D01*
X162973000Y-76677000D01*
X162973000Y-76423000D01*
X162973000Y-75976250D01*
X162973000Y-75723750D01*
X162973000Y-75027000D01*
X162076250Y-75027000D01*
X162023750Y-75027000D01*
X161377000Y-75027000D01*
X161377000Y-75976250D01*
X161535750Y-76135000D01*
X161726310Y-76135000D01*
X161865000Y-76077552D01*
X161865000Y-76264250D01*
X162023750Y-76423000D01*
X162973000Y-76423000D01*
X162973000Y-76677000D01*
X162023750Y-76677000D01*
X161865000Y-76835750D01*
X161865000Y-77026310D01*
X161916234Y-77150000D01*
X161865000Y-77273690D01*
X161865000Y-77526309D01*
X161865000Y-78226309D01*
X161916234Y-78349999D01*
X161865000Y-78473690D01*
X161865000Y-78664250D01*
X162023750Y-78823000D01*
X162973000Y-78823000D01*
X162973000Y-78803000D01*
X163227000Y-78803000D01*
X163227000Y-78823000D01*
X163247000Y-78823000D01*
X163247000Y-79077000D01*
X163227000Y-79077000D01*
X163227000Y-79323750D01*
X163227000Y-79776250D01*
X163227000Y-80023000D01*
X164176250Y-80023000D01*
X164335000Y-79864250D01*
X164335000Y-79673690D01*
X164283765Y-79550000D01*
X164293495Y-79526509D01*
X164340173Y-79639198D01*
X164518801Y-79817827D01*
X164752190Y-79914500D01*
X165004809Y-79914500D01*
X165987912Y-79914500D01*
X166026313Y-80007208D01*
X166204941Y-80185837D01*
X166304211Y-80226956D01*
X166251516Y-89597131D01*
X166186787Y-89440861D01*
X166008158Y-89262233D01*
X165774769Y-89165560D01*
X165334770Y-89165560D01*
X165176020Y-89324310D01*
X165176020Y-90273000D01*
X165196020Y-90273000D01*
X165196020Y-90527000D01*
X165176020Y-90527000D01*
X165176020Y-90894310D01*
X165166020Y-90904310D01*
X165166020Y-91853000D01*
X165186020Y-91853000D01*
X165186020Y-92107000D01*
X165166020Y-92107000D01*
X165166020Y-93055690D01*
X165226020Y-93115690D01*
X165226020Y-93448000D01*
X166174710Y-93448000D01*
X166333460Y-93289250D01*
X166333460Y-93101869D01*
X166333460Y-93026807D01*
X175175000Y-93073886D01*
X175175000Y-95686390D01*
X175175000Y-95686390D01*
G37*
X175175000Y-95686390D02*
X174819947Y-95362312D01*
X174404026Y-95190042D01*
X174172000Y-95311183D01*
X174172000Y-96518000D01*
X174192000Y-96518000D01*
X174192000Y-96772000D01*
X174172000Y-96772000D01*
X174172000Y-96792000D01*
X173918000Y-96792000D01*
X173918000Y-96772000D01*
X173898000Y-96772000D01*
X173898000Y-96518000D01*
X173918000Y-96518000D01*
X173918000Y-95311183D01*
X173685974Y-95190042D01*
X173270053Y-95362312D01*
X172988700Y-95619119D01*
X172906927Y-95421702D01*
X172728299Y-95243073D01*
X172494910Y-95146400D01*
X172242291Y-95146400D01*
X170515091Y-95146400D01*
X170281702Y-95243073D01*
X170103073Y-95421701D01*
X170006400Y-95655090D01*
X170006400Y-95907709D01*
X170006400Y-96038000D01*
X168654519Y-96038000D01*
X168432286Y-95815378D01*
X168035668Y-95650687D01*
X167606216Y-95650313D01*
X167530587Y-95681562D01*
X167439199Y-95590173D01*
X167205810Y-95493500D01*
X166953191Y-95493500D01*
X166749451Y-95493500D01*
X166769313Y-95445668D01*
X166769687Y-95016216D01*
X166605689Y-94619311D01*
X166320035Y-94333158D01*
X166333460Y-94300750D01*
X166333460Y-94048131D01*
X166333460Y-93860750D01*
X166174710Y-93702000D01*
X165226020Y-93702000D01*
X165226020Y-93722000D01*
X164972020Y-93722000D01*
X164972020Y-93702000D01*
X164952020Y-93702000D01*
X164952020Y-93448000D01*
X164972020Y-93448000D01*
X164972020Y-92499310D01*
X164912020Y-92439310D01*
X164912020Y-92107000D01*
X164892020Y-92107000D01*
X164892020Y-91853000D01*
X164912020Y-91853000D01*
X164912020Y-91485690D01*
X164922020Y-91475690D01*
X164922020Y-90527000D01*
X164902020Y-90527000D01*
X164902020Y-90273000D01*
X164922020Y-90273000D01*
X164922020Y-89324310D01*
X164763270Y-89165560D01*
X164335000Y-89165560D01*
X164335000Y-87326309D01*
X164335000Y-86885750D01*
X164176250Y-86727000D01*
X163227000Y-86727000D01*
X163227000Y-87676250D01*
X163385750Y-87835000D01*
X163573691Y-87835000D01*
X163826310Y-87835000D01*
X164059699Y-87738327D01*
X164238327Y-87559698D01*
X164335000Y-87326309D01*
X164335000Y-89165560D01*
X164323271Y-89165560D01*
X164089882Y-89262233D01*
X163999999Y-89352114D01*
X163910119Y-89262233D01*
X163676730Y-89165560D01*
X163441224Y-89165560D01*
X163499313Y-89025668D01*
X163499687Y-88596216D01*
X163335689Y-88199311D01*
X163032286Y-87895378D01*
X162835560Y-87813689D01*
X162973000Y-87676250D01*
X162973000Y-86727000D01*
X162953000Y-86727000D01*
X162953000Y-86473000D01*
X162973000Y-86473000D01*
X162973000Y-86453000D01*
X163227000Y-86453000D01*
X163227000Y-86473000D01*
X164176250Y-86473000D01*
X164335000Y-86314250D01*
X164335000Y-85873691D01*
X164242344Y-85650000D01*
X164335000Y-85426310D01*
X164335000Y-85173691D01*
X164335000Y-84473691D01*
X164283765Y-84350000D01*
X164335000Y-84226310D01*
X164335000Y-83973691D01*
X164335000Y-83273691D01*
X164283765Y-83150000D01*
X164335000Y-83026310D01*
X164335000Y-82835750D01*
X164335000Y-82264250D01*
X164335000Y-82073690D01*
X164283765Y-81950000D01*
X164335000Y-81826310D01*
X164335000Y-81635750D01*
X164335000Y-81064250D01*
X164335000Y-80873690D01*
X164283765Y-80750000D01*
X164335000Y-80626310D01*
X164335000Y-80435750D01*
X164176250Y-80277000D01*
X163227000Y-80277000D01*
X163227000Y-80523750D01*
X163227000Y-80976250D01*
X163227000Y-81223000D01*
X164176250Y-81223000D01*
X164335000Y-81064250D01*
X164335000Y-81635750D01*
X164176250Y-81477000D01*
X163227000Y-81477000D01*
X163227000Y-81723750D01*
X163227000Y-82176250D01*
X163227000Y-82423000D01*
X164176250Y-82423000D01*
X164335000Y-82264250D01*
X164335000Y-82835750D01*
X164176250Y-82677000D01*
X163227000Y-82677000D01*
X163227000Y-82697000D01*
X162973000Y-82697000D01*
X162973000Y-82677000D01*
X162973000Y-82423000D01*
X162973000Y-82176250D01*
X162973000Y-81723750D01*
X162973000Y-81477000D01*
X162973000Y-81223000D01*
X162973000Y-80976250D01*
X162973000Y-80523750D01*
X162973000Y-80277000D01*
X162973000Y-80023000D01*
X162973000Y-79776250D01*
X162973000Y-79323750D01*
X162973000Y-79077000D01*
X162023750Y-79077000D01*
X161865000Y-79235750D01*
X161865000Y-79426310D01*
X161916234Y-79550000D01*
X161865000Y-79673690D01*
X161865000Y-79864250D01*
X162023750Y-80023000D01*
X162973000Y-80023000D01*
X162973000Y-80277000D01*
X162023750Y-80277000D01*
X161865000Y-80435750D01*
X161865000Y-80626310D01*
X161916234Y-80750000D01*
X161865000Y-80873690D01*
X161865000Y-81064250D01*
X162023750Y-81223000D01*
X162973000Y-81223000D01*
X162973000Y-81477000D01*
X162023750Y-81477000D01*
X161865000Y-81635750D01*
X161865000Y-81826310D01*
X161916234Y-81950000D01*
X161865000Y-82073690D01*
X161865000Y-82264250D01*
X162023750Y-82423000D01*
X162973000Y-82423000D01*
X162973000Y-82677000D01*
X162023750Y-82677000D01*
X161865000Y-82835750D01*
X161865000Y-83026310D01*
X161916234Y-83150000D01*
X161865000Y-83273690D01*
X161865000Y-83526309D01*
X161865000Y-84226309D01*
X161916234Y-84349999D01*
X161865000Y-84473690D01*
X161865000Y-84726309D01*
X161865000Y-85422447D01*
X161726310Y-85365000D01*
X161473691Y-85365000D01*
X161035000Y-85365000D01*
X161035000Y-84226309D01*
X161035000Y-83185750D01*
X161035000Y-82614250D01*
X161035000Y-81573691D01*
X161035000Y-79926309D01*
X161035000Y-78885750D01*
X161035000Y-78314250D01*
X161035000Y-77273691D01*
X160938327Y-77040302D01*
X160759699Y-76861673D01*
X160526310Y-76765000D01*
X160273691Y-76765000D01*
X159735750Y-76765000D01*
X159577000Y-76923750D01*
X159577000Y-78473000D01*
X160876250Y-78473000D01*
X161035000Y-78314250D01*
X161035000Y-78885750D01*
X160876250Y-78727000D01*
X159577000Y-78727000D01*
X159577000Y-80276250D01*
X159735750Y-80435000D01*
X160273691Y-80435000D01*
X160526310Y-80435000D01*
X160759699Y-80338327D01*
X160938327Y-80159698D01*
X161035000Y-79926309D01*
X161035000Y-81573691D01*
X160938327Y-81340302D01*
X160759699Y-81161673D01*
X160526310Y-81065000D01*
X160273691Y-81065000D01*
X159735750Y-81065000D01*
X159577000Y-81223750D01*
X159577000Y-82773000D01*
X160876250Y-82773000D01*
X161035000Y-82614250D01*
X161035000Y-83185750D01*
X160876250Y-83027000D01*
X159577000Y-83027000D01*
X159577000Y-84576250D01*
X159735750Y-84735000D01*
X160273691Y-84735000D01*
X160526310Y-84735000D01*
X160759699Y-84638327D01*
X160938327Y-84459698D01*
X161035000Y-84226309D01*
X161035000Y-85365000D01*
X160773691Y-85365000D01*
X160650000Y-85416234D01*
X160526310Y-85365000D01*
X160273691Y-85365000D01*
X159573691Y-85365000D01*
X159450000Y-85416234D01*
X159326310Y-85365000D01*
X159323000Y-85365000D01*
X159323000Y-84576250D01*
X159323000Y-83027000D01*
X159323000Y-82773000D01*
X159323000Y-81223750D01*
X159323000Y-80276250D01*
X159323000Y-78727000D01*
X159323000Y-78473000D01*
X159323000Y-76923750D01*
X159164250Y-76765000D01*
X158626309Y-76765000D01*
X158373690Y-76765000D01*
X158140301Y-76861673D01*
X157961673Y-77040302D01*
X157865000Y-77273691D01*
X157865000Y-78314250D01*
X158023750Y-78473000D01*
X159323000Y-78473000D01*
X159323000Y-78727000D01*
X158023750Y-78727000D01*
X157865000Y-78885750D01*
X157865000Y-79926309D01*
X157961673Y-80159698D01*
X158140301Y-80338327D01*
X158373690Y-80435000D01*
X158626309Y-80435000D01*
X159164250Y-80435000D01*
X159323000Y-80276250D01*
X159323000Y-81223750D01*
X159164250Y-81065000D01*
X158626309Y-81065000D01*
X158373690Y-81065000D01*
X158140301Y-81161673D01*
X157961673Y-81340302D01*
X157865000Y-81573691D01*
X157865000Y-82614250D01*
X158023750Y-82773000D01*
X159323000Y-82773000D01*
X159323000Y-83027000D01*
X158023750Y-83027000D01*
X157865000Y-83185750D01*
X157865000Y-84226309D01*
X157961673Y-84459698D01*
X158140301Y-84638327D01*
X158373690Y-84735000D01*
X158626309Y-84735000D01*
X159164250Y-84735000D01*
X159323000Y-84576250D01*
X159323000Y-85365000D01*
X159073691Y-85365000D01*
X158373691Y-85365000D01*
X158250000Y-85416234D01*
X158126310Y-85365000D01*
X157935750Y-85365000D01*
X157777000Y-85523750D01*
X157777000Y-86473000D01*
X157797000Y-86473000D01*
X157797000Y-86727000D01*
X157777000Y-86727000D01*
X157777000Y-87676250D01*
X157790926Y-87690176D01*
X157720687Y-87859332D01*
X157720453Y-88128000D01*
X156850000Y-88128000D01*
X156558396Y-88186003D01*
X156311185Y-88351184D01*
X155901185Y-88761185D01*
X155736004Y-89008395D01*
X155734619Y-89015354D01*
X155647673Y-89102301D01*
X155551000Y-89335690D01*
X155551000Y-89588309D01*
X155551000Y-89944309D01*
X155632057Y-90140000D01*
X155551000Y-90335691D01*
X155551000Y-90392250D01*
X155671748Y-90512998D01*
X155551000Y-90512998D01*
X155551000Y-90540613D01*
X155206216Y-90540313D01*
X154809311Y-90704311D01*
X154505378Y-91007714D01*
X154340687Y-91404332D01*
X154340313Y-91833784D01*
X154504311Y-92230689D01*
X154807714Y-92534622D01*
X154844055Y-92549712D01*
X154639311Y-92634311D01*
X154335378Y-92937714D01*
X154170687Y-93334332D01*
X154170313Y-93763784D01*
X154334311Y-94160689D01*
X154637714Y-94464622D01*
X155034332Y-94629313D01*
X155463784Y-94629687D01*
X155575000Y-94583733D01*
X155575000Y-94607002D01*
X155652342Y-94607002D01*
X155601185Y-94641184D01*
X154770697Y-95471672D01*
X154681199Y-95382173D01*
X154447810Y-95285500D01*
X154195191Y-95285500D01*
X153257082Y-95285500D01*
X153165689Y-95064311D01*
X152862286Y-94760378D01*
X152465668Y-94595687D01*
X152036216Y-94595313D01*
X151639311Y-94759311D01*
X151335378Y-95062714D01*
X151170687Y-95459332D01*
X151170313Y-95888784D01*
X151334311Y-96285689D01*
X151637714Y-96589622D01*
X152034332Y-96754313D01*
X152251871Y-96754502D01*
X152274184Y-96776815D01*
X152274185Y-96776815D01*
X152521395Y-96941996D01*
X152703116Y-96978142D01*
X152703117Y-96978142D01*
X152724974Y-96999999D01*
X152640173Y-97084801D01*
X152543500Y-97318190D01*
X152543500Y-97570809D01*
X152543500Y-98205809D01*
X152640173Y-98439198D01*
X152818801Y-98617827D01*
X153052190Y-98714500D01*
X153304809Y-98714500D01*
X153624869Y-98714500D01*
X153698748Y-98788379D01*
X153166970Y-99320157D01*
X153112286Y-99265378D01*
X152715668Y-99100687D01*
X152286216Y-99100313D01*
X151889311Y-99264311D01*
X151870362Y-99283226D01*
X151137000Y-98549864D01*
X151137000Y-93840630D01*
X151425252Y-93552377D01*
X151644974Y-93699191D01*
X152315665Y-93832600D01*
X152384335Y-93832600D01*
X153055026Y-93699191D01*
X153623610Y-93319275D01*
X154003526Y-92750691D01*
X154136935Y-92080000D01*
X154003526Y-91409309D01*
X153623610Y-90840725D01*
X153055026Y-90460809D01*
X152384335Y-90327400D01*
X152315665Y-90327400D01*
X152054409Y-90379366D01*
X152054490Y-90287000D01*
X152625000Y-90287000D01*
X152625000Y-90286999D01*
X152916604Y-90228996D01*
X152916605Y-90228996D01*
X153163815Y-90063815D01*
X154415630Y-88812000D01*
X154800000Y-88812000D01*
X154800000Y-88811999D01*
X155091604Y-88753996D01*
X155091605Y-88753996D01*
X155338815Y-88588815D01*
X155788815Y-88138815D01*
X155953996Y-87891605D01*
X155965897Y-87831772D01*
X155973690Y-87835000D01*
X156226309Y-87835000D01*
X156926309Y-87835000D01*
X157049999Y-87783765D01*
X157173690Y-87835000D01*
X157364250Y-87835000D01*
X157523000Y-87676250D01*
X157523000Y-86727000D01*
X157503000Y-86727000D01*
X157503000Y-86473000D01*
X157523000Y-86473000D01*
X157523000Y-85523750D01*
X157435000Y-85435750D01*
X157435000Y-84226309D01*
X157435000Y-83185750D01*
X157435000Y-82614250D01*
X157435000Y-81573691D01*
X157435000Y-79926309D01*
X157435000Y-78885750D01*
X157435000Y-78314250D01*
X157435000Y-77273691D01*
X157338327Y-77040302D01*
X157159699Y-76861673D01*
X156926310Y-76765000D01*
X156673691Y-76765000D01*
X156135750Y-76765000D01*
X155977000Y-76923750D01*
X155977000Y-78473000D01*
X157276250Y-78473000D01*
X157435000Y-78314250D01*
X157435000Y-78885750D01*
X157276250Y-78727000D01*
X155977000Y-78727000D01*
X155977000Y-80276250D01*
X156135750Y-80435000D01*
X156673691Y-80435000D01*
X156926310Y-80435000D01*
X157159699Y-80338327D01*
X157338327Y-80159698D01*
X157435000Y-79926309D01*
X157435000Y-81573691D01*
X157338327Y-81340302D01*
X157159699Y-81161673D01*
X156926310Y-81065000D01*
X156673691Y-81065000D01*
X156135750Y-81065000D01*
X155977000Y-81223750D01*
X155977000Y-82773000D01*
X157276250Y-82773000D01*
X157435000Y-82614250D01*
X157435000Y-83185750D01*
X157276250Y-83027000D01*
X155977000Y-83027000D01*
X155977000Y-84576250D01*
X156135750Y-84735000D01*
X156673691Y-84735000D01*
X156926310Y-84735000D01*
X157159699Y-84638327D01*
X157338327Y-84459698D01*
X157435000Y-84226309D01*
X157435000Y-85435750D01*
X157364250Y-85365000D01*
X157173690Y-85365000D01*
X157050000Y-85416234D01*
X156926310Y-85365000D01*
X156673691Y-85365000D01*
X155973691Y-85365000D01*
X155850000Y-85416234D01*
X155726310Y-85365000D01*
X155723000Y-85365000D01*
X155723000Y-84576250D01*
X155723000Y-83027000D01*
X155723000Y-82773000D01*
X155723000Y-81223750D01*
X155723000Y-80276250D01*
X155723000Y-78727000D01*
X155723000Y-78473000D01*
X155723000Y-76923750D01*
X155564250Y-76765000D01*
X155026309Y-76765000D01*
X154773690Y-76765000D01*
X154540301Y-76861673D01*
X154361673Y-77040302D01*
X154265000Y-77273691D01*
X154265000Y-78314250D01*
X154423750Y-78473000D01*
X155723000Y-78473000D01*
X155723000Y-78727000D01*
X154423750Y-78727000D01*
X154265000Y-78885750D01*
X154265000Y-79926309D01*
X154361673Y-80159698D01*
X154540301Y-80338327D01*
X154773690Y-80435000D01*
X155026309Y-80435000D01*
X155564250Y-80435000D01*
X155723000Y-80276250D01*
X155723000Y-81223750D01*
X155564250Y-81065000D01*
X155026309Y-81065000D01*
X154773690Y-81065000D01*
X154540301Y-81161673D01*
X154361673Y-81340302D01*
X154265000Y-81573691D01*
X154265000Y-82614250D01*
X154423750Y-82773000D01*
X155723000Y-82773000D01*
X155723000Y-83027000D01*
X154423750Y-83027000D01*
X154265000Y-83185750D01*
X154265000Y-84226309D01*
X154361673Y-84459698D01*
X154540301Y-84638327D01*
X154773690Y-84735000D01*
X155026309Y-84735000D01*
X155564250Y-84735000D01*
X155723000Y-84576250D01*
X155723000Y-85365000D01*
X155473691Y-85365000D01*
X154773691Y-85365000D01*
X154650000Y-85416234D01*
X154526310Y-85365000D01*
X154335750Y-85365000D01*
X154177000Y-85523750D01*
X154177000Y-86473000D01*
X154197000Y-86473000D01*
X154197000Y-86727000D01*
X154177000Y-86727000D01*
X154177000Y-86747000D01*
X153923000Y-86747000D01*
X153923000Y-86727000D01*
X153923000Y-86473000D01*
X153923000Y-85523750D01*
X153835000Y-85435750D01*
X153835000Y-84226309D01*
X153835000Y-83185750D01*
X153835000Y-82614250D01*
X153835000Y-81573691D01*
X153835000Y-79926309D01*
X153835000Y-78885750D01*
X153835000Y-78314250D01*
X153835000Y-77273691D01*
X153738327Y-77040302D01*
X153559699Y-76861673D01*
X153326310Y-76765000D01*
X153073691Y-76765000D01*
X152535750Y-76765000D01*
X152377000Y-76923750D01*
X152377000Y-78473000D01*
X153676250Y-78473000D01*
X153835000Y-78314250D01*
X153835000Y-78885750D01*
X153676250Y-78727000D01*
X152377000Y-78727000D01*
X152377000Y-80276250D01*
X152535750Y-80435000D01*
X153073691Y-80435000D01*
X153326310Y-80435000D01*
X153559699Y-80338327D01*
X153738327Y-80159698D01*
X153835000Y-79926309D01*
X153835000Y-81573691D01*
X153738327Y-81340302D01*
X153559699Y-81161673D01*
X153326310Y-81065000D01*
X153073691Y-81065000D01*
X152535750Y-81065000D01*
X152377000Y-81223750D01*
X152377000Y-82773000D01*
X153676250Y-82773000D01*
X153835000Y-82614250D01*
X153835000Y-83185750D01*
X153676250Y-83027000D01*
X152377000Y-83027000D01*
X152377000Y-84576250D01*
X152535750Y-84735000D01*
X153073691Y-84735000D01*
X153326310Y-84735000D01*
X153559699Y-84638327D01*
X153738327Y-84459698D01*
X153835000Y-84226309D01*
X153835000Y-85435750D01*
X153764250Y-85365000D01*
X153573690Y-85365000D01*
X153450000Y-85416234D01*
X153326310Y-85365000D01*
X153135750Y-85365000D01*
X152977000Y-85523750D01*
X152977000Y-86473000D01*
X153223750Y-86473000D01*
X153676250Y-86473000D01*
X153923000Y-86473000D01*
X153923000Y-86727000D01*
X153676250Y-86727000D01*
X153223750Y-86727000D01*
X152977000Y-86727000D01*
X152977000Y-87676250D01*
X153135750Y-87835000D01*
X153237370Y-87835000D01*
X152309370Y-88763000D01*
X152166750Y-88763000D01*
X152055750Y-88652000D01*
X151389000Y-88652000D01*
X151389000Y-88672000D01*
X151135000Y-88672000D01*
X151135000Y-88652000D01*
X151115000Y-88652000D01*
X151115000Y-88398000D01*
X151135000Y-88398000D01*
X151135000Y-88378000D01*
X151389000Y-88378000D01*
X151389000Y-88398000D01*
X152055750Y-88398000D01*
X152214500Y-88239250D01*
X152214500Y-88079809D01*
X152214500Y-87827190D01*
X152204346Y-87802676D01*
X152250000Y-87783765D01*
X152373690Y-87835000D01*
X152564250Y-87835000D01*
X152723000Y-87676250D01*
X152723000Y-86727000D01*
X152723000Y-86473000D01*
X152723000Y-85523750D01*
X152564250Y-85365000D01*
X152373690Y-85365000D01*
X152250000Y-85416234D01*
X152126310Y-85365000D01*
X152123000Y-85365000D01*
X152123000Y-84576250D01*
X152123000Y-83027000D01*
X152123000Y-82773000D01*
X152123000Y-81223750D01*
X152123000Y-80276250D01*
X152123000Y-78727000D01*
X152123000Y-78473000D01*
X152123000Y-76923750D01*
X151964250Y-76765000D01*
X151523000Y-76765000D01*
X151523000Y-75976250D01*
X151523000Y-75027000D01*
X151276250Y-75027000D01*
X150823750Y-75027000D01*
X150577000Y-75027000D01*
X150577000Y-75976250D01*
X150735750Y-76135000D01*
X150926310Y-76135000D01*
X151050000Y-76083765D01*
X151173690Y-76135000D01*
X151364250Y-76135000D01*
X151523000Y-75976250D01*
X151523000Y-76765000D01*
X151426309Y-76765000D01*
X151173690Y-76765000D01*
X150940301Y-76861673D01*
X150761673Y-77040302D01*
X150665000Y-77273691D01*
X150665000Y-78314250D01*
X150823750Y-78473000D01*
X152123000Y-78473000D01*
X152123000Y-78727000D01*
X150823750Y-78727000D01*
X150665000Y-78885750D01*
X150665000Y-79926309D01*
X150761673Y-80159698D01*
X150940301Y-80338327D01*
X151173690Y-80435000D01*
X151426309Y-80435000D01*
X151964250Y-80435000D01*
X152123000Y-80276250D01*
X152123000Y-81223750D01*
X151964250Y-81065000D01*
X151426309Y-81065000D01*
X151173690Y-81065000D01*
X150940301Y-81161673D01*
X150761673Y-81340302D01*
X150665000Y-81573691D01*
X150665000Y-82614250D01*
X150823750Y-82773000D01*
X152123000Y-82773000D01*
X152123000Y-83027000D01*
X150823750Y-83027000D01*
X150665000Y-83185750D01*
X150665000Y-84226309D01*
X150761673Y-84459698D01*
X150940301Y-84638327D01*
X151173690Y-84735000D01*
X151426309Y-84735000D01*
X151964250Y-84735000D01*
X152123000Y-84576250D01*
X152123000Y-85365000D01*
X151935750Y-85365000D01*
X151777000Y-85523750D01*
X151777000Y-86473000D01*
X152023750Y-86473000D01*
X152476250Y-86473000D01*
X152723000Y-86473000D01*
X152723000Y-86727000D01*
X152476250Y-86727000D01*
X152023750Y-86727000D01*
X151777000Y-86727000D01*
X151777000Y-86747000D01*
X151523000Y-86747000D01*
X151523000Y-86727000D01*
X151503000Y-86727000D01*
X151503000Y-86473000D01*
X151523000Y-86473000D01*
X151523000Y-85523750D01*
X151364250Y-85365000D01*
X151173690Y-85365000D01*
X151050000Y-85416234D01*
X150926310Y-85365000D01*
X150673691Y-85365000D01*
X150323000Y-85365000D01*
X150323000Y-75976250D01*
X150323000Y-75027000D01*
X149676250Y-75027000D01*
X149623750Y-75027000D01*
X148727000Y-75027000D01*
X148727000Y-75723750D01*
X148727000Y-75976250D01*
X148727000Y-76423000D01*
X149676250Y-76423000D01*
X149835000Y-76264250D01*
X149835000Y-76077552D01*
X149973690Y-76135000D01*
X150164250Y-76135000D01*
X150323000Y-75976250D01*
X150323000Y-85365000D01*
X149973691Y-85365000D01*
X149835000Y-85422447D01*
X149835000Y-85235750D01*
X149676250Y-85077000D01*
X148727000Y-85077000D01*
X148727000Y-85523750D01*
X148727000Y-85776250D01*
X148727000Y-86473000D01*
X148747000Y-86473000D01*
X148747000Y-86727000D01*
X148727000Y-86727000D01*
X148727000Y-86747000D01*
X148473000Y-86747000D01*
X148473000Y-86727000D01*
X147659750Y-86727000D01*
X147647750Y-86715000D01*
X146727000Y-86715000D01*
X146727000Y-86735000D01*
X146473000Y-86735000D01*
X146473000Y-86715000D01*
X146453000Y-86715000D01*
X146453000Y-86461000D01*
X146473000Y-86461000D01*
X146473000Y-86441000D01*
X146727000Y-86441000D01*
X146727000Y-86461000D01*
X147511750Y-86461000D01*
X147523750Y-86473000D01*
X148473000Y-86473000D01*
X148473000Y-85776250D01*
X148473000Y-85523750D01*
X148473000Y-85077000D01*
X148453000Y-85077000D01*
X148453000Y-84823000D01*
X148473000Y-84823000D01*
X148473000Y-84803000D01*
X148727000Y-84803000D01*
X148727000Y-84823000D01*
X149676250Y-84823000D01*
X149835000Y-84664250D01*
X149835000Y-84473690D01*
X149783765Y-84350000D01*
X149835000Y-84226310D01*
X149835000Y-83973691D01*
X149835000Y-83273691D01*
X149783765Y-83150000D01*
X149835000Y-83026310D01*
X149835000Y-82835750D01*
X149676250Y-82677000D01*
X148727000Y-82677000D01*
X148727000Y-82697000D01*
X148473000Y-82697000D01*
X148473000Y-82677000D01*
X147523750Y-82677000D01*
X147365000Y-82835750D01*
X147365000Y-82911933D01*
X147265668Y-82870687D01*
X146836216Y-82870313D01*
X146439311Y-83034311D01*
X146415000Y-83058579D01*
X146415000Y-82894864D01*
X146415000Y-82894863D01*
X146528815Y-82818815D01*
X146748815Y-82598815D01*
X146913996Y-82351605D01*
X146913996Y-82351604D01*
X146970347Y-82068308D01*
X147190000Y-82112000D01*
X147365000Y-82112000D01*
X147365000Y-82264250D01*
X147523750Y-82423000D01*
X148473000Y-82423000D01*
X148473000Y-82403000D01*
X148727000Y-82403000D01*
X148727000Y-82423000D01*
X149676250Y-82423000D01*
X149835000Y-82264250D01*
X149835000Y-82073690D01*
X149783765Y-81950000D01*
X149835000Y-81826310D01*
X149835000Y-81573691D01*
X149835000Y-80873691D01*
X149783765Y-80750000D01*
X149835000Y-80626310D01*
X149835000Y-80373691D01*
X149835000Y-79673691D01*
X149783765Y-79550000D01*
X149835000Y-79426310D01*
X149835000Y-79173691D01*
X149835000Y-78473691D01*
X149783765Y-78350000D01*
X149835000Y-78226310D01*
X149835000Y-77973691D01*
X149835000Y-77273691D01*
X149783765Y-77150000D01*
X149835000Y-77026310D01*
X149835000Y-76835750D01*
X149676250Y-76677000D01*
X148727000Y-76677000D01*
X148727000Y-76697000D01*
X148473000Y-76697000D01*
X148473000Y-76677000D01*
X148473000Y-76423000D01*
X148473000Y-75976250D01*
X148473000Y-75723750D01*
X148473000Y-75027000D01*
X147523750Y-75027000D01*
X147365000Y-75185750D01*
X147365000Y-75626309D01*
X147457655Y-75849999D01*
X147365000Y-76073690D01*
X147365000Y-76264250D01*
X147523750Y-76423000D01*
X148473000Y-76423000D01*
X148473000Y-76677000D01*
X147523750Y-76677000D01*
X147365000Y-76835750D01*
X147365000Y-76988000D01*
X147145630Y-76988000D01*
X147108815Y-76951185D01*
X147017637Y-76890262D01*
X146933295Y-76820179D01*
X146894967Y-76808296D01*
X146861604Y-76786004D01*
X146754054Y-76764611D01*
X146649311Y-76732139D01*
X145699203Y-76632709D01*
X145462286Y-76395378D01*
X145065668Y-76230687D01*
X145057250Y-76230679D01*
X145193298Y-76174327D01*
X145371927Y-75995699D01*
X145468600Y-75762310D01*
X145468600Y-75509691D01*
X145468600Y-73695000D01*
X147801263Y-73695000D01*
X147640301Y-73761673D01*
X147461673Y-73940302D01*
X147365000Y-74173691D01*
X147365000Y-74614250D01*
X147523750Y-74773000D01*
X148473000Y-74773000D01*
X148473000Y-74753000D01*
X148727000Y-74753000D01*
X148727000Y-74773000D01*
X149623750Y-74773000D01*
X149676250Y-74773000D01*
X150323000Y-74773000D01*
X150323000Y-74753000D01*
X150577000Y-74753000D01*
X150577000Y-74773000D01*
X150823750Y-74773000D01*
X151276250Y-74773000D01*
X151523000Y-74773000D01*
X151523000Y-74753000D01*
X151777000Y-74753000D01*
X151777000Y-74773000D01*
X151797000Y-74773000D01*
X151797000Y-75027000D01*
X151777000Y-75027000D01*
X151777000Y-75976250D01*
X151935750Y-76135000D01*
X152126310Y-76135000D01*
X152250000Y-76083765D01*
X152373690Y-76135000D01*
X152626309Y-76135000D01*
X153326309Y-76135000D01*
X153449999Y-76083765D01*
X153573690Y-76135000D01*
X153826309Y-76135000D01*
X154526309Y-76135000D01*
X154649999Y-76083765D01*
X154773690Y-76135000D01*
X155026309Y-76135000D01*
X155726309Y-76135000D01*
X155849999Y-76083765D01*
X155973690Y-76135000D01*
X156226309Y-76135000D01*
X156926309Y-76135000D01*
X157049999Y-76083765D01*
X157173690Y-76135000D01*
X157426309Y-76135000D01*
X158126309Y-76135000D01*
X158249999Y-76083765D01*
X158373690Y-76135000D01*
X158626309Y-76135000D01*
X159326309Y-76135000D01*
X159449999Y-76083765D01*
X159573690Y-76135000D01*
X159826309Y-76135000D01*
X160526309Y-76135000D01*
X160649999Y-76083765D01*
X160773690Y-76135000D01*
X160964250Y-76135000D01*
X161123000Y-75976250D01*
X161123000Y-75027000D01*
X161103000Y-75027000D01*
X161103000Y-74773000D01*
X161123000Y-74773000D01*
X161123000Y-74753000D01*
X161377000Y-74753000D01*
X161377000Y-74773000D01*
X162023750Y-74773000D01*
X162076250Y-74773000D01*
X162973000Y-74773000D01*
X162973000Y-74753000D01*
X163227000Y-74753000D01*
X163227000Y-74773000D01*
X164176250Y-74773000D01*
X164335000Y-74614250D01*
X164335000Y-74173691D01*
X164238327Y-73940302D01*
X164059699Y-73761673D01*
X163898736Y-73695000D01*
X166340945Y-73695000D01*
X166327910Y-76012787D01*
X166204941Y-76063723D01*
X166085198Y-76183466D01*
X166015858Y-76229798D01*
X165845003Y-76485500D01*
X164752191Y-76485500D01*
X164518802Y-76582173D01*
X164405848Y-76695125D01*
X164335000Y-76709217D01*
X164335000Y-76264250D01*
X164335000Y-76073690D01*
X164242344Y-75849999D01*
X164335000Y-75626309D01*
X164335000Y-75185750D01*
X164176250Y-75027000D01*
X163227000Y-75027000D01*
X163227000Y-75723750D01*
X163227000Y-75976250D01*
X163227000Y-76423000D01*
X164176250Y-76423000D01*
X164335000Y-76264250D01*
X164335000Y-76709217D01*
X164229461Y-76730211D01*
X164176250Y-76677000D01*
X163227000Y-76677000D01*
X163227000Y-76697000D01*
X162973000Y-76697000D01*
X162973000Y-76677000D01*
X162973000Y-76423000D01*
X162973000Y-75976250D01*
X162973000Y-75723750D01*
X162973000Y-75027000D01*
X162076250Y-75027000D01*
X162023750Y-75027000D01*
X161377000Y-75027000D01*
X161377000Y-75976250D01*
X161535750Y-76135000D01*
X161726310Y-76135000D01*
X161865000Y-76077552D01*
X161865000Y-76264250D01*
X162023750Y-76423000D01*
X162973000Y-76423000D01*
X162973000Y-76677000D01*
X162023750Y-76677000D01*
X161865000Y-76835750D01*
X161865000Y-77026310D01*
X161916234Y-77150000D01*
X161865000Y-77273690D01*
X161865000Y-77526309D01*
X161865000Y-78226309D01*
X161916234Y-78349999D01*
X161865000Y-78473690D01*
X161865000Y-78664250D01*
X162023750Y-78823000D01*
X162973000Y-78823000D01*
X162973000Y-78803000D01*
X163227000Y-78803000D01*
X163227000Y-78823000D01*
X163247000Y-78823000D01*
X163247000Y-79077000D01*
X163227000Y-79077000D01*
X163227000Y-79323750D01*
X163227000Y-79776250D01*
X163227000Y-80023000D01*
X164176250Y-80023000D01*
X164335000Y-79864250D01*
X164335000Y-79673690D01*
X164283765Y-79550000D01*
X164293495Y-79526509D01*
X164340173Y-79639198D01*
X164518801Y-79817827D01*
X164752190Y-79914500D01*
X165004809Y-79914500D01*
X165987912Y-79914500D01*
X166026313Y-80007208D01*
X166204941Y-80185837D01*
X166304211Y-80226956D01*
X166251516Y-89597131D01*
X166186787Y-89440861D01*
X166008158Y-89262233D01*
X165774769Y-89165560D01*
X165334770Y-89165560D01*
X165176020Y-89324310D01*
X165176020Y-90273000D01*
X165196020Y-90273000D01*
X165196020Y-90527000D01*
X165176020Y-90527000D01*
X165176020Y-90894310D01*
X165166020Y-90904310D01*
X165166020Y-91853000D01*
X165186020Y-91853000D01*
X165186020Y-92107000D01*
X165166020Y-92107000D01*
X165166020Y-93055690D01*
X165226020Y-93115690D01*
X165226020Y-93448000D01*
X166174710Y-93448000D01*
X166333460Y-93289250D01*
X166333460Y-93101869D01*
X166333460Y-93026807D01*
X175175000Y-93073886D01*
X175175000Y-95686390D01*
M02*
